/* XPM */
static const char * smileC[] = {
"21 21 312 2",
"  	c None",
". 	c #CBC4A1",
"+ 	c #CAC07D",
"@ 	c #CBBE6D",
"# 	c #CBBD6D",
"$ 	c #CABE7D",
"% 	c #CCC4A2",
"& 	c #CAC173",
"* 	c #D3C124",
"= 	c #DDC712",
"- 	c #E1CA15",
"; 	c #E3CA15",
"> 	c #E2C515",
", 	c #DDC118",
"' 	c #D7BA15",
") 	c #CDB329",
"! 	c #CABA77",
"~ 	c #DAD3A6",
"{ 	c #D3C52C",
"] 	c #E3D00F",
"^ 	c #ECD612",
"/ 	c #F2DA12",
"( 	c #F4DB18",
"_ 	c #F5DA18",
": 	c #F4D518",
"< 	c #F0D21A",
"[ 	c #EBCA18",
"} 	c #E3C21A",
"| 	c #D8B718",
"1 	c #CAAE35",
"2 	c #CEC6A9",
"3 	c #CBC69F",
"4 	c #D8CB17",
"5 	c #EEE03C",
"6 	c #F8EC6B",
"7 	c #FCEC57",
"8 	c #FEE518",
"9 	c #FFE71A",
"0 	c #FFE51A",
"a 	c #FFE11A",
"b 	c #FDE345",
"c 	c #FAE570",
"d 	c #F5DC5B",
"e 	c #E7C51D",
"f 	c #DDB91D",
"g 	c #CDAC24",
"h 	c #CDC3A2",
"i 	c #D8CC1C",
"j 	c #F3E965",
"k 	c #D0CDA4",
"l 	c #6B6853",
"m 	c #6B6953",
"n 	c #C9C47C",
"o 	c #FEEE1C",
"p 	c #FFED1A",
"q 	c #D2C558",
"r 	c #6B6854",
"s 	c #6B6754",
"t 	c #D1C9A6",
"u 	c #F0E199",
"v 	c #E8C31E",
"w 	c #DCB71D",
"x 	c #CAA929",
"y 	c #D0C847",
"z 	c #EADD17",
"A 	c #F9F5BD",
"B 	c #4A483A",
"C 	c #3B3A2E",
"D 	c #434334",
"E 	c #E9E344",
"F 	c #FBEF21",
"G 	c #4A4838",
"H 	c #3B392E",
"I 	c #A4A3A1",
"J 	c #4A473A",
"K 	c #E5DCB2",
"L 	c #E4C74A",
"M 	c #E6BF1D",
"N 	c #D6B01D",
"O 	c #C8AE54",
"P 	c #CDC8A5",
"Q 	c #E0D407",
"R 	c #F3E725",
"S 	c #EBE7B7",
"T 	c #A4A4A1",
"U 	c #37372B",
"V 	c #323125",
"W 	c #CDCA47",
"X 	c #E9E32D",
"Y 	c #37352B",
"Z 	c #C7BF98",
"` 	c #DBC14F",
" .	c #EDC51F",
"..	c #DFB71D",
"+.	c #CDA61A",
"@.	c #CEC4A9",
"#.	c #CFC85F",
"$.	c #EBDF07",
"%.	c #FBED0F",
"&.	c #F3EFA3",
"*.	c #686851",
"=.	c #353528",
"-.	c #313124",
";.	c #53533C",
">.	c #EBEB34",
",.	c #FFFF2B",
"'.	c #69684A",
").	c #353429",
"!.	c #5C5945",
"~.	c #C0B88B",
"{.	c #EAC730",
"].	c #F2C91F",
"^.	c #E5BD1F",
"/.	c #D4AC1D",
"(.	c #C7B169",
"_.	c #D6CE2E",
":.	c #F1E407",
"<.	c #FFF10F",
"[.	c #F6F02B",
"}.	c #D6D586",
"|.	c #91916A",
"1.	c #87875A",
"2.	c #D3D343",
"3.	c #FFFF50",
"4.	c #FFFF67",
"5.	c #F2F265",
"6.	c #9E9D6C",
"7.	c #918F6C",
"8.	c #B8B27D",
"9.	c #D7C13E",
"0.	c #FFD621",
"a.	c #F6CC1F",
"b.	c #E9C01F",
"c.	c #D9B01D",
"d.	c #C6A73D",
"e.	c #DCD211",
"f.	c #F4E707",
"g.	c #FFF20F",
"h.	c #FFF912",
"i.	c #FFFF15",
"j.	c #F5F51D",
"k.	c #FCFC20",
"l.	c #FFFF47",
"m.	c #FFFF8E",
"n.	c #FFFFB8",
"o.	c #FFFF9D",
"p.	c #FFFF5A",
"q.	c #F5E930",
"r.	c #FCE620",
"s.	c #FFE01F",
"t.	c #FFD721",
"u.	c #F7CD1F",
"v.	c #EBC11F",
"w.	c #DBB21D",
"x.	c #C7A223",
"y.	c #DDD408",
"z.	c #3B3904",
"A.	c #FFFF21",
"B.	c #FFFF53",
"C.	c #FFFFA9",
"D.	c #FFFFDB",
"E.	c #FFFFB9",
"F.	c #FFFF69",
"G.	c #FFF42D",
"H.	c #FFE81F",
"I.	c #3B3307",
"J.	c #C8A01B",
"K.	c #DCD213",
"L.	c #F2E607",
"M.	c #3B3703",
"N.	c #FFFD15",
"O.	c #FFFF1D",
"P.	c #FFFF42",
"Q.	c #FFFF85",
"R.	c #FFFFAA",
"S.	c #FFFF90",
"T.	c #FFF127",
"U.	c #FFE71F",
"V.	c #3B3107",
"W.	c #DAB11D",
"X.	c #C6A224",
"Y.	c #D7CF30",
"Z.	c #EFE307",
"`.	c #FDEF0F",
" +	c #FFF612",
".+	c #3B3A04",
"++	c #3B3A05",
"@+	c #3B3B09",
"#+	c #3B3B10",
"$+	c #3B3B14",
"%+	c #3B3B11",
"&+	c #3B390B",
"*+	c #3B3607",
"=+	c #3B3407",
"-+	c #C0B88C",
";+	c #C0B68D",
">+	c #E6BD1F",
",+	c #D6AE1D",
"'+	c #C5A63F",
")+	c #D1CA63",
"!+	c #E9DD07",
"~+	c #F8E90F",
"{+	c #989763",
"]+	c #989765",
"^+	c #3B3909",
"/+	c #FBBE92",
"(+	c #FEEDBD",
"_+	c #FBBB91",
":+	c #FFD91D",
"<+	c #F8D01F",
"[+	c #EEC51F",
"}+	c #E1B91F",
"|+	c #D1A91D",
"1+	c #C6B16D",
"2+	c #D1CCAB",
"3+	c #DFD308",
"4+	c #F1E30F",
"5+	c #FDEB0F",
"6+	c #FFF112",
"7+	c #FFF412",
"8+	c #3B3804",
"9+	c #3B3805",
"0+	c #3B3806",
"a+	c #3B3706",
"b+	c #FBBC90",
"c+	c #FEECBC",
"d+	c #FBBA91",
"e+	c #3B3306",
"f+	c #FBD41D",
"g+	c #F2CB1F",
"h+	c #E8C01D",
"i+	c #DBB31D",
"j+	c #C9A31B",
"k+	c #CEC6AD",
"l+	c #D2CA4E",
"m+	c #E7D90F",
"n+	c #F4E30F",
"o+	c #FDEA12",
"p+	c #FFED12",
"q+	c #FFEF15",
"r+	c #FFEF1A",
"s+	c #3B3606",
"t+	c #FBBB90",
"u+	c #FEEABC",
"v+	c #FBB990",
"w+	c #3A3106",
"x+	c #F4CF1A",
"y+	c #EBC51F",
"z+	c #E0BA1D",
"A+	c #D2AC1D",
"B+	c #C6AE58",
"C+	c #D8CC21",
"D+	c #E9D90F",
"E+	c #F3E112",
"F+	c #F9E512",
"G+	c #FFE715",
"H+	c #FFE815",
"I+	c #FFE81A",
"J+	c #3B3406",
"K+	c #FBB890",
"L+	c #FAB790",
"M+	c #383006",
"N+	c #EBC71A",
"O+	c #E1BD1D",
"P+	c #D5B11A",
"Q+	c #C6A72D",
"R+	c #D1CBA7",
"S+	c #D8CA1B",
"T+	c #E6D40F",
"U+	c #EEDA12",
"V+	c #F4DD12",
"W+	c #F7DF15",
"X+	c #F8DF18",
"Y+	c #F8DD18",
"Z+	c #393105",
"`+	c #383106",
" @	c #372F06",
".@	c #E9C71A",
"+@	c #E0BD18",
"@@	c #D5B31A",
"#@	c #C8A826",
"$@	c #CEC5A9",
"%@	c #D1CCAE",
"&@	c #D4C534",
"*@	c #DECC0F",
"=@	c #E5D012",
"-@	c #EAD212",
";@	c #EBD318",
">@	c #ECD218",
",@	c #EBCD18",
"'@	c #E6C918",
")@	c #E1C318",
"!@	c #DBBB18",
"~@	c #D1B118",
"{@	c #C8AC3B",
"]@	c #CFC8B0",
"^@	c #CFC67F",
"/@	c #D2C12E",
"(@	c #D8C20F",
"_@	c #DBC415",
":@	c #DBC315",
"<@	c #DABF15",
"[@	c #D6BB15",
"}@	c #D0B415",
"|@	c #CAB233",
"1@	c #CBBD82",
"2@	c #D0CAAD",
"3@	c #CEC489",
"4@	c #CDC178",
"5@	c #CCBF78",
"6@	c #CCC189",
"7@	c #D0C9AE",
"              . + @ # $ %                 ",
"          & * = - ; > , ' ) !             ",
"      ~ { ] ^ / ( _ : < [ } | 1 2         ",
"    3 4 5 6 7 8 9 0 a b c d e f g h       ",
"    i j k l m n o p q r s t u v w x       ",
"  y z A B C C D E F G H I J K L M N O     ",
"P Q R S C T U V W X C C H Y Z `  ...+.@.  ",
"#.$.%.&.*.=.-.;.>.,.'.U ).!.~.{.].^./.(.  ",
"_.:.<.[.}.|.1.2.3.4.5.6.7.8.9.0.a.b.c.d.  ",
"e.f.g.h.i.j.k.l.m.n.o.p.q.r.s.t.u.v.w.x.  ",
"y.f.g.z.i.i.A.B.C.D.E.F.G.H.I.t.u.v.w.J.  ",
"K.L.M.z.N.i.O.P.Q.R.S.B.T.U.I.V.a.b.W.X.  ",
"Y.Z.`. +.+.+++@+#+$+%+&+*+=+-+;+].>+,+'+  ",
")+!+~+g. +z.{+{+]+^+/+(+_+=+:+<+[+}+|+1+  ",
"2+3+4+5+6+7+8+9+0+a+b+c+d+e+f+g+h+i+j+k+  ",
"  l+m+n+o+p+q+q+r+s+t+u+v+w+x+y+z+A+B+    ",
"    C+D+E+F+G+H+I+J+v+K+L+M+N+O+P+Q+      ",
"    R+S+T+U+V+W+X+Y+Z+`+ @.@+@@@#@$@      ",
"      %@&@*@=@-@;@>@,@'@)@!@~@{@]@        ",
"          ^@/@(@_@:@<@[@}@|@1@            ",
"              2@3@4@5@6@7@                "};
