/* XPM */
static const char *p_sort_increase[]={
"16 16 5 1",
"a c #000000",
"# c #0000ff",
"c c #585858",
"b c #ff0000",
". c None",
"....#.......a...",
"....#.......a...",
"...#.#......a...",
"...#.#......a...",
"..#####.....a...",
"..#...#.....a...",
"..#...#.....a...",
"............a...",
"..bbbbb.....a...",
"..b...b.....a...",
".....b....aaaaa.",
"....b.....caaac.",
"...b.......aaa..",
"..b...b....cac..",
"..bbbbb.....a...",
"................"};
