/* XPM */
static const char * chat[] = {
                                 "16 16 56 1",
                                 " 	c None",
                                 ".	c #69940D",
                                 "+	c #68930D",
                                 "@	c #67920D",
                                 "#	c #66900C",
                                 "$	c #658F0C",
                                 "%	c #648E0C",
                                 "&	c #638C0B",
                                 "*	c #628B0B",
                                 "=	c #69960D",
                                 "-	c #C7ED74",
                                 ";	c #C4EB6E",
                                 ">	c #C1E869",
                                 ",	c #BEE664",
                                 "'	c #BBE45F",
                                 ")	c #B8E25A",
                                 "!	c #B5E054",
                                 "~	c #B2DE4F",
                                 "{	c #60880B",
                                 "]	c #5F870A",
                                 "^	c #69950D",
                                 "/	c #CAEF79",
                                 "(	c #AFDB4A",
                                 "_	c #ACD945",
                                 ":	c #A9D740",
                                 "<	c #5C840A",
                                 "[	c #000000",
                                 "}	c #A6D53A",
                                 "|	c #A3D335",
                                 "1	c #5A8109",
                                 "2	c #68940D",
                                 "3	c #A0D130",
                                 "4	c #598009",
                                 "5	c #9DCF2B",
                                 "6	c #587E08",
                                 "7	c #66910C",
                                 "8	c #9ACC26",
                                 "9	c #577D08",
                                 "0	c #97CA20",
                                 "a	c #567C08",
                                 "b	c #638D0C",
                                 "c	c #567B08",
                                 "d	c #618A0B",
                                 "e	c #60890B",
                                 "f	c #5E860A",
                                 "g	c #5D840A",
                                 "h	c #5C8309",
                                 "i	c #5A8009",
                                 "j	c #577C08",
                                 "k	c #94C81B",
                                 "l	c #557A07",
                                 "m	c #557B08",
                                 "n	c #547907",
                                 "o	c #537807",
                                 "p	c #527707",
                                 "q	c #517606",
                                 "                ",
                                 "    .+@#$%&*    ",
                                 "  =.-;>,')!~{]  ",
                                 " ^/-;>,')!~(_:< ",
                                 "^/-[[[[)[[([[}|1",
                                 "2-;>,')!~(_:}|34",
                                 "@;>[[)[[[[:[[356",
                                 "7>,')!~(_:}|3589",
                                 "$,'[[[[[:[[[[80a",
                                 " b)!~(_:}|3580c ",
                                 "  de(_:}|3589c  ",
                                 "    fgh|3589    ",
                                 "       i58j     ",
                                 "        60kl    ",
                                 "         mnop   ",
                                 "           pq   "};
