/* XPM */
static const char *occupied[]={
"16 16 14 1",
"j c #013c01",
"l c #5a1513",
"f c #5c370a",
"k c #642324",
"# c #6b4016",
"a c #7e4d06",
"b c #7e5221",
"g c #d76753",
"h c #e1c4c3",
"i c #f2b5ab",
"c c #f6c5b5",
"d c #f9ef08",
"e c #fdd31e",
". c None",
"................",
"......#.........",
".....aba........",
".....aca........",
".....aca........",
".....ac#de......",
".....#b##f......",
"....#bgcc#......",
"....#chccbf##...",
"....#ccb#i#cf...",
"....#bcfiifcf...",
"....j#cbff#ck...",
".....#cccbc#f...",
".....fbcccckj...",
".....jkffkfl....",
"................"};
