/* XPM */
static const char *translit[]={
"16 16 3 1",
"a c #4f4fff",
"# c #ff6e3e",
". c None",
"................",
"................",
"..##.##.##......",
"..##.##.##......",
"..##.##.##......",
"....####........",
"..##.##.#a......",
"..##.##.#a......",
"..#aaaaa#a.aa...",
"......a..aa..a..",
".....a...a...a..",
"....a....a...a..",
"...a.....a...a..",
"..aaaaaa.a...a..",
"................",
"................"};
