/* XPM */
static const char *yahoo[]={
"16 16 41 1",
"z c #000000",
"F c #000080",
"p c #6a1800",
"K c #800000",
"i c #803c22",
"A c #808000",
"J c #808080",
"v c #902f0d",
"# c #913e1d",
"b c #993e1b",
"H c #a0a0a4",
"I c #a6caf0",
"w c #a82f09",
"q c #a9411d",
"G c #aa9faa",
"E c #aabfaa",
"e c #b86240",
"a c #b94d23",
"g c #b9552e",
"d c #c06542",
"B c #c0dcc0",
"f c #c3623b",
"x c #ce3401",
"j c #d26f47",
"c c #d36e46",
"C c #d4bfaa",
"y c #d4bfff",
"l c #d76336",
"n c #e05825",
"m c #e06a3c",
"t c #e4622f",
"o c #e73300",
"s c #e76331",
"r c #ee4914",
"u c #f75f27",
"h c #fe7339",
"k c #fea074",
"L c #ff0000",
"D c #ffff00",
"Q c #ffffff",
". c None",
"...........#a...",
"bcdef......gh...",
".ijkl..mnopqr...",
"...st..uv..wx...",
"...ssyyzzAAByB..",
"...sCzzDDDDAAyC.",
"...yzDDQQQQDQAB.",
"..EyzDQQQDDDDACB",
"..BzDQQFQDFQDDAC",
"..EzDQGHBIJBDDAy",
"..BzDDDDDDDDDDAB",
"..BzDDKDDDDLDDAB",
"..yCzDDKLLKDDAyC",
"...BzDDDDDDDDAy.",
"...BCzzDQQDAABC.",
"....yCBzzzABCB.."};
