/* XPM */
static const char *p_editpaste[]={
"18 18 108 2",
".a c #232110",
"#P c #36332e",
"#O c #3a3630",
"#G c #3a3631",
"#N c #3d3933",
"#w c #3e3a34",
"#M c #403c35",
"#m c #423d37",
"#L c #443f37",
"#h c #474139",
"#K c #47413a",
"#c c #4b443c",
".u c #4b452a",
"#J c #4e473f",
".8 c #4f483f",
"#I c #524a41",
".3 c #534b42",
"#H c #554d44",
".W c #574f45",
"#x c #595146",
"#r c #595450",
".d c #5a5000",
"#f c #5a5451",
".V c #5b5247",
".5 c #5b5a5a",
".g c #5c3805",
"#p c #5d5449",
".U c #5e554a",
".O c #5f554a",
".T c #61584c",
".M c #665b4f",
".J c #665c50",
".I c #6a5f52",
".D c #6e6255",
".C c #716557",
".b c #716b32",
".Y c #726658",
".B c #75685a",
".Q c #76695b",
".A c #786b5c",
".L c #7a6d5e",
".z c #7c6e5f",
"#u c #7c6e61",
".6 c #7d736c",
".G c #7e7061",
"#q c #7e7975",
".y c #7f7161",
".x c #827363",
".R c #828282",
".q c #857414",
".n c #86761f",
".c c #8a7e2d",
"#o c #965f0a",
"#t c #9b8574",
"#i c #a36c13",
".h c #a49941",
"#d c #aa7318",
".E c #aaaaaa",
".j c #aba062",
".9 c #b07a1c",
".4 c #b78121",
".v c #b8b8b8",
".p c #bbb574",
".7 c #bdac92",
".2 c #bdb4ac",
".X c #be8726",
"#b c #bea585",
"#g c #bfa47f",
"#F c #c09b6b",
"#v c #c09f71",
"#l c #c0a077",
"#E c #c1a174",
"#s c #c1b4aa",
"#n c #c28b28",
"#D c #c2a67f",
"#C c #c2ab89",
"#B c #c3af94",
"#A c #c3b59e",
"#z c #c4b9a9",
".P c #c58e2b",
"#y c #c6beb3",
"#e c #c6c6c6",
".e c #c7c7c7",
".S c #c9c9c9",
".K c #cb952f",
".F c #d29c34",
".i c #d2cc8f",
".s c #d5d5d5",
".w c #d9a339",
".H c #dedede",
".t c #dfa93d",
".f c #e0e2dd",
".1 c #e1dedc",
".r c #e2ac40",
".k c #e3e3e3",
"#k c #ebd0aa",
"#j c #edd6b8",
"#a c #f0ddc1",
"## c #f1e3ce",
".l c #f1f1f1",
"#. c #f5e9da",
".o c #f6f6db",
".0 c #f8f0e5",
".Z c #f9f6f2",
".N c #fbf7f4",
".# c #fcfef9",
".m c #ffcf77",
"Qt c None",
"QtQt.#.#.#.a.b.c.d.e.f.#.#.#.#.#QtQt",
"Qt.g.g.g.g.hQt.i.j.d.g.g.g.g.k.lQtQt",
".g.m.m.m.n.o.i.p.h.q.d.r.m.m.g.s.lQt",
".g.m.t.t.n.d.d.u.u.u.u.t.t.t.g.v.kQt",
".g.m.w.w.w.w.x.y.z.A.B.C.D.w.g.E.sQt",
".g.m.F.F.F.F.G.H.H.H.H.H.I.J.g.E.sQt",
".g.m.K.K.K.K.L.HQtQtQtQt.M.N.O.E.sQt",
".g.m.P.P.P.P.Q.H.R.S.RQt.T.U.V.W.e.l",
".g.m.X.X.X.X.Y.HQtQtQt.Z.0.1.2.3.v.k",
".g.m.4.4.4.4.D.H.R.5.S.R.S.6.7.8.E.s",
".g.m.9.9.9.9.I.HQt.Z.0#.###a#b#c.E.s",
".g.m#d#d#d#d.M.H.5.R#e.R#f.6#g#h.E.s",
".g.m#i#i#i#i.T.H.0#.###a#j#k#l#m.E.s",
".g#n#o#o#o#o#p.H#q#r#s#t#u.6#v#w.E.s",
".k.g.g.g.g.g#x#y#z#A#B#C#D#E#F#G.E.s",
".l.s.v.E.E.E#H#I#J#c#K#L#M#N#O#P.E.s",
"Qt.l.k.s.s.s.e.v.E.E.E.E.E.E.E.E.e.k",
"QtQtQtQtQtQt.l.k.s.s.s.s.s.s.s.s.k.l"};
