/* XPM */
static const char *p_editcut[]={
"16 16 4 1",
"# c #000000",
"b c #808080",
"a c #dcdcdc",
". c None",
"................",
".####........##.",
"##..##......#.a#",
"##...##....#.a#.",
".##...#...#.a#..",
"..######.#.a#...",
"....#####.a#....",
"......##.a#.....",
"......#.a##.....",
"....#####ba#....",
"..######.#.a#...",
".##...#...#.a#..",
"##...##....#.a#.",
"##..##......#.a#",
".####........##.",
"................"};
