/* XPM */
static const char *network[]={
    "16 16 8 1",
    "a c #000000",
    "b c #838100",
    "e c #838183",
    "d c #ff0000",
    "# c #ff00ff",
    "c c #ffff00",
    "f c #ffffff",
    ". c None",
    "................",
    "................",
    ".abcccccccccccc.",
    ".abcccaaaaacccc.",
    ".abccafffffaccc.",
    ".abcadeeeeefaac.",
    ".abcedddddddfac.",
    ".abcedddbbddfac.",
    ".abceddbaabdfac.",
    ".abcedbaffabfac.",
    ".abcedbeaffafac.",
    ".abcaaaaaafeaac.",
    ".abcccccccafacc.",
    ".abbbbbbbbafabb.",
    ".#aaaaaaaaafaaaa",
    "................"};
