/* XPM */
static const char *p_undo[]={
"16 16 22 1",
"# c #024266",
"t c #1b5f8e",
"s c #34769f",
"q c #4182a7",
"n c #4a8aae",
"o c #4d8db0",
"p c #4e8eb0",
"k c #5292b3",
"l c #5898b8",
"m c #5a9ab9",
"r c #5e99b8",
"j c #67a6c2",
"g c #74b2ca",
"d c #81bed3",
"h c #85bbd0",
"f c #8ac3d6",
"c c #8cc5d8",
"e c #97ccdc",
"i c #9dcfdf",
"b c #a5d7e4",
"a c #aedde9",
". c None",
"................",
"................",
".......####.....",
".....##aaaa##...",
"##..#abcdddef#..",
"#a##aggggggggg#.",
"#ahijjjj####jj#.",
"#aklmmm#....#mm#",
"#anopp#......#p#",
"#aqqqq#......#q#",
"#rsssss#.....##.",
".#######....#s#.",
"...........#t#..",
"..........###...",
"........###.....",
"................"};
