/* XPM */
static const char *xpm_0[]={
"32 32 128 2",
"#n c #1b1e23",
"#l c #25282d",
"#o c #2b2e33",
"#. c #2e3237",
"#d c #37393f",
".0 c #3b3f45",
".6 c #3f4348",
"#G c #403f1d",
"## c #41494f",
"#r c #487175",
"#f c #49505a",
"#m c #4c4d4f",
"#3 c #4e5d4b",
"#s c #4e6667",
"#v c #535518",
".E c #53565b",
"#w c #538084",
"#W c #575731",
".F c #575c65",
"#t c #587c59",
".Z c #5b646b",
"#1 c #5c5b46",
"#j c #5d656f",
"#k c #636973",
"#q c #63a0a8",
"#c c #646b78",
".D c #656868",
"#A c #659599",
".9 c #676d75",
"#H c #69aeb5",
"#S c #6abcc3",
"#b c #6b727c",
"#x c #6bb2ba",
"#M c #706d17",
".L c #706f75",
".8 c #707782",
"#8 c #737161",
".C c #737576",
"#P c #73a9b1",
"#0 c #759496",
"#2 c #769e74",
".G c #7a7a82",
".1 c #7a8188",
"#Y c #7d7a30",
"#g c #7d858d",
".4 c #808690",
"#J c #817f56",
"#4 c #827e25",
".M c #828284",
"#a c #828a93",
"#T c #839aa9",
"#B c #859193",
".K c #86878d",
".5 c #878d95",
"#i c #889197",
".N c #898986",
"#h c #899098",
".x c #8c8d8d",
".3 c #8c929b",
".O c #919294",
".P c #91979d",
"#u c #928d11",
"#Z c #929084",
"#R c #9292a3",
".w c #95999c",
".2 c #959ca3",
"#Q c #9badaf",
".U c #9c9ca3",
"#y c #9d9d9d",
".s c #9da3a9",
"#D c #9fa62d",
".X c #9fa6af",
".A c #a0a1a1",
"#I c #a2b7b9",
".R c #a5aaae",
".7 c #a5adb0",
"#e c #a6a4aa",
".Y c #a9acb5",
"#p c #aaacac",
".k c #abb0b4",
"#5 c #abb9bb",
"#K c #acaa0f",
".v c #adb4ba",
"#z c #aeabb9",
"#C c #b0aeb9",
".T c #b1b5b9",
".W c #b1b8bc",
".B c #b4bac0",
".H c #b5b6b5",
"#O c #bab7c3",
".b c #babec1",
".y c #bcbcbc",
"#7 c #bdb625",
".q c #bec6ca",
".e c #c2c6c9",
".c c #c4c4c5",
".d c #c4c9cd",
".l c #c6ced3",
"#V c #cbc609",
".a c #ccd1d4",
".f c #cdcecc",
".m c #ced3d8",
".t c #d0d6da",
"#6 c #d1ca24",
"#9 c #d4d3cf",
".j c #d4d5d5",
".n c #d5d9dd",
".o c #d7dce0",
".Q c #dadcdc",
".g c #dbdee1",
".p c #dde3e7",
"#U c #e1d908",
".u c #e2e6e9",
".S c #e3e3e4",
"#X c #e9e8ec",
".r c #e9e9e9",
"#E c #ebe304",
".I c #ececec",
"#N c #edecee",
".# c #eeeef0",
".V c #f0f0f0",
".z c #f4f4f3",
".J c #f7f7f7",
"#L c #f9f001",
".h c #fafafb",
".i c #fdfdfd",
"#F c #fef400",
"Qt c None",
"QtQtQtQtQtQtQtQtQtQtQtQtQtQtQtQtQtQtQtQtQtQtQtQtQtQtQtQtQtQtQtQt",
"QtQtQtQtQtQtQtQtQtQtQtQtQtQtQtQtQtQtQtQtQtQtQtQtQtQtQtQtQtQtQtQt",
"QtQtQtQtQtQtQtQtQtQtQtQtQtQtQtQtQtQtQtQtQtQtQtQtQtQtQtQtQtQtQtQt",
"QtQtQtQtQtQtQtQtQtQtQtQt.#.a.b.c.d.b.b.e.c.d.f.g.h.iQtQtQtQtQtQt",
"QtQtQtQtQtQtQtQtQtQt.j.k.a.l.m.n.o.n.n.p.p.o.m.q.k.k.b.rQtQtQtQt",
"QtQtQtQtQtQtQtQtQt.r.s.q.m.t.p.p.p.u.o.o.n.l.t.t.v.w.x.y.zQtQtQt",
"QtQtQtQtQtQtQtQtQt.A.o.a.a.t.g.o.u.u.n.t.B.C.D.D.E.F.G.H.IQtQtQt",
"QtQtQtQtQtQtQtQt.J.K.e.o.o.t.m.l.n.t.d.d.w.E.L.M.N.A.H.n.zQtQtQt",
"QtQtQtQtQtQtQtQt.O.P.k.b.Q.n.t.d.t.n.b.k.R.C.S.J.JQtQtQtQtQtQtQt",
"QtQtQtQtQtQtQtQt.D.T.k.U.j.n.B.B.p.o.d.v.G.D.VQtQtQtQtQtQtQtQtQt",
"QtQtQtQtQtQtQt.i.E.R.W.B.q.B.X.Y.v.k.B.k.Z.D.rQtQtQtQtQtQtQtQtQt",
"QtQtQtQtQtQtQt.V.0.1.s.B.2.s.d.B.s.3.4.5.6.D.IQtQtQtQtQtQtQtQtQt",
"QtQtQtQtQtQtQt.w.0.P.7.k.5.s.W.v.v.X.8.9.0.F.VQtQtQtQtQtQtQtQtQt",
"QtQtQtQtQtQt.J#.###a.P.3.5#a#a.4.3.4#b#c.E#d.rQtQtQtQtQtQtQtQtQt",
"QtQtQtQtQtQt#e#f.1.5.P#g.1#c.4.2.3#c.F#c#f#d.AQtQtQtQtQtQtQtQtQt",
"QtQtQtQtQtQt.G#h#i#c#a#b.5.3.P.Y.X.8#f.F#j.Z.6.zQtQtQtQtQtQtQtQt",
"QtQtQtQtQtQt.F#j#b#f#f.8.7.2.4.5#h.4#b.F#g#f#..CQtQtQtQtQtQtQtQt",
"QtQtQtQtQtQt.6.6#c.Z#k.W.v.1#c#b.1#a.1#k.8#k.9###eQtQtQtQtQtQtQt",
"QtQtQtQtQt.y#l#f#j.F.F.2#a#j.E#k#g#a#b#k.1#g.1###d.yQtQtQtQtQtQt",
"QtQtQtQt.J#m.6#d.0#f#f.F.F.0.E.F.1.1.9.8.9#b#b###d##.iQtQtQtQtQt",
"QtQtQtQt.i.E#.#n#n#l#o#f#.#n#l#o.6#.#l.0#o#.####.6#m#pQtQtQtQtQt",
"QtQtQtQtQt.S.G#q#r#m.L#q#s.M.8#t#u#v#w#w.D.G#x#s.x#y.c.iQtQtQtQt",
"QtQtQtQtQt.h#z#A#B.S.a.W.g#C#D#E#F#G#w#B.V.Q.7.jQtQtQtQtQtQtQtQt",
"QtQtQtQtQt.#.q.l.V#z#H#I.i#J#F#K#L#M.w#N#O#P#QQtQtQtQtQtQtQtQtQt",
"QtQtQtQt.h#R#S#I.S#T#S.H.H#U#V#W#L#u.D#X#T#S#pQtQtQtQtQtQtQtQtQt",
"QtQtQtQt.m#T#H.c#O#P#A.y#Y#F#W#Z#E#v.N#O#P#A.rQtQtQtQtQtQtQtQtQt",
"QtQtQtQt#e#x#0.z#N.W.U#u#L#V#1.U#2#3.j.S#Q.eQtQtQtQtQtQtQtQtQtQt",
"QtQtQtQt#N.d.rQtQt#p#4#F#D##.f.g#5.QQtQtQtQtQtQtQtQtQtQtQtQtQtQt",
"QtQtQtQtQtQtQtQtQt.H#6#7#8.fQtQtQtQtQtQtQtQtQtQtQtQtQtQtQtQtQtQt",
"QtQtQtQtQtQtQtQtQtQt.z#9.IQtQtQtQtQtQtQtQtQtQtQtQtQtQtQtQtQtQtQt",
"QtQtQtQtQtQtQtQtQtQtQtQtQtQtQtQtQtQtQtQtQtQtQtQtQtQtQtQtQtQtQtQt",
"QtQtQtQtQtQtQtQtQtQtQtQtQtQtQtQtQtQtQtQtQtQtQtQtQtQtQtQtQtQtQtQt"};
