/* XPM */
static const char *xpm_26[]={
"32 32 128 2",
"#O c #242424",
"#N c #2d2d2d",
".Y c #3a3b3d",
".X c #46474c",
".7 c #4c4d4e",
"#q c #535354",
".3 c #5a5b5f",
"#I c #5e606b",
".R c #616264",
".Z c #63666e",
"#g c #6a6a6c",
"#p c #6e6e71",
"#b c #71747f",
".p c #747475",
"#R c #7b7c7d",
"#x c #7d8299",
".O c #808182",
".H c #85868b",
".9 c #87898f",
"#8 c #878ba6",
".y c #888b99",
".z c #8b8c8f",
"#o c #8e91a6",
".Q c #8e939c",
"#H c #8e93a1",
".2 c #9094ac",
".0 c #92949a",
".f c #939394",
".w c #959ab3",
"#i c #969ba5",
".1 c #979899",
"#9 c #9b9b9b",
"#w c #9ca1b8",
"#Q c #9d9e9f",
".N c #9ea0a7",
".W c #a1a5bb",
"#h c #a2a8b2",
".P c #a3a4a5",
"#f c #a4a9be",
".r c #a5a7ab",
"#G c #a5aac1",
".U c #a7a9af",
".M c #a8aec1",
".6 c #a9acb0",
".v c #abb1c3",
".d c #acacad",
".K c #adb1b6",
"#V c #adb5c9",
".x c #b0b6ca",
"#J c #b2b2b2",
".A c #b2b2b4",
"#2 c #b2b7c7",
"#U c #b2b9c7",
"#. c #b3b5b8",
".E c #b3bbcc",
".I c #b7b7b7",
".j c #b8b9ba",
"#c c #b8bac2",
"#E c #b8bed1",
".k c #bcbcbd",
"#W c #bcbdcc",
".o c #bcc1cc",
"#y c #bdc3d2",
".n c #c0c6d3",
"#4 c #c2c2c2",
".m c #c4cbd5",
"#n c #c6cbdb",
".i c #c7c8c8",
"#D c #c8cfe1",
"#k c #c9cddc",
".S c #cccccd",
".8 c #ccced6",
"#M c #ccd2e1",
"#a c #ccd3de",
".a c #d1d1d1",
"#6 c #d1d7e2",
".F c #d2d5dc",
".V c #d2d8de",
"#T c #d3d8e1",
"#Z c #d3dce6",
"#C c #d4dbea",
"#0 c #d5dae6",
"#j c #d5dde7",
".c c #d6d6d6",
"#s c #d6dae2",
"#K c #d8dee9",
".G c #dadee5",
".e c #dbdcdc",
".C c #dce0e5",
".u c #dde2ea",
"#m c #e0e4ec",
"#3 c #e1e3eb",
".l c #e2e6e9",
".L c #e3e4e4",
"#e c #e3e7ef",
".s c #e5e6e8",
".B c #e5e9eb",
"#u c #e6ecf2",
"#1 c #e7eaee",
"#L c #e8ebf1",
"#r c #eaeaea",
".D c #eaecec",
"#S c #eaedf2",
".g c #ededed",
".t c #edeef0",
"#z c #edf0f3",
"#B c #edf0f5",
".T c #f0f0f0",
".# c #f0f1f2",
".5 c #f1f3f4",
"#A c #f3f4f5",
"#P c #f4f4f3",
"#v c #f4f5f6",
".h c #f5f5f5",
"#Y c #f5f6f7",
"#7 c #f6f5f5",
"#t c #f6f6f5",
".4 c #f6f6f6",
"#l c #f6f7f8",
".b c #f7f7f7",
"#d c #f7f8f8",
".q c #f8f8f8",
"#5 c #f9f9f9",
"#X c #fafaf8",
"## c #fbfbfb",
".J c #fdfdfd",
"#F c #fefdfb",
"Qt c None",
"QtQtQtQtQtQtQtQtQtQtQtQtQtQtQtQtQtQtQtQtQtQtQtQtQtQtQtQtQtQtQtQt",
"QtQtQtQtQtQtQtQtQtQtQtQtQtQtQtQtQtQtQtQtQtQtQtQtQtQtQtQtQtQtQtQt",
"QtQtQtQtQtQtQtQtQtQtQtQtQtQtQtQtQtQtQtQtQtQtQtQtQtQtQtQtQtQtQtQt",
"QtQtQtQtQtQtQtQtQtQtQtQtQtQtQtQtQtQtQtQtQtQtQtQtQtQtQtQtQtQtQtQt",
"QtQtQtQtQtQtQtQtQtQtQtQtQtQtQtQtQtQtQtQtQtQtQtQtQtQtQtQtQtQtQtQt",
"QtQtQtQtQtQtQtQtQtQtQtQtQt.#.a.a.#QtQtQtQtQtQtQtQtQtQtQtQtQtQtQt",
"QtQtQtQtQtQtQtQtQtQtQt.b.c.d.c.e.f.gQtQtQtQtQtQtQtQtQtQtQtQtQtQt",
"QtQtQtQtQtQtQtQt.h.i.j.d.k.l.m.n.o.p.qQtQtQtQtQtQtQtQtQtQtQtQtQt",
"QtQtQtQtQtQtQt.g.r.c.s.g.t.u.v.w.x.y.zQtQtQtQtQtQtQtQtQtQtQtQtQt",
"QtQtQtQtQtQtQt.A.B.C.g.D.B.m.E.F.F.G.H.IQtQtQtQtQtQtQtQtQtQtQtQt",
"QtQtQtQtQtQt.J.K.C.s.L.m.o.M.N.f.O.P.Q.R.a.i.S.TQtQtQtQtQtQtQtQt",
"QtQtQtQtQtQtQt.U.m.V.n.W.W.y.p.z.f.X.Y.Z.Q.F.m.0.eQtQtQtQtQtQtQt",
"QtQtQtQtQtQt.L.1.m.v.2.3.X.p.s.4.5.C.6.X.7.6.8.o.9#.##QtQtQtQtQt",
"QtQtQt.g.j#..r.m#a.M#b#c.n.t.b.b.b#d#e#f#g.Y.3#h.o#i.d##QtQtQtQt",
"QtQt.g.j#j.G#k.E.w.Z.P.#.##l.u#m#m#n.t.u.w#o#p.Y.X.H#q.eQtQtQtQt",
"Qt##.d#r.D.g.D#s.y.S#t.4.b#u#n.E.x#n#v#e#w#x.w.y#p.Y.7.iQtQtQtQt",
"Qt.L.i.T.T.G#y.o.P#z#A.4#B#C#D#E.F#F#l#k.W.v#n#G.2.3.X#p.T.JQtQt",
"Qt.e.8.l.n#H#x#I#J#e#m#e#K#C#D#y.G#L#M#G.W#K#B#L#a.o#N#O#g.j.qQt",
"Qt#P.H#b.X#q#q.I#A#K#a#a#y#y#G.W#E#E#f.W.C#d.b.5#e.5#..r#Q.7.P.h",
"QtQt#r#R.O#S.l#z#T#U.m.u.G#V.2#w#M#n#W.s#X.b#Y#L#Z.##A#v#D#H.7.S",
"QtQt.J.P.F.n.E#0.C#U.G###u#E.2.v#l#Y.q.q.5#z#1#U#2.t#X#3.x.M.Y#Q",
"QtQt.J#4#S.v.m.q#z#j#m#0#V#f.F#1#v.h.b#L#a.E.v.2#w#0#k.x.W.v#O.f",
"QtQtQt.e.4.u#m#5#6.n#E.M.w#s#F#5.h#7#A#6.v.w.2.2#f.x#w#w#y#W#N.1",
"QtQtQt#5.S.c#s#T#k#E.W#w#8.v#S#m#r#P#z#M.M.2#8.w#E#k#y.8.8.3.7.d",
"QtQtQtQt#r.A.f#R.H#R.O#R.p#p.H.z#g.H.N.O#R.z.0.H#p#g#R#R.p.p.1.e",
"QtQtQtQtQt.5.L.a.S#4#4.j#J.k.i.i.k.i.S#J#J.k#J#9#9#J.S.a.c.c#r.J",
"QtQtQtQtQtQtQtQtQt.J.J#X#5.JQt.J##.J.J#5#5##.b.T.T.bQtQtQtQtQtQt",
"QtQtQtQtQtQtQtQtQtQtQtQtQtQtQtQtQtQtQtQtQtQtQtQtQtQtQtQtQtQtQtQt",
"QtQtQtQtQtQtQtQtQtQtQtQtQtQtQtQtQtQtQtQtQtQtQtQtQtQtQtQtQtQtQtQt",
"QtQtQtQtQtQtQtQtQtQtQtQtQtQtQtQtQtQtQtQtQtQtQtQtQtQtQtQtQtQtQtQt",
"QtQtQtQtQtQtQtQtQtQtQtQtQtQtQtQtQtQtQtQtQtQtQtQtQtQtQtQtQtQtQtQt",
"QtQtQtQtQtQtQtQtQtQtQtQtQtQtQtQtQtQtQtQtQtQtQtQtQtQtQtQtQtQtQtQt"};
