/* XPM */
static const char *xpm_33[]={
"32 32 128 2",
"#5 c #8a724f",
"#X c #977750",
"#Z c #997c57",
"#0 c #9f855e",
"#J c #a07f56",
"#S c #a2835c",
"#k c #a2895f",
"#B c #a8855e",
".3 c #aa926b",
"#T c #ab8a66",
"#r c #af9470",
"#W c #b09570",
"#K c #b18e69",
"#g c #b29d79",
".R c #b4a484",
"#Q c #b59573",
"#I c #b99a76",
".2 c #baa884",
"#L c #bb9d7c",
"#h c #bba17f",
"#s c #bca482",
".S c #bea887",
".0 c #bfb292",
"#8 c #c0a68b",
"#C c #c3a382",
".6 c #c4b39a",
".T c #c5ac8c",
".4 c #c5b18c",
"#u c #c6ae91",
"#D c #c6b493",
".I c #c6ba9e",
".1 c #c7bea4",
".Q c #c8b999",
"#2 c #c9a888",
"#w c #c9b398",
"#9 c #caac86",
"#F c #cab394",
"## c #cab795",
"#i c #caba9b",
"#l c #cbbc9e",
"#n c #cdc2a5",
".W c #cdc5ab",
"#x c #cebb9e",
"#R c #cfb899",
"#v c #cfbd98",
"#m c #cfbd9e",
".N c #d0c7ad",
".M c #d1c6a9",
"#t c #d2c0a2",
"#f c #d2c4a5",
"#M c #d3c2a6",
".J c #d3cab2",
"#P c #d4bc95",
"#p c #d5c4a8",
"#. c #d5c8a9",
".U c #d5cbb0",
".z c #d5d0b7",
"#6 c #d6cbb4",
".L c #d6cdb1",
"#e c #d7caad",
".V c #d7cfb5",
".E c #d7d2ba",
"#U c #d8cbb1",
".5 c #d8d2b9",
"#j c #d9c698",
"#H c #d9c6a6",
".O c #d9cead",
"#Y c #d9cfb6",
"#3 c #d9d2bd",
"#A c #dacbae",
".9 c #daceb1",
".K c #dad1b6",
".A c #dad5bc",
".X c #dbcda4",
".8 c #dbd4ba",
"#1 c #dccfb5",
".D c #dcd3b9",
"#z c #ddceb1",
"#b c #ddd1b5",
".u c #ddd7be",
".t c #ded9bf",
"#y c #dfd4b6",
"#c c #dfd5b9",
".s c #dfdbc0",
".F c #e0d4b1",
"#4 c #e0d6b3",
".H c #e0d6ba",
".P c #e1dabe",
".Z c #e1dbc0",
".v c #e1dcc1",
"#E c #e3d1a4",
"#d c #e3d8bc",
".r c #e3dfc4",
"#a c #e4dabd",
".B c #e4e0c4",
"#o c #e5dcbe",
".C c #e5ddc1",
".x c #e6dbb8",
".q c #e7deb9",
".w c #e7e2c8",
"#G c #e8dcbf",
"#7 c #e8dec2",
"#O c #e9e6cb",
".n c #eae3c2",
"#V c #ebd8a7",
".7 c #ecddaf",
".m c #ece2ba",
".l c #eee2b5",
"#N c #f0e0b2",
".o c #f1e5b8",
".p c #f6e9bb",
".k c #f8ebbd",
".G c #faeec2",
".y c #fcf1c6",
".j c #fef3cb",
".i c #fff6d1",
".h c #fff6d5",
".Y c #fff7d8",
".g c #fff8dc",
".f c #fff9e3",
"#q c #fffbea",
".d c #fffbec",
".e c #fffcee",
".c c #fffcf1",
".b c #fffdf4",
".a c #fffef9",
".# c #fffffd",
"Qt c None",
"QtQtQtQtQtQtQtQtQtQtQtQtQtQtQtQtQtQtQtQtQtQtQtQtQtQtQtQtQtQtQtQt",
"QtQtQtQtQtQtQtQtQtQtQtQtQtQtQtQtQtQtQtQtQtQtQtQtQtQtQtQtQtQtQtQt",
"QtQtQtQtQtQtQtQtQtQtQtQtQtQt.#.#.#.#QtQtQtQtQtQtQtQtQtQtQtQtQtQt",
"QtQtQtQtQtQtQtQtQtQt.#.a.b.c.d.d.d.d.e.b.a.#QtQtQtQtQtQtQtQtQtQt",
"QtQtQtQtQtQtQtQtQt.a.c.f.g.h.i.i.i.i.h.g.f.e.a.#QtQtQtQtQtQtQtQt",
"QtQtQtQtQtQtQt.#.b.f.h.j.k.l.m.n.n.m.o.k.j.h.f.c.#QtQtQtQtQtQtQt",
"QtQtQtQtQtQt.#.c.g.i.p.q.r.s.s.t.u.v.w.w.x.o.j.g.e.#QtQtQtQtQtQt",
"QtQtQtQtQt.#.c.g.y.m.r.w.s.z.A.A.u.u.B.C.D.E.F.G.g.e.#QtQtQtQtQt",
"QtQtQtQtQt.b.g.y.m.B.v.s.s.u.t.H.I.J.K.D.L.M.N.O.y.g.b.#QtQtQtQt",
"QtQtQtQt.a.f.i.l.r.P.s.s.B.B.H.Q.R.N.S.T.U.V.N.W.X.j.f.aQtQtQtQt",
"QtQtQt.#.c.Y.p.t.u.s.P.Z.B.n.K.0.1.L.2.3.4.V.5.z.6.7.h.e.#QtQtQt",
"QtQtQt.a.f.j.m.z.8.Z.8.Z.C.C.K.9.P.C#..2.4.L.5.N.I##.y.f.aQtQtQt",
"QtQtQt.a.g.k.C.u.K.K.D#a.H#b#c#d.H#b#e#.#e.L.L#f.Q#g.7.Y.bQtQtQt",
"QtQtQt.c.h.p.v.K.L#c.K.P#e#h.Q.9#i#e#e#.#..M.L.M.N#g#j.h.eQtQtQt",
"QtQt.#.e.h.m.C.U.V.C.C#b.S#k#g#.#l#m#e#f#.#n.M#n.W.R.4.i.d.#QtQt",
"QtQt.#.d.i.H.8.D.L.H#o#e.2.3.3#.#b#i#p#e.O#i#i#n#n.0.2.i#q.#QtQt",
"QtQt.#.d.i#f#n#e.K.H#o.O.S#r#s.H#t#h#u#a#f.4#l.z.z.I.2.i#q.#QtQt",
"QtQt.#.e.h#v#w#x#e#a#y#z.F#.#d#A.3#B#C#t###i.U.u.E.1#D.i.d.#QtQt",
"QtQtQt.c.h#E.6.T#F#y.9#y.n#G#H#I#J#B#K#L#h#M.u.r.5.1.X.h.eQtQtQt",
"QtQtQt.a.g#N#u#h#F.H#z#m#t.T.T#I#B#B#B#F#F#w.Z#O.V.1.l.Y.bQtQtQt",
"QtQtQt.a.f.y#P#L#Q.S#R#I#B#S#K#Q#T#K.T#A#t#U.Z.Z.5.N.G.f.aQtQtQt",
"QtQtQt.#.c.h#V.3#S#S#W#W#J#X#J#L#m#p#a#z#M#b#b#Y.u.7.h.e.#QtQtQt",
"QtQtQtQt.a.f.j.4#Z#B#S#0#S#X#T#t#1#z#2#C#.#1.D#3#4.y.f.aQtQtQtQt",
"QtQtQtQtQt.b.g.G.3#5#B#0#X#X#X#Q#F#x.T#R.H#1#6.9.k.g.c.#QtQtQtQt",
"QtQtQtQtQt.#.c.g.k.3#Z#T#J#Z#r###R#a#7#G#o#Y.O.p.Y.d.#QtQtQtQtQt",
"QtQtQtQtQtQt.#.c.g.j#j#0#Q#8#w#U.D#1#U#p#z.7.y.g.d.#QtQtQtQtQtQt",
"QtQtQtQtQtQtQt.#.b.f.h.G#E#P#9#F#u#R#j#N.G.h.f.c.#QtQtQtQtQtQtQt",
"QtQtQtQtQtQtQtQtQt.a.e.f.g.h.i.i.i.i.h.Y.f.d.a.#QtQtQtQtQtQtQtQt",
"QtQtQtQtQtQtQtQtQtQt.#.a.b.e.d#q#q#q.e.b.a.#QtQtQtQtQtQtQtQtQtQt",
"QtQtQtQtQtQtQtQtQtQtQtQtQtQt.#.#.#.#.#QtQtQtQtQtQtQtQtQtQtQtQtQt",
"QtQtQtQtQtQtQtQtQtQtQtQtQtQtQtQtQtQtQtQtQtQtQtQtQtQtQtQtQtQtQtQt",
"QtQtQtQtQtQtQtQtQtQtQtQtQtQtQtQtQtQtQtQtQtQtQtQtQtQtQtQtQtQtQtQt"};
