/* XPM */
static const char *xpm_36[]={
"32 32 128 2",
"#p c #69460e",
"#r c #854f04",
"#u c #88552c",
"#V c #89671d",
"#F c #8d5f03",
"#J c #8e7007",
"#G c #966802",
"#N c #997903",
"#A c #9b6c18",
"#3 c #9f7725",
"#B c #a3964a",
"#z c #a66d05",
"#0 c #a8812c",
"#D c #ac7604",
"#s c #ae4c02",
"#S c #b2821e",
".c c #b7ae68",
".p c #b7b38e",
".B c #b8a74f",
"#H c #b99727",
".U c #bb8f0c",
"#q c #bc7b06",
"#O c #bebb9f",
"#y c #bf9b16",
"#t c #c04b01",
".h c #c1ba97",
".F c #c2b14a",
".b c #c4b768",
".g c #c5b038",
".a c #c5c2ab",
".V c #c68504",
".5 c #c6aa36",
"#x c #c7a71a",
".t c #c7ad26",
"#I c #c9c39b",
"#8 c #c9c7b4",
"#h c #cb6802",
".I c #cc9c0f",
"#6 c #ccc48a",
"#U c #ce9c29",
".D c #ceccbc",
".l c #d0ae1e",
"#C c #d1d0c4",
"#9 c #d2cea5",
"#W c #d38d12",
".K c #d3a428",
".W c #d58804",
"#Z c #d6b137",
".m c #d6b215",
".s c #d6d2b2",
"#M c #d8a507",
".z c #d9cc64",
"#T c #daa735",
".o c #dad9c9",
"#v c #dadad5",
".7 c #db9510",
".1 c #db9907",
".x c #ddaf07",
".u c #ddd589",
".4 c #e0b47b",
".2 c #e0bf42",
"#X c #e3c644",
".E c #e3e2d9",
"#a c #e48712",
".y c #e4ba05",
"#w c #e5e4e2",
".w c #e6db73",
"#e c #e79504",
"#. c #e88403",
".O c #e8c103",
".r c #e8e7e4",
".R c #e8e8e6",
"#k c #e97927",
".L c #e9a802",
".n c #e9e6c2",
"#j c #eb6d01",
"## c #ed9620",
"#5 c #edc03d",
"#1 c #eeb83c",
".M c #efb403",
"#7 c #efe88e",
".H c #efe891",
"#l c #efeedd",
".d c #efeeee",
".0 c #f08f04",
".# c #f1f1f1",
".k c #f2efca",
"#b c #f38010",
"#f c #f3a100",
"#Q c #f3d80f",
".S c #f3e777",
".X c #f49b01",
".e c #f4f4f4",
".J c #f5d043",
"#4 c #f6c303",
"#L c #f7ba00",
"#P c #f7cb02",
"#2 c #f7f4c9",
".q c #f7f7f7",
"#g c #f87702",
".8 c #f88401",
"#d c #f8ab00",
"#m c #f8db4e",
"#Y c #f8f7ec",
"#i c #fb6800",
".9 c #fb9300",
".Z c #fb9900",
"#c c #fbc28f",
".N c #fdd644",
".A c #fdf69d",
".f c #fdfdfb",
".T c #fee151",
".v c #fef489",
".Y c #ffa500",
"#n c #ffac00",
"#o c #ffb400",
".6 c #ffbb00",
"#E c #ffc100",
".3 c #ffc550",
"#K c #ffc900",
"#R c #ffd500",
".P c #ffebb4",
".Q c #ffefd5",
".G c #fffcd1",
".j c #fffde3",
".C c #fffdf4",
".i c #fffeef",
"Qt c None",
"QtQtQtQtQtQtQtQtQtQtQtQtQtQtQt.#.#QtQtQtQtQtQtQtQtQtQtQtQtQtQtQt",
"QtQtQtQtQtQtQtQtQtQtQtQtQtQtQt.a.aQtQtQtQtQtQtQtQtQtQtQtQtQtQtQt",
"QtQtQtQtQtQtQtQtQtQtQtQtQtQtQt.b.cQtQtQtQtQtQtQtQtQtQtQtQtQtQtQt",
"QtQtQtQtQtQtQtQtQtQt.d.eQtQt.f.g.g.fQtQt.f.#.fQtQtQtQtQtQtQtQtQt",
"QtQtQtQtQtQtQtQtQtQt.a.h.i.j.k.l.m.n.j.i.o.p.qQtQtQtQt.f.fQtQtQt",
"QtQtQtQt.r.a.#QtQt.f.s.t.u.v.w.x.y.z.v.A.B.c.C.CQt.f.D.EQtQtQtQt",
"QtQtQtQt.e.c.F.o.C.G.H.x.I.J.K.L.M.K.N.g.O.b.P.Q.#.b.B.rQtQtQtQt",
"QtQtQtQtQt.R.g.y.c.S.T.U.V.W.X.Y.Z.X.0.1.M.2.3.4.5.0.4QtQtQtQtQt",
"QtQtQtQtQtQt.D.m.6.I.7.W.Z.8.Z.Y.9.Z.9.Z#.###a.8.9#b#cQtQtQtQtQt",
"QtQtQtQtQt.f.G.F#d.W#e.Y#f#g#h#e#g#h#g#i#i#j#j#i#i#g#k.eQtQtQtQt",
"QtQtQt.R.o#l.A#m.1.W.Y#n#o#g#p#q#i#r#j#s#t#j#s#s#i#h#u#v.qQtQtQt",
"QtQtQt#w.c.t#x#y.W.X#n#o.6#b#r#z#g#r#g#p#z.8#r#A.8#r#B.c#CQtQtQt",
"QtQtQtQt#l.b.x#D.V.Y#o.6#E.0#.#..0#F.0#r.V.9#r#q.9#G#H#I.eQtQtQt",
"QtQtQtQt.j.v.2#A.W#n#o.6#E#f#F#J#f#F#f#r.V#d#F#D#d#F.w.jQtQtQtQt",
"QtQtQtQt.k.w.5#p.X#n#o#E#K#L#F#y#L#F#L#F#G#E#F#q#E#J.z.k.fQtQtQt",
".e.D.b.F.t#M#M#p#e#n#o#E#K.O#N#x.O#J.x.y.y.U.V.W.y#N#M.l.g.b.a.d",
".##O.c.g.m.M#M#p.X#n#o#E#K#P.O#Q#Q.O#R.y#M#M#d#f#S.L.x.m.5.c#O.d",
"QtQtQt.e.n.z#H#p.V#n#o.6#K#K#R#R#R#R#R#K.6#o#n#e#T#U.z.n.qQtQtQt",
"QtQtQtQt.j.v.g#V#F.Y#o.6#E#K#K#R#R#R#K#E.6#o#n#W#T#X.v.jQtQtQtQt",
"QtQtQt.f.o.5.y.U#p.X#n#o.6#E#E#K#K#E#E.6#o#n.Y#U#M#M.b#YQtQtQtQt",
"QtQtQt#v.c.F.F#Z#0#z.Y#n#o.6.6#E#E.6.6#o#n.Y.7#1#U#x.t.c.RQtQtQt",
"QtQtQt.e.#.j.A#X.U#V#q.Y#n#o#o#o#o#o#o#n.Y#e#U#U.T.A.E#C.RQtQtQt",
"QtQtQtQtQt.f#2#H.6.1#3#q.Y.Y#n#n#n#n.Y.Y.7#U.L.L.b.G.fQtQtQtQtQt",
"QtQtQtQtQtQt.h#4.x#H#5#U#S.V#e.X.X#e.7#U#1.K.I#E#x.EQtQtQtQtQtQt",
"QtQtQtQtQt#v.m.t#6.v.T#y#M#T#T#S#S#U#1.I.I#m.w.B#P.B.qQtQtQtQtQt",
"QtQtQtQt.#.c.B.r.C.G#7.m#y.J#5#M.6#H.N#y.y.u.G#Y.h.g.hQtQtQtQtQt",
"QtQtQtQt#w#8.qQtQt.f.s.t.u.v.S.I#E.F.v.u.t#I.fQtQt#v.h.dQtQtQtQt",
"QtQtQtQtQtQtQtQtQtQt.a.h.i.j.G.5#4#9.j.C#O.pQtQtQtQt.q.fQtQtQtQt",
"QtQtQtQtQtQtQtQtQtQt.R.#QtQtQt.b.m#wQtQt.#.EQtQtQtQtQtQtQtQtQtQt",
"QtQtQtQtQtQtQtQtQtQtQtQtQtQtQt#I.g.#QtQtQtQtQtQtQtQtQtQtQtQtQtQt",
"QtQtQtQtQtQtQtQtQtQtQtQtQtQtQt.o.p.fQtQtQtQtQtQtQtQtQtQtQtQtQtQt",
"QtQtQtQtQtQtQtQtQtQtQtQtQtQtQt.q.rQtQtQtQtQtQtQtQtQtQtQtQtQtQtQt"};
