/* XPM */
static const char *xpm_4[]={
"32 32 128 2",
"#n c #1b1d23",
"#l c #25282d",
"#o c #2b2e32",
".9 c #2e3237",
"#d c #37393f",
".Z c #3b3f45",
".5 c #3f4247",
"#H c #403f1d",
"#. c #40474f",
"#m c #474d50",
"#r c #487175",
"#f c #4a5059",
"#h c #4a5160",
"#4 c #4e5d4b",
"#s c #4e6668",
"#v c #535518",
".E c #53565b",
"#w c #537d81",
"#x c #538286",
"#X c #575731",
".F c #575c65",
"#t c #587c5a",
"#i c #59646b",
"#2 c #5c5b46",
".Y c #5e646e",
"#k c #636973",
"#q c #63a0a8",
"#c c #646b78",
".D c #656868",
"#B c #659599",
".8 c #686d75",
"#I c #69aeb5",
".7 c #6b737d",
"#y c #6bb2ba",
"#T c #6bbcc3",
".L c #6d6f77",
"#N c #706d17",
"#g c #717882",
"#8 c #737161",
".C c #737576",
"#Q c #74a9b1",
"#1 c #759496",
"#3 c #779e74",
".G c #797b84",
".0 c #7b8188",
"#Z c #7d7a30",
"#b c #7d848d",
".3 c #808690",
"#K c #817f56",
"#5 c #827e25",
".M c #828284",
"## c #828b93",
"#U c #839aa9",
"#C c #859193",
".K c #86878d",
".4 c #878d95",
"#a c #889198",
".N c #898986",
"#j c #898f98",
".y c #8c8d8d",
".2 c #8c929b",
".P c #919294",
".Q c #91979d",
"#u c #928d11",
"#0 c #929084",
"#S c #9392a3",
".x c #95999c",
".1 c #959ca3",
"#R c #9badaf",
".U c #9c9ca3",
"#z c #9d9d9d",
".t c #9da3a9",
"#E c #9fa62d",
".A c #a0a1a1",
".W c #a0a7af",
"#J c #a2b7b9",
"#e c #a5a4aa",
".R c #a5aaae",
".6 c #a5adb0",
".X c #a9acb5",
"#p c #aaacac",
".m c #abb0b4",
"#L c #acaa0f",
".w c #adb3b9",
"#A c #aeabb9",
".T c #aeb7bb",
"#D c #b0aeb9",
".H c #b4b9bc",
".B c #b4bac1",
".O c #b5b5b4",
"#P c #bab7c3",
".b c #babec3",
".e c #bbbdbd",
"#7 c #bdb725",
".c c #bec6c9",
".f c #c2c6c9",
".g c #c4c4c5",
".d c #c4c9cd",
".n c #c6ced3",
"#W c #cbc609",
".h c #cdcecc",
".a c #cdd1d5",
".o c #cdd4d8",
".u c #d0d6da",
"#6 c #d1c924",
"#9 c #d4d3cf",
".l c #d5d5d4",
".p c #d5d9dd",
".q c #d7dde1",
".i c #dcddde",
".r c #dde3e7",
"#V c #e1d908",
".v c #e2e6e9",
".S c #e3e3e4",
"#Y c #e9e8ec",
".s c #e9e9e9",
"#F c #ebe304",
".I c #ececec",
"#O c #edecee",
".# c #eeeef0",
".V c #f0f0f0",
".z c #f4f4f3",
".J c #f7f7f7",
"#M c #f9f001",
".j c #fafafb",
".k c #fdfdfd",
"#G c #fef400",
"Qt c None",
"QtQtQtQtQtQtQtQtQtQtQtQtQtQtQtQtQtQtQtQtQtQtQtQtQtQtQtQtQtQtQtQt",
"QtQtQtQtQtQtQtQtQtQtQtQtQtQtQtQtQtQtQtQtQtQtQtQtQtQtQtQtQtQtQtQt",
"QtQtQtQtQtQtQtQtQtQtQtQtQtQtQtQtQtQtQtQtQtQtQtQtQtQtQtQtQtQtQtQt",
"QtQtQtQtQtQtQtQtQtQtQtQt.#.a.b.c.d.e.e.f.g.d.h.i.j.kQtQtQtQtQtQt",
"QtQtQtQtQtQtQtQtQtQt.l.m.a.n.o.p.q.p.p.r.r.q.o.c.m.m.e.sQtQtQtQt",
"QtQtQtQtQtQtQtQtQt.s.t.c.o.u.r.r.r.v.q.q.p.n.u.u.w.x.y.e.zQtQtQt",
"QtQtQtQtQtQtQtQtQt.A.q.a.a.u.q.q.v.v.p.u.B.C.D.D.E.F.G.H.IQtQtQt",
"QtQtQtQtQtQtQtQt.J.K.f.q.p.u.o.n.p.u.d.d.x.E.L.M.N.A.O.l.zQtQtQt",
"QtQtQtQtQtQtQtQt.P.Q.m.e.i.p.u.d.u.p.b.m.R.C.S.J.JQtQtQtQtQtQtQt",
"QtQtQtQtQtQtQtQt.D.T.m.U.u.p.B.B.r.q.d.w.G.D.VQtQtQtQtQtQtQtQtQt",
"QtQtQtQtQtQtQt.k.E.R.H.H.c.B.W.X.w.m.H.m.Y.D.sQtQtQtQtQtQtQtQtQt",
"QtQtQtQtQtQtQt.V.Z.0.t.H.1.t.d.B.t.2.3.4.5.D.IQtQtQtQtQtQtQtQtQt",
"QtQtQtQtQtQtQt.x.Z.Q.6.m.4.t.T.w.T.W.7.8.Z.F.VQtQtQtQtQtQtQtQtQt",
"QtQtQtQtQtQt.J.9#.##.Q.2.4####.3#a#b.7#c.E#d.sQtQtQtQtQtQtQtQtQt",
"QtQtQtQtQtQt#e#f.0.4.Q#b.0#c.3.1.2#c.F#c#f#d.AQtQtQtQtQtQtQtQtQt",
"QtQtQtQtQtQt.G#a#a#c##.7.4.2.Q.X.W#g#h.F.Y#i.5.zQtQtQtQtQtQtQtQt",
"QtQtQtQtQtQt.F.Y.7#h#f#g.6.1.3.4#j.3.7.F#b#f.9.CQtQtQtQtQtQtQtQt",
"QtQtQtQtQtQt.5.5#c#i#k.H.w.0#c.7.0##.0#k#g#k.8#.#eQtQtQtQtQtQtQt",
"QtQtQtQtQt.e#l#f.Y.F.F.1##.Y.E#k#b##.L#k.0#b.0#.#d.eQtQtQtQtQtQt",
"QtQtQtQt.J#m.5#d.Z#f#f.F.F.Z.E.F.0.0.8#g.8.7.L#.#d#..kQtQtQtQtQt",
"QtQtQtQt.k.E.9#n#n#l.9#m.9#n#l#o.5.9#l.Z#o.9#.#..5#m#pQtQtQtQtQt",
"QtQtQtQtQt.S.G#q#r#m.L#q#s.M#g#t#u#v#w#x.D.G#y#s.y#z.g.kQtQtQtQt",
"QtQtQtQtQt.j#A#B#C.S.a.T.i#D#E#F#G#H#x#C.V.i.6.lQtQtQtQtQtQtQtQt",
"QtQtQtQtQt.#.c.n.V#A#I#J.k#K#G#L#M#N.x#O#P#Q#RQtQtQtQtQtQtQtQtQt",
"QtQtQtQt.j#S#T#J.S#U#T.O.O#V#W#X#M#u.D#Y#U#T#pQtQtQtQtQtQtQtQtQt",
"QtQtQtQt.a#U#I.g#P#Q#B.e#Z#G#X#0#F#v.N#P#Q#B.sQtQtQtQtQtQtQtQtQt",
"QtQtQtQt#e#y#1.z#O.H.U#u#M#W#2.U#3#4.l.S#R.fQtQtQtQtQtQtQtQtQtQt",
"QtQtQtQt#O.d.sQtQt#p#5#G#E#..h.i.T.iQtQtQtQtQtQtQtQtQtQtQtQtQtQt",
"QtQtQtQtQtQtQtQtQt.O#6#7#8.hQtQtQtQtQtQtQtQtQtQtQtQtQtQtQtQtQtQt",
"QtQtQtQtQtQtQtQtQtQt.z#9.IQtQtQtQtQtQtQtQtQtQtQtQtQtQtQtQtQtQtQt",
"QtQtQtQtQtQtQtQtQtQtQtQtQtQtQtQtQtQtQtQtQtQtQtQtQtQtQtQtQtQtQtQt",
"QtQtQtQtQtQtQtQtQtQtQtQtQtQtQtQtQtQtQtQtQtQtQtQtQtQtQtQtQtQtQtQt"};
