/* XPM */
static const char *xpm_5[]={
"32 32 128 2",
".L c #2a3237",
".K c #313c42",
".A c #39444f",
"#T c #3a6468",
".B c #414d5a",
"#j c #43484f",
"#6 c #467073",
".t c #4a5662",
".N c #4d5258",
"#N c #4e898f",
".R c #515c69",
".D c #55616c",
"#S c #55787e",
".S c #565a5d",
"#4 c #57bac4",
"#v c #586a6f",
".Y c #5b6774",
".v c #5c5f61",
".0 c #5c6469",
"#W c #5d9fa8",
"#8 c #5e7e83",
"#M c #5fb2ba",
".b c #626c77",
"#q c #636466",
"#5 c #637b7e",
".9 c #64717e",
"#Q c #6499a3",
"#3 c #65909c",
"#L c #65c5d2",
".P c #697481",
"#m c #6a757d",
"#w c #6a8589",
"#d c #6b7884",
"#1 c #6ddfec",
".a c #6e7275",
".H c #6f7c89",
"#u c #767879",
"#t c #77a7af",
".j c #7a8086",
".m c #7b8692",
"#J c #7b999c",
".f c #818992",
".G c #818d99",
"#V c #82d5e1",
"#0 c #84bbc0",
".U c #86909a",
"#G c #898989",
".E c #899199",
"#e c #89939c",
"#o c #8a9193",
".z c #8a959f",
"#Z c #8ac3c8",
"#z c #8ba3a6",
"#C c #8bd2de",
".4 c #8d9599",
".I c #8d969e",
".T c #8e98a3",
"#p c #909499",
"#9 c #92a8aa",
".Q c #949da6",
"#n c #959596",
".8 c #98a2aa",
"#7 c #98d0db",
".# c #9a9b9d",
"#y c #9ab8be",
"#a c #9ba4ac",
".s c #9da7b1",
"#D c #9dacae",
".i c #9fa1a4",
".2 c #a1a5a9",
".X c #a1aab2",
"#U c #a2a1a6",
"#s c #a2b0b2",
"#B c #a3a3a3",
".5 c #a3a4a7",
"#Y c #a3a8b5",
".w c #a4aab3",
"#R c #a5a5a5",
".6 c #a5aeb5",
"#I c #a5b6bf",
".Z c #a6afb8",
".7 c #a7b0b7",
".u c #a8abad",
"#F c #a9a9a9",
".F c #acb1b5",
".J c #acb4bc",
".x c #b1b8be",
".n c #b2b2b2",
".g c #b3b6ba",
".O c #b5bcc3",
".h c #b9c0c4",
"#E c #bababa",
"#X c #bac8ca",
".y c #bdc3c8",
"#A c #bfbfbf",
"#x c #c0c2c4",
"#b c #c2c7ce",
"#H c #c5c5c6",
".o c #c5c9ce",
"#h c #c8c8c8",
".l c #c9cbce",
"#2 c #c9dae2",
".V c #cbced2",
"#l c #cccdcd",
".r c #cfd3d8",
".C c #d0d1d1",
".q c #d2d5d6",
"#f c #d2d5d8",
".3 c #d5d6d6",
".W c #d6d8d9",
"#k c #d8d7d7",
"#g c #d9dadc",
".p c #dadada",
".k c #dcdbdc",
"#. c #dcdcdb",
".e c #dcddde",
"#P c #ddebee",
"#c c #dfdede",
"#i c #e1e1e1",
".c c #e5e5e6",
"## c #eaeaea",
"#K c #ededed",
".d c #f0f0f0",
"#O c #f4fdfe",
"#r c #f5f5f5",
".M c #fafafa",
".1 c #fdfdfd",
"Qt c None",
"QtQtQtQtQtQtQtQtQtQtQtQtQtQtQtQtQtQtQtQtQtQtQtQtQtQtQtQtQtQtQtQt",
"QtQtQtQtQtQtQtQtQtQtQtQtQtQtQtQtQtQtQtQtQtQtQtQtQtQtQtQtQtQtQtQt",
"QtQtQtQtQtQtQtQtQtQtQtQtQtQtQtQtQtQtQtQtQtQtQtQtQtQtQtQtQtQtQtQt",
"QtQtQtQtQtQtQtQtQtQtQtQtQtQtQtQtQtQtQtQtQtQtQtQtQtQtQtQtQtQtQtQt",
"QtQtQtQtQtQtQtQtQtQtQtQtQtQt.#.a.b.cQtQtQtQtQtQtQtQtQtQtQtQtQtQt",
"QtQtQtQtQtQtQtQtQtQtQt.d.e.b.f.g.h.i.j.kQtQtQtQtQtQtQtQtQtQtQtQt",
"QtQtQtQtQtQtQtQtQtQt.l.b.m.n.o.p.q.r.s.t.uQtQtQtQtQtQtQtQtQtQtQt",
"QtQtQtQtQtQtQtQtQtQt.v.w.q.p.x.l.y.s.y.z.A.B.nQtQtQtQtQtQtQtQtQt",
"QtQtQtQtQtQtQtQt.C.D.E.F.q.h.G.m.H.I.q.J.t.B.K.L.iQtQtQtQtQtQtQt",
"QtQtQtQtQtQtQt.M.N.I.C.o.O.s.G.P.Q.k.q.z.D.R.P.A.L.eQtQtQtQtQtQt",
"QtQtQtQtQtQtQt.d.S.J.o.o.J.Q.T.U.V.W.X.b.Y.s.Z.T.Y.0.1QtQtQtQtQt",
"QtQtQtQtQtQt.1.a.2.X.x.x.Q.Q.m.m.X.T.P.R.Q.o.3.V.O.4.#.u.lQtQtQt",
"QtQtQtQt.5.R.0.i.h.6.7.7.8.m.Y.b.G.9.D.I.e#..e.h.7.6.f.T.D.#QtQt",
"QtQtQt##.t.6.s.x#a.U.x.W.V.G.R.m#b.7.h#c#.#c.o.7.6#b.q.J#d.K.cQt",
"QtQt.1.a#e.U.Q.o.o.8.o.o#a#d.Y.8#f.q#c.l.h.O.8.Y.f#g.o.G.D.K#hQt",
"QtQt#i#j.X.m.F#c.x#a.s.G.b.m.V.W.W.p.V.Z.z.H.Y.B.m.X.m.Y.Y.K.CQt",
"QtQt#c.K.f.6.h.r.Q.m.P.Y.b.V#i.p#k#l.y.I.P.R.B.B.P.H.D#m.Q.K#lQt",
"QtQt.M#n.N#o.I.E.G.P.t.B.A.b.X.Q#p.Q.s#d.D.B.A.R.j.j.P#o.N#q.dQt",
"QtQtQt#r#s#t.##u#u.b.K.S#v#w#q#j.4.D#j.A.t.A.A.N.F#x#u.v#u.cQtQt",
"QtQtQtQt#y#z#i#A#u#B.C###C#D#u#E.F#u#q#..e#F#A.5.h.u#G#H.3QtQtQt",
"QtQtQtQt#I.0#G#o#J.S#K#b#L.K.n.n.j#H.##I#M.F#K.i#N#o#G###rQtQtQt",
"QtQtQt#O#P.e#E#Q#N.N#R#B#u.##i#z#S.n#H#y#T#R#B#U#o#A#hQtQtQtQtQt",
"QtQtQt#V#W#u#X#L.K#R.g#z#o.#.J#L.K#c#Y#Z.0.n#n#0#X.M#rQtQtQtQtQt",
"QtQt#P#1.L#F#2#t.a.n#m#W.v#n#3#4#q.1#a#5.C.n.0#N.jQtQtQtQtQtQtQt",
"QtQt#C#L.L##Qt.M.M#A#S#T#G.##Q#6#l.1.C#E#r.n#z#w#hQtQtQtQtQtQtQt",
"QtQt#7#8.iQtQtQtQt.y#9.a.i#R##.d.1Qt.M#A#R.##T#v#rQtQtQtQtQtQtQt",
"QtQt.1.MQtQtQtQtQt.M#A#E#A#iQtQtQtQt.1#h.n.3#G#iQtQtQtQtQtQtQtQt",
"QtQtQtQtQtQtQtQtQtQt.1.M.MQtQtQtQtQtQt###r#r.p.MQtQtQtQtQtQtQtQt",
"QtQtQtQtQtQtQtQtQtQtQtQtQtQtQtQtQtQtQtQtQtQtQtQtQtQtQtQtQtQtQtQt",
"QtQtQtQtQtQtQtQtQtQtQtQtQtQtQtQtQtQtQtQtQtQtQtQtQtQtQtQtQtQtQtQt",
"QtQtQtQtQtQtQtQtQtQtQtQtQtQtQtQtQtQtQtQtQtQtQtQtQtQtQtQtQtQtQtQt",
"QtQtQtQtQtQtQtQtQtQtQtQtQtQtQtQtQtQtQtQtQtQtQtQtQtQtQtQtQtQtQtQt"};
