/* XPM */
static const char *na[]={
"32 32 127 2",
"#z c #000000",
"#E c #0e0e0e",
"#C c #1b1b1b",
"#S c #2b2b2b",
"#y c #323232",
"#H c #363636",
"#J c #474747",
"#T c #4f4f4f",
"#Q c #535353",
"#K c #595959",
"#0 c #5f5f5f",
"#v c #666666",
"#N c #686868",
"#t c #6b6b6b",
"#h c #6f6f6f",
".4 c #777777",
"#w c #7a7a7a",
"#Z c #7c7c7c",
"#s c #7e7e7e",
"#a c #838383",
"#1 c #858585",
".U c #878787",
"#f c #888888",
".9 c #8a8a8a",
"#7 c #8c8c8c",
"#V c #8e8e8e",
"#o c #919191",
"#U c #939393",
".e c #949494",
".y c #959595",
".j c #969696",
".T c #979797",
"#W c #999999",
"#q c #9a9a9a",
"#R c #9b9b9b",
".5 c #9d9d9d",
"#k c #9e9e9e",
".8 c #9f9f9f",
".V c #a0a0a0",
".R c #a1a1a1",
".7 c #a2a2a2",
"#O c #a3a3a3",
".L c #a4a4a4",
".Y c #a5a5a5",
"#B c #a6a6a6",
"#3 c #a7a7a7",
".v c #a8a8a8",
".6 c #a9a9a9",
"#L c #ababab",
".c c #acacac",
".b c #adadad",
".A c #aeaeae",
"#d c #afafaf",
".r c #b0b0b0",
".S c #b1b1b1",
"#Y c #b2b2b2",
"#5 c #b4b4b4",
".d c #b5b5b5",
".J c #b6b6b6",
"#x c #b7b7b7",
".I c #b9b9b9",
"#6 c #bababa",
".O c #bbbbbb",
"#u c #bcbcbc",
".N c #bdbdbd",
".E c #bebebe",
"#2 c #bfbfbf",
"#D c #c0c0c0",
"#G c #c1c1c1",
".1 c #c2c2c2",
"#j c #c4c4c4",
"#p c #c5c5c5",
"#c c #c6c6c6",
"#F c #c7c7c7",
".F c #c8c8c8",
"#i c #c9c9c9",
".i c #cacaca",
".m c #cbcbcb",
".q c #cccccc",
".B c #cdcdcd",
".f c #cecece",
".K c #cfcfcf",
".2 c #d0d0d0",
".W c #d1d1d1",
"#n c #d2d2d2",
".3 c #d3d3d3",
".Z c #d4d4d4",
"#A c #d5d5d5",
".x c #d6d6d6",
"#e c #d7d7d7",
".X c #d8d8d8",
"## c #d9d9d9",
".M c #dadada",
".u c #dbdbdb",
".0 c #dcdcdc",
"#M c #dddddd",
".# c #dedede",
".H c #dfdfdf",
"#I c #e0e0e0",
"#m c #e1e1e1",
"#P c #e3e3e3",
".a c #e4e4e4",
"#4 c #e5e5e5",
"#X c #e6e6e6",
"#. c #e7e7e7",
"#8 c #e8e8e8",
".D c #e9e9e9",
".g c #eaeaea",
".t c #ededed",
"#b c #eeeeee",
".P c #efefef",
".G c #f0f0f0",
"#r c #f1f1f1",
".o c #f2f2f2",
".p c #f3f3f3",
".s c #f4f4f4",
".l c #f5f5f5",
"#g c #f6f6f6",
"#l c #f7f7f7",
".Q c #f8f8f8",
".h c #f9f9f9",
".k c #fafafa",
".n c #fbfbfb",
".w c #fcfcfc",
".z c #fdfdfd",
".C c #fefefe",
"Qt c None",
"QtQtQtQtQtQtQtQtQtQtQtQtQtQtQtQtQtQtQtQtQtQtQtQtQtQtQtQtQtQtQtQt",
"QtQtQtQtQtQtQtQtQtQtQtQtQtQtQt.#.aQtQtQtQtQtQtQtQtQtQtQtQtQtQtQt",
"QtQtQtQtQtQtQtQtQtQtQtQtQtQtQt.b.cQtQtQtQtQtQtQtQtQtQtQtQtQtQtQt",
"QtQtQtQtQtQtQtQtQtQtQtQtQtQtQt.d.eQtQtQtQtQtQtQtQtQtQtQtQtQtQtQt",
"QtQtQtQtQtQtQtQtQtQt.f.gQtQt.h.i.j.kQtQt.l.m.nQtQtQtQtQtQtQtQtQt",
"QtQtQtQt.o.pQtQtQtQt.q.r.s.n.t.u.v.a.w.n.x.y.zQtQtQt.p.lQtQtQtQt",
"QtQtQtQt.u.A.BQtQt.C.D.E.F.G.H.u.d.q.p.t.I.J.CQtQt.K.L.MQtQtQtQt",
"QtQtQtQtQt.r.N.O.P.Q.g.B.R.I.S.T.U.V.W.X.Y.F.n.h.Z.A.e.QQtQtQtQt",
"QtQtQtQtQtQt.J.0.1.2.3.T.4.5.6.7.7.L.8.9.9.W#.##.W#a.GQtQtQtQtQt",
"QtQtQtQtQtQt#b.N.M.5#a.c.1.i.i.q.q.m#c.S.T#d.m#e#f.3QtQtQtQtQtQt",
"QtQtQt#g.z.C.k##.8#h.S.i#i.m.q.B.B.q.i.m#j.T#k.R.v#lQtQtQtQtQtQt",
"QtQtQt.K#d.X#m#n#o.b.m#i.B.2#n.3.3.W.f.m.i#p.y#q###r#r#n.HQtQtQt",
"QtQtQt.z.3.S.F.9.5#s#s.f#n#t#u##.e#d.Z#a#v.i.d.Y.W#n.j.y.HQtQtQt",
"QtQtQtQt.w.a.r#w#x#y#z#x#A#z#B.##C#D.X#E#z.L#F.8#B.e#G#gQtQtQtQt",
"QtQtQtQt.k#r.f#k#G#y#C#H###z.6#F#C#I.T#E#J#K.i#L.v#i.p.zQtQtQtQt",
".k.0#i#e#M#e.S.9#F#y#N#C#O#z.c#a#v#P#Q#Q.4#C#i.A.A.K#A#A.m#j.0.k",
".a#k#R.7.O.i.v#s.F#y#N.V#S#z.c#S#u#P#E#H#T#z.L.A.6.i#G.6#U#V#W#X",
".z.s#.#M#i.J#W.9#p#y#N.3#H#z#R#E.a#q#z#t#N#C#K.b.Y.V#Y.m.H.D.s.z",
"QtQtQtQt.z.G.f#U.O#K#s.W.b#H#Z#h.##w#0.3.K#s#T.L#u.X#l.CQtQtQtQt",
"QtQtQtQt#g#m.m#1.R.i#i.f#n#A.X##.X#e.Z.2.m#i.I#k#F.i#X.zQtQtQtQt",
"QtQtQt##.7#W.R.L#R.O.F#i.B.2#n.3#n.W.K.q#i#c.L.I.r#L#B#G#gQtQtQt",
"QtQtQt#X.a.o#r.H.c#V#2.F.F.m.q.B.B.m#i.F#c#3.6#D.H#4###x#mQtQtQt",
"QtQtQtQtQtQt#g.x.x.e#V.J#F#i.F#i#i#i.F.E#O.L.f#5.X.CQtQtQtQtQtQt",
"QtQtQtQtQtQt#M.0.8#U.O.6.8.c#x#6#6#Y.Y.7#6#u.I.0.S.pQtQtQtQtQtQt",
"QtQtQtQtQt#n#D.U.I#.#X.W.V.v#d.R.V#B.O#c#5.u#n#d.i.6QtQtQtQtQtQt",
"QtQtQtQt.D#3#a#m.w.w#b#i#7.Z.Z.f#2.Y##.m#L#P.C.l.b#O.NQtQtQtQtQt",
"QtQtQtQt.u.r#bQtQtQt#8#U#i.l#..Z#Y.N.l.H.L.xQtQtQt#c#3.oQtQtQtQt",
"QtQtQtQtQtQtQtQtQtQt.O.A.n.C.Q#n.8##.C.z.O#dQtQtQtQt.l.kQtQtQtQt",
"QtQtQtQtQtQtQtQtQtQt#4.pQtQtQt#j.9.PQtQt.o#MQtQtQtQtQtQtQtQtQtQt",
"QtQtQtQtQtQtQtQtQtQtQtQtQtQtQt#x.9.lQtQtQtQtQtQtQtQtQtQtQtQtQtQt",
"QtQtQtQtQtQtQtQtQtQtQtQtQtQtQt.q.5.nQtQtQtQtQtQtQtQtQtQtQtQtQtQt",
"QtQtQtQtQtQtQtQtQtQtQtQtQtQtQt#l#8QtQtQtQtQtQtQtQtQtQtQtQtQtQtQt"};
