/* XPM */
static const char *msn_na[]={
"16 16 116 2",
".Q c #000000",
".z c #008ce5",
".l c #0099ff",
".# c #020202",
".i c #021b28",
".M c #030303",
".a c #040404",
".e c #050505",
".N c #05456b",
".j c #06131f",
".d c #0f0303",
"#G c #131313",
"#W c #142d14",
".y c #1b0202",
"#S c #1b411b",
".m c #246894",
"#v c #282802",
".b c #2b1105",
"#H c #2b412b",
".p c #323432",
"#Q c #344d0d",
"#i c #353502",
"#X c #35681b",
".n c #38647a",
".o c #45544f",
"#a c #4e1b02",
".q c #4f5a4f",
"#J c #528b38",
".r c #536353",
"#K c #559c32",
"#I c #56943c",
".s c #5a5644",
"#P c #5e5508",
"#F c #636363",
"#R c #66cc33",
"#T c #675a01",
"#L c #6b7c2b",
"#u c #737373",
".c c #741b02",
"#f c #747474",
"#h c #757575",
"#w c #767676",
"## c #777777",
".L c #797979",
".X c #7a7a7a",
".u c #7c4f3c",
".t c #7e503d",
".w c #7f573f",
".x c #853721",
".v c #896149",
"#j c #8a8a8a",
"#b c #8c8c8c",
".6 c #8c8d8d",
".A c #8f9191",
".Z c #909192",
".9 c #919191",
".O c #919393",
"#e c #929292",
".f c #9b2802",
"#V c #9b7402",
".5 c #9c1c03",
".3 c #9c9c9c",
"#N c #9f8b1f",
"#s c #9f9f9f",
"#M c #a09320",
"#E c #a0a0a0",
"#d c #a2a2a2",
"#D c #a3a3a3",
".2 c #a6a5a4",
"#C c #a6a6a6",
".k c #a72802",
".8 c #a7a8a7",
"#B c #a9a9a9",
"#o c #ababab",
"#q c #acacac",
".U c #afaead",
"#A c #afafaf",
".h c #b22600",
"#z c #b2b2b2",
"#O c #b39413",
"#g c #b4b4b4",
"#y c #b4b5b4",
"#. c #b6b6b6",
"#l c #b7b7b7",
"#x c #b8b8b8",
"#p c #b9b9b9",
"#t c #bcbcbc",
"#r c #bebebe",
".4 c #bfbfbf",
".V c #c1c1c1",
".1 c #c8c9c9",
".K c #cccccc",
".I c #cecece",
".W c #cfcfcf",
".T c #d0cfce",
".J c #d0d0d0",
"#n c #d1d1d1",
"#c c #d3d3d3",
".7 c #d4d5d6",
".H c #d5d3d3",
".Y c #d83300",
"#U c #d8b200",
".F c #d8d8d8",
"#m c #d9d9d9",
".0 c #d9dadb",
".G c #dad8d8",
"#k c #dbdbdb",
".S c #ddddde",
".R c #dedede",
".E c #e0e0e0",
".C c #e3e4e5",
".P c #e5e6e7",
".D c #e6e6e6",
".B c #e9eaeb",
".g c #ff3300",
"Qt c None",
"QtQtQtQtQtQtQtQtQtQtQt.#.#.#.#Qt",
"QtQtQtQtQtQtQtQtQtQt.a.b.c.c.d.#",
"Qt.#.#QtQtQtQtQtQt.e.f.g.g.g.h.a",
".a.i.j.a.#QtQtQt.a.k.g.g.g.g.g.a",
".a.l.m.n.o.p.q.r.s.t.u.v.w.x.g.y",
".a.z.A.B.C.D.E.F.G.H.I.J.K.L.g.a",
".M.N.O.P.Q.R.S.Q.T.U.Q.V.W.X.Y.a",
"Qt.e.Z.0.Q.Q.1.Q.2.Q.3.Q.4.L.5.a",
"Qt.M.6.7.Q.8.Q.Q.9.Q.Q.Q#.###a.#",
"QtQt#b#c.Q.J#d.Q#e.Q#f.Q#g#h#i.#",
"QtQt#j#k#l#m#n#o#p#q#r#s#t#u#v.#",
"QtQt#w#p#x#y#z#A#o#B#C#D#E#F.eQt",
"QtQtQtQt#G#H#I#J#K#L#M#N#O#P.MQt",
"QtQtQtQtQt.a#Q#R#R#S#T#U#V.eQtQt",
"QtQtQtQtQtQt.a#W#X.e.M.a.aQtQtQt",
"QtQtQtQtQtQtQt.#.#.#QtQtQtQtQtQt"};
