/* XPM */
static const char *msn_away[]={
"16 16 39 1",
"l c #0072bf",
"t c #007fcc",
"o c #008ce5",
"k c #0099ff",
"# c #020202",
"h c #021b28",
"p c #030303",
"v c #031c29",
"a c #040404",
"s c #050505",
"q c #05456b",
"i c #06131f",
"e c #0d0d8c",
"d c #0f0303",
"B c #132c13",
"J c #142d14",
"n c #1b0202",
"F c #1b411b",
"m c #210a62",
"z c #282802",
"b c #2b1105",
"D c #344d0d",
"x c #353502",
"K c #35681b",
"w c #4e1b02",
"E c #66cc33",
"G c #675a01",
"C c #736701",
"c c #741b02",
"I c #9b7402",
"u c #9c1c03",
"g c #b22600",
"j c #cacaca",
"r c #d83300",
"H c #d8b200",
"A c #e5bf00",
"f c #ff3300",
"y c #ffcc00",
". c None",
"...........####.",
"..........abccd#",
".##...eeeeefffga",
"ahia#ejjjjjefffa",
"akklejjjmjjjeffn",
"aokejjjjmjjjjefa",
"pqkejjjjmjjjjera",
".stejjjjmmmmjeua",
".pvejjjjjjjjjew#",
"..pejjjjjjjjjex#",
"...aejjjjjjjeyz#",
"....aejjjjjeyAs.",
"....#BeeeeeyyCp.",
".....aDEEFGHIs..",
"......aJKspaa...",
".......###......"};
