/* XPM */
static const char *xpm_10[]={
"32 32 128 2",
".A c #06adcd",
"#I c #0b6baf",
"#G c #1579c0",
".C c #1698b1",
"#x c #195784",
"#U c #1986d5",
"#w c #1a3f5a",
"#y c #1e262c",
"#P c #1e4d6f",
"#z c #1f689c",
".D c #213747",
"#C c #279aeb",
".K c #2a464b",
"#V c #2b5c80",
"#d c #2d343c",
".J c #306a76",
".M c #335968",
"#O c #34a3f2",
"#v c #3799de",
".5 c #393f46",
".I c #39cfec",
".W c #3a4854",
"#M c #3a78a4",
".L c #3ab6cd",
".E c #3f818e",
".U c #40454b",
".V c #414b53",
".B c #466f79",
"#3 c #469ad5",
".N c #46cfe9",
".p c #485158",
"#Z c #4b7fa5",
"#9 c #4d687a",
"#7 c #4f748d",
"## c #505963",
".O c #50676b",
".Y c #5394b1",
"#o c #58636d",
"#b c #595d61",
"#n c #5d6977",
".S c #608391",
"#6 c #64ade0",
".q c #65696d",
".w c #656d76",
"#5 c #66b3ea",
".6 c #697582",
".3 c #6a8488",
".b c #6c7277",
".T c #6dbac9",
".a c #727477",
"#H c #72bdf3",
"#T c #74a2c2",
".j c #757d83",
".X c #78cedf",
".R c #79d7e9",
"#e c #7a838b",
"#g c #7e8a92",
"#N c #7fb6de",
".7 c #82abb1",
".o c #848f99",
".Z c #858789",
".4 c #87b5c7",
"#p c #8a939c",
"#L c #8bcbf8",
".k c #8d98a2",
"#l c #909191",
".Q c #929799",
".h c #949a9f",
".f c #949da5",
"#X c #95d0fa",
"#r c #979797",
"#K c #98c6e7",
"#F c #98cff5",
".# c #9a9c9f",
".x c #9ca4ab",
"#E c #9dacb6",
".2 c #a0e0e8",
".H c #a2a9b1",
"#8 c #a3a3a3",
"#. c #a4a6a9",
".z c #a5acb3",
"#0 c #a7c3d7",
"#Y c #a7d5f6",
".m c #aaabab",
".y c #acb2b9",
"#c c #acc9c9",
"#i c #b0b6bc",
".8 c #b3f7ff",
"#s c #b4b4b4",
".G c #b6babe",
".1 c #b7bec4",
".l c #bbc0c3",
".n c #bdbdbe",
".F c #c1c0c0",
".g c #c2c3c5",
".e c #c3c6c8",
"#a c #c3e4e5",
"#R c #c4d3de",
".i c #c5c9cc",
"#f c #c8c7c7",
"#B c #c9e4f8",
"#q c #cbcaca",
".c c #ccced0",
".u c #d5d5d5",
".t c #d6d7d7",
"#m c #d6d8db",
"#2 c #d6ebf9",
".r c #dbdbdb",
"#J c #dde4ea",
".P c #dedede",
".d c #e0e1e1",
"#k c #e3e7e7",
".s c #e4e4e4",
"#j c #e6ebec",
"#A c #e7e7e7",
"#W c #e7eff5",
"#S c #e9e9e9",
"#h c #ededed",
"#1 c #eff7fd",
"#t c #f0f0f0",
"#u c #f2f4f5",
"#D c #f5f9fb",
".9 c #f7f7f7",
".0 c #f9f9fa",
".v c #fcfcfc",
"#4 c #fcfeff",
"#Q c #fefefe",
"Qt c None",
"QtQtQtQtQtQtQtQtQtQtQtQtQtQtQtQtQtQtQtQtQtQtQtQtQtQtQtQtQtQtQtQt",
"QtQtQtQtQtQtQtQtQtQtQtQtQtQtQtQtQtQtQtQtQtQtQtQtQtQtQtQtQtQtQtQt",
"QtQtQtQtQtQtQtQtQtQtQtQtQtQtQtQtQtQtQtQtQtQtQtQtQtQtQtQtQtQtQtQt",
"QtQtQtQtQtQtQtQtQtQtQtQtQtQtQtQtQtQtQtQtQtQtQtQtQtQtQtQtQtQtQtQt",
"QtQtQtQtQtQtQtQtQtQtQtQtQtQtQtQtQtQtQtQtQtQtQtQtQtQtQtQtQtQtQtQt",
"QtQtQtQtQtQtQtQtQtQtQtQtQtQt.#.a.b.cQtQtQtQtQtQtQtQtQtQtQtQtQtQt",
"QtQtQtQtQtQtQtQtQtQtQt.d.e.b.f.e.g.h.b.gQtQtQtQtQtQtQtQtQtQtQtQt",
"QtQtQtQtQtQtQtQtQtQt.i.j.k.l.e.m.n.c.o.p.q.r.c.sQt.t.u.vQtQtQtQt",
"QtQtQtQtQtQtQtQtQt.t.w.x.y.z.j.A.B.j.C.A.C.D.C.E.F.C.E.sQtQtQtQt",
"QtQtQtQtQtQtQtQt.G.w.H.z.y.l.j.I.J.B.I.K.L.M.J.L.K.N.O.PQtQtQtQt",
"QtQtQtQtQtQtQtQt.w.H.i.e.r.c.Q.R.O.S.T.U.V.W.p.X.T.Y.Z.0QtQtQtQt",
"QtQtQtQtQtQtQt.t.b.x.1.l.G.x.j.2.O.3.4.5.6.z.x.7.8.V.nQtQtQtQtQt",
"QtQtQtQt.9.##..j.1.H.y.z.k.o###a#b.b#c#d#e.j#f#g#a.p.q.j.q#hQtQt",
"QtQtQtQt.b.k.f#i.z.f.y.e.1#g.V#j.q#b#k.a.d#l.#.Z.d#b#i.z.6##.0Qt",
"QtQtQt.c#e.x.f.1.G.k.i#m.1#e.5.F.q.q.g#f#f.a.h.q.n.a#m.f#n.U.PQt",
"QtQtQt.w.H#e.H.P.e.H#i.f.6.j#e.r#l.Z.u.u.P.b.6#b.s.j.k.w#o.5.PQt",
"QtQtQt.j#p.H.1#m.f#g.j#n#n.e#q.m#r#s#r.m.Z.p.p.V.d#o#n#o#e.V.PQt",
"QtQtQt#h.p.a.k.f.o.6#o##.W#e.y.a.a.x.j.b.5.U.W.V#b#b##.b##.b#tQt",
"QtQtQtQt#u#v#w.U#n#x#y#d.q#z.D.5.k#x#d.5#o.D#d#d#e#x.M.j.m#AQtQt",
"QtQtQtQt#B#C#d.u#D#E.m#h#F#G.b#u#H#I#l#t#J.S.m#A#K#G.mQtQtQtQtQt",
"QtQtQtQt#L#M.a#D#N#l.v#D#O#P#q#Q#R.f#S#D#T#q#Q#u#U#V#SQtQtQtQtQt",
"QtQtQt#Q#W.F#A#X#U#b.v#Q.4#l.9#Y#Z#S#Q#F#G#.Qt#u#Z.mQtQtQtQtQtQt",
"QtQtQt#L.Y#l#D#O#w#s#Q#K.x.0#D#C#P.r.9#C#P.d#Q#0.c.vQtQtQtQtQtQt",
"QtQt#1#O#w#.#2#3#b#t#2#C.W.9#Y#U#b#Q#B#G.Z#Q#2#U#gQtQtQtQtQtQtQt",
"QtQt#L#C.5#t#4#h#t#Q#H#z#l#Q#5#x.eQt#u.r#u.v#6#I.cQtQtQtQtQtQtQt",
"QtQt#L#7#8QtQtQtQt#1#O.W.s#Q#j.d.0QtQtQt#Q#W#U#9.0QtQtQtQtQtQtQt",
"QtQt.v.9QtQtQtQtQtQt#A#AQtQtQtQtQtQtQtQtQt.9.u#AQtQtQtQtQtQtQtQt",
"QtQtQtQtQtQtQtQtQtQtQtQtQtQtQtQtQtQtQtQtQtQtQtQtQtQtQtQtQtQtQtQt",
"QtQtQtQtQtQtQtQtQtQtQtQtQtQtQtQtQtQtQtQtQtQtQtQtQtQtQtQtQtQtQtQt",
"QtQtQtQtQtQtQtQtQtQtQtQtQtQtQtQtQtQtQtQtQtQtQtQtQtQtQtQtQtQtQtQt",
"QtQtQtQtQtQtQtQtQtQtQtQtQtQtQtQtQtQtQtQtQtQtQtQtQtQtQtQtQtQtQtQt",
"QtQtQtQtQtQtQtQtQtQtQtQtQtQtQtQtQtQtQtQtQtQtQtQtQtQtQtQtQtQtQtQt"};
