/* XPM */
static const char *xpm_16[]={
"32 32 127 2",
"#R c #555555",
"#8 c #6b6b6b",
"#7 c #707070",
"#x c #777779",
".U c #797979",
".D c #7e7e7e",
".R c #7f839e",
"#P c #80859f",
"#I c #818181",
"#U c #838385",
"#Q c #8486a0",
"#M c #868686",
"#t c #868ba3",
".T c #87889c",
"#H c #88888e",
"#V c #89898a",
"#L c #8a8a90",
"#E c #8b8b90",
".Q c #8b8fa6",
"#1 c #8c8c8c",
".B c #8d90a9",
".5 c #8f90a1",
"#X c #909198",
".S c #9095ac",
"#c c #919192",
".v c #959595",
"#W c #959698",
".C c #969aaa",
"#b c #98999e",
"#q c #999999",
".3 c #999cb5",
".u c #9b9dac",
".l c #9c9c9c",
"#j c #9da2b7",
"#p c #9f9fa0",
"#T c #a1a1a1",
"#k c #a1a5ba",
"#. c #a3a9bc",
"#y c #a6a6a6",
"#5 c #a9a9a9",
".M c #abafc3",
"#s c #abb2be",
"#C c #abb2c2",
"#n c #adadb2",
"#2 c #aeaeae",
".L c #afb4c8",
".k c #b1b1b2",
".Z c #b1b6c6",
"#i c #b1b9c9",
"#O c #b4b7ca",
"#N c #b5b5b5",
"#D c #b5bac9",
".2 c #b5bbcd",
"#z c #b6becb",
".4 c #b7bece",
"#Y c #bababa",
"#u c #babecd",
".K c #babfd1",
".b c #bcbcbc",
".o c #bec4d2",
"#6 c #bfbfbf",
".Y c #bfc5d8",
".8 c #c0c6d8",
"#4 c #c1c1c1",
"#F c #c1c6d3",
".z c #c3c9d5",
".n c #c5c6ca",
"#o c #c6c6c6",
"#h c #c6ced8",
".a c #c9c9c9",
".A c #c9cddb",
"#r c #c9ced7",
".X c #cbd2df",
"#e c #cdcdcd",
".N c #ced1d9",
"#g c #ced3de",
".t c #ced3e0",
"#3 c #d0d0d0",
".P c #d0d7e3",
".f c #d1d3d4",
".w c #d2d2d2",
"#A c #d2d6de",
".x c #d3d9e2",
".V c #d5d5d5",
".H c #d6d9dd",
"#S c #d8d8d8",
".j c #d8d9dc",
"#f c #d9d9d9",
".E c #dadada",
".0 c #dadee4",
".7 c #dae0e8",
".9 c #dbe0e7",
".J c #dce2ec",
"#Z c #dddddd",
".6 c #dde2e9",
".y c #dfe3eb",
"#a c #e1e5eb",
".W c #e1e6ee",
".e c #e2e2e2",
".# c #e6e6e6",
"## c #e6eaef",
"#m c #e7ebf0",
".G c #e8e8e8",
"#l c #e8eaed",
".i c #eaedf1",
"#v c #eceded",
".g c #eff0ef",
".p c #eff1f3",
".O c #eff2f4",
".m c #f2f2f3",
".s c #f2f4f6",
"#w c #f4f4f5",
".r c #f4f5f6",
"#J c #f4f6f8",
".F c #f5f5f5",
".I c #f5f6f6",
"#B c #f5f8fa",
".h c #f6f6f5",
".d c #f6f6f6",
"#G c #f8f7f7",
".q c #f8f8f8",
"#d c #f9f9f9",
".c c #fafafa",
"#0 c #fcfcfc",
".1 c #fdfdfd",
"#K c #fefefc",
"Qt c None",
"QtQtQtQtQtQtQtQtQtQtQtQtQtQtQtQtQtQtQtQtQtQtQtQtQtQtQtQtQtQtQtQt",
"QtQtQtQtQtQtQtQtQtQtQtQtQtQtQtQtQtQtQtQtQtQtQtQtQtQtQtQtQtQtQtQt",
"QtQtQtQtQtQtQtQtQtQtQtQtQtQtQtQtQtQtQtQtQtQtQtQtQtQtQtQtQtQtQtQt",
"QtQtQtQtQtQtQtQtQtQtQtQtQt.#.a.b.b.cQtQtQtQtQtQtQtQtQtQtQtQtQtQt",
"QtQtQtQtQtQtQtQtQtQt.d.e.f.g.h.i.j.k.l.cQtQtQtQtQtQtQtQtQtQtQtQt",
"QtQtQtQtQtQtQtQtQt.m.n.o.p.d.q.r.s.t.u.v.w.mQtQtQtQtQtQtQtQtQtQt",
"QtQtQtQtQtQtQtQt.m.w.i.m.s.x.y.x.z.i.A.B.C.D.E.FQtQtQtQtQtQtQtQt",
"QtQtQtQtQtQtQt.G.H.r.I.r.J.K.L.M.N.O.P.Q.R.S.T.U.VQtQtQtQtQtQtQt",
"QtQtQtQtQtQtQt.a.i.O.r.W.X.Y.Z.0.1.i.2.3.L.4.3.5.U.#QtQtQtQtQtQt",
"QtQtQtQtQtQt.g.w.6.0.7.P.X.8.4.9.y.o.3#..J###a.o#b#cQt#dQtQtQtQt",
"QtQtQt.q#e.a#f.O#g#h.z.4#i#j#j.2.L.3#k#l.d#d#m.W#a#n#o#p#q.dQtQt",
"QtQtQt.n#m#a.i#r#s.o.0.x#.#t#j.t.K#u#v#d.q.m.6.x.p#w.W.2#x#yQtQt",
"QtQt.e.N#z.Z.x#A#s.0#B.6#C#t#D#B.O#d.I.i.i#A#.#u#B.r.A#k#E.DQtQt",
"QtQt#o.y#.#F#G##.X.7.A#.#.#A#l#w.F.s.7.o#C#k#t#C#A#u#k.3#H#IQtQt",
"QtQt#o.s.0.9#J.A#u.Z#k.S.0#K.q.F#G.i#F#k.S.Q.B#.#..S#j#u#L#MQtQt",
"QtQt.F#N.f#g#g#F#O#j.S#P.Z##.y.G.r#a.o#j#t#Q.3.o.o#z.N#n#R#SQtQt",
"QtQtQt.m#o#T.v#y#M#c#U#V#c.l#W#p.k#W#p#E#X#X#H#M#q#c#Y.U#ZQtQtQt",
"QtQtQtQt#0#S.##e#M.F#v#G#v.b.w#1#2#o.k.U.E.V#e.e#3.V#1#yQtQtQtQt",
"QtQtQtQtQt#2#3#4#4.w#fQt#Z#e#4#5#f.D#5.l#G.##p#o.F.e.l.mQtQtQtQt",
"QtQtQtQt.m#Z.e#Z#I#M#oQt#e#U.l#6#M.a#N#oQtQt.d.V#3#y.l#p#4QtQtQt",
"QtQtQtQt#o.D#5.D#5.EQtQtQt.E.E.b#5.k#7.aQtQt.G#1#c#5#N#o#SQtQtQt",
"QtQtQtQt#v#v.a#c#2#qQtQtQtQt#6.D#q#o#e.qQtQt#e#5#d#5#2QtQtQtQtQt",
"QtQtQtQtQtQt#p#NQt.dQtQtQtQtQt.G.dQt#0#v#0#KQtQtQt.V.VQtQtQtQtQt",
"QtQtQtQtQtQt#0.1Qt.m#e.w.a.gQtQtQtQt.e.k.#.##p#wQtQtQtQtQtQtQtQt",
"QtQtQtQtQtQtQtQt#K#3#c#5#M#oQtQtQtQt.1.b.a#5#I.1QtQtQtQtQtQtQtQt",
"QtQtQtQtQtQtQtQt.G#2#W#6#6#2.wQtQt.E.b#f.F#p#S#Z#0QtQtQtQtQtQtQt",
"QtQtQtQtQtQtQtQt.E#c#N.e#6#V.aQtQt.k#V.a.e.U#p#I.GQtQtQtQtQtQtQt",
"QtQtQtQtQtQtQtQt.1.w#5#N#T.k.cQtQtQt.d#2#c#y#Z#f#dQtQtQtQtQtQtQt",
"QtQtQtQtQtQtQtQtQt.e.v#2#q.eQtQtQtQt#o#8#v.b#cQtQtQtQtQtQtQtQtQt",
"QtQtQtQtQtQtQtQtQtQtQtQtQtQtQtQtQtQt#S.aQt#6#2QtQtQtQtQtQtQtQtQt",
"QtQtQtQtQtQtQtQtQtQtQtQtQtQtQtQtQtQtQtQtQtQtQtQtQtQtQtQtQtQtQtQt",
"QtQtQtQtQtQtQtQtQtQtQtQtQtQtQtQtQtQtQtQtQtQtQtQtQtQtQtQtQtQtQtQt"};
