/* XPM */
static const char *xpm_19[]={
"32 32 128 2",
".V c #161615",
"#a c #1f1e1c",
".N c #232221",
".y c #292825",
".A c #323130",
".Z c #3b3935",
".v c #403e38",
".3 c #43423b",
".G c #474542",
".F c #4f4c4a",
"#Y c #55504b",
"#V c #5c5754",
"#d c #645e58",
".K c #68655b",
".L c #6d6b69",
"#R c #736962",
".6 c #78726d",
".4 c #7b7976",
".u c #7f7c7a",
"#Q c #80756a",
"#u c #847b72",
"#x c #848280",
"#X c #87807a",
"#v c #87846f",
"#t c #8a7f76",
".Q c #8b8580",
"#S c #8d837a",
"#E c #8d8779",
"#0 c #8d8c8b",
"#1 c #8f8883",
"#k c #928a85",
"#M c #928e70",
".k c #929190",
"#H c #949492",
"#w c #958d88",
"#3 c #988f89",
"#l c #98908b",
"#B c #989184",
"#2 c #99928d",
"#j c #99948b",
"#e c #9a9795",
"#6 c #9b948e",
"#4 c #9c9590",
"#K c #9d9877",
"#b c #9d9996",
"#z c #9e9c9b",
".I c #a19d99",
".l c #a1a09e",
"#N c #a39d7d",
"#n c #a5a18b",
".P c #a5a29d",
"#5 c #a5a3a1",
"#G c #a7a6a5",
"#W c #a8a27c",
"#7 c #a9a5a3",
".b c #aaa9a9",
".n c #acaaa9",
".Y c #ada9a0",
".a c #adacac",
".E c #aeada7",
".j c #afafad",
"#D c #b0aa86",
"#8 c #b2b0af",
".m c #b3b3b2",
"#m c #b4ae96",
".C c #b8b7b1",
".R c #bab9b5",
".c c #bababa",
"#F c #bbb795",
".5 c #bdbaae",
"#P c #beb88c",
"## c #bfbaa2",
".O c #bfbeb6",
".h c #c0c0c0",
"#L c #c1ba93",
"#h c #c4c2c0",
".W c #c5c3bf",
"#Z c #c5c5c5",
".x c #c6c6c1",
".2 c #c7c3b3",
"#o c #c8c3a5",
".t c #c8c8c4",
"#y c #c8c8c8",
"#O c #cac39a",
".7 c #cac7b8",
".z c #cbcbc9",
".U c #cfccbd",
".r c #cfcec9",
".o c #d0d0d0",
"#q c #d2cca7",
".9 c #d3ceb3",
"#c c #d4d1bb",
".B c #d4d4d4",
".w c #d7d7d3",
".s c #dadad9",
"#s c #dbd5b2",
".1 c #dbd7c1",
".J c #dddacf",
".g c #dedede",
".q c #e1e0db",
".e c #e1e1e1",
"#T c #e5dda8",
".# c #e5e5e5",
"#g c #e8e8e8",
".M c #e9e8dd",
"#9 c #ececec",
"#U c #ede4ad",
".D c #eeede4",
".i c #eeeeee",
"#J c #efe8b5",
".0 c #efebd8",
"#p c #f0eac4",
"#i c #f0ebcb",
".8 c #f0ecd2",
".T c #f0eedc",
"#A c #f1eabe",
".d c #f1f0f0",
".X c #f5f3df",
".H c #f5f4e7",
"#I c #f6eebb",
"#C c #f6efc2",
"#r c #f6efc9",
"#. c #f6f1d3",
".S c #f6f6f6",
".f c #f9f9f9",
"#f c #fafafa",
".p c #fdfdfd",
"Qt c None",
"QtQtQtQtQtQtQtQtQtQtQtQtQtQtQtQtQtQtQtQtQtQtQtQtQtQtQtQtQtQtQtQt",
"QtQtQtQtQtQtQtQtQtQtQtQtQtQtQtQtQtQtQtQtQtQtQtQtQtQtQtQtQtQtQtQt",
"QtQtQtQtQtQtQtQtQtQtQtQtQtQtQtQtQtQtQtQtQtQtQtQtQtQtQtQtQtQtQtQt",
"QtQtQtQtQtQtQtQtQtQtQtQtQtQtQtQtQtQtQtQtQtQtQtQtQtQtQtQtQtQtQtQt",
"QtQtQtQtQtQtQtQtQtQtQtQtQtQtQtQtQtQtQtQtQtQtQtQtQtQtQtQtQtQtQtQt",
"QtQtQtQtQtQtQtQtQtQtQtQtQtQtQtQtQtQtQtQtQtQtQtQtQtQtQtQtQtQtQtQt",
"QtQtQtQtQtQtQtQtQtQtQtQtQtQtQtQtQtQtQtQtQtQtQtQtQtQtQtQtQtQtQtQt",
"QtQtQt.#.a.a.b.c.dQt.e.a.c.f.g.a.h.f.i.j.k.l.#.g.m.n.a.a.a.o.fQt",
"QtQt.p.q.r.s.t.u.v.e.w.x.y.e.z.t.A.B.C.D.d.E.F.j.w.r.r.w.z.G.BQt",
"Qt.p.f.H.D.I.J.H.K.L.M.H.N.o.J.H.y.O.H.P.C.H.Q.Q.R.M.H.O.E.L.eQt",
"Qt.S.i.T.U.V.W.X.Y.Z.J.0.N.b.1.T.y.2.X.3.4.5.4.6.z.7.X.G.h.fQtQt",
"Qt.d.w.8.9.V.Y#.##.A.1.8#a#b#c.8.N.Y#.#c#d.F#e.j.m.2#..G.a.d#f.p",
"Qt#g#h#i.9.V#j#.##.y.1#i#a#k.9#i.N#l#m#.#.#n.v.Q.k#o#..3.k.g.d#f",
".p.s.j#p#q.V#l#r##.y#s#p#a#t#q#p.N.6.6#u.9#r#v.G#w#o#r.v#x.h.s.d",
"#f#y#z#A#q.V#B#C#D.y#s#A.V.6#q#A.y#m#o.N#E#C#F.A#k#o#C.3.4#G.h.g",
".f.h#H#I#J#K#q#I.K.Z#L#I#K#M#I#L.y#L#I#M#N#I#M.Z.Q#O#I.3.u.l.a.z",
".f.h#H#O#P#O#P#Q.y#R#S#D#T#U#D.v#V#E#P#U#T#W.Z.L#X#N#P.v.4#e.l.h",
".f.c#b#x.K#d#d#d#Q#u#t#u#V.G.F#R#u#t.6#Y.G#V.4.u.u.L#V.L.u.k.l#Z",
".f.c#H#w#0#k#k#k#1#S#S#t#u#Q#Q#Q#Q#Q#u#u#X#S.Q.Q#1#1#1#0#0#e#G.o",
"#f#Z#z.k#2#2#l#w#w#1#1#E#S#S#t#t#t#S#1#k#3#l#2#4.I.l#5#G#5.l#G.o",
".p.s.j#z#e#b#e#b#4#l#w#3#3#3#w#w#w#3#l#6#6#2#4#b.I#5#7.b#5.l.j.B",
".p.g.h.a#G.l.l#z#b#4#4#l#6#l#l#2#4#l#6#2#2#6#4#4.I.l#5.b.b.b#y#g",
"Qt.d.s.B.h.h.c.R.n#8#7#7#5#7.I.Y.l.P.P#7.l.n#7.n.a.m#8.c.c#Z.e.f",
"Qt.p.S.S#9#9#9#9.##g.g.g.e.#.g.e.s.g.e.#.g.#.g.e#g#9#g#9#9.i.f.p",
"QtQtQt#f#f.f.f.f#f.f.S.S.S.f.f.S.S.S.S.f#f.f.S.S.S.f#f.f.f#f.pQt",
"QtQtQtQtQtQt.p.pQt.pQtQt.p.pQt.p.pQt.p.p.p.pQtQt.p.pQt.pQtQtQtQt",
"QtQtQtQtQtQtQtQtQtQtQtQtQtQtQtQtQtQtQtQtQtQtQtQtQtQtQtQtQtQtQtQt",
"QtQtQtQtQtQtQtQtQtQtQtQtQtQtQtQtQtQtQtQtQtQtQtQtQtQtQtQtQtQtQtQt",
"QtQtQtQtQtQtQtQtQtQtQtQtQtQtQtQtQtQtQtQtQtQtQtQtQtQtQtQtQtQtQtQt",
"QtQtQtQtQtQtQtQtQtQtQtQtQtQtQtQtQtQtQtQtQtQtQtQtQtQtQtQtQtQtQtQt",
"QtQtQtQtQtQtQtQtQtQtQtQtQtQtQtQtQtQtQtQtQtQtQtQtQtQtQtQtQtQtQtQt",
"QtQtQtQtQtQtQtQtQtQtQtQtQtQtQtQtQtQtQtQtQtQtQtQtQtQtQtQtQtQtQtQt"};
