/* XPM */
static const char *xpm_24[]={
"32 32 128 2",
"#0 c #181818",
"#f c #2f2f2f",
".O c #3a3a3a",
"#h c #3c3c3c",
".I c #424242",
"#c c #464646",
".W c #484848",
".C c #4a4a4a",
".0 c #4d4d4d",
".E c #525252",
"#S c #565656",
"#P c #5d5d5d",
".T c #606060",
"#s c #636363",
".y c #666666",
".G c #6d6d6d",
".X c #6e6e6e",
".z c #6f6f6f",
"#M c #717171",
".N c #727272",
"#. c #747474",
".M c #767676",
"#G c #797979",
".K c #7b7b7b",
"#o c #7c7c7c",
".V c #7d7d7d",
".9 c #7e7d7e",
"#D c #7e7e7e",
".B c #808080",
"#v c #828282",
"#r c #838382",
"#i c #838383",
"#a c #848484",
".F c #878787",
"#X c #888888",
"#w c #898989",
".2 c #8a8a8a",
".D c #8d8d8d",
"#3 c #8e8e8e",
".A c #909090",
"#e c #939393",
"#H c #959595",
".3 c #969595",
".P c #969696",
".o c #979797",
"#C c #989898",
".J c #999999",
"#2 c #9b9b9b",
".n c #9c9c9c",
"#y c #9f9f9f",
"#b c #a09f9f",
".j c #a0a0a0",
".c c #a1a1a1",
".a c #a4a4a4",
".H c #a4a5a5",
".8 c #a5a5a5",
".h c #a6a6a6",
".Z c #a7a7a7",
"#n c #a8a8a7",
"#T c #a8a8a8",
".Y c #a9a9a9",
".s c #aaaaaa",
"#4 c #ababab",
"#q c #acacac",
"#k c #acadad",
"#p c #adadad",
".l c #afafaf",
"## c #b0b0b0",
".U c #b1b0b0",
"#m c #b1b1b1",
".f c #b2b2b2",
"#t c #b3b3b3",
".L c #b6b6b6",
".k c #b7b7b7",
"#j c #b8b7b8",
".e c #bababa",
"#g c #bbbbbb",
"#E c #bdbdbd",
".t c #bebebe",
".7 c #bfbfbf",
".d c #c1c1c1",
".S c #c2c2c2",
"#R c #c4c4c4",
".1 c #c5c4c4",
".g c #c5c5c5",
"#O c #c6c6c6",
"#1 c #c9c9c9",
"#K c #cacaca",
"#A c #cccccc",
"#N c #cdcdcd",
".# c #cecece",
"#d c #cfcfcf",
"#u c #d0cfd0",
".p c #d2d2d2",
"#F c #d5d5d5",
".q c #d6d6d6",
".m c #d7d7d7",
".r c #d8d8d8",
".b c #d9d9d9",
".i c #dbdbdb",
"#B c #dcdcdc",
"#Z c #dddddd",
"#I c #dedede",
"#Y c #dfdfdf",
"#J c #e0e0e0",
".x c #e3e3e3",
"#Q c #e4e4e4",
"#5 c #e5e5e5",
".R c #e6e6e6",
".Q c #e7e7e7",
"#W c #e8e8e8",
"#9 c #eaeaea",
"#8 c #ebebeb",
"#6 c #ececec",
".6 c #eeeeee",
"#x c #f0f0f0",
"#7 c #f2f2f2",
".w c #f4f4f4",
"#L c #f5f5f5",
".4 c #f6f6f6",
"#V c #f7f7f7",
".u c #f9f9f9",
"#l c #fafafa",
"#z c #fbfbfb",
".v c #fcfcfc",
".5 c #fdfdfd",
"#U c #fefefe",
"Qt c None",
"QtQtQtQtQtQtQtQtQtQtQtQtQtQtQtQtQtQtQtQtQtQtQtQtQtQtQtQtQtQtQtQt",
"QtQtQtQtQtQtQtQtQtQtQtQtQtQtQtQtQtQtQtQtQtQtQtQtQtQtQtQtQtQtQtQt",
"QtQtQtQtQtQtQtQtQtQtQtQtQtQtQtQtQtQtQtQtQtQtQtQtQtQtQtQtQtQtQtQt",
"QtQtQtQtQtQtQtQtQtQtQtQtQtQtQtQtQtQtQtQtQtQtQtQtQtQtQtQtQtQtQtQt",
"QtQtQtQtQtQtQtQtQtQtQtQtQtQtQtQtQtQtQtQtQtQtQtQtQtQtQtQtQtQtQtQt",
"QtQtQtQtQtQtQtQtQtQtQtQtQtQtQtQtQtQtQtQtQtQtQtQtQtQtQtQtQtQtQtQt",
"QtQtQtQtQtQtQtQtQtQtQtQtQtQtQtQtQtQtQtQtQtQtQtQtQtQtQtQtQtQtQtQt",
"QtQtQtQtQtQtQtQtQtQtQtQtQtQtQtQtQtQtQtQtQtQtQtQtQtQtQtQtQtQtQtQt",
"QtQtQtQtQtQtQtQtQtQtQtQtQtQtQtQtQtQtQtQtQtQtQtQtQtQtQtQtQtQtQtQt",
"QtQtQtQtQtQtQtQtQtQtQtQtQtQtQtQtQtQtQtQtQtQtQtQtQtQtQtQtQtQtQtQt",
"QtQtQtQtQtQt.#.a.b.c.d.e.f.g.h.i.j.k.d.l.m.n.o.p.q.j.r.s.t.uQtQt",
"QtQtQt.v.w.x.y.j.z.A.B.C.D.E.j.F.G.H.I.J.K.z.L.a.M.N.D.O.P.QQtQt",
"QtQtQt.v.R.S.T.U.E.#.V.K.B.W.f.X.Y.e.C.Z.0.Z.F.1.B.B.2.3.P.4QtQt",
"QtQtQt.5.6.7.y.8.9.i#.###a.M#b#c#d.f.M#e#f#g#h.S#i#a#j#k.qQtQtQt",
"QtQtQt#l.R.L.M#m.L.k.c#n#o#p.D.C.d###q#r#s#t.O#u#v#w#x#y#zQtQtQt",
"QtQtQt#z#A#g#i#B#C.8#d.F.C.##D#o#y#E#F.X.j.P#s.L#G#H#I#JQtQtQtQt",
"QtQtQt.w#K#q.o#L#M#N#d.s.C#O#P.l#.#Q#K#c#R#S.s.c.0#T.lQtQtQtQtQt",
"Qt#U#V#W.S.J.t#F#P#L.o.P#X#q.O#N#S#L.Y#f#Y.V#Z.f#0#1#RQtQtQtQtQt",
"Qt.5.u#x#J#O.#.j#2.i#2.t#t#T#X.k#3#Q#4#X.R#Y#T.p.M.g#5QtQtQtQtQt",
"QtQtQtQtQt.v#6#7#V#8.u.5#6#7#7#x.w#9.w#x.Q.6QtQt#x.6QtQtQtQtQtQt",
"QtQtQtQtQtQtQtQtQtQtQtQtQtQtQtQtQtQtQtQtQtQtQtQtQtQtQtQtQtQtQtQt",
"QtQtQtQtQtQtQtQtQtQtQtQtQtQtQtQtQtQtQtQtQtQtQtQtQtQtQtQtQtQtQtQt",
"QtQtQtQtQtQtQtQtQtQtQtQtQtQtQtQtQtQtQtQtQtQtQtQtQtQtQtQtQtQtQtQt",
"QtQtQtQtQtQtQtQtQtQtQtQtQtQtQtQtQtQtQtQtQtQtQtQtQtQtQtQtQtQtQtQt",
"QtQtQtQtQtQtQtQtQtQtQtQtQtQtQtQtQtQtQtQtQtQtQtQtQtQtQtQtQtQtQtQt",
"QtQtQtQtQtQtQtQtQtQtQtQtQtQtQtQtQtQtQtQtQtQtQtQtQtQtQtQtQtQtQtQt",
"QtQtQtQtQtQtQtQtQtQtQtQtQtQtQtQtQtQtQtQtQtQtQtQtQtQtQtQtQtQtQtQt",
"QtQtQtQtQtQtQtQtQtQtQtQtQtQtQtQtQtQtQtQtQtQtQtQtQtQtQtQtQtQtQtQt",
"QtQtQtQtQtQtQtQtQtQtQtQtQtQtQtQtQtQtQtQtQtQtQtQtQtQtQtQtQtQtQtQt",
"QtQtQtQtQtQtQtQtQtQtQtQtQtQtQtQtQtQtQtQtQtQtQtQtQtQtQtQtQtQtQtQt",
"QtQtQtQtQtQtQtQtQtQtQtQtQtQtQtQtQtQtQtQtQtQtQtQtQtQtQtQtQtQtQtQt",
"QtQtQtQtQtQtQtQtQtQtQtQtQtQtQtQtQtQtQtQtQtQtQtQtQtQtQtQtQtQtQtQt"};
