/* XPM */
static const char *xpm_39[]={
"32 32 128 2",
"#g c #0e1114",
"#i c #191d20",
"#c c #1d2325",
".K c #282f34",
"#j c #2a444a",
".S c #2e383f",
"#h c #304c57",
".8 c #384249",
".J c #3a4754",
"#f c #3e6c77",
".B c #434f5a",
"#y c #474a4a",
"## c #4a5359",
".I c #4d5966",
"#x c #4f838d",
"#u c #545656",
".R c #57616b",
"#q c #587c84",
"#V c #5a919b",
"#C c #5b8d97",
".p c #5c6773",
"#p c #5c838b",
"#e c #5db6c4",
"#W c #5fa1ae",
"#v c #60939e",
".t c #626d78",
"#s c #628992",
"#n c #62b3bf",
"#Y c #64a7b3",
"#r c #65bac7",
"#o c #667072",
".9 c #667383",
".W c #67727f",
"#k c #686868",
"#w c #68d5e3",
"#t c #69d0dd",
".b c #6a7075",
".4 c #6b7582",
"#I c #6bc2cf",
".T c #6c737a",
"#z c #6cc8d6",
".7 c #6d7985",
"#7 c #6d8186",
".a c #70767b",
".A c #707c87",
"#F c #7098a0",
"#B c #72c1ce",
".k c #737c83",
"#M c #73bdca",
"#2 c #748387",
"#D c #757575",
".O c #76818b",
"#G c #797979",
"#a c #797c7e",
".P c #7a858f",
"#L c #7d9398",
"#9 c #7dbac6",
"#4 c #7ec6d1",
".q c #7f8183",
".3 c #7f8993",
"#Z c #7fb3bd",
"#8 c #7fbec8",
"#U c #80b7c2",
".Q c #838e9a",
"#H c #85b9c3",
"#X c #8aabb3",
"#T c #8b8b8b",
".V c #8b939b",
"#5 c #8bc3ce",
".Y c #8c97a1",
".i c #9298a0",
".# c #939ba2",
"#J c #93b5bc",
".f c #959ea7",
"#P c #969696",
".w c #96a1a9",
".H c #99a0a6",
".F c #9ba3ab",
"#m c #9dc9d2",
".o c #9fa7af",
"#R c #9fbcc3",
"#E c #9fc1c9",
".E c #a3abb2",
".0 c #a4a6a7",
"#O c #a4c6cd",
".v c #a9adb2",
"#0 c #a9b8bc",
".x c #acb3b9",
".u c #adb1b4",
".X c #afb7bf",
".y c #b1b6bb",
"#1 c #b2b3b3",
"#Q c #b4cfd5",
".D c #b5b9bd",
".G c #b5bbc2",
".U c #b8bec5",
"#S c #bababb",
"#6 c #bbd5db",
".l c #bcc1c3",
".h c #bec4c9",
".e c #c3c4c5",
".g c #c3c6c9",
".z c #c5c8cb",
".j c #c9c9c9",
".M c #c9cbcc",
".m c #cbcfd1",
".5 c #cccdce",
"#K c #cdd4d6",
".c c #cececf",
"#N c #cee2e7",
"#b c #d1d1d1",
"#. c #d1d3d7",
".6 c #d2d4d6",
".n c #d4d5d5",
".s c #d5d6d7",
".1 c #d5d8db",
".N c #d9d9da",
".L c #dbdbdb",
"#A c #dbe5e7",
".d c #dedede",
".C c #e3e4e4",
".r c #eaebeb",
"#l c #f0f0f0",
".2 c #f3f4f4",
".Z c #f7f7f7",
"#3 c #fbfbfb",
"#d c #fdfdfd",
"Qt c None",
"QtQtQtQtQtQtQtQtQtQtQtQtQtQtQtQtQtQtQtQtQtQtQtQtQtQtQtQtQtQtQtQt",
"QtQtQtQtQtQtQtQtQtQtQtQtQtQtQtQtQtQtQtQtQtQtQtQtQtQtQtQtQtQtQtQt",
"QtQtQtQtQtQtQtQtQtQtQtQtQtQtQtQtQtQtQtQtQtQtQtQtQtQtQtQtQtQtQtQt",
"QtQtQtQtQtQtQtQtQtQtQtQtQtQtQtQtQtQtQtQtQtQtQtQtQtQtQtQtQtQtQtQt",
"QtQtQtQtQtQtQtQtQtQtQtQtQtQt.#.a.b.cQtQtQtQtQtQtQtQtQtQtQtQtQtQt",
"QtQtQtQtQtQtQtQtQtQtQt.d.e.b.f.g.h.i.b.eQtQtQtQtQtQtQtQtQtQtQtQt",
"QtQtQtQtQtQtQtQtQtQt.j.k.i.l.m.n.n.m.o.p.q.rQtQtQtQtQtQtQtQtQtQt",
"QtQtQtQtQtQtQtQtQt.s.t.o.u.v.w.x.y.v.z.l.A.B.q.CQtQtQtQtQtQtQtQt",
"QtQtQtQtQtQtQtQt.D.t.o.E.x.l.F.F.E.D.e.G.H.I.J.K.aQtQtQtQtQtQtQt",
"QtQtQtQtQtQtQtQt.t.E.z.z.L.m.g.E.M.N.h.O.t.P.Q.R.S.vQtQtQtQtQtQt",
"QtQtQtQtQtQtQt.s.T.o.U.l.G.F.f.f.h.h.V.R.W.X.h.G.Y.b.ZQtQtQtQtQt",
"QtQtQtQt.Z.#.0.k.U.E.x.v.Y.Q.W.W.Q.A.R.t.z.1.d.h.U.E.b.k.T.2QtQt",
"QtQtQtQt.a.i.#.y.v.#.x.h.U.3.R.4.o.3.3.5.d.d.6.G.E.G.y.E.7.RQtQt",
"QtQtQt.5.O.w.f.U.D.Y.z.1.G.P.I.V.1.m.d.s.m.m.x.O.V.1.N.w.t.8.rQt",
"QtQtQt.b.E.O.E.d.h.o.X.f.9.7.u.M.6.N#..X.w.Q.7##.P.G.#.t.I.S.jQt",
"QtQtQt#a.V.E.U.1.f.3.A.t.t.g.C.d.L.6.g.#.A.R.B.B.7.O.p.R.P.8#bQt",
"QtQtQt.s.S.a.Y.#.Q.4.R.I.J.O.y.F.V.H.x.4.I.B.J.I.p.4.I.T###c.cQt",
"QtQtQt#d.V#e#c#c#f#c#g#h#i#g#f.K#g#f.8#i#h.K.K#h#j#g#f#j#g#k#lQt",
"QtQtQtQt#m#n.K#o#p.K#q#r#c#s#t#i#u#v#c.8#w.S#c#x.K.R#w#y.R.CQtQt",
"QtQtQt#d#z#q.q#A.r.C#B#C#D#E#F#G.C.2.5#H#r#u.0#b#b#H#I#u.5QtQtQt",
"QtQtQtQt#J#a.l#z.a#K#B.R.v#A.C.r#I#L.c#M#p.q#I#L.j#M#s#a.2QtQtQt",
"QtQtQt#N#K#l#m#n#u.N.r#b#O#r#P#Q#t#u.l.2.e#R#t#u#S.2.e.NQtQtQtQt",
"QtQt#d#z#q#S#z#q#T#U#L.N#B#V#a#M#W#k#R#X.n#M#Y#k#J#X#bQtQtQtQtQt",
"QtQt#N#z#y.z#Z#a.h#t###0#w###1#U.k#1#z#p#P#Z#2.u#z#p#T#3QtQtQtQt",
"QtQt#4#W.b#l#d.Z#5#Y#k#O#Y#G.C#d#l#6#t#u.e#d#l#Q#t#u#SQtQtQtQtQt",
"QtQt#H#7#SQtQt#d#M#q.0#3.2#lQtQtQt#8#Y#G#lQtQt#9#Y#G.rQtQtQtQtQt",
"QtQt#d#3QtQtQtQt.Z.C.2QtQtQtQtQtQt#3.L.CQtQtQt#3.d.CQtQtQtQtQtQt",
"QtQtQtQtQtQtQtQtQtQtQtQtQtQtQtQtQtQtQtQtQtQtQtQtQtQtQtQtQtQtQtQt",
"QtQtQtQtQtQtQtQtQtQtQtQtQtQtQtQtQtQtQtQtQtQtQtQtQtQtQtQtQtQtQtQt",
"QtQtQtQtQtQtQtQtQtQtQtQtQtQtQtQtQtQtQtQtQtQtQtQtQtQtQtQtQtQtQtQt",
"QtQtQtQtQtQtQtQtQtQtQtQtQtQtQtQtQtQtQtQtQtQtQtQtQtQtQtQtQtQtQtQt",
"QtQtQtQtQtQtQtQtQtQtQtQtQtQtQtQtQtQtQtQtQtQtQtQtQtQtQtQtQtQtQtQt"};
