/* XPM */
static const char *xpm_41[]={
"32 32 127 2",
"#T c #555555",
"#8 c #6e6e6e",
"#z c #777779",
".V c #797979",
".F c #7e7e7e",
".S c #7f839e",
"#J c #818181",
"#Q c #8286a0",
"#V c #838485",
"#O c #868686",
".U c #868aa1",
"#I c #88888e",
"#W c #89898a",
"#F c #8a8b92",
"#N c #8b8b8f",
".R c #8b8fa6",
"#2 c #8c8c8c",
"#M c #8c8ea9",
".D c #8e90a5",
"#Z c #909198",
".T c #9095ac",
"#g c #919192",
".t c #959595",
"#X c #959699",
".E c #969aaa",
"#f c #989a9e",
"#s c #999999",
".5 c #999cb4",
".s c #9b9dac",
".j c #9c9c9c",
"#n c #9da2b7",
"#r c #9f9fa0",
"#U c #a1a1a1",
"#o c #a1a5ba",
"#v c #a1a9bb",
"#H c #a2a9be",
"#c c #a5abbd",
"#A c #a6a6a6",
"#6 c #a9a9a9",
"#u c #aab2bf",
"#S c #ababb2",
".N c #abafc3",
"#D c #abb2c3",
"#3 c #aeaeae",
".i c #aeb0b3",
".M c #afb4c8",
"#Y c #b1b1b1",
".1 c #b1b6c6",
"#m c #b3b8ca",
"#P c #b5b5b5",
".4 c #b5bbcc",
".6 c #b8becf",
"#0 c #bababa",
"#w c #babdcb",
"#E c #babfce",
".L c #bbc0d2",
".b c #bcbcbc",
"#R c #bdc3d2",
"#7 c #bfbfbf",
"#b c #bfc3d3",
".m c #bfc5d1",
".0 c #bfc5d8",
"## c #c0c6d8",
"#5 c #c1c1c1",
"#l c #c2c7d4",
".A c #c3c9d5",
"#K c #c5c5c5",
".l c #c5c6ca",
"#k c #c6ced8",
".a c #c8c8c8",
".C c #c9cddb",
"#t c #c9ced7",
".X c #cacbcb",
"#. c #cbd0df",
".Z c #ccd3e0",
"#i c #cdcdcd",
"#G c #cdd3de",
".O c #ced1d9",
".r c #ced4df",
"#4 c #d0d0d0",
".Q c #d0d7e3",
".f c #d1d3d4",
".u c #d2d2d2",
"#B c #d2d7df",
".y c #d3d9e2",
".W c #d5d5d5",
".I c #d6d9de",
"#j c #d8d8d8",
".h c #d8d9dc",
".G c #dadada",
".2 c #dadde4",
".9 c #dae0e8",
".8 c #dbe0e7",
".z c #dde2e9",
".K c #dde2ec",
"#1 c #dedede",
"#a c #dfe4ea",
"#e c #e1e5ec",
".Y c #e1e6ee",
".e c #e2e2e2",
".7 c #e5e5e5",
"#d c #e7eaef",
".# c #e8e8e8",
"#p c #e8eaed",
".w c #e8ecf0",
".B c #eaedf1",
"#x c #eceded",
".g c #eeeff1",
".P c #f0f3f5",
".k c #f1f2f2",
".q c #f2f5f8",
".v c #f3f3f3",
".x c #f3f4f5",
".p c #f3f5f6",
".H c #f5f5f5",
".J c #f5f6f7",
"#C c #f5f8fa",
".d c #f6f6f6",
".n c #f7f7f7",
".o c #f8f8f7",
"#y c #f9f8f8",
"#h c #f9f9f9",
"#q c #fafaf8",
".c c #fafafa",
".3 c #fcfcfc",
"#L c #fefefc",
"Qt c None",
"QtQtQtQtQtQtQtQtQtQtQtQtQtQtQtQtQtQtQtQtQtQtQtQtQtQtQtQtQtQtQtQt",
"QtQtQtQtQtQtQtQtQtQtQtQtQtQtQtQtQtQtQtQtQtQtQtQtQtQtQtQtQtQtQtQt",
"QtQtQtQtQtQtQtQtQtQtQtQtQtQtQtQtQtQtQtQtQtQtQtQtQtQtQtQtQtQtQtQt",
"QtQtQtQtQtQtQtQtQtQtQtQtQt.#.a.b.b.cQtQtQtQtQtQtQtQtQtQtQtQtQtQt",
"QtQtQtQtQtQtQtQtQtQt.d.e.f.g.d.g.h.i.j.cQtQtQtQtQtQtQtQtQtQtQtQt",
"QtQtQtQtQtQtQtQtQt.k.l.m.k.n.o.p.q.r.s.t.u.kQtQtQtQtQtQtQtQtQtQt",
"QtQtQtQtQtQtQtQt.v.u.w.k.x.y.z.y.A.B.C.D.E.F.G.HQtQtQtQtQtQtQtQt",
"QtQtQtQtQtQtQt.#.I.p.J.p.K.L.M.N.O.P.Q.R.S.T.U.V.WQtQtQtQtQtQtQt",
"QtQtQtQtQtQtQt.X.B.P.p.Y.Z.0.1.2.3.B.4.5.M.6.5.D.V.7QtQtQtQtQtQt",
"QtQtQtQtQtQt.g.u.8.2.9.Q#.##.6.8#a#b.5#c.K#d#e#b#f#gQt#hQtQtQtQt",
"QtQtQt.o#i.a#j.k.r#k#l.6#m#n#n.4.M.5#o#p.d#q.w.Y#e.i.l#r#s.dQtQt",
"QtQtQt.l.w#a.B#t#u.m.2.y#v.U#n.Z.L#w#x#h#y.P.z.y.g.x.Y.4#z#AQtQt",
"QtQt.e.O.6.1.y#B#u.2#C.z#D.U.4#C.P#h.J.B.B#B#c#E.J.p.C#o#F.FQtQt",
"QtQt.a#a#v#l.o#d#G.9.C#H#c#B#p.x.H.x.9.m#D#o.U#D#B#E#o.5#I#JQtQt",
"QtQt#K.P.2.8.J.C#E.1#o.T.2#L#y.H.n.w.m#o.T.R#M#c#v.T#n#E#N#OQtQt",
"QtQt.H#P.f.r#G#l#m#n.T#Q.1#d#a.#.p#e#R#n.U#Q.5#R#b#w.O#S#T#jQtQt",
"QtQtQt.v#K#U.t#A#O#g#V#W#g.j#X#r#Y#X#r#N#Z#Z#I#O#s#g#0.V#1QtQtQt",
"QtQtQtQt.3#j.7#i#O.H#x.n#x.b.u#2#3#K#Y.V.G.W#i.e#4.W#2#AQtQtQtQt",
"QtQtQtQtQt#3#4#5#5.u#jQt#1#i#5#6#j.F#6.j.n.7#r#K.H.e.j.vQtQtQtQt",
"QtQtQtQt.v#1.e#1#J#O.aQt#i#V.j#7#O.a#P.aQtQt.d.W#4#A.j#r#5QtQtQt",
"QtQtQtQt#K.F#6.F#6.GQtQtQt.G.G.b#6#Y#8.XQtQt.##2#g#6#P.a#jQtQtQt",
"QtQtQtQt#x#x.a#g#3#sQtQtQtQt#7.F#s.a#i.oQtQt#i#6#h#6#3QtQtQtQtQt",
"QtQtQtQtQtQt#r#PQt.dQtQtQtQtQt.#.dQt.3#x.3#LQtQtQt.W.WQtQtQtQtQt",
"QtQtQtQtQtQt.3.3Qt.v#i.u.X.gQtQtQtQt.e#Y.7.7#r.xQtQtQtQtQtQtQtQt",
"QtQtQtQtQtQtQtQt#L#4#g#6#O#KQtQtQtQt.3.b.a#6#J.3QtQtQtQtQtQtQtQt",
"QtQtQtQtQtQtQtQt.##3.t#7#7#3.uQtQt.G.b#j.H#r#j#1.3QtQtQtQtQtQtQt",
"QtQtQtQtQtQtQtQt.G#g#P.e#7#W.aQtQt#Y#W.X.e.V#r#J.#QtQtQtQtQtQtQt",
"QtQtQtQtQtQtQtQt.3.u#6#P#U#Y.cQtQtQt.d#3#g#A#1#j#hQtQtQtQtQtQtQt",
"QtQtQtQtQtQtQtQtQt.e.t#3#s.eQtQtQtQt#K#8#x.b#gQtQtQtQtQtQtQtQtQt",
"QtQtQtQtQtQtQtQtQtQtQtQtQtQtQtQtQtQt#j.XQt#7#3QtQtQtQtQtQtQtQtQt",
"QtQtQtQtQtQtQtQtQtQtQtQtQtQtQtQtQtQtQtQtQtQtQtQtQtQtQtQtQtQtQtQt",
"QtQtQtQtQtQtQtQtQtQtQtQtQtQtQtQtQtQtQtQtQtQtQtQtQtQtQtQtQtQtQtQt"};
