/* XPM */
static const char *xpm_42[]={
"32 32 127 2",
"#S c #555555",
"#8 c #6b6b6b",
"#7 c #707070",
"#w c #767779",
".R c #797979",
".F c #7e7e7e",
".O c #7f839f",
"#O c #80859f",
"#H c #818181",
"#U c #838485",
"#Q c #8487a0",
"#M c #868686",
"#r c #868aa3",
".Q c #87889c",
"#G c #88888e",
"#V c #89898a",
"#D c #8a8b92",
"#L c #8b8b8f",
".N c #8b8fa6",
"#1 c #8c8c8c",
".D c #8d90a9",
"#Y c #909198",
".P c #9092a5",
"#J c #9096ad",
"#a c #919192",
".u c #959595",
"#W c #959699",
".E c #969aaa",
"## c #989a9e",
"#m c #999999",
".0 c #999cb4",
".t c #9b9dac",
".k c #9c9c9c",
"#j c #9da2b7",
"#l c #9f9fa0",
"#k c #a0a5ba",
"#T c #a1a1a1",
"#q c #a1a8bb",
"#F c #a2a9be",
"#B c #a4aab9",
"#x c #a6a6a6",
".8 c #a6abbe",
"#5 c #a9a9a9",
"#o c #aab2bf",
".L c #abafc3",
"#A c #abb2c3",
"#R c #acabb2",
"#2 c #aeaeae",
".j c #aeb0b3",
".K c #afb4c8",
".X c #b1b6c6",
"#X c #b2b2b2",
"#i c #b3b8ca",
"#N c #b5b5b5",
".Z c #b5bbcc",
".6 c #b8becc",
".1 c #b9bed1",
"#Z c #bababa",
".J c #bac0d3",
"#t c #bbbfcd",
".b c #bcbcbc",
"#s c #bcc0d0",
".7 c #bec3d3",
".n c #bec4d0",
"#6 c #bfbfbf",
".W c #bfc5d8",
".5 c #c0c6d8",
"#4 c #c1c1c1",
"#h c #c1c7d3",
".B c #c3c9d5",
"#I c #c5c5c5",
".m c #c5c6ca",
"#g c #c6ced8",
".a c #c8c8c8",
".C c #c9cddb",
"#n c #c9ced7",
".T c #cacbcb",
".4 c #cbd0df",
".V c #ccd3e0",
"#d c #cdcdcd",
".s c #cdd3de",
".M c #ced1d9",
"#f c #ced4de",
"#3 c #d0d0d0",
".y c #d0d7e3",
".f c #d1d3d4",
".v c #d2d2d2",
"#y c #d2d7de",
"#p c #d2d9e1",
".S c #d5d5d5",
".H c #d6d9dd",
"#e c #d8d8d8",
".i c #d8d9dc",
".A c #d9dde4",
".G c #dadada",
"#E c #dadfe8",
".3 c #dbe0e7",
"#0 c #dddddd",
".I c #dde2ea",
".z c #e0e3e9",
"#. c #e1e5ec",
".U c #e1e6f0",
".e c #e2e2e2",
".2 c #e5e5e5",
".9 c #e7eaee",
".x c #e7ebf0",
".# c #e8e8e8",
".h c #eaedf1",
"#u c #eceded",
"#v c #ecf0f4",
".g c #efefef",
".o c #f0f2f4",
".l c #f1f2f2",
".r c #f2f4f6",
".w c #f3f3f3",
".q c #f4f5f5",
"#P c #f4f6f6",
"#C c #f5f6f9",
"#z c #f5f8f9",
".d c #f6f6f6",
".p c #f8f8f7",
"#c c #f8f8f8",
"#b c #f9f9f9",
".c c #fafafa",
".Y c #fcfcfc",
"#K c #fefefc",
"Qt c None",
"QtQtQtQtQtQtQtQtQtQtQtQtQtQtQtQtQtQtQtQtQtQtQtQtQtQtQtQtQtQtQtQt",
"QtQtQtQtQtQtQtQtQtQtQtQtQtQtQtQtQtQtQtQtQtQtQtQtQtQtQtQtQtQtQtQt",
"QtQtQtQtQtQtQtQtQtQtQtQtQtQtQtQtQtQtQtQtQtQtQtQtQtQtQtQtQtQtQtQt",
"QtQtQtQtQtQtQtQtQtQtQtQtQt.#.a.b.b.cQtQtQtQtQtQtQtQtQtQtQtQtQtQt",
"QtQtQtQtQtQtQtQtQtQt.d.e.f.g.d.h.i.j.k.cQtQtQtQtQtQtQtQtQtQtQtQt",
"QtQtQtQtQtQtQtQtQt.l.m.n.o.d.p.q.r.s.t.u.v.lQtQtQtQtQtQtQtQtQtQt",
"QtQtQtQtQtQtQtQt.w.v.x.l.r.y.z.A.B.h.C.D.E.F.G.qQtQtQtQtQtQtQtQt",
"QtQtQtQtQtQtQt.#.H.r.d.q.I.J.K.L.M.o.y.N.O.P.Q.R.SQtQtQtQtQtQtQt",
"QtQtQtQtQtQtQt.T.h.o.q.U.V.W.X.A.Y.h.Z.0.K.1.0.P.R.2QtQtQtQtQtQt",
"QtQtQtQtQtQt.g.v.3.A.3.y.4.5.6.3.z.7.0.8.I.9#..7###aQt#bQtQtQtQt",
"QtQtQt#c#d.a#e.o#f#g#h.6#i#j#j.Z.K.0#k.9.d#b.x.U#..j.m#l#m.dQtQt",
"QtQtQt.m.x.z.h#n#o.n.A#p#q#r#j.s#s#t#u#b.p.o.I#p#v.r.U.Z#w#xQtQt",
"QtQt.e.M.6.X#p#y#o.A#z.I#A#r.Z#z.o#b.d.h.h#y#B#t#C.q.C#k#D.FQtQt",
"QtQt.a#.#q#h#c.9.s#E.C#F.8#y.9.r.q.r#E.n#A#k#r#A#y.6#k.0#G#HQtQt",
"QtQt#I.r.A.3#C.C#t.X#k#J.A#K.p.q.d.h#h#k#J.N.D.8#F#J#j#t#L#MQtQt",
"QtQt.q#N.f#f.s#h#i#j#J#O.X.x.z.##P#..7#j#r#Q.0.7.7.6.M#R#S#eQtQt",
"QtQtQt.w#I#T.u#x#M#a#U#V#a.k#W#l#X#W#l#L#Y#Y#G#M#m#a#Z.R#0QtQtQt",
"QtQtQtQt.Y#e.2#d#M.q.g.p#u.b.v#1#2#I#X.R.G.S#d.e#3.S#1#xQtQtQtQt",
"QtQtQtQtQt#2#3#4#4.v#eQt#0#d#4#5#e.F#5.k.p.2#l#I.q.e.k.wQtQtQtQt",
"QtQtQtQt.w#0.e#0#H#M.aQt#d#U.k#6#M.a#N.aQtQt.d.S#3#x.k#l#4QtQtQt",
"QtQtQtQt#I.F#5.F#5.GQtQtQt.G.G.b#5#X#7.TQtQt.##1#a#5#N.a#eQtQtQt",
"QtQtQtQt#u#u.a#a#2#mQtQtQtQt#6.F#m.a#d#cQtQt#d#5#b#5#2QtQtQtQtQt",
"QtQtQtQtQtQt#l#NQt.dQtQtQtQtQt.#.dQt.Y#u.Y#KQtQtQt.S.SQtQtQtQtQt",
"QtQtQtQtQtQt.Y.YQt.w#d.v.T.gQtQtQtQt.e#X.2.2#l.qQtQtQtQtQtQtQtQt",
"QtQtQtQtQtQtQtQt#K#3#a#5#M#IQtQtQtQt.Y.b.a#5#H.YQtQtQtQtQtQtQtQt",
"QtQtQtQtQtQtQtQt.##2.u#6#6#2.vQtQt.G.b#e.q#l#e#0.YQtQtQtQtQtQtQt",
"QtQtQtQtQtQtQtQt.G#a#N.e#6#V.aQtQt#X#V.T.e.R#l#H.#QtQtQtQtQtQtQt",
"QtQtQtQtQtQtQtQt.Y.v#5#N#T#X.cQtQtQt.d#2#a#x#0#e#bQtQtQtQtQtQtQt",
"QtQtQtQtQtQtQtQtQt.e.u#2#m.eQtQtQtQt#I#8#u.b#aQtQtQtQtQtQtQtQtQt",
"QtQtQtQtQtQtQtQtQtQtQtQtQtQtQtQtQtQt#e.TQt#6#2QtQtQtQtQtQtQtQtQt",
"QtQtQtQtQtQtQtQtQtQtQtQtQtQtQtQtQtQtQtQtQtQtQtQtQtQtQtQtQtQtQtQt",
"QtQtQtQtQtQtQtQtQtQtQtQtQtQtQtQtQtQtQtQtQtQtQtQtQtQtQtQtQtQtQtQt"};
