/* XPM */
static const char *xpm_43[]={
"32 32 127 2",
"#I c #45474d",
"#G c #4d4e51",
"#a c #505050",
"#H c #53555d",
"#d c #5a5b5c",
"#L c #5a5c64",
"#g c #636363",
"#B c #64666d",
".2 c #6a6a6a",
"#J c #6d7082",
".T c #6f7071",
".W c #727272",
"#j c #747679",
".D c #757886",
".E c #777779",
".X c #797979",
".R c #7b7b7c",
"#T c #7c7f97",
".6 c #7e7e7e",
"## c #818181",
"#K c #84879c",
".Q c #858585",
"#Q c #868aa4",
"#s c #878787",
"#r c #878a8d",
"#. c #898989",
".0 c #8d8d8d",
"#P c #8f93aa",
"#z c #919191",
".C c #929497",
"#x c #9297a4",
".5 c #939393",
"#y c #95969a",
".F c #969696",
".V c #99999a",
"#Z c #9a9b9f",
".B c #9b9da4",
".x c #9c9c9c",
"#O c #9ca0b4",
".w c #9d9d9d",
"#k c #9e9e9e",
".U c #a0a0a0",
".1 c #a1a1a1",
"#F c #a1a2a4",
".P c #a2a2a2",
"#D c #a3a6bf",
".z c #a4a4a4",
"#0 c #a4a5a7",
"#q c #a5aab3",
"#Y c #a6a6a6",
".A c #a7aaae",
".v c #a8a8a8",
".I c #a9a9a9",
"#v c #a9aec2",
"#7 c #aaaaaa",
".Y c #ababac",
"#e c #adadad",
".r c #adadb3",
".S c #afafaf",
"#1 c #afafb1",
"#n c #afb3c7",
".4 c #b0b0b0",
".y c #b1b2b5",
".K c #b2b2b2",
"#f c #b4b4b4",
"#U c #b4b8c5",
".8 c #b5b5b5",
".7 c #b7b7b7",
"#E c #b7b9d2",
".9 c #b8b8b8",
"#m c #b9bcbf",
"#C c #bababa",
".q c #babdcd",
".G c #bcbcbc",
"#t c #bebebe",
"#u c #bec2d0",
".Z c #c0c0c0",
"#V c #c0c2cb",
"#h c #c1c2c3",
".m c #c1c4d2",
"#c c #c2c2c2",
"#S c #c3c9d3",
".L c #c4c4c4",
".k c #c4c5c7",
".u c #c7c7c7",
".b c #c9c9c9",
".j c #cacbcd",
".a c #cccccc",
"#p c #ccccce",
"#R c #cdced3",
".J c #cecece",
"#i c #ced0d5",
".e c #d0d0d0",
"#b c #d2d2d2",
"#A c #d3d3d3",
"#M c #d3d4e5",
"#N c #d3d5dc",
".c c #d5d5d6",
"#w c #d7d9dc",
".H c #d8d8d8",
".f c #d9d9d9",
".O c #dadada",
"#3 c #dcdcdc",
"#l c #dedede",
".n c #e0e1e1",
"#8 c #e3e3e3",
"#5 c #e4e4e4",
".i c #e5e5e5",
"#o c #e6e6e6",
".# c #e8e8e8",
".h c #e9ebec",
"#W c #eaeaea",
".g c #ececec",
".o c #ededed",
".p c #eeeeed",
"#6 c #efefef",
"#X c #f0f0f0",
".l c #f2f2f2",
".3 c #f4f4f4",
".N c #f6f6f6",
".d c #f8f8f8",
"#4 c #fafafa",
".M c #fbfbfb",
".t c #fcfcfc",
"#2 c #fdfdfd",
".s c #fefefe",
"Qt c None",
"QtQtQtQtQtQtQtQtQtQtQtQtQtQtQtQtQtQtQtQtQtQtQtQtQtQtQtQtQtQtQtQt",
"QtQtQtQtQtQtQtQtQtQtQtQtQtQtQtQtQtQtQtQtQtQtQtQtQtQtQtQtQtQtQtQt",
"QtQtQtQtQtQtQtQtQtQtQtQtQtQtQtQtQtQtQtQtQtQtQtQtQtQtQtQtQtQtQtQt",
"QtQtQtQtQtQtQtQtQtQtQtQtQt.#.a.b.cQtQtQtQtQtQtQtQtQtQtQtQtQtQtQt",
"QtQtQtQtQtQtQtQtQtQt.d.#.e.f.g.h.i.j.kQtQtQtQtQtQtQtQtQtQtQtQtQt",
"QtQtQtQtQtQtQtQtQt.l.k.m.n.o.p.p.p.h.q.r.n.dQtQtQtQtQtQtQtQtQtQt",
"QtQtQtQtQt.s.t.u.v.w.x.y.z.A.B.r.B.C.y.D.D.E.F.G.H.I.J.K.L.MQtQt",
"QtQtQtQt.N.O.L.P.Q.R.S.T.U.R.V.R.F.K.W.x.X.Y.Z.0.X.S.R.1.2.gQtQt",
"QtQtQtQt.3.L.x.4.0.5.b.6.z.X.7.X.S.a.E.U.R.8.Q.9.6.Z#..Q##.dQtQt",
"QtQtQtQt.d.u.F.7.Q.S.9.V##.Q.K.X.L.Z.F.F.0.4.0.4##.e.b#a#bQtQtQt",
"QtQtQt.d#c.F.4.K.8.I.9.8#d#e#e.6.G.G.G.0.Y.I.U.1.X.##f#g#hQtQtQt",
"QtQtQt.u#i.w.G#f.#.Q.O.U#j.Z#k.x.v.G#l.Q.9.V#e.Q.E#l#g#m#n.cQtQt",
"QtQt#o#p#q#r.G.L#l.X.l.W#s.Z#s#f.z#t.n.W.b.Q.e.T.F.H.2#u#v#mQtQt",
"QtQt.a#w#x#y.G.b.U#z#A#B.F.b.0.G.F.u.G.R.i.##.#B.S#C.D#D#E#FQtQt",
"QtQt.e.##i.y#.#G#d#H#I#J#j#d.2#d#g#d#d#H#I#I#H#K#L#I#K#v#M.zQtQt",
"QtQt.d.7.e#N#i.q#n#O#P#Q#O#R#N#A.f.H#S#v#Q#T#Q#n#u#U#V#N.r#WQtQt",
"QtQtQt#X.L#Y.V.Y.z.Y#Z.I#C.5#Z#C#Y.Z#0#1.B#y.B#1#..a#e.7#AQtQtQt",
"QtQtQt#2.t.N.1#l.Q.Z#W.l.i.I#f.F#e.z#c#f.Z#3#f.c.0.J.G#f.OQtQtQt",
"QtQtQt.s.t#4#z.5.8.Z#Y#l.L##.a#C#t.v.Z.F.O.o.0#z#C.N#5.Z.dQtQtQt",
"QtQtQt.s.M.a.Y#.#W#l.z.f.n.6.Z##.G.V.7.Z#X.t#4.U.v#l.G.z#C#6QtQt",
"QtQtQt#2#4.V.z#z.w.z#A#2.t.3.z.0.e.x.5.9#X#4.e.5.G.X.u#3.H.lQtQt",
"QtQtQtQt.s.d.N.X.L.U.7.s.s#2.f.0#7.Z.O.g.t.s#8.b.n#z.7.iQtQtQtQt",
"QtQtQtQtQt.s#2#7.aQt#4#4#4.tQt.t.d.M.f.F.#.n.4.dQt.l#l.3QtQtQtQt",
"QtQtQtQtQtQtQtQt#2#2#c.6.5#..n.s#2.M#8.0#A#z#C.e#2QtQtQtQtQtQtQt",
"QtQtQtQtQtQtQt.s.s.3.0.F.1.x#f.d.s.a#c.V.z.v.b.ZQtQtQtQtQtQtQtQt",
"QtQtQtQtQtQt.s#2.M#f.Q.G.f.F.0.c.d.V.G.v.J.N#e.I#8QtQtQtQtQtQtQt",
"QtQtQtQtQtQt.s#2.t.n.w.z.x.0.U#5.M.d.o.0.G#8.L.L.u#4QtQtQtQtQtQt",
"QtQtQtQtQtQtQt.s.t#4#e#s.P#.#A.s#2.M#Y.5#l#..7#X.dQtQtQtQtQtQtQt",
"QtQtQtQtQtQtQt.s.s#2.l#A.O.f.l.s.t.M.b.e.f.S.a.aQtQtQtQtQtQtQtQt",
"QtQtQtQtQtQtQtQtQtQtQtQtQtQtQtQtQtQtQt.3.lQt.#.iQtQtQtQtQtQtQtQt",
"QtQtQtQtQtQtQtQtQtQtQtQtQtQtQtQtQtQtQtQtQtQtQtQtQtQtQtQtQtQtQtQt",
"QtQtQtQtQtQtQtQtQtQtQtQtQtQtQtQtQtQtQtQtQtQtQtQtQtQtQtQtQtQtQtQt"};
