/* XPM */
static const char *xpm_7[]={
"32 32 128 2",
".B c #03a9cb",
".H c #0597b3",
"#U c #0c67a6",
".E c #13869e",
"#S c #157cc3",
"#6 c #1989d7",
"#P c #1e4a6a",
"#O c #1e679b",
"#N c #234660",
"#4 c #2492df",
".P c #266573",
".S c #277f92",
".F c #2a3a45",
"#2 c #2aa4fb",
".2 c #2b3037",
"#W c #2c5878",
"#0 c #2c99e7",
".O c #2ed1f2",
".R c #2fb5d1",
".C c #337093",
".3 c #395361",
".T c #3b4a56",
".r c #3d434a",
"#o c #424447",
"#9 c #43a5eb",
".Q c #446e7f",
"#5 c #447ea8",
"#j c #464d55",
".Z c #4a6974",
".G c #4c92ad",
".4 c #4d555b",
"#K c #505a65",
"#Z c #5294c2",
".0 c #56849b",
".K c #57616b",
"#M c #595b5c",
"#l c #596672",
".6 c #5ba3b5",
"#r c #646567",
"#b c #648792",
".b c #666d75",
"#g c #67919d",
"#7 c #68b1e4",
".l c #6b737b",
"#v c #6b7782",
"#e c #6b91a8",
".7 c #6dc2d9",
"#m c #6e868f",
".1 c #6fcde6",
".g c #70757b",
".5 c #70c9e1",
".Y c #71d8f2",
"#C c #737474",
".a c #737a80",
".A c #757d84",
"#T c #75c0f5",
".q c #78848f",
"#L c #7a7b7c",
".X c #7d8083",
"#F c #7f8e99",
".k c #82888b",
"#J c #838484",
".s c #86888a",
".m c #88929a",
"#V c #89ccfb",
".c c #8b8d8e",
".y c #8d98a2",
"#c c #91d3e5",
".D c #939393",
"## c #939da6",
"#p c #949ca1",
"#Y c #95cff8",
"#u c #979797",
"#a c #9ae1f4",
"#E c #9b9b9b",
".L c #9ba2aa",
"#h c #9fa0a0",
"#R c #9fc5e0",
".f c #a0a6ab",
"#f c #a1e6f9",
"#I c #a2a3a3",
".M c #a3abb3",
".I c #a5a5a5",
"#. c #a6afb7",
"#i c #a7aaad",
"#t c #a7b9be",
"#H c #a8a9a9",
".j c #aaafb3",
"#X c #abbac5",
".z c #acb3b9",
".o c #adadae",
"#A c #afb1b3",
"#s c #afc1c7",
"#d c #b0b5ba",
"#n c #b0dbef",
".9 c #b4bac1",
"#D c #b5b5b5",
"#3 c #b5c7d4",
".h c #b7babe",
"#Q c #b9baba",
".N c #bcbec0",
".p c #bdc2c7",
"#k c #bfe8f9",
".U c #c2c2c2",
"#y c #c4cacd",
".V c #c7cbd0",
".n c #c8c9c9",
".W c #c9cbcd",
".i c #cbcccc",
".# c #cdcdce",
"#w c #d1d1d2",
".u c #d1d3d5",
"#z c #d1d6d8",
"#B c #d2d6d7",
".v c #d6d6d6",
"#x c #dcddde",
"#q c #ddf6fd",
".J c #dfe2e3",
"#G c #e5e5e4",
".t c #eaeaea",
"#8 c #ecf5fa",
".8 c #edeeee",
"#1 c #f0f8fe",
".e c #f2f2f2",
".x c #f5f5f5",
".d c #fafafa",
".w c #fefefe",
"Qt c None",
"QtQtQtQtQtQtQtQtQtQtQtQtQtQtQtQtQtQtQtQtQtQtQtQtQtQtQtQtQtQtQtQt",
"QtQtQtQtQtQtQtQtQtQtQtQtQtQtQtQtQtQtQtQtQtQtQtQtQtQtQtQtQtQtQtQt",
"QtQtQtQtQtQtQtQtQtQtQtQtQtQtQtQtQtQtQtQtQtQtQtQtQtQtQtQtQtQtQtQt",
"QtQtQtQtQtQtQtQtQtQtQtQtQtQtQtQtQtQtQtQtQtQtQtQtQtQtQtQtQtQtQtQt",
"QtQtQtQtQtQtQtQtQtQtQtQtQt.#.a.b.c.dQtQtQtQtQtQtQtQtQtQtQtQtQtQt",
"QtQtQtQtQtQtQtQtQtQt.e.#.f.g.h.i.j.k.a.dQtQtQtQtQtQtQtQtQtQtQtQt",
"QtQtQtQtQtQtQtQtQt.e.l.m.j.n.n.o.h.p.q.r.s.t.u.v.w.t.#.tQtQtQtQt",
"QtQtQtQtQtQtQtQt.x.a.y.z.j.f.A.B.C.D.E.B.B.F.E.E.n.G.H.IQtQtQtQt",
"QtQtQtQtQtQtQt.J.K.L.M.j.N.z.b.O.P.Q.O.P.R.S.P.O.T.R.S.UQtQtQtQt",
"QtQtQtQtQtQtQt.c.m.V.p.v.v.W.X.Y.Z.0.1.2.3.3.4.5.6.7.4.8QtQtQtQt",
"QtQtQtQtQtQt.8.l.L.9.p.9#.##.b#a.Z#b#c.2.q.L#d#e#f#g.DQtQtQtQtQt",
"QtQtQt.d#h#i.l.9.z.M.9.y.y.A#j#k#l#m#n#o#p.k.#.k#k.4.K.g.b.8QtQt",
"QtQtQt.X.y##.M#d.y.M.p.p##.b.r#q.a.A#q#r#s#t#u.k#q.4.z.M#v.4.dQt",
"QtQt#w.a.L##.9.p.y.9#x#y###l.F#z.c#r#A.J#B#C.a.c.u.4.u###l.r.JQt",
"QtQt.b.M.q###x#y#..z#..q.b#p.X#h.c#C#D#u#E.b#l.s.o#o.m.b.K.r#xQt",
"QtQt.A.m.M.9#x.f#F.A.l.K.L#G.U#h#h#H.s#I#J#r#j.g.##j#l#l.k#j#xQt",
"QtQt.e.4.l.m##.m#v#l#K.T#l.f.L#L.X.z.a.X#j#j.T.4#M#K.4.g.4#C.eQt",
"QtQtQt.x.N.C#N.2.4.T.2.F.a#O.2#j.m#P.2.r.4.F.2.r.g#v.F#L#H.tQtQt",
"QtQtQtQt#k#O.s#E#Q.x#u.U#R#S#M.t#T#U#L.e#d.m#E#w.u.3#LQtQtQtQtQt",
"QtQtQtQt#V#W.F#C.f#x.s.s.G#N.I.w#X.b.#.d#e#C#D.x#x.X#A.eQtQtQtQt",
"QtQtQt.w.J.c.o.y#F#M.##x#e#M.J#n#e.n.d#Y#S#Q.n#D.k#r.X#uQtQtQtQt",
"QtQtQt#Y#Z#I#I.q.3#o#D#R.L#D.U.C.L#h.J#0#P#h#C#v#E.I#G#GQtQtQtQt",
"QtQt#1#2#N#E#3.C.r#h#v#4.K.s.N.0.I#L#d#5#M#H#.#6.g.IQtQtQtQtQtQt",
"QtQt#V#0.2#D.w#H.D.x#T#O#r#u.Z.z#J.n.N.X#H.d#7#U.s.vQtQtQtQtQtQt",
"QtQt#Y.Q#M.tQt.d.d#8#9.F#J.U.o.I#u.o#C#C.t#8#6.3#xQtQtQtQtQtQtQt",
"QtQt.t.D#DQtQtQtQtQt#H#C.c#J#r#E#h#H.i#Q.d#G#C.D.dQtQtQtQtQtQtQt",
"QtQt.w.dQtQtQtQtQtQt.t.t.t.D#D.n.D.c.c.UQt.e.v.8QtQtQtQtQtQtQtQt",
"QtQtQtQtQtQtQtQtQtQtQtQtQt.w.s#C.D.c.s#GQtQtQtQtQtQtQtQtQtQtQtQt",
"QtQtQtQtQtQtQtQtQtQtQtQtQtQt#G#I.U.xQtQtQtQtQtQtQtQtQtQtQtQtQtQt",
"QtQtQtQtQtQtQtQtQtQtQtQtQtQtQtQtQtQtQtQtQtQtQtQtQtQtQtQtQtQtQtQt",
"QtQtQtQtQtQtQtQtQtQtQtQtQtQtQtQtQtQtQtQtQtQtQtQtQtQtQtQtQtQtQtQt",
"QtQtQtQtQtQtQtQtQtQtQtQtQtQtQtQtQtQtQtQtQtQtQtQtQtQtQtQtQtQtQtQt"};
