/* XPM */
static const char *xpm_8[]={
"32 32 128 2",
".r c #0ba0bf",
".n c #0caccc",
".t c #148fa7",
".C c #1d5965",
".q c #2893aa",
"#X c #2989c7",
".F c #2b798a",
".B c #2cc8ea",
".Q c #2f3233",
".o c #2f6e7c",
".E c #30b1cc",
"#K c #327dae",
".G c #375058",
"#6 c #3a83b2",
"#U c #3a8ec5",
"#9 c #4291c7",
".s c #436168",
"#C c #447fa5",
"#h c #464848",
".3 c #475457",
".v c #489aab",
".Y c #4a5c62",
"#H c #4b84ab",
"#5 c #4c697e",
"#F c #4f8db5",
".D c #517c86",
"#k c #565758",
"#Y c #566471",
".O c #5b8a97",
".T c #5b9fb1",
"#4 c #5d9dca",
"#G c #5f6566",
"#D c #606c75",
"#A c #616161",
"#7 c #627687",
"#f c #636d6f",
".S c #646769",
".Z c #688d97",
".U c #6bbdd3",
"#. c #6c7276",
".P c #6cc5dd",
"#y c #6d6d6d",
".N c #6dd0e9",
".R c #6e8389",
".2 c #7199a4",
"#u c #737373",
"#g c #747a7c",
"#t c #757677",
".7 c #788e95",
"#p c #7b7c7c",
"#a c #7c898d",
"#Z c #80a0b7",
"## c #848484",
"#S c #86a8c1",
"#n c #898989",
".0 c #8cccdc",
"#m c #8d8d8d",
"#c c #909091",
"#0 c #92a8b9",
".w c #939394",
".9 c #949b9d",
"#Q c #949da5",
"#B c #959595",
"#d c #969799",
"#T c #97a2aa",
".X c #97dbed",
"#b c #989898",
".K c #9b9b9b",
"#O c #9bbbd0",
".u c #9d9d9d",
".4 c #a2a2a2",
"#v c #a5a5a5",
"#j c #a5b6bc",
"#V c #a7a8a9",
".L c #a8a8a8",
"#x c #aaaaaa",
"#w c #ababab",
".e c #acacac",
"#i c #aebcc1",
".J c #afafaf",
".d c #b1b1b1",
".p c #b3b4b4",
".8 c #b3d4e1",
"#P c #b4c9d8",
"#q c #b5b9ba",
".1 c #b6b6b6",
".6 c #b6e2ee",
".k c #bababa",
".h c #bdbdbd",
".b c #c2c2c2",
".I c #c6c6c6",
".M c #cacaca",
".a c #cdcdcd",
".5 c #cfd0d0",
"#z c #d1d1d1",
"#M c #d1d9e0",
"#s c #d2d5d6",
"#o c #d3d8d9",
".g c #d4d4d4",
"#e c #d5ecf3",
".m c #d7d7d7",
"#N c #d7d7d8",
"#2 c #d7e3eb",
".l c #d8d8d8",
"#E c #dadada",
"#r c #daddde",
".W c #dcdcdc",
".f c #dfdfdf",
"#R c #e0e3e5",
".V c #e1e1e1",
"#3 c #e3e9ed",
"#l c #e4e4e4",
".A c #e6e6e6",
".c c #e8e8e8",
".j c #eaeaea",
"#L c #ebedef",
"#J c #ecf0f4",
".z c #eeeeee",
".i c #f1f1f1",
".y c #f5f5f5",
"#1 c #f5f7f8",
"#I c #f6f6f6",
"#W c #f7fafc",
".# c #f8f8f8",
".H c #fafafa",
"#8 c #fafcfe",
".x c #fdfdfd",
"Qt c None",
"QtQtQtQtQtQtQtQtQtQtQtQtQtQtQtQtQtQtQtQtQtQtQtQtQtQtQtQtQtQtQtQt",
"QtQtQtQtQtQtQtQtQtQtQtQtQtQtQtQtQtQtQtQtQtQtQtQtQtQtQtQtQtQtQtQt",
"QtQtQtQtQtQtQtQtQtQtQtQtQtQtQtQtQtQtQtQtQtQtQtQtQtQtQtQtQtQtQtQt",
"QtQtQtQtQtQtQtQtQtQtQtQtQtQtQtQtQtQtQtQtQtQtQtQtQtQtQtQtQtQtQtQt",
"QtQtQtQtQtQtQtQtQtQtQtQtQtQtQtQtQtQtQtQtQtQtQtQtQtQtQtQtQtQtQtQt",
"QtQtQtQtQtQtQtQtQtQtQtQtQtQtQtQtQtQtQtQtQtQtQtQtQtQtQtQtQtQtQtQt",
"QtQtQtQtQtQtQtQtQtQtQtQtQt.#.a.b.#.c.d.e.f.g.h.i.j.k.lQtQtQtQtQt",
"QtQtQtQtQtQtQtQtQtQtQtQtQt.m.n.o.p.q.n.r.s.q.t.u.v.t.wQtQtQtQtQt",
"QtQtQt.x.y.z.j.c.c.A.c.j.j.b.B.C.D.B.C.E.F.o.B.G.E.F.dQtQtQtQtQt",
"QtQt.H.j.I.J.u.K.L.d.M.g.m.p.N.G.O.P.Q.R.G.S.P.T.U.Q.h.f.HQtQtQt",
"QtQt.#.V.b.J.u.K.L.d.I.l.W.p.X.Y.Z.0.Q.M.1.e.2.X.Z.3.4.k.AQtQtQt",
"Qt.x.j.m.b.d.4.4.L.d.k.5.f.1.6.Y.7.8.Q.9#.###a.6.3#b.k.I.A.HQtQt",
"Qt.H.j.W.I.e#b#c#c#b.4.1.b#d#e#f#g#e#h#i#j#k#g#e#k#b.1.k.g.#QtQt",
"Qt.x.i#l.a.d.K#m#n#c.K.J.h#c#o#p#h#q#r#s#g.S#t.5#u#n#v.1.m.HQtQt",
"QtQt.i.W.I.L.u#b.K.4#w.h.I.d.4###k.u#n#n#x#m#u#y.1#n.k.W.z.xQtQt",
"Qt.x.y.c#z.k.J#v#v#w.J.k.h.J.e###n#p.e#t#n.w#n#p.5#m.1.5#l.HQtQt",
"Qt.x.#.z.f.5.h.e.4.4.4.e.1.d.K#A.J#b#m#k#y.p.e#h#y.4.k.a.V.HQtQt",
"QtQt.H.z.m.h#w#d#c#B.u.4.L.d.4###w.e#y#c#v.d.L.w#n.d.I.m.j.xQtQt",
"QtQtQt.H.y.j.V#C#D.b.l.l.l#E#s#F#G.g.l.l.W#E#i#H#A.c.i#I.HQtQtQt",
"QtQtQtQtQtQt#J#K#t#LQtQtQtQtQt#M#NQtQtQtQtQt#O#C#pQtQtQtQtQtQtQt",
"QtQtQtQtQtQtQt#L.j.xQtQtQtQt#P#Q.HQtQtQtQtQt.H#R.yQtQtQtQtQtQtQt",
"QtQtQtQtQtQt#S#T.zQtQtQtQt.x#U.G#LQtQtQtQt#J#S#VQtQtQtQtQtQtQtQt",
"QtQtQtQtQt#W#X#Y.gQtQtQtQt.x#Z#c.HQtQtQtQt#P#X#kQtQtQtQtQtQtQtQt",
"QtQtQtQtQt.H#0.k.iQtQtQtQt#1.iQtQtQtQtQtQt#2#T.MQtQtQtQtQtQtQtQt",
"QtQtQtQtQt#3.jQtQtQtQtQtQt#4#5.jQtQtQtQtQt#3.jQtQtQtQtQtQtQtQtQt",
"QtQtQtQtQt#6#7.aQtQtQtQt#8#U.Y.zQtQtQtQt#3#9#kQtQtQtQtQtQtQtQtQt",
"QtQtQtQtQt#K#.#zQtQtQtQt.x#R.l.xQtQtQtQt.8#H#pQtQtQtQtQtQtQtQtQt",
"QtQtQtQtQt.H#l.#QtQtQtQtQtQtQtQtQtQtQtQt.x#l.yQtQtQtQtQtQtQtQtQt",
"QtQtQtQtQtQtQtQtQtQtQtQtQtQtQtQtQtQtQtQtQtQtQtQtQtQtQtQtQtQtQtQt",
"QtQtQtQtQtQtQtQtQtQtQtQtQtQtQtQtQtQtQtQtQtQtQtQtQtQtQtQtQtQtQtQt",
"QtQtQtQtQtQtQtQtQtQtQtQtQtQtQtQtQtQtQtQtQtQtQtQtQtQtQtQtQtQtQtQt",
"QtQtQtQtQtQtQtQtQtQtQtQtQtQtQtQtQtQtQtQtQtQtQtQtQtQtQtQtQtQtQtQt"};
