/* XPM */
static const char *cloudy[]={
"16 16 147 2",
".4 c #080a0e",
"#e c #090807",
".P c #0c0f13",
"ao c #101010",
"#S c #12100e",
".7 c #151515",
".O c #15191d",
".k c #181817",
"#9 c #1b1a1a",
"aj c #1b232e",
"ak c #1c1c1c",
".5 c #1c1d21",
"#T c #1d1d1d",
"an c #212121",
".Z c #212427",
"ap c #252525",
"#6 c #263546",
".W c #283a51",
".t c #2a2623",
"a. c #2b2f32",
".T c #2c2c2a",
"aa c #2c3138",
".N c #2c3b4d",
".Q c #314255",
"ad c #343538",
".b c #373532",
"af c #37495e",
"#7 c #393939",
"a# c #3a3c3e",
"#. c #3c3937",
"ae c #3c3e40",
".3 c #3d3c3b",
".8 c #3e3e3e",
".S c #3f454d",
"ac c #40566f",
"#q c #44413c",
"#h c #484747",
"ai c #48617e",
".c c #494948",
".a c #4b4b4a",
"ab c #4d6786",
"#E c #4f4f4e",
".l c #515151",
"#0 c #526e8f",
"ag c #547091",
".V c #58728f",
"#t c #595651",
".X c #59769a",
"ah c #5a789c",
"#W c #5d85b4",
".Y c #6080a6",
"#X c #6083ad",
".v c #615f5c",
"#r c #656362",
".9 c #686564",
"#f c #686868",
".M c #698db8",
".F c #6a6a68",
"#8 c #6d6d6d",
"aq c #6f6f6f",
"al c #707070",
".d c #727272",
".U c #72787f",
".B c #729fd5",
"#H c #737272",
"#n c #73a0d6",
"#o c #73a2d9",
".6 c #747474",
".A c #74a1d6",
".g c #75736f",
"am c #787878",
"#w c #78a5db",
"#5 c #79a3d4",
"#A c #7aa5d8",
"#y c #7ba6d8",
"#P c #7ba7db",
"#L c #7ca6d9",
"#M c #7ca7d9",
"#v c #7ca8dc",
"#z c #7da7d9",
"#N c #7eaadd",
".L c #7eabe1",
"#F c #7f7f7f",
".e c #807f7e",
"#O c #81acdf",
"#x c #82acde",
"#3 c #82afe3",
".R c #83a4cb",
".f c #848381",
"#R c #8496ac",
"#2 c #84b0e5",
"#U c #858484",
".K c #85afe3",
"#1 c #85b2e7",
"#4 c #85b2e8",
"#m c #86aede",
".E c #888d93",
"#Y c #88b5eb",
"#Z c #88b5ec",
".G c #8a8989",
".j c #8a8a89",
".z c #8ab1e1",
".m c #8c8b8a",
".r c #8cb5e7",
".y c #8cb6e8",
"## c #8e8c8a",
".C c #8fb4e0",
"#g c #919191",
"#B c #92b5e0",
"#Q c #92bdf1",
".o c #959ba4",
".u c #979797",
".H c #999ca0",
".J c #9bbbe4",
".# c #9e9e9e",
"#J c #a0bbdc",
"#K c #a4c3e9",
".q c #a4c7ed",
"#s c #a7a6a5",
"#G c #a8a8a8",
"#p c #aac4e4",
"#V c #aecdf0",
".x c #aed1f9",
"#D c #afbac5",
".D c #afbccc",
".0 c #b1afae",
"#k c #b7cae2",
".I c #bbd3f0",
"#l c #beccdc",
".p c #bfcad6",
".s c #bfd4eb",
"#b c #bfd5f1",
".n c #c0c5c8",
"#C c #c3d4e7",
".2 c #cac7c4",
"#c c #cadff9",
".w c #cccfd2",
"#I c #ccd9e9",
"#d c #cfd3d7",
"#j c #d4e5f9",
"#u c #dee8f3",
".1 c #e7e5e2",
".i c #edf2f8",
"#a c #f2fbff",
".h c #f6f8f8",
"#i c #fcfcfc",
"Qt c None",
"QtQtQtQtQtQtQtQtQtQtQtQtQtQtQtQt",
"QtQtQtQtQtQtQt.#.a.b.cQtQtQtQtQt",
"QtQtQtQt.d.e.f.g.h.i.j.kQtQtQtQt",
"QtQtQt.l.m.n.o.p.q.r.s.t.uQtQtQt",
"QtQtQt.v.w.x.y.z.A.B.C.D.E.FQtQt",
"Qt.G.H.I.J.K.L.M.N.O.P.Q.R.SQtQt",
"Qt.T.U.V.W.X.Y.Z.0.1.2.3.4.5QtQt",
"QtQt.6.7.8.9#.###a#b#c#d#e#fQtQt",
"QtQt#g#h#i#j#k#l#m#n#o#p#q#rQtQt",
"QtQt#s#t#u#v#w#x#y#z#A#B#C#D#E#F",
"#G#H#I#J#K#L#M#N#O#z#z#z#P#Q#R#S",
"#T#U#V#W#X#Y#Z#0.Y#1#2#3#4#5#6#7",
"#8#9a.a#aaabacadaeafagahaiajakQt",
"QtQtQtQtQtalamQtQtamanaoapaqQtQt",
"QtQtQtQtQtQtQtQtQtQtQtQtQtQtQtQt",
"QtQtQtQtQtQtQtQtQtQtQtQtQtQtQtQt"};
