/* XPM */
static const char *day[]={
"16 16 124 2",
"## c #3c3203",
".Q c #3e3316",
".l c #403500",
"#P c #482e0b",
"#1 c #4d453a",
"#2 c #514a3f",
".n c #574b0d",
"#X c #594a36",
".h c #5e500c",
"#F c #5e5847",
".m c #5f5627",
".S c #605315",
".c c #605e52",
"#Q c #655b4d",
".9 c #684610",
"#t c #6e4813",
".# c #6f6d63",
".F c #705a0b",
"#h c #724500",
"#3 c #725f46",
"#H c #73551b",
".y c #776b32",
".g c #77725f",
".k c #786300",
"#V c #7a4800",
".G c #7a766c",
".Y c #7c5e24",
"#O c #7e4a00",
"#5 c #7f7b74",
".H c #7f7c6d",
"#j c #817c64",
".e c #867f5f",
"#S c #8a6122",
"#a c #8a7200",
"#G c #8c867b",
"#4 c #8f5400",
".a c #8f875f",
".P c #926f00",
"#i c #93908a",
".1 c #947b04",
".I c #987e00",
"#Z c #998b75",
".d c #9b9992",
"#u c #9c843b",
"#Y c #9c9790",
".o c #9d9367",
"#R c #a29f9a",
"#0 c #a36100",
".Z c #a5a29d",
".f c #a69e76",
"#. c #a6a39e",
".x c #a88d1b",
"#E c #a96400",
"#U c #a96600",
"#g c #a96e00",
".0 c #aba99d",
"#C c #af6c00",
".R c #afaea8",
".i c #b49500",
".r c #b89800",
".b c #ba9a00",
".v c #be9d00",
"#I c #c18000",
"#w c #c28d00",
"#N c #c57700",
".J c #c8a500",
".2 c #d2ae00",
".u c #dab400",
"#x c #dea100",
".X c #e69e03",
"#L c #e79400",
".W c #e8a900",
".7 c #eaa200",
".O c #eabb00",
".q c #eac200",
"#W c #ed8c00",
"#B c #ed9b00",
"#M c #ef9500",
"#l c #f0bd00",
"#K c #f5a000",
"#k c #f6c300",
".z c #facf00",
"#J c #fba500",
"#D c #fe9805",
"#s c #fe9c02",
"#T c #fea213",
".8 c #fea400",
"#r c #fea904",
"#A c #ffb614",
"#f c #ffbb15",
"#q c #ffbd17",
"#y c #ffbe15",
"#v c #ffbf12",
"#z c #ffc019",
".6 c #ffc410",
"#p c #ffc91c",
".V c #ffca13",
"#e c #ffcb1d",
"#m c #ffce1e",
"#n c #ffcf1f",
"#o c #ffd01f",
".5 c #ffd220",
".E c #ffd300",
".L c #ffd403",
".A c #ffd405",
".s c #ffd407",
"#d c #ffd421",
".M c #ffd509",
".T c #ffd613",
".U c #ffd622",
".C c #ffd715",
".3 c #ffd717",
".D c #ffd719",
"#c c #ffd722",
".B c #ffd81b",
".t c #ffd81d",
"#b c #ffd821",
".4 c #ffd822",
".K c #ffd921",
".N c #ffd923",
".w c #ffdb31",
".j c #ffdc37",
".p c #ffdd3b",
"Qt c None",
"QtQtQtQtQtQtQtQt.#QtQtQtQtQtQtQt",
"QtQtQtQtQtQtQt.a.b.c.dQtQtQtQtQt",
"QtQtQt.e.f.g.h.i.j.k.l.m.nQtQtQt",
"QtQtQt.o.p.q.r.s.t.u.v.w.xQtQtQt",
"QtQtQt.y.z.A.B.A.C.D.s.E.F.GQtQt",
"QtQt.H.I.J.K.B.L.M.M.N.O.P.QQtQt",
".R.S.T.E.E.N.N.N.N.N.U.V.W.X.Y.Z",
"Qt.0.1.2.3.N.N.N.N.4.5.6.7.8.9#.",
"QtQt###a.M.N#b.4#c#d#e#f#g#h#iQt",
"QtQt#j#k#l#m#n#o#n#p#q#r#s#tQtQt",
"QtQt#u#v#w#x#y#z#q#A#B#C#D#EQtQt",
"QtQt#F#G#H#I#J#K#L#M#N#O#P#QQtQt",
"QtQtQtQt#R#S#T#U#V#W#D#X#YQtQtQt",
"QtQtQtQtQt#Z#0#1#2#3#4QtQtQtQtQt",
"QtQtQtQtQtQtQtQtQtQt#5QtQtQtQtQt",
"QtQtQtQtQtQtQtQtQtQtQtQtQtQtQtQt"};
