/* XPM */
static const char *storm[]={
"16 16 145 2",
".s c #090807",
"#H c #0c0c0c",
"#G c #0d0c0a",
".6 c #12100e",
".b c #161616",
"#p c #191e26",
"#m c #1b1a1a",
".i c #1b1b1b",
"#y c #1b232e",
"#t c #1c1c19",
"#z c #1c1c1c",
".7 c #1d1d1d",
"#o c #1d1e21",
".a c #202020",
".j c #212121",
"#I c #252525",
"#j c #263546",
"#s c #282a2c",
"#n c #2a2e32",
"#C c #2b281e",
"ao c #363636",
"#u c #37495e",
"#k c #393939",
".h c #3d3c3b",
"al c #3e3926",
".k c #3e3e3e",
"ac c #3f3b30",
".d c #404040",
"#r c #40566f",
".E c #44413c",
".v c #484747",
"#x c #48617e",
"#4 c #493f27",
".m c #494744",
"ad c #4a401f",
"#D c #4a4a4a",
"#q c #4d6786",
".S c #4f4f4e",
"#c c #526e8f",
"#O c #544a2e",
"#v c #547091",
".# c #575757",
".H c #595651",
"#w c #5a789c",
"#B c #5b4f23",
"ae c #5b584d",
".c c #5b5b5b",
"#E c #5d573b",
"#. c #5d85b4",
"#d c #6080a6",
"## c #6083ad",
"#A c #62615b",
".F c #656362",
".l c #6a6765",
"am c #6a685f",
"ag c #6c654e",
"#T c #6d6445",
"#R c #6d6c6b",
"#l c #6d6d6d",
"#8 c #6e674d",
"a# c #6f6644",
"#J c #6f6f6f",
"aa c #707070",
"#5 c #736c36",
".V c #737272",
"aj c #737373",
".B c #73a0d6",
".C c #73a2d9",
"#1 c #767676",
"#F c #786d34",
".K c #78a5db",
"#i c #79a3d4",
".O c #7aa5d8",
".M c #7ba6d8",
".3 c #7ba7db",
".Z c #7ca6d9",
".0 c #7ca7d9",
".J c #7ca8dc",
".N c #7da7d9",
".1 c #7eaadd",
".T c #7f7f7f",
".2 c #81acdf",
".L c #82acde",
"#g c #82afe3",
"ak c #848484",
".5 c #8496ac",
"#f c #84b0e5",
".8 c #858484",
"#e c #85b2e7",
"#h c #85b2e8",
".A c #86aede",
"#K c #878787",
"#Z c #887b47",
"#a c #88b5eb",
"#b c #88b5ec",
"ah c #897940",
".t c #8a8a8a",
"ai c #8b8b8b",
".n c #8e8c8a",
"ab c #8f8f8f",
".u c #919191",
".P c #92b5e0",
".4 c #92bdf1",
"#N c #9f9852",
"#0 c #9f9f9f",
".X c #a0bbdc",
".Y c #a4c3e9",
".G c #a7a6a5",
".U c #a8a8a8",
".D c #aac4e4",
"#S c #acacac",
".9 c #aecdf0",
".R c #afbac5",
".e c #b1afae",
"#9 c #b5b5b5",
"#2 c #b6aa56",
"an c #b7b7b7",
".y c #b7cae2",
"af c #b9b9b9",
"#6 c #baa54a",
".z c #beccdc",
".p c #bfd5f1",
".Q c #c3d4e7",
".g c #cac7c4",
".q c #cadff9",
".W c #ccd9e9",
".r c #cfd3d7",
".x c #d4e5f9",
"#Q c #ddcc60",
".I c #dee8f3",
"#P c #e2cb5e",
".f c #e7e5e2",
"#M c #ecd460",
"#3 c #f1da61",
"#V c #f2e165",
".o c #f2fbff",
".w c #fcfcfc",
"#X c #fded70",
"a. c #ffe167",
"#7 c #ffe96f",
"#U c #fff483",
"#L c #fff487",
"#W c #fff58c",
"#Y c #fff590",
"Qt c None",
"QtQtQtQtQtQtQtQt.#.a.b.cQtQtQtQt",
"QtQtQtQtQtQtQt.d.e.f.g.h.iQtQtQt",
"QtQtQt.j.k.l.m.n.o.p.q.r.s.tQtQt",
"QtQt.u.v.w.x.y.z.A.B.C.D.E.FQtQt",
"QtQt.G.H.I.J.K.L.M.N.O.P.Q.R.S.T",
".U.V.W.X.Y.Z.0.1.2.N.N.N.3.4.5.6",
".7.8.9#.###a#b#c#d#e#f#g#h#i#j#k",
"#l#m#n#o#p#q#r#s#t#u#v#w#x#y#zQt",
"QtQtQt#A#B#C#D.t#E#F#G#H#I#JQtQt",
"QtQtQt#K#L#M#N#O#P#Q#RQtQtQtQtQt",
"QtQt#S#T#U#V#W#X#Y#Z#0QtQtQtQtQt",
"QtQt#1#2#3#4#5#6#7#8#9QtQtQtQtQt",
"QtQt#Ka.a#aaabacadaeQtQtQtQtQtQt",
"Qtafagah#JQtQt.UaiajQtQtQtQtQtQt",
"QtakalamQtQtQtQtQtQtQtQtQtQtQtQt",
"QtanaoanQtQtQtQtQtQtQtQtQtQtQtQt"};
