/* XPM */
static const char *p_about_kde[]={
    "18 18 77 2",
    ".C c #292418",
    ".U c #392000",
    ".M c #412400",
    ".7 c #412810",
    "#d c #414041",
    "#j c #414441",
    ".j c #4a484a",
    ".0 c #523010",
    ".8 c #523418",
    ".P c #524c52",
    "#a c #525052",
    ".E c #525552",
    ".o c #5a5d5a",
    "#k c #626562",
    "#i c #6a696a",
    ".G c #6a6d6a",
    ".b c #737173",
    ".w c #7b7d7b",
    ".W c #7b8183",
    ".m c #838583",
    ".N c #8b715a",
    ".6 c #8b8583",
    ".a c #8b858b",
    ".H c #8b898b",
    ".# c #8b8d8b",
    ".2 c #8b8d94",
    "#b c #949194",
    ".e c #9c999c",
    ".5 c #9ca1a4",
    ".n c #a49994",
    ".Q c #a499a4",
    "## c #a49da4",
    ".g c #a4a1a4",
    ".z c #a4a594",
    ".T c #ac958b",
    ".r c #aca594",
    ".q c #aca5a4",
    ".v c #aca5ac",
    ".c c #acaaac",
    "#f c #acb2b4",
    ".Y c #b4916a",
    ".Z c #b49994",
    ".s c #b4aeb4",
    ".R c #b4b2ac",
    ".9 c #bd957b",
    ".L c #bda19c",
    ".B c #bda59c",
    ".J c #bdae8b",
    ".k c #bdbabd",
    ".V c #c58539",
    ".t c #c5aa9c",
    "#h c #c5bec5",
    ".i c #c5c2c5",
    ".1 c #cd8d4a",
    ".f c #cdc6cd",
    ".F c #cdcacd",
    ".u c #cdcecd",
    ".4 c #d5ced5",
    ".3 c #d5d2d5",
    ".p c #ded6de",
    ".l c #dedade",
    ".h c #dedede",
    "#. c #e6dad5",
    ".y c #e6dee6",
    "#g c #e6e2e6",
    ".X c #e6e6ee",
    "#e c #eee6ee",
    ".D c #eeeaee",
    ".O c #f6eef6",
    ".I c #f6f2f6",
    ".x c #f6f6f6",
    ".S c #ffbe5a",
    ".K c #ffde8b",
    "#c c #fff6ff",
    ".d c #fffaff",
    ".A c #ffffde",
    "Qt c #ffffff",
    "QtQtQtQtQtQtQt.#.aQtQtQtQt.bQtQtQtQt",
    "QtQtQtQtQtQt.cQtQtQtQtQt.dQtQtQtQtQt",
    "QtQtQtQt.cQt.eQtQtQtQt.fQtQt.gQtQtQt",
    "QtQtQtQt.h.i.eQtQt.j.gQtQt.kQtQtQtQt",
    "QtQtQtQt.l.m.nQtQt.oQtQt.pQtQtQtQtQt",
    "QtQtQtQt.qQt.rQtQtQtQtQt.oQtQtQtQtQt",
    "QtQt.k.f.sQt.tQtQt.uQtQt.v.wQtQtQtQt",
    "QtQt.x.y.z.A.BQtQt.C.DQtQt.E.F.GQtQt",
    "Qt.H.I.F.J.K.LQtQt.M.NQtQt.O.PQtQtQt",
    "QtQtQt.Q.R.S.TQtQt.U.V.WQtQt.iQtQtQt",
    "QtQtQtQt.X.Y.ZQtQt.0.1.2.3Qt.3QtQtQt",
    "QtQtQt.4.5.l.6.7.8.9#.##.E#aQtQtQtQt",
    "QtQt#b#c.l#d.c.3#e#fQt.w#g#hQtQtQtQt",
    "QtQtQt#iQtQtQt.k.##jQtQt#kQtQtQtQtQt",
    "QtQtQtQtQtQtQt.e.yQtQtQtQtQtQtQtQtQt",
    "QtQtQtQtQtQtQtQt#kQtQtQtQtQtQtQtQtQt",
    "QtQtQtQtQtQtQtQtQtQtQtQtQtQtQtQtQtQt",
    "QtQtQtQtQtQtQtQtQtQtQtQtQtQtQtQtQtQt"};
