/* XPM */
static const char * away[] = {
"16 16 37 1",
" 	c None",
".	c #084E95",
"+	c #1C2F7B",
"@	c #5772BC",
"#	c #718CCB",
"$	c #2B4A87",
"%	c #9ACAE5",
"&	c #16234F",
"*	c #F8F8FA",
"=	c #FCFCFC",
"-	c #FAFAFB",
";	c #F7F6F4",
">	c #EFF6FC",
",	c #ECEDF2",
"'	c #E2E6EC",
")	c #DEE0E6",
"!	c #DBDCE3",
"~	c #FBFDFE",
"{	c #F5F5F7",
"]	c #F1F1F1",
"^	c #EFEFEE",
"/	c #ECECEC",
"(	c #E8E8EB",
"_	c #E6E6E7",
":	c #E2E2E2",
"<	c #DEDEDE",
"[	c #D8D8D9",
"}	c #030863",
"|	c #F2F2F6",
"1	c #D3D4DD",
"2	c #F3F9FD",
"3	c #D2D3D5",
"4	c #D0CFD0",
"5	c #EAF4FB",
"6	c #CBCCCD",
"7	c #C6C7C6",
"8	c #3F4EAA",
"                ",
"     .+. +++    ",
"    .@#@+@#@+   ",
"    $#%#.#%#+   ",
"  .$..$.+$++++& ",
" +**=-*;>,,'))!&",
" +~-*;{]^/(_:<[}",
" +**;{|]/(_:<[1&",
" +2;{]]/(_:<[34}",
" +;{|]/(_:<[343}",
" +5]]/(_:<[3467}",
"  ++++++++&+}&} ",
"    +88+}88+}   ",
"    }+++ }++}   ",
"     +}   }}    ",
"                "};
