/* XPM */
static const char *pager[]={
    "16 16 10 1",
    ". c None",
    "d c #000000",
    "g c #000080",
    "b c #008000",
    "e c #008080",
    "h c #800080",
    "a c #808000",
    "f c #808080",
    "c c #ffff00",
    "# c #ffffff",
    "................",
    "..#############a",
    "..############ab",
    "..###c#c#c#c#caa",
    ".dddddddddddddab",
    ".dd#########ddaa",
    ".d#d#eeeeeededab",
    ".d#ed#eeeedeedaa",
    ".d#eed#ebdeeedab",
    ".d#eefd#dfeeedaa",
    ".d#efeedeefebdab",
    ".d#feeeeeeefedaa",
    ".dfeebeebeegfdab",
    ".dddddddddddddaa",
    "..#aaaaaaaaaabaa",
    ".....h.h.h.h...."};
