/* XPM */
static const char * useronline[] = {
"15 14 12 1",
" 	c None",
".	c #006300",
"+	c #005600",
"@	c #01D200",
"#	c #01B300",
"$	c #00F900",
"%	c #007D00",
"&	c #F9EF08",
"*	c #FDD31E",
"=	c #004C00",
"-	c #029A00",
";	c #E3B422",
"    ... .++    ",
"   .@@#.@@#+   ",
"   .@$#.@$#+   ",
" ..#%#...#+$++ ",
".$$##.&&*.$$##=",
".###..&**++##-=",
" ...#.**;+$++= ",
"+@$@#%.++@$@#-=",
"+@@@#.#+@+@@#-=",
"+###+$@+$$+#-%=",
" +++@@#+@@#=== ",
"   +##-+##-=   ",
"   =--+ =-%=   ",
"    ==   ==    "};
