/* XPM */
static char *sim[] = {
/* columns rows colors chars-per-pixel */
"32 32 115 2",
"   c #000000",
".  c #000B00",
"X  c #001100",
"o  c #001A00",
"O  c #002300",
"+  c #002C00",
"@  c #003400",
"#  c #003A00",
"$  c #004300",
"%  c #004A00",
"&  c #005300",
"*  c #005C00",
"=  c #006300",
"-  c #006B00",
";  c #0A6500",
":  c #007300",
">  c #017B00",
",  c #3F7600",
"<  c #397A00",
"1  c #552900",
"2  c #5C2300",
"3  c #5B2D00",
"4  c #602700",
"5  c #682D00",
"6  c #733800",
"7  c #566900",
"8  c #7E4100",
"9  c #008300",
"0  c #018B00",
"q  c #088500",
"w  c #098B00",
"e  c #009100",
"r  c #049B00",
"t  c #0C9600",
"y  c #0C9B00",
"u  c #119000",
"i  c #119A00",
"p  c #03A500",
"a  c #00AE00",
"s  c #0EA200",
"d  c #0CAB00",
"f  c #04B200",
"g  c #0AB500",
"h  c #0DBB00",
"j  c #12A400",
"k  c #15AA00",
"l  c #1BAB00",
"z  c #13B600",
"x  c #11BD00",
"c  c #1AB300",
"v  c #1ABA00",
"b  c #2B9E00",
"n  c #3A8500",
"m  c #20B300",
"M  c #20BB00",
"N  c #29BC00",
"B  c #31AD00",
"V  c #14C300",
"C  c #19C400",
"Z  c #1BCA00",
"A  c #22C300",
"S  c #22CE00",
"D  c #29C500",
"F  c #2BCC00",
"G  c #23D200",
"H  c #2BD400",
"J  c #2CDC00",
"K  c #34C700",
"L  c #34CB00",
"P  c #31D500",
"I  c #35DC00",
"U  c #3CD100",
"Y  c #32E200",
"T  c #38E100",
"R  c #3CEC00",
"E  c #539500",
"W  c #4EBA00",
"Q  c #699000",
"!  c #55CC00",
"~  c #44EE00",
"^  c #4EE300",
"/  c #43F300",
"(  c #47F800",
")  c #4AF600",
"_  c #4BFC00",
"`  c #59EE00",
"'  c #54FF00",
"]  c #59FF00",
"[  c #64FF00",
"{  c #B16500",
"}  c #928E00",
"|  c #9E8800",
" . c #81BB00",
".. c #97AE00",
"X. c #AF9300",
"o. c #C08200",
"O. c #C88100",
"+. c #D78200",
"@. c #DA8C00",
"#. c #D7AE00",
"$. c #E49800",
"%. c #E2BC00",
"&. c #E8B500",
"*. c #EABF00",
"=. c #F6BD00",
"-. c #FFBC00",
";. c #FFCE00",
":. c #FFD500",
">. c #FFDB00",
",. c #F7E400",
"<. c #FDEB00",
"1. c #FFF400",
"2. c #FEFD00",
"3. c gray100",
"4. c None",
/* pixels */
"4.4.4.4.4.4.4.4.4.4.4.4.4.4.              4.4.4.4.4.4.4.4.4.4.4.",
"4.4.4.4.4.4.4.4.4.4.4.4.4.  + > e e 0 * .   4.4.4.4.4.4.4.4.4.4.",
"4.4.4.4.4.4.4.            o e k ^ ^ N e :   4.4.4.4.4.4.4.4.4.4.",
"4.4.4.4.4.    O = - - +   = k ' _ ' ) U e O   4.      4.4.4.4.4.",
"4.4.4.4.4.  $ e j L k e @ 0 I _ _ ( ( / y $   . @ $ o     4.4.4.",
"4.4.4.4.  + e D [ ] ' F e e ( _ ) ( / / y # $ 0 0 0 9 %     4.4.",
"4.4.4.4.  = k ] _ _ _ _ c e _ ( ( ( / ~ 0 > 0 A I D i 9 %   4.4.",
"4.4.4.4.  - M _ _ ' _ _ ~ 0 T ( ( / ~ H 9 y Y Y Y Y v t > .   4.",
"4.4.4.4.  = c _ ' _ ' _ ( v k ( / / R j r Y Y Y Y J H y > #   4.",
"4.4.4.4.  O e R _ _ _ ( _ H 0 R R R T 9 S Y Y Y J J H y > @   4.",
"4.4.        = s ( _ _ ( / / w S R R k t T I J J J J Z 0 > .   4.",
"4.  . * e e e 0 s / ( / / / k k R I > S Y Y H J G G y > +   4.4.",
"4.  & y U ' ~ H y s T / ~ R W Q ! E u I I J J J c 9 - +   4.4.4.",
"4.  9 K ' _ ( _ ~ j w H R ..+.&.-.@.X.U J v y > : & .     4.4.4.",
"4.X 0 [ _ _ ( ( / / v 9 E O.<.2.2.2.o.7 > : : : : - : % o   4.4.",
"4.X 0 ` ( ( ( / ~ R R H | ;.2.2.2.1.%.4 k v Z Z Z Z z w - O   4.",
"4.  > l ( / / / R R F c | ,.2.1.1.>.=.2 G G Z Z Z V V V : =   4.",
"4.  + 9 i H I F l q > t } &.2.<.:.-.O.1 q C Z Z Z V V h 0 = X 4.",
"4.4.  X & > > > y M Y Y ! { #.;.=.$.5 < q : s V V V h g 9 = . 4.",
"4.4.    % > k I R R Y I J n 3 6 8 1 7 Z Z y - w V h h p > *   4.",
"4.4.  & 9 F R R Y Y Y J F : c B b ; C Z Z V d - 9 t 0 > = +   4.",
"4.  o > N R Y Y I Y J J i w G G Z : s Z V V V d = = = & +     4.",
"4.  # q L R Y Y Y Y J c - v G G Z t w V V V h h p = O       4.4.",
"4.  @ 9 N Y Y Y J H S : 9 G Z Z Z j - z h h h g g w & . 4.4.4.4.",
"4.  . : u D I Y H v : - j Z Z Z Z V - y h h g f f f = O   4.4.4.",
"4.4.  # : w M C i - % - v Z Z C V x - - h f f f a p - +   4.4.4.",
"4.4.    @ - - - * o o = v Z V V V h * * 0 f f f p 9 * o   4.4.4.",
"4.4.4.    . o X     o = d C V V x d * @ * 0 r e 9 = & .   4.4.4.",
"4.4.4.4.4.4.4.4.4.4.. = > y g h d : %   # * - - * % X   4.4.4.4.",
"4.4.4.4.4.4.4.4.4.4.  $ = : > 9 : * o     O $ $ + .   4.4.4.4.4.",
"4.4.4.4.4.4.4.4.4.4.  . + & * * & O   4.4.          4.4.4.4.4.4.",
"4.4.4.4.4.4.4.4.4.4.4.              4.4.4.4.4.4.4.4.4.4.4.4.4.4."
};
