/* XPM */
static const char *b_licq[]={
"32 32 223 2",
".b c #000000",
"#V c #005000",
"aI c #005500",
"aV c #006500",
"#y c #006900",
"#g c #006d00",
"#5 c #007d00",
"bs c #008500",
"aw c #009d00",
"bb c #00aa00",
"#d c #00ae00",
".z c #00b200",
"#. c #00d200",
".0 c #00d600",
"#k c #00de00",
"bu c #00e200",
"#F c #00e600",
"bA c #00ee00",
"#b c #00f600",
"a1 c #00fa00",
".I c #00ff00",
"az c #080800",
"#A c #080c08",
"#M c #082c08",
"#W c #083008",
"aK c #083808",
"aJ c #085908",
"a2 c #087508",
"bv c #087d08",
"bB c #088d08",
"#c c #089908",
".p c #08aa08",
"#E c #08ae08",
"ai c #08b208",
"au c #08be08",
"av c #08c208",
"a9 c #08c608",
"af c #08d208",
"aU c #08d608",
".O c #08da08",
".7 c #08e208",
"#G c #08ee08",
"#s c #08f608",
"#f c #08fa08",
".y c #08ff08",
"ac c #100c00",
"ao c #101008",
".3 c #104410",
"aH c #105910",
"#K c #106d10",
"by c #109d10",
"#q c #10fa10",
".o c #10ff10",
"#S c #181c18",
"aR c #186518",
"#t c #187918",
"#L c #188918",
".h c #18a118",
".Z c #18ff18",
"#I c #202020",
"#r c #205520",
"#U c #206120",
"a3 c #209520",
"#8 c #292420",
"ak c #292c29",
"aj c #293029",
"#1 c #293829",
"#D c #294429",
"bf c #294c29",
"aS c #29c229",
".N c #29ff29",
"bj c #313431",
"aT c #316131",
"at c #31b631",
"be c #31ee31",
"bx c #31fa31",
".6 c #31ff31",
"#H c #393c39",
"#m c #394039",
"a6 c #396539",
"#w c #397d39",
"bo c #398539",
"#u c #398d39",
"#R c #39a139",
"aq c #39ff39",
"#n c #414041",
"a4 c #414c41",
"b# c #415941",
"bC c #419941",
".B c #41aa41",
".2 c #41ff41",
"#B c #4a484a",
"#6 c #4a694a",
"a5 c #4aca4a",
".H c #4aff4a",
"#Z c #524c4a",
".T c #525052",
"#C c #525552",
"#7 c #526152",
".Y c #52ff52",
"#X c #5a5900",
"aF c #5a5d52",
"aX c #5a6500",
"bl c #5a995a",
"bt c #5aa55a",
".Q c #5ab25a",
"ad c #5ad25a",
"bd c #5ada5a",
"aG c #5aee5a",
"bi c #5aff5a",
"#4 c #626162",
"#J c #626d62",
"aZ c #627562",
"bk c #62ee62",
"#a c #62ff62",
"#0 c #6a6d6a",
"#T c #6a716a",
".g c #6aaa6a",
"aL c #737541",
"aB c #737573",
".D c #738173",
".V c #73ba73",
"#Y c #7b7129",
"aW c #7b7973",
"#N c #7b797b",
".4 c #7bb27b",
".x c #7bff7b",
"#h c #838183",
".U c #838583",
"as c #83aa83",
"bw c #83b283",
".v c #83ca83",
"#j c #83da83",
"ap c #83de83",
"#p c #83ff83",
"#O c #8b898b",
"bz c #8bbe8b",
"a0 c #8be28b",
"ba c #8bf68b",
"bn c #8bff8b",
"ar c #948d94",
"ag c #949194",
"br c #94da94",
"a8 c #94f294",
"#l c #94ff94",
"#9 c #9c994a",
".J c #9c999c",
"bp c #9ca19c",
".S c #9cea9c",
".M c #9cff9c",
"aP c #a4a139",
".s c #a4a1a4",
".K c #a4a5a4",
"bg c #a4cea4",
"ah c #a4daa4",
"#x c #a4f6a4",
".n c #a4ffa4",
"ab c #acaa08",
".c c #acaaac",
"aM c #acae41",
".A c #acaeac",
"aY c #acb262",
"b. c #acd2ac",
".R c #aceeac",
"#Q c #acf2ac",
"#v c #acfaac",
"aE c #b4b200",
"#2 c #b4b2b4",
"an c #b4b608",
".i c #b4b6b4",
".f c #b4bab4",
".8 c #b4f2b4",
"ae c #b4fab4",
".9 c #b4ffb4",
"aA c #bdb6bd",
"aQ c #bdbab4",
"bc c #bdbabd",
".P c #bdbebd",
".F c #bdc6bd",
".X c #bdffbd",
".a c #c5c6c5",
"#e c #c5eac5",
"#o c #c5eec5",
".L c #c5f2c5",
"bq c #c5fac5",
".m c #c5ffc5",
".q c #cdcacd",
".t c #cdcecd",
".W c #cdf6cd",
"#P c #cdffcd",
"#i c #d5d2d5",
".E c #d5d6d5",
".r c #d5dad5",
"bm c #d5f6d5",
"bh c #d5fad5",
".5 c #d5ffd5",
".l c #dedade",
".C c #dedede",
"a7 c #dee2de",
".1 c #deffde",
".k c #e6e2e6",
"#z c #e6e6e6",
"## c #e6ffe6",
"#3 c #eee6ee",
".j c #eeeaee",
".d c #eeeeee",
"aO c #eef200",
".G c #eeffee",
".# c #f6f2f6",
".u c #f6f6f6",
".w c #f6fff6",
".e c #fffaff",
"ay c #ffff00",
"aD c #ffff08",
"aa c #ffff10",
"aN c #ffff20",
"a# c #ffff41",
"aC c #ffff8b",
"a. c #ffff94",
"al c #ffffac",
"ax c #ffffb4",
"am c #ffffc5",
"Qt c None",
"QtQtQtQtQtQtQtQtQtQtQtQtQtQtQtQtQtQtQtQtQtQtQtQtQtQtQtQtQtQtQtQt",
"QtQtQtQtQtQtQtQtQtQtQtQtQtQtQtQt.#.#QtQtQtQtQtQtQtQtQtQtQtQtQtQt",
"QtQtQtQtQtQtQtQtQtQtQtQtQtQtQt.a.b.b.c.dQtQtQtQtQtQtQtQtQtQtQtQt",
"QtQtQtQtQtQtQtQtQtQtQtQtQt.e.f.b.g.h.b.i.#QtQtQtQt.j.k.#QtQtQtQt",
"QtQtQtQtQtQtQtQtQtQtQtQt.e.l.b.m.n.o.p.b.q.eQt.r.s.b.t.l.dQtQtQt",
"QtQtQtQtQtQtQtQt.u.d.uQt.j.b.v.w.x.y.z.b.A.j.q.b.b.B.b.a.C.eQtQt",
"QtQtQtQtQt.d.b.b.b.D.E.E.F.b.G.w.H.I.y.b.J.K.b.L.M.N.O.b.P.#QtQt",
"QtQtQtQt.d.b.Q.R.S.b.T.U.b.V.w.G.N.y.I.b.U.b.W.X.Y.Z.0.b.i.dQtQt",
"QtQtQtQt.k.b.1Qt.m.2.b.3.b.4Qt.5.6.I.7.b.b.8.9.2.y#..b.s.l.eQtQt",
"QtQtQtQt.k.b##.w#a.o#b#c.b.b.G.G.2.y#d.b.b#e.H#f#g.b#h#i.dQtQtQt",
"QtQtQtQt.C.b#j.9.H.I.y#k.b.b.9.w#l.o#m#n#o#p#q#d.b.b.P.k.eQtQtQt",
"QtQt.#.E.a.b.b#r.p.y.I#s#t.b#u#v#p#q.b#w#x.2#y.b.b.i#z.eQtQtQtQt",
"QtQtQt.j.b.b#A#B#C#D#E#F#G.b#h#H.b#I#J#K#L#M#N#O.A.CQtQtQtQtQtQt",
"QtQtQt.P.b#P#Q#R#S#m#T#U#V#W.b.b#X#Y#Z#0.b.b#1.b.b#2.kQtQtQtQtQt",
"QtQt#3#4.b##.1.Y.y#5#M#6#7#8#9a.a#aaabacadae.M.Naf.bag.E.uQtQtQt",
"QtQtQt.P.bah.w.n.y.y#baiajakalamaaaaanaoap.G.maq.I.O.b.K.C.uQtQt",
"QtQtQtQtar.b.basatauavaw#Maoamaxaaayanazap.G.5.Y.y.I.O.baA.jQtQt",
"QtQtQtQt.C#OaB.b.b.b.b.b.b.baCamaaaDaEaFaG.5.X#a.y.y.I.O.b.qQtQt",
"QtQtQt#z.b.b.b.baHaIaJaIaK.baLaMaNaOaPaQ#naRaS#f.y.I.y#FaT.bQtQt",
"QtQt.u.b.b.L.1#p.o.y#baUaV.b.baWaXaY#S.b.b.baZ.b.b.b.b.b.b#iQtQt",
"QtQt.k.ba0.w.m.2.ya1ava2.b.b.ba3.ba4a5aea6.b.bag.K.c.s.i.C.eQtQt",
"QtQta7.ba8.w#l.Za1a9.b.b.bb..5.H.bb#ba.w#a.obb.bagbc.#QtQtQtQtQt",
"QtQt.C.bbd.m.nbe#c.b.bbfbgbhbi.y.bbjbk.1#a.y.ya1.b.b.a.k.eQtQtQt",
"QtQt.#.b.b.b.b.b.b.b.bblbmbn.y#s.b.bbobh#p.Z.I.y#F#tbp.l.eQtQtQt",
"QtQtQtQt.u.k.q.a.P.b.bbq.n.Z.yaw.b.b.bbr##.x.Z.y.ybs.b.CQtQtQtQt",
"QtQtQtQtQtQt.u.##i.bbt.1.2.ybu.b.K.C.b.bbq.1.H.y#bbv.b.dQtQtQtQt",
"QtQtQtQtQtQtQtQt.d.bbw.n.y#b#t.b.t.eQt.b.b.b#xbxby.bbc.uQtQtQtQt",
"QtQtQtQtQtQtQtQt.#.bbz.MbAbB.b.J.eQtQtQt#z.T.b.b.b.a.#QtQtQtQtQt",
"QtQtQtQtQtQtQtQtQt.b.bbC.b.b.t.dQtQtQtQtQtQtQtQtQtQtQtQtQtQtQtQt",
"QtQtQtQtQtQtQtQtQtQt.b.b.b.d.eQtQtQtQtQtQtQtQtQtQtQtQtQtQtQtQtQt",
"QtQtQtQtQtQtQtQtQtQtQtQtQtQtQtQtQtQtQtQtQtQtQtQtQtQtQtQtQtQtQtQt",
"QtQtQtQtQtQtQtQtQtQtQtQtQtQtQtQtQtQtQtQtQtQtQtQtQtQtQtQtQtQtQtQt"};
