/* XPM */
static const char *smile2[]={
    "19 19 4 1",
    "# c #000000",
    "a c #c0c000",
    ". c None",
    "b c #ffff00",
    "......#######......",
    "....##abbbbba##....",
    "...#abbbbbbbbba#...",
    "..#bbbbbbbbbbbbb#..",
    ".#abbb#bbbbb#bbba#.",
    ".#bbb###bbb###bbb#.",
    "#abbb###bbb###bbba#",
    "#bbbb###bbb###bbbb#",
    "#bbbbb#bbbbb#bbbbb#",
    "#bbbbbbbbbbbbbbbbb#",
    "#bbbbbb#bb##bbbbbb#",
    "#bb#bb#bb#bb#bb#bb#",
    "#ab#############ba#",
    ".#b#bb#bb#bb#bb#b#.",
    ".#abbbb##bb#bbbba#.",
    "..#bbbbbbbbbbbbb#..",
    "...#abbbbbbbbba#...",
    "....##abbbbba##....",
    "......#######......"};
