/* XPM */
static const char *smile5[]={
    "19 19 16 1",
    "# c #000000",
    "f c #202000",
    "g c #606000",
    "i c #606040",
    "h c #806000",
    "e c #808000",
    "k c #808080",
    "d c #c08000",
    "a c #c0c000",
    "l c #ff0000",
    ". c None",
    "m c #ff2000",
    "n c #ff6000",
    "c c #ffc000",
    "b c #ffff00",
    "j c #ffffff",
    "......#######......",
    "....##abbbbba##....",
    "...#abbbbbbbbba#...",
    "..#bbbbbbbcccbbb#..",
    ".#abbbbbbccdcebba#.",
    ".#ebcccbbdf#ghbbb#.",
    "#aef#acbbi##fcbbba#",
    "#bbi##cbeji#fbbbbb#",
    "#bbij#bbejjjibbbbb#",
    "#bbijkbbaijjibbbbb#",
    "#bbciebbbbiibbbbbb#",
    "#bbcbbbbbbccbbbbbb#",
    "#abcclblmbccc#bbba#",
    ".#ccllllllbccccbb#.",
    ".#ccllllllllbcccc#.",
    "..#bblllllbbbbbb#..",
    "...#ablnbbbbbba#...",
    "....##abbbbba##....",
    "......#######......"};
