/* XPM */
static const char *useronline[]={
    "14 11 4 1",
    ". c None",
    "# c #000080",
    "b c #00ff00",
    "a c #ffff00",
    ".....###.###..",
    ".###.#a##bbb#.",
    "#bbb#aaa###bb#",
    "#bb###a##bb##.",
    ".##bb####bbb#.",
    "#bbb#b#bb#bbb#",
    "#bb#bb#bbb#bb#",
    ".##bbb#bbb###.",
    "..#bbb#bbb#...",
    "..#bb#.#bb#...",
    "...##...##...."};
