/* XPM */
static const char *chat[]={
"16 16 6 1",
"# c #000000",
"a c #838100",
"d c #838183",
". c None",
"c c #ffff00",
"b c #ffffff",
"................",
"....########....",
"..##abcbcbcb##..",
".#dcbcbcbcbcbc#.",
"#dc####b##c##bc#",
"#abcbcbcbcbcbcb#",
"#dc##b####c##bc#",
"#abcbcbcbcbcbcb#",
"#dc#####c####bc#",
".#dcbcbcbcbcbc#.",
"..##adabcbcb##..",
"....###abcb#....",
".......#ab#.....",
"........#ad#....",
".........####...",
"...........##..."};
