/* XPM */
static const char *p_editdelete[]={
    "16 16 66 2",
    "Qt c None",
    ".j c #303030",
    ".m c #424242",
    ".# c #585858",
    ".l c #6b6b6b",
    ".f c #6d6d6d",
    ".h c #707070",
    ".N c #800000",
    ".z c #820202",
    ".k c #898989",
    ".p c #8f8984",
    ".c c #999999",
    ".b c #bcb7b1",
    ".t c #beb6af",
    "## c #c79f80",
    ".2 c #c8a487",
    "#. c #c9a68a",
    ".V c #caa98e",
    ".9 c #cbac93",
    ".Q c #cbad95",
    ".A c #cd4135",
    ".8 c #cdb19c",
    ".L c #cdb29c",
    ".H c #ceb6a3",
    ".i c #cecece",
    ".7 c #cfb7a5",
    ".D c #d0bbaa",
    ".6 c #d1beae",
    ".y c #d1bfb0",
    ".5 c #d3c3b7",
    ".4 c #d5c9c0",
    ".3 c #d7cfc9",
    ".a c #dedede",
    ".o c #e2e0de",
    ".s c #e7e0d9",
    ".u c #e8786c",
    ".1 c #e9c7aa",
    ".e c #eaeaea",
    ".U c #ecceb4",
    ".P c #eed4be",
    ".T c #eed5be",
    ".0 c #f0d9c5",
    ".O c #f0dbc7",
    ".K c #f1dbc7",
    ".G c #f2ddcb",
    ".Z c #f2e0d0",
    ".J c #f3e1d1",
    ".C c #f4e3d5",
    ".F c #f4e4d5",
    ".Y c #f5e5d8",
    ".S c #f5e7da",
    ".I c #f6e7da",
    ".B c #f6e9de",
    ".x c #f6e9df",
    ".n c #f6f5f5",
    ".E c #f7e9de",
    ".X c #f7ebe1",
    ".R c #f7ece2",
    ".w c #faf1ea",
    ".W c #faf1eb",
    ".r c #fbf6f2",
    ".g c #fcfcfc",
    ".q c #fefcfb",
    ".M c #fefdfc",
    ".v c #ffc0c0",
    ".d c #ffffff",
    "QtQt.#.#.#.#.#.#.#.#.#.#QtQtQtQt",
    "QtQt.#.a.a.a.a.a.a.b.#.c.#QtQtQt",
    "QtQt.#.a.d.d.d.d.d.e.f.d.c.#QtQt",
    "QtQt.#.a.d.d.d.d.d.g.h.i.d.c.jQt",
    "QtQt.#.a.d.d.d.d.d.d.k.h.l.m.jQt",
    "QtQt.#.a.d.d.d.d.d.d.n.o.b.p.jQt",
    "QtQt.#.a.d.d.d.d.d.d.q.r.s.t.jQt",
    "QtQt.#.a.d.u.v.d.d.v.u.w.x.y.jQt",
    "QtQt.#.a.d.z.A.v.v.A.z.B.C.D.jQt",
    "QtQt.#.a.d.d.z.A.A.z.E.F.G.H.jQt",
    "QtQt.#.a.d.d.v.A.A.v.I.J.K.L.jQt",
    "QtQt.#.a.M.v.A.z.N.A.v.O.P.Q.jQt",
    "QtQt.#.a.v.u.z.R.S.z.A.T.U.V.jQt",
    "QtQt.#.a.W.z.X.Y.Z.0.z.U.1.2.jQt",
    "QtQt.#.3.3.3.4.5.6.7.8.9#.##.jQt",
    "QtQt.#.#.j.j.j.j.j.j.j.j.j.j.jQt"};
