/* XPM */
static const char *ffc[]={
"16 16 5 1",
"# c #000000",
"c c #000080",
". c None",
"b c #ffff00",
"a c #ffffff",
"................",
"................",
"................",
"................",
"....#######.....",
"...#abbbbbb#....",
"..#abccbccbb#...",
"..#abbbbbbbb#...",
"..#abcbbbcbb#...",
"...#abcccbb#....",
"....#abbb##.....",
".....##b#.......",
"......###.......",
"................",
"................",
"................"};
