/* XPM */
static const char *invisible[]={
"16 16 3 1",
"# c #000000",
". c None",
"a c #ffffff",
"................",
"................",
"................",
"................",
"................",
"....#######.....",
"...##########...",
".##aa#####aa##..",
"#aaaa##a##aaaa#.",
".#aaa#####aaa###",
"..##aa###aa###..",
"....########....",
"................",
"................",
"................",
"................"};
