/* XPM */
static const char *password[]={
    "16 16 15 1",
    "# c #000000",
    "l c #0000ff",
    "m c #006000",
    "h c #602000",
    "a c #606000",
    "e c #a06000",
    "f c #a0a000",
    "b c #a0a040",
    "i c #a0a0a4",
    "k c #e0a040",
    "g c #e0e040",
    "j c #ff0000",
    ". c None",
    "c c #fffbf0",
    "d c #ffffff",
    "................",
    "................",
    "...#####........",
    "..#bbcdd#.......",
    "..#ab#dd#.......",
    "..#a###d#.......",
    "..#ha#bc#.......",
    "..##habb#.......",
    "...#####d#......",
    ".......##d#.#...",
    "........##d#d#..",
    ".........##ddd#.",
    "..........##d#..",
    "...........##...",
    "................",
    "................"};
