/* XPM */
static const char *smileA[]={
    "19 19 10 1",
    "# c #000000",
    "h c #202000",
    "c c #606000",
    "g c #808000",
    "a c #c0c000",
    ". c None",
    "f c #ff8000",
    "e c #ffc000",
    "b c #ffff00",
    "d c #ffffff",
    "......#######......",
    "....##abbbbba##....",
    "...#abbbbbbbbba#...",
    "..#bbbbbbbbbbbbb#..",
    ".#abbb#bbbbb#bbba#.",
    ".#bbb#bbbbbbb#bbb#.",
    "#abb#c##bbb##c#bba#",
    "#bb#cd#d#b#d#dc#bb#",
    "#bbbcd#d#b#d#dcbbb#",
    "#bbbe#dd#b#dd#ebbb#",
    "#beeee##bbb##eeebb#",
    "#beeffebbbbbeffeeb#",
    "#aeffffebbbeffffea#",
    ".#eefffebbbefffee#.",
    ".#eeege#####egeee#.",
    "..#eeh#bbbbb##ee#..",
    "...#afbbfffbbfa#...",
    "....##abbbbba##....",
    "......#######......"};
