/* XPM */
static const char *status[]={
    "16 16 11 1",
    "a c #000000",
    "d c #000080",
    "g c #0000ff",
    "i c #00ff00",
    "b c #808000",
    "# c #808080",
    "h c #c0c0c0",
    "f c #ff0000",
    ". c None",
    "c c #ffff00",
    "e c #ffffff",
    ".......aa.......",
    "....aaaecaaa....",
    "..aaeeaceaffaa..",
    ".aeeffaecaffffa.",
    "aaaaaaaceaaaaaaa",
    ".affffaecaaeafa.",
    "..aaffaceaecea..",
    "...#aaaeaececaa.",
    "......acecaaeaea",
    "......aececeaaca",
    "......aceccaccaa",
    ".......acecccea.",
    ".......aeececa..",
    "........aceca...",
    ".........aaa....",
    "................"};
