/* XPM */
static const char *p_text[]={
"16 16 59 1",
"v c #000000",
"D c #080408",
"V c #080808",
"U c #100c10",
"S c #292829",
"m c #313031",
"O c #413841",
"C c #413c41",
"E c #414041",
"R c #4a404a",
"I c #4a484a",
"G c #4a4c4a",
"p c #524452",
"i c #5a595a",
"L c #625962",
"c c #625d62",
"w c #626162",
"u c #6a616a",
"o c #6a6d6a",
"n c #7b757b",
"a c #8b898b",
"g c #948994",
"# c #949194",
"b c #9c919c",
"h c #9c999c",
"0 c #9c9d9c",
"N c #aca1ac",
"Z c #aca5ac",
"Q c #b4a5b4",
"4 c #b4aab4",
"J c #b4b2b4",
"f c #b4b6b4",
"T c #bdb2bd",
"3 c #bdb6bd",
"K c #bdbabd",
"P c #c5bac5",
"t c #c5bec5",
"B c #c5c2c5",
"2 c #cdc2cd",
"q c #cdc6cd",
"1 c #cdcacd",
"M c #d5ced5",
"F c #d5d2d5",
"Y c #ded6de",
"y c #dedade",
"e c #dedede",
"z c #e6dee6",
"s c #e6e2e6",
"X c #e6e6e6",
"j c #eedeee",
"x c #eee2ee",
"d c #eee6ee",
"W c #f6eaf6",
"A c #f6f2f6",
". c None",
"l c #fff2ff",
"H c #fff6ff",
"r c #fffaff",
"k c #ffffff",
"..#aba#abac.....",
"..adededfghi....",
"..bjkkkklakhc...",
"..adkkkkkakkhm..",
"..#jkkkkkanopm..",
"..adkkkqkrstam..",
"..bjkkuvwkkxtm..",
"..adkyvvvzAABm..",
"..#jkCvkDEldqm..",
"..adFDGHIvJdKm..",
"..bjLvMdNvOzPm..",
"..atvvvvvvvQJm..",
"..#mvmECRSvmTm..",
"..aUVWXdyYvVZm..",
"..b0Y1M22f3a4m..",
"..immmmmmmmmmm.."};
