/* XPM */
static const char * icq_na[] = {
"16 16 33 1",
" 	c None",
".	c #084E95",
"+	c #1C2F7B",
"@	c #5772BC",
"#	c #718CCB",
"$	c #2B4A87",
"%	c #9ACAE5",
"&	c #F40000",
"*	c #D10100",
"=	c #B40000",
"-	c #F8F8FA",
";	c #FAFAFB",
">	c #F5F5F7",
",	c #F2F2F6",
"'	c #F7F0F0",
")	c #F1EDEF",
"!	c #ECECEC",
"~	c #E6E6E7",
"{	c #E2E2E2",
"]	c #DEDEDE",
"^	c #FCFCFC",
"/	c #000000",
"(	c #F7F6F4",
"_	c #F1F1F1",
":	c #D8D8D9",
"<	c #D2D3D5",
"[	c #E8E8EB",
"}	c #D0CFD0",
"|	c #980201",
"1	c #CBCCCD",
"2	c #C6C7C6",
"3	c #3F4EAA",
"4	c #030863",
"                ",
"     .+. +++    ",
"    .@#@+@#@+   ",
"    $#%#.#%#+   ",
"  &&&&&&&***=== ",
" *-;;;->,')!~{]=",
" *^-/(>/_!//{]:=",
" *--//,/!/~{/:<=",
" *-(/,//[////<}|",
" *(>/_!/~/]:/}1=",
" *>__![~{]:<}12|",
"  *=**=*======| ",
"    +33++33+4   ",
"    4+++ 4++4   ",
"     +4   44    ",
"                "};
