/* XPM */
static const char * jabber_ffc[] = {
"16 16 4 1",
" 	c None",
".	c #000000",
"+	c #FBF900",
"@	c #FBDB00",
"       ..       ",
"      . +.      ",
"     . +++.     ",
"     . +++.     ",
" .... +++++.... ",
".   +++++++++@@.",
". ++++..+..+@@@.",
" .++++..+..@@@. ",
"  .+++++++@@@.  ",
"   .++.++@.@.   ",
"   .@++...@@.   ",
"  .@@@@@@@@@@.  ",
"  .@@@@..@@@@.  ",
"  .@@@.  .@@@.  ",
"   ...    ...   ",
"                "};
