/* XPM */
static char *sim___[] = {
/* columns rows colors chars-per-pixel */
"16 16 125 2",
"   c #231F20",
".  c #232020",
"X  c #232021",
"o  c #242021",
"O  c #242121",
"+  c #242223",
"@  c #272424",
"#  c #272425",
"$  c #2A2326",
"%  c #282624",
"&  c #2C2724",
"*  c #2E2925",
"=  c #2E2329",
"-  c #2F262A",
";  c #242B2F",
":  c #2B2829",
">  c #2C292A",
",  c #2D2A2B",
"<  c #2E2E28",
"1  c #2E2E29",
"2  c #2D2A2C",
"3  c #2E2B2C",
"4  c #2F2C2D",
"5  c #312B26",
"6  c #302C2D",
"7  c #393226",
"8  c #383E2D",
"9  c #393E2D",
"0  c #242B30",
"q  c #3E2733",
"w  c #263138",
"e  c #24333B",
"r  c #24353C",
"t  c #333032",
"y  c #333132",
"u  c #353334",
"i  c #373537",
"p  c #383637",
"a  c #3B3839",
"s  c #3F3C3E",
"d  c #42392A",
"f  c #493E28",
"g  c #472939",
"h  c #472A38",
"j  c #482839",
"k  c #4B293B",
"l  c #403D3E",
"z  c #3B412F",
"x  c #3D452F",
"c  c #4A402B",
"v  c #414B2F",
"b  c #5F4F2A",
"n  c #604F27",
"m  c #6A5626",
"M  c #6E5A27",
"N  c #6F5B28",
"B  c #516437",
"V  c #526537",
"C  c #546A38",
"Z  c #556A38",
"A  c #597236",
"S  c #5A7438",
"D  c #5C743A",
"F  c #627F3B",
"G  c #243740",
"H  c #552840",
"J  c #752652",
"K  c #752752",
"L  c #7B2255",
"P  c #792754",
"I  c #792755",
"U  c #782854",
"Y  c #23404C",
"T  c #204756",
"R  c #224B5C",
"E  c #195E76",
"W  c #195E77",
"Q  c #175F78",
"!  c #225367",
"~  c #22556A",
"^  c #444243",
"/  c #4A4748",
"(  c #4C4A4B",
")  c #4F4D4E",
"_  c #514F50",
"`  c #8D7123",
"'  c #8F7224",
"]  c #A07F25",
"[  c #84235A",
"{  c #A01E69",
"}  c #A41E6B",
"|  c #63813C",
" . c #AB8623",
".. c #AF8A24",
"X. c #EDB618",
"o. c #F6BC14",
"O. c #8BC53F",
"+. c #8CC63F",
"@. c #FFC10E",
"#. c #FEC10F",
"$. c #FFC20E",
"%. c #FDC010",
"&. c #87BD41",
"*. c #89C141",
"=. c #8BC440",
"-. c #8BC540",
";. c #176C8C",
":. c #E6068A",
">. c #E9048B",
",. c #EB018C",
"<. c #EA038C",
"1. c #EC008C",
"2. c #E30A89",
"3. c #1284AF",
"4. c #0F86B2",
"5. c #04A9E7",
"6. c #03ABEA",
"7. c #02ACEC",
"8. c #00ADEE",
"9. c #00ADEF",
"0. c #00AEEF",
"q. c #F3F3F3",
"w. c #F8F8F8",
"e. c gray99",
"r. c None",
/* pixels */
"y > > > , 6 r.r.r.r.> , > > > y ",
"> G ~ ~ ! e o i > X 7 m N N f > ",
"> Q 0.0.0.6.W     M o.$.@.$.' > ",
"> Q 0.0.0.9.5.w 5 X.$.$.$.$.' > ",
"> E 0.0.0.0.0.T c #.$.$.$.$.` > ",
": Y 8.0.0.0.4.0 & ..#.$.$.#.n , ",
"r.  ;.7.0.3.+ a s o  .@.%.] O r.",
"r.y   r R ; l q.w.( * b d X 4 r.",
"r.u   - h $ ^ w.e._ @ 9 1 . p r.",
"r.X L 2.1.} o / )   F +.*.D o r.",
"# j >.1.1.,.{ = % | -.+.+.-.v 3 ",
"2 K 1.1.1.1.1.H z O.+.+.+.+.A > ",
"> U 1.1.1.1.:.q < &.+.+.+.+.S > ",
"> U 1.1.1.<.[ X   V =.+.+.+.S > ",
"> g I P J k o > i o 8 B C Z x > ",
"t > > > , > r.r.r.r.> , > > > t "
};
