/* XPM */
static const char *aim_away[]={
"16 16 51 1",
"# c #000000",
"W c #00194c",
"Q c #00254c",
"k c #002758",
"e c #002a72",
"h c #002b66",
"f c #0036b2",
"l c #003b7e",
"R c #00488c",
"S c #004b98",
"i c #0059fe",
"O c #0068b2",
"j c #006bfe",
"V c #0073a4",
"L c #0082f2",
"M c #008ef2",
"m c #008ffe",
"P c #00a5f2",
"U c #010726",
"a c #02040f",
"b c #02061b",
"N c #021733",
"c c #030510",
"T c #040d37",
"g c #080808",
"d c #080a15",
"v c #314044",
"q c #4c4b4c",
"n c #543e39",
"t c #575059",
"o c #5c5156",
"u c #615463",
"K c #636363",
"p c #645b66",
"r c #6d6170",
"F c #757575",
"s c #77677a",
"C c #797979",
"D c #8b8b8b",
"w c #919190",
"J c #a3a3a3",
"I c #ababab",
"H c #b3b3b3",
"G c #b8b8b8",
"E c #c4c4c4",
"B c #cbcbcb",
"A c #d3d3d3",
"z c #dbdbdb",
"y c #e3e3e3",
"x c #eaeaea",
". c None",
"................",
".......#abc#....",
"......#defed#...",
"......ghiijkg...",
"......gliimeg...",
"..nopqrspttruv..",
"..wxxxyzzAAABC..",
"..wxxxyyyzzABC..",
"..wxxyyzzzABBC..",
"..DyyyyzzBABBC..",
"..DyyyzzAABBEF..",
"..DyyzzzBBBBEF#.",
"..FGGHHIIIJJwKbg",
"..akLmMhagNOmPQg",
"..#dRSTa..#UVWag",
"...#bd#....gUg.."};
