/* XPM */
static const char *aim_offline[]={
"16 16 23 1",
"# c #000000",
"a c #0c0c0c",
"c c #131313",
"b c #1a1a1a",
"o c #232323",
"l c #292929",
"n c #323232",
"r c #3b3b3b",
"i c #434343",
"f c #4d4d4d",
"d c #555555",
"j c #5c5c5c",
"p c #646464",
"t c #6c6c6c",
"u c #727272",
"q c #7a7a7a",
"e c #8a8a8a",
"m c #969696",
"s c #9b9b9b",
"k c #a5a5a5",
"h c #bdbdbd",
"g c #c4c4c4",
". c None",
"................",
".......#aba#....",
"......#cdedb#...",
"......#fgghi#...",
"......ajghkj#...",
"......#lmkel#...",
"......adjno###..",
".....#bmkmpila..",
".....#nkkkkkpa..",
".....#ikkqfro#..",
".....adkksqib#..",
"...##oqkekkkto#.",
"..bbnuksniqkktb#",
"..arkksfaaluker#",
"..#cjtna..#ojra#",
"...#bc#....#oa.."};
