/* XPM */
static const char *jabber_away[]={
"16 16 6 1",
"# c #000000",
"c c #a16816",
"b c #bfbfbf",
"a c #dedede",
"d c #fef6bc",
". c None",
".......##.......",
"......#.a#......",
".....#.aaa#.....",
".....#.aaa#.....",
".####.aaaaa####.",
"#...aaaaaaaaabb#",
"#.aaaaaaaaaabbb#",
".ccccccccaabbb#.",
".cddddddcabbb#..",
".cdccccdcbbb#...",
".cddddddcbbb#...",
".cdccccdcbbbb#..",
".cddddddcbbbb#..",
".cdccccdc#bbb#..",
".cddddddc.###...",
".cccccccc......."};
