/* XPM */
static const char *jabber_na[]={
"16 16 4 1",
"# c #000000",
"b c #bfbfbf",
"a c #dedede",
". c None",
".......##.......",
"......#.a#......",
".....#.aaa#.....",
".....#.aaa#.....",
".####.aaaaa####.",
"#...aaaaaaaaabb#",
"#.aaaaaaaaaabbb#",
".#aaaaaaaaabbb#.",
"..#aaaaaaabbb#..",
"...#aaaaabbb#...",
"...#baabbbbb#...",
"..#bbbbbbbbbb#..",
"..#bbbb##bbbb#..",
"..#bbb#..#bbb#..",
"...###....###...",
"................"};
