/* XPM */
static const char *cell_off[]={
"16 16 8 1",
"a c #070000",
"c c #070707",
"d c #090909",
"e c #3b3b3b",
"# c #656969",
"b c #909090",
"f c #959595",
". c None",
"...........#a...",
"...........#a...",
"...........#a...",
"....aaaaaaaaa...",
"....abbbbbbba...",
"....abcccccba...",
"....adeeeeeda...",
"....adeeeeeda...",
"....adeeeeeda...",
"....abcccccbc...",
"....abbfffbba...",
"....abcfcbcba...",
"....abfffbbba...",
"....abcbcbcba...",
"....abbbbbbba...",
"....aaaaaaaaa..."};
