/* XPM */
static const char *day_cloudy[]={
"16 16 150 2",
"#t c #0b0803",
"as c #1c242d",
"aj c #202328",
"ar c #25313f",
"#G c #29241f",
"aq c #29323c",
"#9 c #2c2c2a",
"#f c #322103",
"ad c #34465a",
"#e c #373227",
"aa c #395475",
"#. c #3c3203",
".Q c #3e3316",
"ap c #3e3c39",
"#8 c #3f454d",
".l c #403500",
"at c #454545",
"#y c #483607",
"ai c #496383",
"#d c #4b4225",
"an c #4f555d",
"ao c #50555a",
"#L c #513d17",
"#g c #553300",
".n c #574b0d",
"ae c #587598",
".h c #5e500c",
"#I c #5e5847",
".m c #5f5627",
".R c #605315",
".c c #605e52",
"a# c #607d9d",
"#K c #674c18",
".8 c #684610",
"#V c #6a6a68",
".# c #6f6d63",
"ac c #6f94c0",
".F c #705a0b",
"#m c #725d0e",
"a. c #72787f",
"#R c #729fd5",
"#Q c #74a1d6",
"#p c #75736f",
"ab c #759ccb",
".y c #776b32",
".g c #77725f",
".k c #786300",
"ah c #79a2d3",
".G c #7a766c",
".X c #7c5e24",
"#2 c #7ca7da",
"af c #7da6d8",
"#1 c #7eabe1",
".H c #7f7c6d",
"ag c #7fa9dc",
"#5 c #7fabdf",
"#n c #806a19",
"#i c #817c64",
"#4 c #82aee1",
"#3 c #82aee2",
"#o c #846b13",
"#0 c #85afe3",
".e c #867f5f",
"#U c #888d93",
"## c #8a7200",
"#W c #8a8989",
"#s c #8a8a89",
"#P c #8ab1e1",
"#6 c #8ab8ef",
"ak c #8b8b8b",
"#J c #8c867b",
"#z c #8c8b8a",
"#E c #8cb5e7",
"#O c #8cb6e8",
".a c #8f875f",
"#S c #8fb4e0",
"#X c #919397",
".P c #926f00",
"#h c #93908a",
".0 c #947b04",
"#B c #959ba4",
"am c #969696",
"#H c #979797",
".I c #987e00",
".d c #9b9992",
"#Z c #9bbbe4",
"#7 c #9bc2f1",
"#v c #9c843b",
".o c #9d9367",
"#c c #9e8416",
"al c #a0a0a0",
"#D c #a4c7ed",
".Y c #a5a29d",
".f c #a69e76",
".9 c #a6a39e",
".x c #a88d1b",
".Z c #aba99d",
"#N c #aed1f9",
"#T c #afbccc",
".i c #b49500",
".r c #b89800",
"#Y c #b9d0ec",
"#x c #ba8700",
".b c #ba9a00",
".v c #be9d00",
"#C c #bfcad6",
"#F c #bfd4eb",
"#A c #c0c5c8",
".J c #c8a500",
"#M c #cccfd2",
"#l c #cea618",
".1 c #d2ae00",
"#u c #d4d4d4",
".u c #dab400",
".W c #e69e03",
".V c #e8a900",
".6 c #eaa200",
".O c #eabb00",
".q c #eac200",
"#r c #edf2f8",
"#k c #f0bd00",
"#j c #f6c300",
"#q c #f6f8f8",
".z c #facf00",
".7 c #fea400",
"#w c #ffbf12",
".5 c #ffc410",
".U c #ffca13",
".4 c #ffd220",
".E c #ffd300",
".L c #ffd403",
".A c #ffd405",
".s c #ffd407",
".M c #ffd509",
".S c #ffd613",
".T c #ffd622",
".C c #ffd715",
".2 c #ffd717",
".D c #ffd719",
"#b c #ffd722",
".B c #ffd81b",
".t c #ffd81d",
"#a c #ffd821",
".3 c #ffd822",
".K c #ffd921",
".N c #ffd923",
".w c #ffdb31",
".j c #ffdc37",
".p c #ffdd3b",
"Qt c None",
"QtQtQtQtQtQtQt.#QtQtQtQtQtQtQtQt",
"QtQtQtQtQtQt.a.b.c.dQtQtQtQtQtQt",
"QtQt.e.f.g.h.i.j.k.l.m.nQtQtQtQt",
"QtQt.o.p.q.r.s.t.u.v.w.xQtQtQtQt",
"QtQt.y.z.A.B.A.C.D.s.E.F.GQtQtQt",
"Qt.H.I.J.K.B.L.M.M.N.O.P.QQtQtQt",
".R.S.E.E.N.N.N.N.N.T.U.V.W.X.YQt",
".Z.0.1.2.N.N.N.N.3.4.5.6.7.8.9Qt",
"Qt#.##.M.N#a.3#b#c#d#e#f#g#hQtQt",
"Qt#i#j#k#l#m#n#o#p#q#r#s#t#uQtQt",
"Qt#v#w#x#y#z#A#B#C#D#E#F#G#HQtQt",
"Qt#I#J#K#L#M#N#O#P#Q#R#S#T#U#VQt",
"QtQt#W#X#Y#Z#0#1#2#3#4#5#6#7#8Qt",
"QtQt#9a.a#aaabacadaeafagahaiajQt",
"QtQtQtakalamanaoQtapaqarasatQtQt",
"QtQtQtQtQtQtQtQtQtQtQtQtQtQtQtQt"};
