/* XPM */
static const char *fog[]={
"16 16 37 1",
"I c #000000",
"z c #0c0c0c",
"F c #111111",
"E c #222222",
"G c #333333",
"w c #444444",
"A c #474747",
"H c #555555",
"C c #666666",
"k c #6b6b6b",
"h c #6d6d6d",
"j c #6e6e6e",
"o c #707070",
"i c #737373",
"l c #777777",
"e c #7a7a7a",
"u c #808080",
"g c #858585",
"a c #868686",
"v c #888888",
"b c #909090",
"t c #949494",
"B c #999999",
"s c #9d9d9d",
"q c #9e9e9e",
"# c #a3a3a3",
"D c #aaaaaa",
"m c #ababab",
"r c #afafaf",
"p c #b3b3b3",
"c c #b8b8b8",
"n c #b9b9b9",
"x c #bbbbbb",
"d c #bcbcbc",
"f c #c1c1c1",
"y c #cccccc",
". c None",
"...#abc....de...",
".fghijklm.noi...",
".pen...jjiho....",
"..q.....rsc.....",
"....#abc....de..",
"..fghijklm.noi..",
"..pen...jjiho...",
"...tua...rsc....",
"...vwx..........",
"..yzzAvwv.BwlB..",
"...CCDExEBFDGv..",
"...vvvv.vvw.vv..",
"...vvBw.wvE.Hv..",
"...vv.wIH.CFGv..",
".........ywxHv..",
"..........vwC..."};
