/* XPM */
static const char *overcast[]={
"16 16 181 2",
"at c #070a0d",
"#f c #090807",
".8 c #0b0b0c",
".Q c #0e1115",
"as c #0f151c",
"am c #111111",
"#T c #12100e",
"au c #151a21",
".P c #161a1f",
".k c #181817",
"a# c #1b1a1a",
".4 c #1b1b1b",
"al c #1b232e",
"aX c #1c242d",
"#U c #1d1d1d",
".R c #1d1f22",
"aQ c #202328",
"aW c #25313f",
"ag c #26282c",
"#8 c #263546",
"af c #282b2e",
"aV c #29323c",
".t c #2a2623",
"ao c #2a2928",
"aa c #2b2f32",
"ac c #2b3038",
".O c #2b3a4c",
"aE c #2c2c2a",
".Z c #2e343b",
"aK c #35475b",
".b c #373532",
"ah c #37495e",
"#9 c #393939",
"aH c #395475",
"ab c #3a3c3e",
".3 c #3d3c3b",
".9 c #3e3e3e",
"## c #3f3c39",
"aD c #3f454d",
"ae c #40566f",
"ar c #41536a",
"#r c #44413c",
"aY c #454545",
"#i c #484747",
"ak c #48617e",
".c c #494948",
"aP c #496383",
".a c #4b4b4a",
".X c #4b5561",
"av c #4c5259",
"ad c #4d6786",
"#F c #4f4f4e",
"aS c #4f555d",
"aT c #50555a",
".l c #525252",
"#1 c #526e8f",
"ai c #547091",
"aL c #587598",
"#u c #595651",
"aj c #5a789c",
"#X c #5d85b4",
"ap c #606163",
".W c #60758d",
"aG c #607d9d",
"#2 c #6080a6",
"#Y c #6083ad",
".v c #62605c",
"#s c #656362",
".U c #697e97",
"#. c #6a6765",
".F c #6a6a68",
"a. c #6d6d6d",
".N c #6e93be",
"aJ c #6f94c0",
".Y c #70839a",
".d c #727272",
"aF c #72787f",
".B c #729fd5",
"#I c #737272",
"#o c #73a0d6",
"#p c #73a2d9",
".A c #74a1d6",
".g c #75736f",
"aw c #75797e",
"aI c #759ccb",
"#x c #78a5db",
"aO c #79a2d3",
"#7 c #79a3d4",
"aU c #7a7a7b",
"#B c #7aa5d8",
"#z c #7ba6d8",
"#Q c #7ba7db",
"#M c #7ca6d9",
"#N c #7ca7d9",
"ay c #7ca7da",
"#w c #7ca8dc",
".7 c #7d7d7d",
"aM c #7da6d8",
"#A c #7da7d9",
".L c #7da7da",
"#O c #7eaadd",
".K c #7eabe1",
"#G c #7f7f7f",
"aN c #7fa9dc",
"aA c #7fabdf",
".e c #807f7e",
"#P c #81acdf",
".V c #829fc2",
"#y c #82acde",
"az c #82aee1",
".M c #82aee2",
"#5 c #82afe3",
".f c #848381",
"#S c #8496ac",
"#4 c #84b0e5",
"#V c #858484",
".T c #859cb4",
".J c #85afe3",
"#3 c #85b2e7",
"#6 c #85b2e8",
"#n c #86aede",
".E c #888d93",
"#Z c #88b5eb",
"#0 c #88b5ec",
"ax c #8a8989",
".j c #8a8a89",
"#g c #8a8a8a",
".z c #8ab1e1",
"aB c #8ab8ef",
".5 c #8b8b8b",
".m c #8c8b8a",
".r c #8cb5e7",
".y c #8cb6e8",
"#a c #8e8c8a",
".C c #8fb4e0",
"#h c #919191",
"#C c #92b5e0",
"#R c #92bdf1",
".S c #95999f",
".o c #959ba4",
"aR c #969696",
".u c #999999",
".G c #999ca0",
".I c #9bbbe4",
"aC c #9bc2f1",
"aq c #9cbbdf",
".# c #9e9e9e",
".6 c #a0a0a0",
"#K c #a0bbdc",
"#L c #a4c3e9",
".q c #a4c7ed",
"#t c #a7a6a5",
"#H c #a8a8a8",
"#q c #aac4e4",
"#W c #aecdf0",
".x c #aed1f9",
"#E c #afbac5",
".D c #afbccc",
".0 c #b1afae",
"#l c #b7cae2",
".H c #bbd3f0",
"#m c #beccdc",
"an c #bfbfbf",
".p c #bfcad6",
".s c #bfd4eb",
"#c c #bfd5f1",
".n c #c0c5c8",
"#D c #c3d4e7",
".2 c #cac7c4",
"#d c #cadff9",
".w c #cccfd2",
"#J c #ccd9e9",
"#e c #cfd3d7",
"#k c #d4e5f9",
"#v c #dee8f3",
".1 c #e7e5e2",
".i c #edf2f8",
"#b c #f2fbff",
".h c #f6f8f8",
"#j c #fcfcfc",
"Qt c None",
"QtQtQtQtQt.#.a.b.cQtQtQtQtQtQtQt",
"QtQt.d.e.f.g.h.i.j.kQtQtQtQtQtQt",
"Qt.l.m.n.o.p.q.r.s.t.uQtQtQtQtQt",
"Qt.v.w.x.y.z.A.B.C.D.E.FQtQtQtQt",
".G.H.I.J.K.L.M.N.O.P.Q.RQtQtQtQt",
".S.T.U.V.W.X.Y.Z.0.1.2.3.4QtQtQt",
".5.6.7.8.9#.###a#b#c#d#e#f#gQtQt",
"QtQt#h#i#j#k#l#m#n#o#p#q#r#sQtQt",
"QtQt#t#u#v#w#x#y#z#A#B#C#D#E#F#G",
"#H#I#J#K#L#M#N#O#P#A#A#A#Q#R#S#T",
"#U#V#W#X#Y#Z#0#1#2#3#4#5#6#7#8#9",
"a.a#aaabacadaeafagahaiajakalamQt",
"QtQtQtQtanaoapaq#narasatauavaw.F",
"QtQtQtax.G.H.I.J.Kay.MazaAaBaCaD",
"QtQtQtaEaFaGaHaIaJaKaLaMaNaOaPaQ",
"QtQtQtQt.5.6aRaSaT#HaUaVaWaXaYQt"};
