/* XPM */
static const char *snow[]={
"16 16 106 2",
".l c #181817",
"#d c #1a324a",
"#i c #1c242d",
"#c c #1d3248",
"#N c #215688",
"#h c #25313f",
"#p c #27629b",
"#e c #285889",
"#g c #29323c",
".u c #2a2623",
"#x c #2a6ba7",
"#G c #2a6cb0",
"## c #2b4e74",
"#K c #2c74b7",
"#I c #2e77bd",
"#C c #2f78c3",
"#M c #317fc9",
"#f c #324e69",
"#s c #3684ce",
".b c #373532",
"#L c #3c85d0",
"#j c #454545",
".8 c #46494c",
"#n c #4890d3",
".c c #494948",
".a c #4b4b4a",
".2 c #4b627a",
".W c #4e90d4",
"#b c #506b84",
".U c #51575e",
".m c #525252",
".9 c #5798d4",
"#a c #58758e",
".Y c #5c81aa",
"#A c #5e9ad7",
"#r c #609cd9",
".w c #62605c",
".1 c #6491c3",
".Z c #657b96",
".V c #66a1da",
".X c #697e94",
".G c #6a6a68",
"#w c #6ca7dc",
".7 c #6d829b",
".e c #727272",
".C c #729fd5",
".B c #74a1d6",
".h c #75736f",
"#l c #75aadc",
".6 c #7ba3d4",
".O c #7da7da",
".N c #7eabe1",
"#o c #7eb2e0",
".5 c #7fa9dc",
".R c #7fabdf",
".f c #807f7e",
".3 c #8298b2",
".0 c #82a6d1",
".Q c #82aee1",
".P c #82aee2",
".4 c #83aada",
".g c #848381",
".M c #85afe3",
".F c #888d93",
".I c #88b6e1",
".k c #8a8a89",
".A c #8ab1e1",
".S c #8ab8ef",
".n c #8c8b8a",
".s c #8cb5e7",
".z c #8cb6e8",
".J c #8d959e",
"#q c #8dbae2",
".D c #8fb4e0",
"#u c #94bce5",
".p c #959ba4",
".v c #999999",
"#m c #99c0e5",
".L c #9bbbe4",
"#y c #9bc2e7",
".T c #9bc2f1",
".# c #9e9e9e",
"#D c #a4c5e7",
".r c #a4c7ed",
"#H c #a9cae8",
".y c #aed1f9",
".E c #afbccc",
"#z c #b0cbea",
"#B c #b2cdec",
".K c #b9d1f0",
"#v c #bcd6ed",
".d c #bfbfbf",
".q c #bfcad6",
".t c #bfd4eb",
".o c #c0c5c8",
"#k c #c1d6ee",
"#J c #c3d8f0",
".x c #cccfd2",
"#F c #cde0f1",
".H c #d5e3f4",
"#E c #e6edf8",
".j c #edf2f8",
"#. c #eef4fb",
".i c #f6f8f8",
"#t c #f9fafd",
"Qt c None",
"QtQtQtQtQtQtQtQtQt.#.a.b.c.dQtQt",
"QtQtQtQtQtQt.e.f.g.h.i.j.k.lQtQt",
"QtQtQtQtQt.m.n.o.p.q.r.s.t.u.vQt",
"QtQtQtQtQt.w.x.y.z.A.B.C.D.E.F.G",
"QtQt.H.I.J.K.L.M.N.O.P.Q.R.S.T.U",
"Qt.V.W.I.X.Y.Z.0.1.2.3.4.5.6.7.8",
"Qt.9#..I###a#b#c#d#e#f#g#h#i#jQt",
"#k#l.W#m#n#o#k#p#q#r#o.9QtQtQtQt",
"#m#l#o#s#t.V#u#k#o#v#k#p#uQtQtQt",
"#w.V#l#q#l#x#x#.#o#p#l#x#lQtQtQt",
"#l#.#y#v#z#x.W#t#x.V#A#s#uQtQtQt",
".W#B#C#p#D#E#k#k#C#s#r#B#FQtQtQt",
"#B#s#G#q#r#l#p#p#F#H#I#uQtQtQtQt",
"Qt#J#n#A#F.W.9#A#l#u#K#uQtQtQtQt",
"QtQt#D#n#D#l#L#l#s#G#s#BQtQtQtQt",
"QtQtQt#q#M#N#I#u#z#y#kQtQtQtQtQt"};
