/* XPM */
static const char *xpm_1[]={
"32 32 128 2",
"#f c #191c1f",
"#b c #1b1f22",
"#e c #1f2429",
"#o c #2b454f",
"#l c #2d4d53",
".8 c #2e3539",
"#V c #32585b",
".9 c #373c41",
".A c #3b434b",
"#m c #3c747e",
"#I c #3d676c",
"#h c #404955",
"#p c #40818a",
".t c #444648",
"#Z c #457276",
"#n c #478a93",
"#5 c #497e83",
".B c #4a4e52",
".z c #4b5259",
"#7 c #4b9fa7",
"#c c #4d5963",
"#x c #4da0a8",
"#v c #54b3bb",
".Z c #57595a",
"#R c #5b8d91",
"#P c #5bb9c4",
"#N c #5c8488",
"#C c #5c979f",
"#M c #5cc4cf",
".V c #5f6061",
".n c #5f6976",
"#. c #626d78",
"#k c #63bdca",
".S c #646464",
"#9 c #647c7e",
"#i c #66707c",
".L c #686868",
"#F c #686a6a",
"#Y c #68c9d5",
".b c #697075",
"#H c #69d2df",
".K c #6b6c6c",
".6 c #6b7279",
"#r c #6bd8e5",
".R c #6e6e6e",
"#L c #6f999e",
".N c #707071",
".a c #70777e",
"#A c #739eac",
".w c #757576",
"#w c #75bac6",
"#E c #76acb9",
".P c #787878",
".o c #787c81",
".v c #7b8289",
"#4 c #7bc1cf",
".Y c #7c7c7c",
"#g c #7e8791",
"#3 c #818e90",
"#u c #81afbf",
".U c #828181",
"#T c #82b0b4",
".u c #848587",
"#j c #84898e",
".C c #888888",
".O c #8b8c8b",
"## c #8b9298",
".0 c #8f8f8f",
"#O c #8fbcc9",
"#U c #8fc7d4",
".x c #919292",
".# c #93999f",
"#B c #93ceda",
".y c #949595",
".f c #959ba6",
".M c #9a9a9a",
"#W c #9ac1c9",
".m c #9da4ad",
".E c #a0a0a0",
"#2 c #a0b2bf",
"#a c #a1a8af",
".r c #a2a2a3",
"#1 c #a2b8c0",
".2 c #a5a5a5",
"#d c #a5abb3",
".F c #a9aaaa",
"#q c #a9c7cd",
".Q c #adadad",
"#X c #b0afbc",
".T c #b2b2b2",
".s c #b7b8b8",
".X c #bababa",
"#z c #bbbac4",
".k c #bebebf",
".h c #c0c3c7",
".i c #c1c1c1",
"#K c #c2c0ca",
".e c #c2c4c5",
".g c #c6c6c7",
".j c #c8caca",
"#t c #cbdde1",
"#6 c #cccccc",
".c c #cccdd0",
"#G c #cfd2da",
".q c #d1d2d2",
".l c #d4d4d5",
".D c #d6d6d6",
"#D c #d8dadf",
".J c #dadada",
"#y c #dce3e6",
".3 c #dddede",
".d c #e0e0e1",
"#J c #e0ebed",
"#0 c #e1e0e4",
"#S c #e4e4e9",
"#s c #e5e5e5",
".W c #e8e8e9",
".p c #eaeaeb",
"#Q c #edeef1",
"#8 c #edf1f1",
".I c #eeeeee",
".7 c #f0f0f0",
".4 c #f2f2f3",
".5 c #f5f5f5",
".1 c #f6f7f7",
".G c #fafafb",
".H c #fdfdfd",
"Qt c None",
"QtQtQtQtQtQtQtQtQtQtQtQtQtQtQtQtQtQtQtQtQtQtQtQtQtQtQtQtQtQtQtQt",
"QtQtQtQtQtQtQtQtQtQtQtQtQtQtQtQtQtQtQtQtQtQtQtQtQtQtQtQtQtQtQtQt",
"QtQtQtQtQtQtQtQtQtQtQtQtQtQtQtQtQtQtQtQtQtQtQtQtQtQtQtQtQtQtQtQt",
"QtQtQtQtQtQtQtQtQtQtQtQtQtQtQtQtQtQtQtQtQtQtQtQtQtQtQtQtQtQtQtQt",
"QtQtQtQtQtQtQtQtQtQtQtQtQtQtQtQtQtQtQtQtQtQtQtQtQtQtQtQtQtQtQtQt",
"QtQtQtQtQtQtQtQtQtQtQtQtQtQtQtQtQtQtQtQtQtQtQtQtQtQtQtQtQtQtQtQt",
"QtQtQtQtQtQtQtQtQtQtQtQtQtQt.#.a.b.cQtQtQtQtQtQtQtQtQtQtQtQtQtQt",
"QtQtQtQtQtQtQtQtQtQtQt.d.e.b.f.g.h.#.b.iQtQtQtQtQtQtQtQtQtQtQtQt",
"QtQtQtQtQtQtQtQtQtQt.j.a.#.k.c.l.l.c.m.n.o.pQtQtQtQtQtQtQtQtQtQt",
"QtQtQtQtQtQtQt.q.r.s.t.o.u.o.v.w.#.b.x.y.z.A.B.C.q.D.E.D.F.k.GQt",
"QtQtQtQt.H.I.J.K.y.L.M.K.N.w.L.O.P.Q.R.R.S.L.T.Q.B.w.U.V.O.V.WQt",
"QtQtQtQt.G.d.X.S.E.L.q.R.F.K.O.U.N.q.Y.x.Z.U.0.F.w.Y.M.y.L.x.1Qt",
"QtQtQtQt.G.d.s.R.M.r.j.C.M.U.X.S.U.d.C.2.Z.Q.S.F.L.C.q.r.B.3QtQt",
"QtQtQtQt.4.u.i.Y.i.2.Q.X.z.P.e.P.2.X.g.x.w.g.S.l.t.O.5.V.A.pQtQt",
"QtQtQtQt.6.v.i.u.4.L.c.k.w.U.E.P.T.M.7.K.C.r.Y.X.8.y.X.9#..z.GQt",
"QtQtQt.j.v##.X.Q.D.S.5.Y.F.2.w.N.y.M.5.Z.Q.x.T.N.L.T.Y.V.n.A.3Qt",
"QtQt.H.b#a.#.2.k.Y.R.l.t.r.s.N.O.N.y.g.L.g.3.M#b.C.k.t#c#c.A.3Qt",
"QtQtQt.o###d.#.t.z.B#e.z#c.t.U.V.S.V.9.Z.8#f#b.9#..8.8#c#g#h.3Qt",
"QtQtQt.I.z.a#####g#i#c#c#h.a#d.f#j.#.m#i.z#h.A#c.n#i.z.6#c.N.7Qt",
"QtQtQtQt.p#k#l.B#c#m#b.9.B#n.8.t.n#m.8.B#h#o.8.8.z#p#c.o.F.WQtQt",
"QtQtQtQt#q#r.8#s.5#t#s.W#u#v.u.J#w#x.T.I#y#q.q#z#A#v.qQtQtQtQtQt",
"QtQtQtQt#B#C.0#D#E#F.5#G#H#I.3.H#J.3.H#K#L.Q.H.f#M#N.HQtQtQtQtQt",
"QtQtQt.H#J.dQt#O#P.Z.G#Q#q.X#Q#O#R.l#S#E#v.FQt.c#T.qQtQtQtQtQtQt",
"QtQtQt#U#C.w#S#r#V.i#Q#W##.1#z#H#I.d#X#Y#Z.7#0#1.eQtQtQtQtQtQtQt",
"QtQt#Q#r#l.F#t#w#F.5#1#H.A.I#u#M.L.G#2#v.y.5.f#M#3QtQtQtQtQtQtQt",
"QtQt#B#Y.8.W.H.G.G.4#4#n.y#S#4#5#6Qt.1.I.G#K#E#7.JQtQtQtQtQtQtQt",
"QtQt#B#N.EQtQtQtQt#G#Y.z.d.H#8.7.HQtQtQt.H.m#M#9.GQtQtQtQtQtQtQt",
"QtQt.H.GQtQtQtQtQtQt.p.WQtQtQtQtQtQtQtQtQt.4.D.pQtQtQtQtQtQtQtQt",
"QtQtQtQtQtQtQtQtQtQtQtQtQtQtQtQtQtQtQtQtQtQtQtQtQtQtQtQtQtQtQtQt",
"QtQtQtQtQtQtQtQtQtQtQtQtQtQtQtQtQtQtQtQtQtQtQtQtQtQtQtQtQtQtQtQt",
"QtQtQtQtQtQtQtQtQtQtQtQtQtQtQtQtQtQtQtQtQtQtQtQtQtQtQtQtQtQtQtQt",
"QtQtQtQtQtQtQtQtQtQtQtQtQtQtQtQtQtQtQtQtQtQtQtQtQtQtQtQtQtQtQtQt"};
