/* XPM */
static const char *xpm_15[]={
"32 32 127 2",
"#6 c #494949",
"#5 c #545454",
"#4 c #5a5a5a",
"#F c #626262",
"#0 c #676767",
".V c #6d6d6d",
".O c #6e6e6e",
"#t c #717171",
".m c #727272",
"#C c #737373",
"#o c #757575",
"#A c #787878",
"#x c #7a7a7a",
"#d c #7b7b7b",
"#z c #7c7c7c",
".8 c #7d7d7d",
".4 c #7e7e7e",
"#8 c #7f7f7f",
"#R c #808080",
"#a c #828282",
"#H c #838383",
"#U c #858585",
"#f c #868686",
"#s c #878787",
".3 c #888888",
".x c #8b8b8b",
"#1 c #8f8f8f",
"#7 c #909090",
"#q c #919191",
".U c #929292",
".k c #939393",
"#y c #949494",
".W c #959595",
"#D c #969696",
".5 c #979797",
".1 c #989898",
"#3 c #999999",
".z c #9b9b9b",
"#S c #9c9c9c",
"#u c #9d9d9d",
".K c #9e9e9e",
".E c #9f9f9f",
"#X c #a0a0a0",
".u c #a1a1a1",
"#p c #a2a2a2",
".L c #a3a3a3",
".B c #a4a4a4",
"#2 c #a5a5a5",
"#w c #a6a6a6",
".I c #a7a7a7",
"#I c #a8a8a8",
".X c #a9a9a9",
"#M c #ababab",
"#T c #acacac",
"#i c #adadad",
".j c #aeaeae",
"#l c #afafaf",
"#V c #b0b0b0",
"#B c #b1b1b1",
"#Z c #b2b2b2",
".e c #b3b3b3",
"#g c #b4b4b4",
"#n c #b6b6b6",
"#h c #b8b8b8",
".t c #b9b9b9",
"#E c #bcbcbc",
".n c #bdbdbd",
".N c #bebebe",
".w c #bfbfbf",
".6 c #c0c0c0",
"#e c #c1c1c1",
".v c #c2c2c2",
".l c #c3c3c3",
".0 c #c4c4c4",
".Y c #c6c6c6",
".p c #c7c7c7",
".J c #c8c8c8",
".M c #c9c9c9",
"#c c #cacaca",
".T c #cbcbcb",
".Z c #cccccc",
"#b c #cdcdcd",
"#j c #cfcfcf",
"#r c #d0d0d0",
".G c #d1d1d1",
".P c #d2d2d2",
".y c #d3d3d3",
".d c #d4d4d4",
"#Q c #d6d6d6",
".2 c #d7d7d7",
"## c #d8d8d8",
".C c #d9d9d9",
"#G c #dadada",
".i c #dbdbdb",
"#Y c #dcdcdc",
"#O c #dddddd",
"#k c #dedede",
".R c #dfdfdf",
".s c #e0e0e0",
".c c #e1e1e1",
".7 c #e2e2e2",
".H c #e3e3e3",
"#W c #e5e5e5",
".r c #e6e6e6",
"#J c #e7e7e7",
".D c #e8e8e8",
".S c #eaeaea",
"#. c #ebebeb",
"#N c #ececec",
".A c #ededed",
"#v c #eeeeee",
".9 c #efefef",
".o c #f0f0f0",
"#m c #f1f1f1",
"#P c #f2f2f2",
".Q c #f3f3f3",
".F c #f5f5f5",
"#K c #f6f6f6",
"#L c #f7f7f7",
".h c #f8f8f8",
".b c #f9f9f9",
".q c #fafafa",
".g c #fbfbfb",
".f c #fcfcfc",
".a c #fdfdfd",
".# c #fefefe",
"Qt c None",
"QtQtQtQtQtQtQtQtQtQtQtQtQtQtQtQtQtQtQtQtQtQtQtQtQtQtQtQtQtQtQtQt",
"QtQtQtQtQtQtQtQtQtQtQtQtQtQtQtQtQtQtQtQtQtQtQtQtQtQtQtQtQtQtQtQt",
"QtQtQtQtQtQtQtQtQtQtQtQtQtQtQtQtQtQtQtQtQtQtQtQtQtQtQtQtQtQtQtQt",
"QtQtQtQtQtQtQtQtQtQtQtQtQtQtQtQtQtQtQtQtQtQtQtQtQtQtQtQtQtQtQtQt",
"QtQtQtQtQtQtQtQtQtQtQtQtQtQtQtQtQtQtQtQtQtQtQtQtQtQtQtQtQtQtQtQt",
"QtQtQtQtQtQtQtQtQtQtQtQtQtQtQtQtQtQtQtQtQtQtQtQtQtQtQtQtQtQtQtQt",
"QtQtQtQtQtQtQtQtQtQtQtQtQtQtQtQtQtQtQtQtQtQtQtQtQtQtQtQtQtQtQtQt",
"QtQtQtQtQtQtQtQtQtQtQtQtQtQtQtQtQtQtQtQtQtQtQtQtQtQtQtQtQtQtQtQt",
"QtQtQtQtQtQtQtQtQtQtQtQtQt.#.a.b.c.d.e.aQtQtQtQtQtQtQtQtQtQtQtQt",
"QtQtQtQtQtQtQtQtQtQt.#.f.g.h.i.j.k.l.m.n.aQt.#.a.o.p.qQtQtQtQtQt",
"QtQtQtQtQtQtQt.#.g.r.s.f.q.h.t.u.v.w.x.y.z.h.a.g.A.B.C.D.E.bQtQt",
"QtQtQtQt.a.f.F.G.H.v.xQt.a.A.I.J.K.L.M.N.O.P.Q.R.S.P.T.U.V.aQtQt",
"QtQtQtQt.#.f.s.W.l.X.Y.G.s.i.Z.0.1.2.U.3.4.s.r.5.6.F.7.8.9QtQtQt",
"QtQtQtQt.a.g.o.2#.###a.V#b#c.8#d#e#f#g#h#i.b.b.r#j#k#l.1.5#gQtQt",
"QtQtQtQt.f#m#n#o#p#q.z.7.a.h#h#r#c#s.6#t#u.q.h#v#w#x#y#z#s#lQtQt",
"QtQtQtQtQt.o.6.T.6#A.U.5.#.a.f#B#x#C#D.4.H.#.##E#F.R#u#yQtQtQtQt",
"QtQtQtQtQtQt.##G#H#I.G#JQtQtQt#K#B#j#L#L.i.b.q.o.g.#.I#MQtQtQtQt",
"QtQtQtQtQtQtQt#N#O.F.f#P.P#Q##.f.a.f.b#G.L.C.7.4#mQtQt.aQtQtQtQt",
"QtQtQtQtQtQtQtQt.#.##L.6#R.u#o.d.#.a.q.Q.n.l#S#F.aQtQtQtQtQtQtQt",
"QtQtQtQtQtQt.#.a.f.q.H#T.4#U#V#i#W#L##.t#k.F#X#Y.i.aQtQtQtQtQtQt",
"QtQtQtQtQtQtQt.#.a.F#Z.m#w.s.I#0#c.q.L#x.M.R#t#1#0#NQtQtQtQtQtQt",
"QtQtQtQtQtQtQtQt.#.h.C#h#2#V#S.k.o.f#m.Q#M#a#3#T.E#LQtQtQtQtQtQt",
"QtQtQtQtQtQtQtQt.#.#.Q.B#4#x#5.2.a.f.q.v#6#r#g#7.aQtQtQtQtQtQtQt",
"QtQtQtQtQtQtQtQtQtQt.g.R.G#b.HQtQtQtQt.X.3Qt#8.8QtQtQtQtQtQtQtQt",
"QtQtQtQtQtQtQtQtQtQtQtQtQtQtQtQtQtQtQt#L#KQt#..DQtQtQtQtQtQtQtQt",
"QtQtQtQtQtQtQtQtQtQtQtQtQtQtQtQtQtQtQtQtQtQtQtQtQtQtQtQtQtQtQtQt",
"QtQtQtQtQtQtQtQtQtQtQtQtQtQtQtQtQtQtQtQtQtQtQtQtQtQtQtQtQtQtQtQt",
"QtQtQtQtQtQtQtQtQtQtQtQtQtQtQtQtQtQtQtQtQtQtQtQtQtQtQtQtQtQtQtQt",
"QtQtQtQtQtQtQtQtQtQtQtQtQtQtQtQtQtQtQtQtQtQtQtQtQtQtQtQtQtQtQtQt",
"QtQtQtQtQtQtQtQtQtQtQtQtQtQtQtQtQtQtQtQtQtQtQtQtQtQtQtQtQtQtQtQt",
"QtQtQtQtQtQtQtQtQtQtQtQtQtQtQtQtQtQtQtQtQtQtQtQtQtQtQtQtQtQtQtQt",
"QtQtQtQtQtQtQtQtQtQtQtQtQtQtQtQtQtQtQtQtQtQtQtQtQtQtQtQtQtQtQtQt"};
