/* XPM */
static const char *xpm_25[]={
"32 32 128 2",
".A c #0066a6",
".t c #007ebb",
".D c #0083bf",
".w c #008dc3",
".N c #0095c8",
".s c #00b8e9",
".W c #00bedf",
".G c #00c3ec",
".T c #00cbee",
".K c #015c9b",
".j c #01a8d9",
".R c #022575",
".y c #023f89",
".k c #029ad1",
".u c #0370ab",
".M c #03a3c6",
".Q c #058fae",
".Z c #06a1bd",
".v c #074a7b",
".V c #08596c",
".x c #095094",
".P c #0c99ba",
".J c #0e2a56",
".9 c #0f6097",
".b c #139ccb",
"## c #1587ba",
".H c #16242d",
"#a c #174b66",
".1 c #188ba0",
"#b c #18acd5",
"#c c #1ad6f4",
".L c #1c617c",
".X c #1e3c5d",
".C c #1ea8cf",
"#d c #1f445f",
".O c #215966",
"#. c #24cce8",
"#R c #273e6f",
".8 c #286973",
".a c #28a7c7",
"#o c #294a75",
".5 c #29b3d7",
".6 c #2bd2ef",
".d c #2c99c5",
".B c #2d5891",
".7 c #2edaf6",
".0 c #2f4259",
".p c #2fa8d0",
".3 c #31ceea",
"#p c #3275aa",
".4 c #32d3ef",
"#i c #357491",
".z c #3691ab",
"#e c #3da4b4",
".I c #424344",
"#h c #4491c0",
"#z c #4572ab",
".i c #48b4d7",
"#v c #4a5163",
".l c #4e91ad",
"#P c #4f6291",
".U c #51727f",
"#g c #52a2cc",
"#1 c #535353",
"#n c #54a9bb",
"#x c #555e63",
".n c #57b7d9",
"#m c #58b7cc",
"#F c #5a76a3",
"#j c #5a828d",
"#L c #638bb6",
".g c #6492b3",
"#r c #65dcf3",
"#u c #669fcb",
".E c #6883a0",
"#3 c #696969",
"#l c #69d0e5",
"#k c #6ce1f8",
".c c #6da6b7",
"#E c #717575",
"#O c #7188ad",
"#q c #75b8d2",
"#f c #76ddf3",
"#s c #7c7c7c",
"#K c #7c9bb7",
"#G c #7f99a0",
"#D c #83abd0",
".Y c #848484",
"#B c #84cfe4",
"#V c #879eba",
".o c #89b1c8",
"#A c #89c5d4",
"#U c #8a979d",
"#5 c #8b8b8b",
"#I c #92b1bd",
"#M c #949494",
"#J c #94b9c3",
".f c #9ac8de",
".2 c #9b9b9b",
"#y c #9be8f8",
".q c #a3bfd4",
"#t c #a3e8f9",
"#Y c #a5a5a5",
".F c #acacac",
"#Q c #adbdc4",
".r c #b3b3b3",
"#N c #b5c6d1",
"#W c #b6cfe1",
"#2 c #bbbbbb",
"#H c #beeef9",
"#Z c #c2c2c2",
"#C c #c5f2fc",
"#T c #c7dde9",
"#0 c #cbcbcb",
"#S c #cce1ec",
".e c #d2e1ed",
"#X c #d4d4d4",
".S c #dcdcdc",
"#4 c #e2e2e2",
".h c #e8f2f6",
"#w c #e9e9e9",
"#8 c #ececec",
".# c #f0f0f0",
"#6 c #f6f6f6",
".m c #f6f9fb",
"#7 c #fafafa",
"#9 c #fdfdfd",
"Qt c None",
"QtQtQtQtQtQtQtQtQtQtQtQtQtQtQtQtQtQtQtQtQtQtQtQtQtQtQtQtQtQtQtQt",
"QtQtQtQtQtQtQtQtQtQtQtQtQtQtQtQtQtQtQtQtQtQtQtQtQtQtQtQtQtQtQtQt",
"QtQtQtQtQtQtQtQtQtQtQtQtQtQtQtQtQtQtQtQtQtQtQtQtQtQtQtQtQtQtQtQt",
"QtQtQtQtQtQtQtQtQtQtQtQtQtQtQtQtQtQtQtQtQtQtQtQtQtQtQtQtQtQtQtQt",
"QtQtQtQtQtQtQtQtQtQtQtQtQtQtQtQtQtQtQtQtQtQtQtQtQtQtQtQtQtQtQtQt",
"QtQtQtQtQtQtQtQtQtQtQtQtQtQtQtQtQtQtQtQtQtQtQtQtQtQtQtQtQtQtQtQt",
"QtQtQtQtQtQtQtQtQtQtQtQtQtQtQtQtQtQtQtQtQtQtQtQtQtQtQtQtQtQtQtQt",
"QtQtQtQtQtQtQtQtQtQtQtQtQtQtQtQtQtQtQtQtQtQtQtQtQtQtQtQtQtQtQtQt",
"QtQtQtQtQtQtQtQtQtQtQtQtQtQtQtQtQtQtQtQtQtQtQtQtQtQtQtQtQtQtQtQt",
"Qt.#.a.b.b.b.c.a.b.b.d.e.f.b.g.h.i.j.k.l.m.n.d.o.p.b.b.d.qQtQtQt",
"Qt.r.s.j.t.u.v.s.k.w.s.x.l.s.y.z.s.A.k.j.B.C.k.v.s.k.D.s.A.EQtQt",
"Qt.F.G.D.H.I.J.G.K.H.G.A.L.G.x.M.N.J.O.j.y.P.k.v.G.A.J.Q.j.R.SQt",
"Qt.F.T.k.L.c.U.T.u.O.T.x.V.T.K.W.w.X.Y.I.H.Z.j.v.T.u.0.1.G.R.2Qt",
"Qt.F.3.4.3.5.L.6.6.7.C.J.8.6.9#.###a.a.a.O.a#b.v#c.u#d#e#c.R.YQt",
"Qt.F#f#g.X.X.0#f#h#i#f.B#j#k.B#l#h#d#m#k.x#n.n#o#k#p.X#q#r.R#sQt",
"Qt.F#t#u#v#w#x#y#z.I#y#z.U#y.B#A#q.X.E#y.B.c#q#o#y#z.0#A#B.R.YQt",
"Qt.2#C#D.0.F#E#C#F.I#C.E.U#C.B#G#H#F#I#C.B#J.f.B#H.f#K#C#L.J#MQt",
"Qt#M#N#O#v.r#s#N#P.I#Q#F#x#N#R#E#Q#S#T.q#o#U#V.0#Q#W#W#K.J.H.rQt",
"Qt#X.2#Y.Y#Z#0#Y#Y#1#2.2#3.r#3.Y#4#Y#5#M#1#M.F.I#Z.F#Y#Y#3.I.SQt",
"Qt#w.r#6#s#X#w#Z#4#3#w#Y#5#6#E#Y#0#w.##4#3.F#2#x#X#6#6.r#1#M#6Qt",
"Qt#7.r#X.Y#6#8#2#Y#Y#0#5.F#4#3#X#8.r#X#Y#s.r#M.F#4#8#2#s.Y#wQtQt",
"QtQt.r#2.FQt.##2.2#X.##Z#X#2#M.#Qt.S#Z.Y#0#X.F#0#9.S.2#5#Z#7QtQt",
"QtQt#4#0#2Qt#9.S.F#wQt#7#7#4#Z#7Qt#9#w#Z#6#9#8#wQt#7#X#2#6QtQtQt",
"QtQtQt.#.#QtQtQt.##7QtQtQt#9#6QtQtQtQt#9QtQtQtQtQtQtQt#7QtQtQtQt",
"QtQtQtQtQtQtQtQtQtQtQtQtQtQtQtQtQtQtQtQtQtQtQtQtQtQtQtQtQtQtQtQt",
"QtQtQtQtQtQtQtQtQtQtQtQtQtQtQtQtQtQtQtQtQtQtQtQtQtQtQtQtQtQtQtQt",
"QtQtQtQtQtQtQtQtQtQtQtQtQtQtQtQtQtQtQtQtQtQtQtQtQtQtQtQtQtQtQtQt",
"QtQtQtQtQtQtQtQtQtQtQtQtQtQtQtQtQtQtQtQtQtQtQtQtQtQtQtQtQtQtQtQt",
"QtQtQtQtQtQtQtQtQtQtQtQtQtQtQtQtQtQtQtQtQtQtQtQtQtQtQtQtQtQtQtQt",
"QtQtQtQtQtQtQtQtQtQtQtQtQtQtQtQtQtQtQtQtQtQtQtQtQtQtQtQtQtQtQtQt",
"QtQtQtQtQtQtQtQtQtQtQtQtQtQtQtQtQtQtQtQtQtQtQtQtQtQtQtQtQtQtQtQt",
"QtQtQtQtQtQtQtQtQtQtQtQtQtQtQtQtQtQtQtQtQtQtQtQtQtQtQtQtQtQtQtQt"};
