/* XPM */
static const char *xpm_31[]={
"32 32 128 2",
"#3 c #89724e",
"#X c #977750",
"#0 c #997a55",
"#4 c #9c805c",
"#I c #a07f57",
"#p c #a1875f",
"#J c #a4835b",
"#C c #a8865f",
"#V c #aa8c6c",
".5 c #aa926a",
"#T c #ad8b65",
"#v c #af9470",
"#W c #b09570",
"#i c #b29d79",
"#K c #b38f6b",
".U c #b4a484",
"#R c #b59573",
"#H c #b99a75",
".4 c #baa984",
"#L c #bb9d7c",
"#j c #bca17f",
"#a c #bca583",
".V c #bfa887",
".2 c #bfb292",
"#7 c #c1a68b",
"#D c #c3a382",
".7 c #c3b399",
".W c #c4ac8c",
".6 c #c5b28c",
".J c #c5ba9e",
"#x c #c6ae91",
"#z c #c6b296",
".3 c #c7bea4",
".T c #c8b899",
"#1 c #c9a888",
"#O c #c9b398",
"#l c #c9ba9b",
"#9 c #caac86",
"#E c #cab395",
"#b c #cab894",
"#q c #ccbc9e",
"#s c #cdc2a5",
".Y c #cdc5ab",
"#A c #cebb9f",
"#S c #cfb899",
"#y c #cfbd98",
"#r c #d0bd9f",
".O c #d0c6a9",
".P c #d1c7ae",
"#h c #d2c4a5",
"#w c #d3c0a2",
"#Y c #d3c2a6",
"#Q c #d4bc95",
".K c #d5cbb1",
"#G c #d6c5a7",
"## c #d6c8aa",
"#5 c #d6cbb4",
"#g c #d6ccae",
".N c #d6cdb1",
".X c #d6cfb6",
".y c #d6d0b7",
"#f c #d7caad",
".D c #d7d1ba",
"#m c #d9c698",
".Q c #d9ccad",
"#. c #d9ceb1",
"#n c #d9cfb6",
".C c #d9d2b9",
"#2 c #d9d2bd",
"#8 c #dacbb2",
".1 c #dad0b5",
".z c #dad4ba",
".Z c #dbcda4",
"#k c #dbcfb3",
"#Z c #dbd6bf",
"#B c #dcd0b1",
".L c #dcd1b6",
".M c #dcd3b8",
"#N c #ddceb0",
".t c #ddd7bd",
".9 c #ded5b9",
".I c #ded9bf",
"#d c #dfd3b5",
".s c #dfdbc2",
".E c #e0d5b3",
".S c #e0d6b9",
".R c #e1dabe",
".H c #e1dbc0",
".r c #e2dfc3",
"#F c #e3d1a4",
"#e c #e3d8bc",
".u c #e3dcc1",
"#c c #e4dabd",
"#t c #e5dcbe",
".B c #e5ddc1",
".A c #e5dfc4",
".G c #e5e0c4",
".w c #e6dbb8",
".q c #e7deb9",
".v c #e7e2c8",
"#o c #e8dcbf",
"#6 c #e8dec2",
"#P c #e9e6cb",
".n c #eae3c3",
"#U c #ebd8a7",
".m c #ebe2bb",
".8 c #ecddaf",
".l c #eee2b5",
"#M c #f0e0b2",
".o c #f2e5b8",
".p c #f6e9bb",
".k c #f8ebbd",
".F c #faeec2",
".x c #fcf1c6",
".j c #fef3cb",
".i c #fff6d1",
".h c #fff6d5",
".0 c #fff7d8",
".g c #fff8db",
".f c #fff9e3",
"#u c #fffbea",
".d c #fffbec",
".e c #fffcee",
".c c #fffcf1",
".b c #fffdf4",
".a c #fffef9",
".# c #fffffd",
"Qt c None",
"QtQtQtQtQtQtQtQtQtQtQtQtQtQtQtQtQtQtQtQtQtQtQtQtQtQtQtQtQtQtQtQt",
"QtQtQtQtQtQtQtQtQtQtQtQtQtQtQtQtQtQtQtQtQtQtQtQtQtQtQtQtQtQtQtQt",
"QtQtQtQtQtQtQtQtQtQtQtQtQtQt.#.#.#.#QtQtQtQtQtQtQtQtQtQtQtQtQtQt",
"QtQtQtQtQtQtQtQtQtQt.#.a.b.c.d.d.d.d.e.b.a.#QtQtQtQtQtQtQtQtQtQt",
"QtQtQtQtQtQtQtQtQt.a.c.f.g.h.i.i.i.i.h.g.f.e.a.#QtQtQtQtQtQtQtQt",
"QtQtQtQtQtQtQt.#.b.f.h.j.k.l.m.m.n.m.o.k.j.h.f.c.#QtQtQtQtQtQtQt",
"QtQtQtQtQtQt.#.c.g.i.p.q.r.s.s.t.t.u.v.v.w.o.j.g.e.#QtQtQtQtQtQt",
"QtQtQtQtQt.#.c.g.x.m.r.v.s.y.z.z.t.t.A.B.C.D.E.F.g.e.#QtQtQtQtQt",
"QtQtQtQtQt.b.g.x.m.G.H.s.s.t.I.t.J.K.L.M.N.O.P.Q.x.g.b.#QtQtQtQt",
"QtQtQtQt.a.f.i.l.A.R.I.I.G.G.S.T.U.P.V.W.K.X.P.Y.Z.j.f.aQtQtQtQt",
"QtQtQt.#.c.0.p.I.t.R.R.H.G.v.1.2.3.N.4.5.6.y.C.X.7.8.h.e.#QtQtQt",
"QtQtQt.a.f.j.m.X.z.R.9.H.B.B.L#..R.B###a.W.N.y.P.J#b.x.f.aQtQtQt",
"QtQtQt.a.g.k.B.t.1.L.M#c.S#d.9#e.S#d#f###g.N#.#h.T#i.8.0.bQtQtQt",
"QtQtQt.c.h.p.u.1.N.9.L.R###j.T#k#l.Q######.O.N.O.O#i#m.h.eQtQtQt",
"QtQt.#.e.h.m.u.K#n#o.u.L.V#p#i###q#r#f#h###s.O#s.Y.U.6.i.d.#QtQt",
"QtQt.#.d.i.S.z.M.N.S#t.Q#a.5.5##.L.T#h#f#g#l#l#s#s.2.4.i#u.#QtQt",
"QtQt.#.d.i#h#s#f.1.S#t.Q.V#v#a.S#w#j#x#c#h.6#q.y.X.J.4.i#u.#QtQt",
"QtQt.#.e.h#y#z#A.Q#c.E#B#d###e.Q.5#C#D#w#E#l#g.t.C.3.6.i.d.#QtQt",
"QtQtQt.c.h#F#z.W#E#d#k#d.n#o#G#H#I#J#K#L#j#h.t.r.C.3.Z.h.eQtQtQt",
"QtQtQt.a.g#M#x#j#E.S#N#r#w.W.W#H#J#C#C#E#E#O.H#P.X.3.l.0.bQtQtQt",
"QtQtQt.a.f.x#Q#L#R.V#S#H#C#J#T#R#T#K.W.Q#w.N.u.H.D.Y.F.f.aQtQtQt",
"QtQtQt.#.c.h#U#V#J#J#W#W#I#X#I#L#r#G#c#N#Y.L.L#n#Z.8.h.e.#QtQtQt",
"QtQtQtQt.a.f.j.6#0#C#J#p#J#0#T#w#k#N#1#D##.L.L#2.E.x.f.aQtQtQtQt",
"QtQtQtQtQt.b.g.F.5#3#p#4#X#X#X#R#x#A.W#S.S.L#5#..k.g.c.#QtQtQtQt",
"QtQtQtQtQt.#.c.g.k.5#4#V#4#0#v#E#S#c#6#o#t#n#..p.0.d.#QtQtQtQtQt",
"QtQtQtQtQtQt.#.c.g.j#m#p#R#7#O#8.M#k#8#G#N.8.x.g.d.#QtQtQtQtQtQt",
"QtQtQtQtQtQtQt.#.b.f.h.F#F#Q#9#x#x#S#m#M.F.h.f.c.#QtQtQtQtQtQtQt",
"QtQtQtQtQtQtQtQtQt.a.e.f.g.h.i.i.i.i.h.0.f.d.a.#QtQtQtQtQtQtQtQt",
"QtQtQtQtQtQtQtQtQtQt.#.a.b.e.d#u#u#u.e.b.a.#QtQtQtQtQtQtQtQtQtQt",
"QtQtQtQtQtQtQtQtQtQtQtQtQtQt.#.#.#.#.#QtQtQtQtQtQtQtQtQtQtQtQtQt",
"QtQtQtQtQtQtQtQtQtQtQtQtQtQtQtQtQtQtQtQtQtQtQtQtQtQtQtQtQtQtQtQt",
"QtQtQtQtQtQtQtQtQtQtQtQtQtQtQtQtQtQtQtQtQtQtQtQtQtQtQtQtQtQtQtQt"};
