/* XPM */
static const char *xpm_32[]={
"32 32 128 2",
"#j c #403011",
".3 c #533c0e",
".2 c #624c1b",
".1 c #795818",
"#d c #8c6a1b",
"#w c #96701c",
"#o c #967222",
".0 c #987208",
"#. c #9e6606",
"#Y c #a67a23",
".4 c #a6832a",
"#c c #a76f06",
".q c #b3ae85",
".H c #b4ac74",
".5 c #b58b0d",
".Z c #b78d15",
".D c #b7a74e",
"#E c #b8861f",
".E c #b8ae66",
"#R c #b99d30",
"#r c #ba9522",
"#Z c #bbb695",
"#5 c #bd9c1c",
"#Q c #bdbaa4",
"#h c #beb159",
".b c #beb367",
"#n c #bf7d05",
".i c #c0bb99",
".R c #c1a32a",
".V c #c2b673",
".f c #c3b041",
"#N c #c4b14b",
"#W c #c59c25",
".M c #c59e14",
".a c #c5c2ab",
".O c #c6aa36",
".g c #c6b034",
".9 c #c7970f",
"#z c #c7a51c",
".v c #c7ad26",
".U c #c8bc63",
"#F c #c9c39b",
"#8 c #c9c7b4",
"#A c #ca860a",
"#1 c #ccc48a",
"#B c #ce9e32",
".F c #cfccbd",
".m c #d0ae1e",
"#x c #d1be4a",
"#C c #d1d0c4",
".L c #d3ae10",
"#M c #d4b037",
".7 c #d4cfa1",
".n c #d6b417",
".u c #d6d2b2",
"#9 c #d7ce84",
"#S c #d89b24",
"#L c #d8a634",
".B c #d8cc63",
"#f c #d9a709",
".w c #d9d388",
"## c #da8a03",
"#p c #da980a",
".p c #dad9c9",
"#U c #dcdbd4",
".z c #deae0b",
"#b c #e08f02",
".X c #e0bd11",
".6 c #e1c645",
".G c #e1e1db",
"#6 c #e2b608",
"#7 c #e2db8c",
"#y c #e5e4e2",
".y c #e6da6f",
".s c #e8e7e4",
".W c #e8e8e6",
".P c #e9aa03",
".A c #e9b705",
"#e c #e9bf3c",
"#K c #ea9806",
"#i c #eab204",
".T c #eabd05",
".o c #eae7c2",
"#s c #ebe9d5",
"#V c #edb83b",
"#4 c #efe88e",
".K c #efe891",
".c c #efeeee",
".Q c #f1b002",
"#D c #f1f0e3",
".# c #f1f1f1",
".l c #f2efca",
"#a c #f39d01",
".Y c #f3e777",
"#I c #f3ea84",
".d c #f4f4f3",
"#3 c #f5c904",
"#0 c #f6c403",
".N c #f6d345",
"#2 c #f6db51",
".r c #f6f6f6",
"#X c #f7f4c9",
"#T c #f8f7ec",
".C c #faf4a3",
".h c #fafafa",
"#P c #fbb300",
".S c #fde251",
".e c #fdfdfd",
"#k c #fea400",
".x c #fef488",
"#l c #ffa800",
"#m c #ffad00",
"#u c #ffb100",
"#v c #ffb600",
"#q c #ffbc00",
".8 c #ffc200",
"#g c #ffca00",
"#G c #ffd300",
"#H c #ffda01",
"#J c #ffdf07",
"#O c #ffe618",
"#t c #fff79a",
".J c #fffcd1",
".k c #fffde3",
".j c #fffeef",
".I c #fffef3",
".t c #fffffb",
"Qt c None",
"QtQtQtQtQtQtQtQtQtQtQtQtQtQtQt.#.#QtQtQtQtQtQtQtQtQtQtQtQtQtQtQt",
"QtQtQtQtQtQtQtQtQtQtQtQtQtQtQt.a.aQtQtQtQtQtQtQtQtQtQtQtQtQtQtQt",
"QtQtQtQtQtQtQtQtQtQtQtQtQtQtQt.b.bQtQtQtQtQtQtQtQtQtQtQtQtQtQtQt",
"QtQtQtQtQtQtQtQtQtQt.c.dQtQt.e.f.g.hQtQt.e.#.hQtQtQtQtQtQtQtQtQt",
"QtQtQtQtQtQtQtQtQtQt.a.i.j.k.l.m.n.o.k.j.p.q.rQtQtQtQt.e.eQtQtQt",
"QtQtQtQt.s.a.#QtQt.t.u.v.w.x.y.z.A.B.x.C.D.E.tQtQt.h.F.GQtQtQtQt",
"QtQtQtQt.d.H.f.p.I.J.K.L.M.N.O.P.Q.R.S.g.T.U.J.I.#.V.D.sQtQtQtQt",
"QtQtQtQtQt.W.g.X.E.Y.S.Z.0.1.2.3.3.1.4.5.A.6.x.7.O.X.FQtQtQtQtQt",
"QtQtQtQtQtQt.F.L.8.9.4.2.3#.###a#a#b#c.1#d#e.R#f#g.HQtQtQtQtQtQt",
"QtQtQtQtQt.t.J#h#i#c#j#c#k#l#m#m#m#m#l#k#n#o#p#q#r.o.tQtQtQtQtQt",
"QtQtQt.W.p#s#t.S#d#j#n#l#m#u#v#v#v#v#v#m#l###w.9#x#t.k.h.rQtQtQt",
"QtQtQt#y.H.v#z#r.2#c#l#m#v#q#q.8.8.8#q#v#u#l#A#B#e#x#h.E#CQtQtQt",
"QtQtQtQt#D#h.L.0.3#k#m#v#q.8#g#g#g#g.8#q#v#u#l#E.9.A.R#F.dQtQtQt",
"QtQtQtQt.k.x.6.1#.#l#u#q.8#g#G#G#H#G#g#g#q#v#l#A#r.R#I.kQtQtQtQt",
"QtQtQtQt.l.y.O.2###m#v#q#g#G#H#J#J#H#G#g.8#v#m#K#L#M.y.l.hQtQtQt",
".d.F.V#N.v#f#f.3#a#m#v.8#g#G#J#O#O#J#G#g.8#q#u#a#E.Q.z.m.f.b.a.c",
".#.i#h.g.n#i.P.3#a#m#v.8#g#G#H#O#O#J#H#g.8#q#m#a#E#P#i.n.O#h#Q.c",
"QtQtQt.r.o.B#R.2#b#m#v#q#g#G#H#J#J#H#G#g.8#v#m#K#L.R.B.o.rQtQtQt",
"QtQtQtQt.k.x.O#d#c#l#u#q.8#g#G#G#G#G#g.8#q#v#l#p#L.6.x.kQtQtQtQt",
"QtQtQt.e.p.O.A.5.1#k#m#v#q.8#g#g#g#g.8#q#v#m#k#S#f#f.U#TQtQtQtQt",
"QtQtQt#U.E.f.f#M.4#n#k#m#v#q#q.8.8.8#q#v#u#l#K#V#W#z.v.H.WQtQtQt",
"QtQtQt.d.#.k#t.6.Z#d###l#m#u#v#v#v#v#u#m#l#a#S#W.S#t#s#C.sQtQtQt",
"QtQtQtQtQt.t#X#R#q#p#Y#A#k#l#m#m#m#m#l#k#K#S.P.P.U.J.tQtQtQtQtQt",
"QtQtQtQtQtQt#Z#0.z#r#e#B#E#A#K#a#a#K#p#S#V#L.9.8#z.GQtQtQtQtQtQt",
"QtQtQtQtQt#U.n.v#1.x.S.M#f#L#L#E#E#B#V.9.M#2.y.D#3.D.hQtQtQtQtQt",
"QtQtQtQt.#.E#h#y.I.J#4.L.M.N#e#f#v#r.N#5#6#7.J#T.i.g.iQtQtQtQtQt",
"QtQtQtQt#y#8.rQtQt.t.u.v#9.x.Y.M.8#N.x#7.v#F.tQtQt#U#Z.cQtQtQtQt",
"QtQtQtQtQtQtQtQtQtQt.a#Z.j.k.J.O#0.7.k.I.i#ZQtQtQtQt.h.hQtQtQtQt",
"QtQtQtQtQtQtQtQtQtQt.W.#QtQtQt.V.n#yQtQt.#.GQtQtQtQtQtQtQtQtQtQt",
"QtQtQtQtQtQtQtQtQtQtQtQtQtQtQt#F.f.#QtQtQtQtQtQtQtQtQtQtQtQtQtQt",
"QtQtQtQtQtQtQtQtQtQtQtQtQtQtQt.p.q.hQtQtQtQtQtQtQtQtQtQtQtQtQtQt",
"QtQtQtQtQtQtQtQtQtQtQtQtQtQtQt.r.WQtQtQtQtQtQtQtQtQtQtQtQtQtQtQt"};
