/* XPM */
static const char *xpm_40[]={
"32 32 128 2",
"#l c #131b22",
".N c #1b2632",
"#j c #23282a",
"#n c #283239",
"#m c #2a2c2e",
"#q c #2c434d",
".V c #2e3742",
"#k c #315c62",
".M c #37424b",
"#i c #375458",
"#o c #393c3e",
"#p c #3b646a",
".C c #3d4853",
".L c #414b57",
"#r c #42838c",
"#s c #444545",
"#L c #457579",
"#9 c #486061",
"#h c #498993",
"#z c #499da5",
".U c #4b5765",
".t c #4d545f",
".4 c #515d6b",
"#e c #545555",
"#6 c #54767a",
"#x c #56b4bc",
"#T c #58878b",
"#G c #589198",
".F c #59626b",
".B c #5b6873",
".3 c #5f6b78",
"#K c #5fc7d2",
"#O c #61c1cc",
"## c #646769",
".S c #64707d",
"#Y c #66ced9",
".R c #687480",
".b c #6d7479",
"#C c #6d97a5",
"#u c #6ed9e6",
"#B c #6f6f73",
".g c #70777f",
"#v c #737373",
".l c #747c84",
".2 c #747f8b",
"#w c #74acb6",
"#1 c #74bac7",
"#7 c #74ceda",
".Y c #75777a",
".T c #7a8693",
".a c #7c8287",
"#A c #7d7d7d",
"#y c #7e7d82",
"#5 c #7fc7d3",
".k c #81888f",
"#W c #828383",
"#Q c #83a8ad",
"#S c #85b1c2",
"#U c #868989",
"#d c #868e95",
".m c #86909a",
".s c #89939d",
"#N c #8d8d8d",
".c c #8d9094",
".v c #8d98a1",
".J c #919ba4",
"#H c #92c2cc",
"#4 c #959696",
".W c #969ea7",
"#F c #97d1dc",
"#J c #9896a7",
"#3 c #98a4b6",
"#g c #9b9c9d",
".G c #9ca4ac",
".0 c #9da3a5",
".x c #a0a9b0",
".1 c #a1acb3",
".8 c #a2abb4",
"#8 c #a3a6b5",
"#I c #a5a5a5",
".f c #a5a8ab",
"#a c #a5b1b5",
".z c #a6aeb6",
".A c #a7acb2",
".n c #a8aeb1",
".w c #a8b1b9",
"#2 c #a8bac7",
"#t c #a8cad5",
".u c #ababac",
".j c #abb0b4",
".X c #abb3ba",
"#X c #aed6de",
".I c #b0b4ba",
".D c #b3b3b4",
".h c #b3b8bd",
".y c #b4bac1",
"#Z c #b6d1d4",
"#D c #b7b7b7",
".H c #bcbec2",
".r c #bcc1c7",
".K c #c1c3c6",
".7 c #c1c4cb",
".o c #c6c9cd",
"#0 c #c7dae2",
".O c #c8ccd1",
".i c #cacccd",
".# c #cdd1d3",
"#R c #d1d1d1",
".q c #d1d3d5",
".5 c #d1d5da",
".p c #d4d5d5",
".Q c #d5d7d7",
".P c #d7d8d8",
"#b c #d9d9d9",
"#c c #dadbdf",
".9 c #dbdcdc",
"#. c #dddcdc",
"#M c #dee3e4",
".6 c #dfdede",
".E c #e2e2e3",
"#V c #e5e6e8",
"#E c #eaeaeb",
"#P c #eaeef1",
".e c #f1f1f1",
".d c #f5f6f6",
".Z c #fafafa",
"#f c #fdfdfe",
"Qt c None",
"QtQtQtQtQtQtQtQtQtQtQtQtQtQtQtQtQtQtQtQtQtQtQtQtQtQtQtQtQtQtQtQt",
"QtQtQtQtQtQtQtQtQtQtQtQtQtQtQtQtQtQtQtQtQtQtQtQtQtQtQtQtQtQtQtQt",
"QtQtQtQtQtQtQtQtQtQtQtQtQtQtQtQtQtQtQtQtQtQtQtQtQtQtQtQtQtQtQtQt",
"QtQtQtQtQtQtQtQtQtQtQtQtQtQtQtQtQtQtQtQtQtQtQtQtQtQtQtQtQtQtQtQt",
"QtQtQtQtQtQtQtQtQtQtQtQtQtQtQtQtQtQtQtQtQtQtQtQtQtQtQtQtQtQtQtQt",
"QtQtQtQtQtQtQtQtQtQtQtQtQt.#.a.b.c.dQtQtQtQtQtQtQtQtQtQtQtQtQtQt",
"QtQtQtQtQtQtQtQtQtQt.e.#.f.g.h.i.j.k.l.eQtQtQtQtQtQtQtQtQtQtQtQt",
"QtQtQtQtQtQtQtQtQt.e.g.m.n.o.p.p.q.r.s.t.u.dQtQtQtQtQtQtQtQtQtQt",
"QtQtQtQtQtQtQtQt.d.l.v.w.j.x.x.y.z.h.i.A.B.C.D.eQtQtQtQtQtQtQtQt",
"QtQtQtQtQtQtQt.E.F.G.A.n.H.I.J.A.n.K.H.h.k.L.M.N.fQtQtQtQtQtQtQt",
"QtQtQtQtQtQtQt.c.m.O.r.P.p.i.I.I.P.Q.G.R.S.s.T.U.V.KQtQtQtQtQtQt",
"QtQtQtQtQtQt.e.g.W.y.r.y.z.W.W.z.O.w.l.U.k.r.r.X.m.Y.ZQtQtQtQtQt",
"QtQtQt.Z.0.j.g.y.X.1.y.v.v.2.S.2.m.3.4.m.5.P.6.h.7.W.b.l.g.dQtQt",
"QtQtQt.a.s.J.A.I.v.8.r.K.W.S.F.v.W.2.f.9.6#..#.X.w.y.h.x.R##QtQt",
"QtQt.q.l.G.J.h.r.J.y.9.o.J.B.B.7.#.Q.6.q.o.q.G.l.W.9.p.J.3.C.eQt",
"QtQt.b.8.T.W#..o.w.X.z.2.3.J.r.#.Q.9.7#a.v.T.3.t.v.y.s.3.4.M#bQt",
"QtQt.k.m.x.h#c.G#d.2.S.F.G.E.6.6.Q.q.X.m.S.U.L.U.2.2.B.F.k.L.6Qt",
"QtQt.d.F.b.s.W.s.g.F.4.L.F.G.x.W#d.X.J.F.U.L.C.4.B.R.t.g.t#e#.Qt",
"QtQtQt#f#g#h#i#j.C#k#l#m.L#h#n#o.4#p#n#o.M#q#n#n.t#r#i#s#e.c.dQt",
"QtQtQtQt#t#u#j#v#g.B#s.Y#w#x#o#y#w#z#s#A.a#i#s#B#C#x#B.u#D#EQtQt",
"QtQtQtQt#F#G#e.O#H#g#E.o#u#p#I.d.y.b.K.o#H#D.p#J#K#L.PQtQtQtQtQt",
"QtQtQt#f#M#N.D#H#O##.d#P#Q.F#R#t#w.6.E#S#x.DQt.7#T#U.ZQtQtQtQtQt",
"QtQtQt#F#w#I#V#u#k#W#E#X.0#R.H#u#L#b.I#Y#p.H#V#Z.n.6QtQtQtQtQtQt",
"QtQt#P#u#i#g#0#1#o.o#2#u.F.e#S#K#s.6#2#x.F#V#3#Y#aQtQtQtQtQtQtQt",
"QtQt#F#Y#m#D#f.u#4#V#5#h###c#5#L#NQt#M#W.D.7#1#z#IQtQtQtQtQtQtQt",
"QtQt#F#6#e#EQt.Z.Z.5#7.M.f#f.H#A#RQt.Z.e.d#8#O#9.9QtQtQtQtQtQtQt",
"QtQt#E#4.DQtQtQtQtQt#I#v.6Qt.d.eQtQtQtQtQt#V#v#4.ZQtQtQtQtQtQtQt",
"QtQt#f.ZQtQtQtQtQtQt#E#EQtQtQtQtQtQtQtQtQt.e.P#EQtQtQtQtQtQtQtQt",
"QtQtQtQtQtQtQtQtQtQtQtQtQtQtQtQtQtQtQtQtQtQtQtQtQtQtQtQtQtQtQtQt",
"QtQtQtQtQtQtQtQtQtQtQtQtQtQtQtQtQtQtQtQtQtQtQtQtQtQtQtQtQtQtQtQt",
"QtQtQtQtQtQtQtQtQtQtQtQtQtQtQtQtQtQtQtQtQtQtQtQtQtQtQtQtQtQtQtQt",
"QtQtQtQtQtQtQtQtQtQtQtQtQtQtQtQtQtQtQtQtQtQtQtQtQtQtQtQtQtQtQtQt"};
