/* XPM */
static const char *xpm_46[]={
"32 32 32 1",
"D c #6b645a",
"C c #807765",
"z c #898683",
"o c #959390",
"p c #9b9ba6",
"i c #ababb0",
"j c #aca690",
"n c #b4b5bf",
"x c #bbbdcc",
"k c #c0bba0",
"B c #c4c4c3",
"w c #c5c7d5",
"l c #ced0d6",
"g c #cfcbb0",
"A c #d6d6d6",
"q c #d8d9e3",
"f c #d9d7bd",
"u c #e0e2e7",
"h c #e1dab3",
"e c #e2e1c5",
"y c #e6e7e8",
"v c #ebecef",
"d c #ede7bd",
"m c #eff0f2",
"s c #f2f3f5",
"t c #f6f7f7",
"r c #f9fafa",
"c c #fcf5ce",
"b c #fef9de",
"a c #fffdf1",
"# c #fffffd",
". c None",
".............##aaaaaa##.........",
"...........#aabbbcbbbbba##......",
".........#aabccddddddccbba#.....",
".........#bcdeeeeeeeeddccba#....",
".......##bceeefffffeeeffdcba#...",
".......#bdeeeeffffggffggghcba#..",
"......#bcdeffgijgkjfkggggkhcb#..",
"......abeefgjlamnojgojgfgfkdba#.",
".....#adfgpnq#rs#mojjojgfgkgcb#.",
".....#bdfjtmruvvluqpooggfgkjdba.",
".....acgiuttvwxnnvypzzzogkkjhca.",
".....adjrrtvqwnwttwppxpzoggjkca#",
".....ahnsqyqlwxumqipquqwpjkjjca#",
"....myjtqwAxwnixwipwmtsvyzjojcb#",
"...AlAuuxxllippwniwtrtulmstBCca#",
"..rnuxAliwsmxzisvmrssuxxm#qxzha#",
"..BvnnmmlqyxpxusstylxnzpulniCfa.",
"..Brqlrqwwnpxrrttslnpopinppxof#.",
"..snmuvqwnppwsmttrwipopxxnwwCe#.",
"...viozzDDDDDpiDppozzzzzoCzCB#..",
".....tmizCDCDCzCnDoCCDozzjoga#..",
".....nBijjCCCDzCDnoCjojjBnzbr...",
".....liBpjzCCkozoozkekoi#AoA....",
"....liB#znehCDCoDjpkggjBBooom...",
"....lpoopn#abgoiCzCjgejoopmyt...",
"......ipBi#.##gokebabaAyvpy.....",
"......lA..mmt..###Bn#lv..mt.....",
".........upppm....nimBi.........",
"........vipoon#..vmiioA.........",
"........Bijqipu..ipB#onB........",
"........uppiipy..ABiyzoor.......",
".........ljoiB....Bpop#m#......."};
