/* XPM */
static const char *xpm_47[]={
"32 32 32 1",
"z c #2e2e2d",
"w c #3e4041",
"u c #4c5054",
"t c #5e6067",
"v c #625e2b",
"y c #6d7279",
"x c #7e7b3f",
"l c #7e8389",
"B c #84a6af",
"q c #8d8f94",
"k c #9a8f71",
"j c #9b9d9c",
"A c #9cc0cc",
"r c #a9acb1",
"i c #b1a88a",
"D c #b3b725",
"m c #babcbf",
"h c #c3bd9f",
"n c #cbced2",
"g c #cfcbaf",
"p c #d6dadd",
"f c #d7d4b9",
"o c #dee1e4",
"e c #dfddc0",
"d c #e4e3c7",
"c c #ede7bc",
"C c #eded05",
"s c #eeedeb",
"b c #fcf6d0",
"# c #fefdf8",
"a c #fffbe4",
". c None",
"..............##########........",
"............##aabbbbbbaa###.....",
"..........##aabbcccccbbbba##....",
"..........#abcdeeeeedddcbba##...",
".........#abeddffffeedeffcba##..",
"........#acdeeeffefgfeffggeba##.",
".......#abdeeeedeehighggggheba#.",
".......#bghjjijjjklkjkihfffhcba#",
"......#djmmnopppooopmqlligghgba#",
"......#jnppoooooppopomrllhghicb#",
"......mopnppossopnlttuvtkhhhkfb#",
"......jnpppnnppnnmwxkjiihgggihba",
".....mqrmpppnnpnrmyihggghhhhiiba",
".....qrmjnpmroonmqwihhfghhgghiba",
".....qjmmmmrrrjrrlwkkhehihffhiba",
"....#yyjmjqnmjjlqtzxkihigfefhhb#",
"....mzlrrqqrrrrlyuzxkkiihedehfb#",
"...#tulqlqlllqlyytwvkkhhhedfhca#",
"...ntjqjqlyljjlutuuukhfhfeefgba#",
"...rqjtyyqjqrrltuyywieggffgeea#.",
"...juytulmjllllltltuukiffffeba#.",
"...yuyttrrltyllltyyltuhefggc##..",
"..suuttuyltutlqlyllltwkegfba#...",
"..ywzzwuuuzwutyutttuuwzkeba#....",
"..ruuwzzlzzwwwzuwzzyzwuls##.....",
"...mAuyqBumBlCxBujjBtgds#.......",
"...nBwp#rroBDCxlt##qm#..........",
"..#omnnAr.mCCCxrnmAm#...........",
"..nAq#All#kCvCDq#Ayq............",
".#AyqoAumjCxjCvkmAwn............",
".sAum#mjkCCxrxzmoqls............",
".#mjs.#iCDzrojjs.#s............."};
