/* XPM */
static const char *aim[]={
"16 16 49 1",
"# c #000000",
"L c #010100",
"S c #020201",
"Q c #030000",
"U c #060602",
"A c #070502",
"M c #0c0a04",
"K c #110e04",
"z c #191406",
"m c #1f1908",
"y c #3d3310",
"i c #7a6727",
"g c #806c26",
"w c #846b21",
"E c #90782a",
"P c #a89039",
"J c #bc9f3b",
"x c #c8a434",
"j c #c9a73a",
"d c #d2851f",
"H c #ddb73f",
"a c #e5ca1d",
"b c #f4c53b",
"n c #f6c433",
"T c #f8d555",
"N c #f9d34f",
"O c #f9d452",
"f c #fad048",
"I c #fad14a",
"h c #fad24c",
"C c #fbce41",
"R c #fbce42",
"F c #fbce43",
"s c #fbcf43",
"e c #fbcf44",
"G c #fbcf45",
"D c #fbd046",
"q c #fccc3c",
"v c #fccc3d",
"r c #fccd3e",
"B c #fccd3f",
"c c #fcce40",
"l c #fdca36",
"o c #fdca37",
"t c #fdcb38",
"p c #fdcb39",
"u c #fdcc3b",
"k c #fec934",
". c None",
".......####.....",
"......#abcd#....",
"......#acefg#...",
"......#aafhi#...",
".......#jhd#....",
"......#####.....",
"......#kla##m#..",
".....#nopqrcs#..",
".....#tuvwxy##..",
".....#qrcz#.....",
".....ABCeDE#....",
"....#cFGHIhJ#...",
"..#KCedL#MNOP#..",
".QdRGdL#.#STdU..",
".Qddd##...#dd#..",
"..###......#Q..."};
