/* XPM */
static const char *away[]={
"16 16 34 1",
"x c #030863",
"b c #084e95",
"d c #16234f",
"# c #1b0974",
"c c #1c2f7b",
"e c #2b0584",
"a c #2b4a87",
"F c #c6c7c6",
"E c #cbcccd",
"f c #cfeefb",
"B c #d0cfd0",
"A c #d2d3d5",
"z c #d3d4dd",
"w c #d8d8d9",
"n c #dbdce3",
"v c #dedede",
"m c #dee0e6",
"u c #e2e2e2",
"l c #e2e6ec",
"C c #e4f9fa",
"t c #e6e6e7",
"s c #e8e8eb",
"g c #e9f1ff",
"D c #eaf4fb",
"r c #ececec",
"k c #ecedf2",
"h c #edf8fb",
"q c #efefee",
"j c #eff6fc",
"p c #f1f1f1",
"y c #f2f2f6",
"o c #f5f5f7",
"i c #f7f6f4",
". c None",
"................",
"................",
"................",
"................",
".##abbabcaccccd.",
"effgghhijkklmmnd",
"effghhopqrstuvwx",
"efghhoyprstuvwzd",
"eghiopprstuvwABx",
"eCioyprstuvwABAx",
"ehDpprstuvwABEFx",
".##cccccccdcxdx.",
"................",
"................",
"................",
"................"};
