/* XPM */
static const char *p_editcopy[]={
"16 16 69 2",
"#a c #37342f",
"## c #3b3732",
".2 c #3c3832",
"#. c #3f3b34",
".R c #413c36",
".9 c #433e37",
".N c #454039",
".8 c #47413a",
".K c #4a443c",
".7 c #4b453d",
".G c #4f4840",
".6 c #534b43",
".C c #534c43",
".5 c #574f45",
".y c #585046",
".4 c #5b5248",
".s c #5d544a",
".T c #5f564c",
".r c #61584d",
".O c #645a4f",
".q c #655b50",
".n c #665c50",
".p c #695e52",
".l c #6d6256",
".j c #6e6356",
".i c #726659",
".e c #776a5d",
".d c #7b6e5f",
".t c #7c6e60",
".c c #7f7162",
".o c #807263",
".b c #837465",
".k c #857667",
".a c #877868",
".g c #8a7a6a",
".# c #8b7b6b",
"Qt c #8f7f6e",
".D c #aaaaaa",
"#c c #b1b1b1",
"#b c #b5b5b5",
".3 c #bababa",
".B c #bbac94",
".F c #bca687",
".x c #bcb4ad",
".M c #bda07a",
".J c #bda280",
".1 c #be9b6d",
".S c #bebebe",
".Q c #bf9f73",
".0 c #bf9f76",
".Z c #bfa682",
".Y c #c1aa8a",
".X c #c1ae96",
".W c #c2b59f",
".V c #c3b9aa",
".H c #c3c3c3",
".U c #c5beb4",
".h c #dedede",
".w c #e0dedd",
".P c #e6c9a3",
".L c #e9d0ac",
".I c #ecd6b9",
".E c #efdcc2",
".A c #f1e3ce",
".z c #f4e9db",
".v c #f8f0e5",
".u c #f9f6f2",
".m c #faf7f5",
".f c None",
"Qt.#.a.b.c.d.e.f.f.f.f.f.f.f.f.f",
".g.h.h.h.h.h.i.j.f.f.f.f.f.f.f.f",
".k.h.f.f.f.f.l.m.n.f.f.f.f.f.f.f",
".o.h.f.f.f.f.p.q.r.s.f.f.f.f.f.f",
".t.h.f.f.f.u.v.w.x.y.q.d.e.f.f.f",
".e.h.f.f.u.v.z.A.B.C.D.h.i.j.f.f",
".i.h.f.u.v.z.A.E.F.G.H.f.l.m.n.f",
".l.h.u.v.z.A.E.I.J.K.H.f.p.q.r.s",
".p.h.v.z.A.E.I.L.M.N.H.u.v.w.x.y",
".O.h.z.A.E.I.L.P.Q.R.S.v.z.A.B.C",
".T.U.V.W.X.Y.Z.0.1.2.3.z.A.E.F.G",
".4.5.6.G.7.8.9#.###a#b.A.E.I.J.K",
".f.f.f.f.f.f.7.D.3#b#c.E.I.L.M.N",
".f.f.f.f.f.f.O.h.z.A.E.I.L.P.Q.R",
".f.f.f.f.f.f.T.U.V.W.X.Y.Z.0.1.2",
".f.f.f.f.f.f.4.5.6.G.7.8.9#.###a"};
