/* XPM */
static const char * smile4[] = {
"21 21 331 2",
"  	c None",
". 	c #CAC3A0",
"+ 	c #C6BD7B",
"@ 	c #C6BB6A",
"# 	c #C5BA6A",
"$ 	c #C6BB7C",
"% 	c #CAC3A1",
"& 	c #C8BF73",
"* 	c #CCBC21",
"= 	c #D4C00F",
"- 	c #D7C20F",
"; 	c #D8C20F",
"> 	c #D5BE0F",
", 	c #D2B812",
"' 	c #CAB00F",
") 	c #C2AA24",
"! 	c #C4B675",
"~ 	c #D8D1A6",
"{ 	c #CDC125",
"] 	c #DBCB0F",
"^ 	c #E3D00F",
"/ 	c #E7D30F",
"( 	c #E9D312",
"_ 	c #E9D112",
": 	c #E6CD12",
"< 	c #E3C812",
"[ 	c #DDC012",
"} 	c #D5B812",
"| 	c #CAAD15",
"1 	c #BEA62E",
"2 	c #CCC4A9",
"3 	c #CAC59D",
"4 	c #D4C712",
"5 	c #E3D407",
"6 	c #EDDB0F",
"7 	c #86814D",
"8 	c #F5DF0F",
"9 	c #F6DE12",
"0 	c #F5DC12",
"a 	c #F2D812",
"b 	c #EFD215",
"c 	c #837C4E",
"d 	c #E3C312",
"e 	c #D9BA18",
"f 	c #CDAE15",
"g 	c #BFA11F",
"h 	c #CAC1A1",
"i 	c #D3C818",
"j 	c #E7D907",
"k 	c #F1E10C",
"l 	c #3E3903",
"m 	c #FCE712",
"n 	c #FFE712",
"o 	c #FFE615",
"p 	c #FEE315",
"q 	c #FBDF12",
"r 	c #F8DA15",
"s 	c #F2D315",
"t 	c #3B3305",
"u 	c #E3C218",
"v 	c #D9B818",
"w 	c #CCAB15",
"x 	c #BC9E25",
"y 	c #CEC642",
"z 	c #E4D807",
"A 	c #F2E30C",
"B 	c #3E3B0E",
"C 	c #FFF368",
"D 	c #FFF254",
"E 	c #FEED15",
"F 	c #FFEC15",
"G 	c #FFE915",
"H 	c #FFE515",
"I 	c #FFE440",
"J 	c #FBE66A",
"K 	c #F6DE57",
"L 	c #3A3206",
"M 	c #E1BF18",
"N 	c #D6B318",
"O 	c #C6A415",
"P 	c #BDA64E",
"Q 	c #CCC8A5",
"R 	c #DBD107",
"S 	c #EEE107",
"T 	c #3E3C18",
"U 	c #D3CFA0",
"V 	c #6F6D54",
"W 	c #CAC679",
"X 	c #FEF017",
"Y 	c #FFED15",
"Z 	c #D3C655",
"` 	c #6F6B55",
" .	c #6E6B55",
"..	c #D1C9A2",
"+.	c #EFE196",
"@.	c #393106",
"#.	c #DDB818",
"$.	c #CEAA18",
"%.	c #BD9A15",
"&.	c #CBC2A8",
"*.	c #CDC75B",
"=.	c #E6DC07",
"-.	c #F5E814",
";.	c #FBF6BA",
">.	c #4E4D3B",
",.	c #D2D2C3",
"'.	c #5D5C4E",
").	c #474635",
"!.	c #EAE347",
"~.	c #FBF12B",
"{.	c #4E4C3B",
"].	c #D2D1C4",
"^.	c #5D5B4E",
"/.	c #4D4A3B",
"(.	c #E4DBAE",
"_.	c #DFC545",
":.	c #E1BC18",
"<.	c #D4AF18",
"[.	c #C4A015",
"}.	c #BEAA65",
"|.	c #D3CC28",
"1.	c #EBE107",
"2.	c #F8EC21",
"3.	c #ECE8B3",
"4.	c #403F30",
"5.	c #575648",
"6.	c #3C3B2D",
"7.	c #363628",
"8.	c #CFCF63",
"9.	c #EAEA67",
"0.	c #404035",
"a.	c #57564A",
"b.	c #403D31",
"c.	c #3B392D",
"d.	c #C7BF94",
"e.	c #D5BE4B",
"f.	c #E4BE18",
"g.	c #D7B218",
"h.	c #C8A318",
"i.	c #B99D39",
"j.	c #D8D011",
"k.	c #EFE407",
"l.	c #FBEE0C",
"m.	c #F3EF9D",
"n.	c #6B6A50",
"o.	c #39392B",
"p.	c #353527",
"q.	c #565641",
"r.	c #ECEC8A",
"s.	c #FFFFB6",
"t.	c #6C6C5C",
"u.	c #3C3C31",
"v.	c #39382C",
"w.	c #5F5B45",
"x.	c #BFB687",
"y.	c #DEBF2A",
"z.	c #E5C018",
"A.	c #D9B318",
"B.	c #CAA518",
"C.	c #B7951E",
"D.	c #D9D108",
"E.	c #EFE507",
"F.	c #F7ED25",
"G.	c #D7D47F",
"H.	c #949468",
"I.	c #8A895A",
"J.	c #D4D45E",
"K.	c #FFFFA7",
"L.	c #FFFFD9",
"M.	c #F3F3B5",
"N.	c #A0A077",
"O.	c #94906D",
"P.	c #BAB079",
"Q.	c #D2BA3A",
"R.	c #EFCA1A",
"S.	c #B79316",
"T.	c #D8D013",
"U.	c #EEE307",
"V.	c #FAED0C",
"W.	c #FFF30C",
"X.	c #FFF70C",
"Y.	c #F5F01A",
"Z.	c #FCF619",
"`.	c #FFFF40",
" +	c #FFFF82",
".+	c #FFFFA8",
"++	c #FFFF8E",
"@+	c #FFFE50",
"#+	c #F5DD2A",
"$+	c #FAD916",
"%+	c #F6D21A",
"&+	c #EDCA1A",
"*+	c #E4BF18",
"=+	c #C9A418",
"-+	c #B69520",
";+	c #D4CD2B",
">+	c #EAE007",
",+	c #F7EA0C",
"'+	c #FFF10C",
")+	c #FFF40C",
"!+	c #FFF612",
"~+	c #FFF923",
"{+	c #FFFF42",
"]+	c #FFFF56",
"^+	c #FFFE48",
"/+	c #FFEC2D",
"(+	c #FFE01A",
"_+	c #FBD915",
":+	c #F3D11A",
"<+	c #EBC81A",
"[+	c #E1BD18",
"}+	c #D4B018",
"|+	c #C6A115",
"1+	c #B89C39",
"2+	c #CFC95F",
"3+	c #E4DA07",
"4+	c #F2E50C",
"5+	c #FCED0C",
"6+	c #FFF312",
"7+	c #FFF212",
"8+	c #403C04",
"9+	c #403C07",
"0+	c #403C08",
"a+	c #403A07",
"b+	c #FFE31A",
"c+	c #FDDD15",
"d+	c #F8D615",
"e+	c #F0CD1A",
"f+	c #E7C418",
"g+	c #DDB918",
"h+	c #D0AC18",
"i+	c #C19D15",
"j+	c #BEAB69",
"k+	c #D0CCAA",
"l+	c #DAD108",
"m+	c #EBDF07",
"n+	c #F6E70C",
"o+	c #FCEB0C",
"p+	c #FFEE12",
"q+	c #403B04",
"r+	c #9B965F",
"s+	c #9B9660",
"t+	c #9B9560",
"u+	c #9B9460",
"v+	c #3F3705",
"w+	c #F8D915",
"x+	c #F2D215",
"y+	c #EBC918",
"z+	c #E2C018",
"A+	c #D8B418",
"B+	c #CAA718",
"C+	c #BA9716",
"D+	c #CCC4AC",
"E+	c #D0C949",
"F+	c #E1D507",
"G+	c #EDDF07",
"H+	c #F4E50C",
"I+	c #9A955F",
"J+	c #FFE812",
"K+	c #FDE312",
"L+	c #FADF12",
"M+	c #F7D915",
"N+	c #3C3405",
"O+	c #ECCC15",
"P+	c #E4C318",
"Q+	c #DBBA18",
"R+	c #D0AE15",
"S+	c #C1A015",
"T+	c #BDA655",
"U+	c #D3C81C",
"V+	c #E2D407",
"W+	c #C1BD88",
"X+	c #F1DF0F",
"Y+	c #F4E10F",
"Z+	c #F6E10F",
"`+	c #C9BA3A",
" @	c #C8B83A",
".@	c #C6B63A",
"+@	c #F0D215",
"@@	c #EACD15",
"#@	c #C0B88B",
"$@	c #DCBD18",
"%@	c #D2B215",
"&@	c #C6A515",
"*@	c #B99C29",
"=@	c #D0CBA6",
"-@	c #D3C616",
";@	c #DECF07",
">@	c #E5D50F",
",@	c #EAD70F",
"'@	c #EDD70F",
")@	c #EDD612",
"!@	c #ECD412",
"~@	c #E9D012",
"{@	c #E6CA12",
"]@	c #E1C412",
"^@	c #DABD12",
"/@	c #D1B315",
"(@	c #C6A815",
"_@	c #BB9F20",
":@	c #CCC3A8",
"<@	c #D0CBAE",
"[@	c #CEC22E",
"}@	c #D6C70F",
"|@	c #DCCA0F",
"1@	c #E0CC0F",
"2@	c #E1CB12",
"3@	c #E0C912",
"4@	c #DDC50F",
"5@	c #DAC012",
"6@	c #D4B912",
"7@	c #CDB112",
"8@	c #C3A715",
"9@	c #BCA537",
"0@	c #CEC6AF",
"a@	c #CCC47F",
"b@	c #CBBC2C",
"c@	c #CFBC0C",
"d@	c #D1BD0F",
"e@	c #D1BB0F",
"f@	c #CEB70F",
"g@	c #CAB20F",
"h@	c #C4AB0F",
"i@	c #C0A92E",
"j@	c #C6B981",
"k@	c #CFC9AD",
"l@	c #CBC287",
"m@	c #C9BE76",
"n@	c #C8BC76",
"o@	c #C9BF88",
"p@	c #CEC7AD",
"              . + @ # $ %                 ",
"          & * = - ; > , ' ) !             ",
"      ~ { ] ^ / ( _ : < [ } | 1 2         ",
"    3 4 5 6 7 8 9 0 a b c d e f g h       ",
"    i j k l m n o p q r s t u v w x       ",
"  y z A B C D E F G H I J K L M N O P     ",
"Q R S T U V V W X Y Z `  ...+.@.#.$.%.&.  ",
"*.=.-.;.>.,.'.).!.~.{.].^./.(._.:.<.[.}.  ",
"|.1.2.3.4.5.6.7.8.9.0.a.b.c.d.e.f.g.h.i.  ",
"j.k.l.m.n.o.p.q.r.s.t.u.v.w.x.y.z.A.B.C.  ",
"D.E.l.F.G.H.I.J.K.L.M.N.O.P.Q.R.z.A.B.S.  ",
"T.U.V.W.X.Y.Z.`. +.+++@+#+$+%+&+*+g.=+-+  ",
";+>+,+'+)+!+!+~+{+]+^+/+(+_+:+<+[+}+|+1+  ",
"2+3+4+5+'+6+7+8+9+0+a+b+c+d+e+f+g+h+i+j+  ",
"k+l+m+n+o+p+q+r+s+t+u+v+w+x+y+z+A+B+C+D+  ",
"  E+F+G+H+l I+J+o K+L+M+N+O+P+Q+R+S+T+    ",
"    U+V+W+X+Y+Z+`+ @.@+@@@#@$@%@&@*@      ",
"    =@-@;@>@,@'@)@!@~@{@]@^@/@(@_@:@      ",
"      <@[@}@|@1@2@3@4@5@6@7@8@9@0@        ",
"          a@b@c@d@e@f@g@h@i@j@            ",
"              k@l@m@n@o@p@                "};
