/* XPM */
static const char *yahoo_dnd[]={
"16 16 38 1",
"z c #000000",
"H c #000080",
"p c #6a1800",
"J c #800000",
"i c #803c22",
"A c #808000",
"I c #808080",
"v c #902f0d",
"# c #913e1d",
"b c #993e1b",
"w c #a82f09",
"q c #a9411d",
"e c #b86240",
"a c #b94d23",
"g c #b9552e",
"d c #c06542",
"B c #c0dcc0",
"f c #c3623b",
"x c #ce3401",
"j c #d26f47",
"c c #d36e46",
"C c #d4bfaa",
"y c #d4bfff",
"l c #d76336",
"E c #e0120b",
"n c #e05825",
"m c #e06a3c",
"t c #e4622f",
"o c #e73300",
"s c #e76331",
"r c #ee4914",
"u c #f75f27",
"h c #fe7339",
"k c #fea074",
"G c #ff0000",
"F c #fff7c1",
"D c #ffff00",
". c None",
"...........#a...",
"bcdef......gh...",
".ijkl..mnopqr...",
"...st..uv..wx...",
"...ssyyzzAAByB..",
"...sCzzDDDDAAyC.",
"...EEEEFFFFDFAB.",
".EEGGGGEEDDDDACB",
".EGGGGGGGDHFDDAC",
"EGGGGGGGGEIBDDAy",
"EGFFFFFFGEDDDDAB",
"EGFFFFFFGEDGDDAB",
"EGGGGGGGGEJDDAyC",
".GGGGGGGGDDDDAy.",
".EEGGGGEEFDAABC.",
"...EEEEzzzABCB.."};
