/* XPM */
static const char * smile7[] = {
"21 21 304 2",
"  	c None",
". 	c #CBC59F",
"+ 	c #C9C079",
"@ 	c #CABE67",
"# 	c #C9BE79",
"$ 	c #CCC4A1",
"% 	c #CAC26D",
"& 	c #D2C216",
"* 	c #DBC807",
"= 	c #DFCA07",
"- 	c #E0CA07",
"; 	c #DFC707",
"> 	c #DBC207",
", 	c #D4BA0C",
"' 	c #CBB321",
") 	c #C8BB73",
"! 	c #DAD3A6",
"~ 	c #D2C51F",
"{ 	c #E1D207",
"] 	c #EAD807",
"^ 	c #F0DB07",
"/ 	c #F1DC07",
"( 	c #F2DB07",
"_ 	c #F1D707",
": 	c #EDD207",
"< 	c #E8CC0F",
"[ 	c #DFC30F",
"} 	c #D4B80C",
"| 	c #C8B029",
"1 	c #CDC6A8",
"2 	c #CBC69D",
"3 	c #D7CC0B",
"4 	c #E9DB07",
"5 	c #3B3601",
"6 	c #3C3701",
"7 	c #FDE80C",
"8 	c #FFE70C",
"9 	c #FFE60C",
"0 	c #FDE20C",
"a 	c #F9DD0C",
"b 	c #3B3403",
"c 	c #393203",
"d 	c #E4C60F",
"e 	c #D9BB0F",
"f 	c #C9AE17",
"g 	c #CCC3A0",
"h 	c #D7CD12",
"i 	c #EBDE07",
"j 	c #3C3801",
"k 	c #FFED07",
"l 	c #FFF007",
"m 	c #FFF10C",
"n 	c #FFEE0C",
"o 	c #FFEA0C",
"p 	c #FFE50C",
"q 	c #FFDF0F",
"r 	c #F8D90F",
"s 	c #3A3203",
"t 	c #E5C50F",
"u 	c #D8B80F",
"v 	c #C7AB1F",
"w 	c #D0C842",
"x 	c #E9DD07",
"y 	c #D3C705",
"z 	c #6D6802",
"A 	c #6D6902",
"B 	c #D3CD09",
"C 	c #FFF60C",
"D 	c #FFF40C",
"E 	c #FFF00C",
"F 	c #D3C209",
"G 	c #6D6107",
"H 	c #6D5F07",
"I 	c #CCB10C",
"J 	c #393103",
"K 	c #E2C10F",
"L 	c #D3B20F",
"M 	c #C5AF4A",
"N 	c #CDC8A5",
"O 	c #DFD400",
"P 	c #F4E707",
"Q 	c #FBED06",
"R 	c #4C4902",
"S 	c #A3A394",
"T 	c #3E3D01",
"U 	c #4C4B03",
"V 	c #FBF70B",
"W 	c #FFF90C",
"X 	c #FBF00B",
"Y 	c #4C4703",
"Z 	c #A3A195",
"` 	c #3E3704",
" .	c #4B4104",
"..	c #F0CE0E",
"+.	c #E9C70F",
"@.	c #DBBA0F",
"#.	c #C9A80F",
"$.	c #CDC4A7",
"%.	c #CFC85B",
"&.	c #EADF00",
"*.	c #FAED07",
"=.	c #ECE306",
"-.	c #3E3E01",
";.	c #3E3E03",
">.	c #ECEC16",
",.	c #FFFF1F",
"'.	c #ECE818",
").	c #3E3B03",
"!.	c #3E3904",
"~.	c #3E3804",
"{.	c #3E3604",
"].	c #E6C60D",
"^.	c #EECB0F",
"/.	c #E1BE0F",
"(.	c #D1AF0F",
"_.	c #C5B262",
":.	c #D5CE28",
"<.	c #F0E400",
"[.	c #FFF207",
"}.	c #FFF907",
"|.	c #717003",
"1.	c #71710E",
"2.	c #FFFF48",
"3.	c #FFFF60",
"4.	c #FFFF51",
"5.	c #717013",
"6.	c #3E3A05",
"7.	c #716307",
"8.	c #FBD90F",
"9.	c #F1CE0F",
"0.	c #E5C10F",
"a.	c #D5B20F",
"b.	c #C3A832",
"c.	c #DBD20A",
"d.	c #F2E700",
"e.	c #FFF407",
"f.	c #FFFB07",
"g.	c #FBFB06",
"h.	c #BABA05",
"i.	c #BABA0D",
"j.	c #FBFB3F",
"k.	c #FFFF89",
"l.	c #FFFFB3",
"m.	c #FFFF98",
"n.	c #FBFB50",
"o.	c #BAB118",
"p.	c #BAA90D",
"q.	c #FBDD11",
"r.	c #FDD90F",
"s.	c #F2CF0F",
"t.	c #E7C312",
"u.	c #D7B40F",
"v.	c #C2A316",
"w.	c #DCD401",
"x.	c #F3E800",
"y.	c #FFFF07",
"z.	c #FFFF15",
"A.	c #FFFF4E",
"B.	c #FFFFA4",
"C.	c #FFFFD6",
"D.	c #FFFFB4",
"E.	c #FFFF61",
"F.	c #FFF525",
"G.	c #FFE912",
"H.	c #000000",
"I.	c #D8B40F",
"J.	c #C3A210",
"K.	c #DBD20C",
"L.	c #FFFF0F",
"M.	c #FFFF3D",
"N.	c #FFFF7F",
"O.	c #FFFFA5",
"P.	c #FFFF8B",
"Q.	c #FFFF4B",
"R.	c #FFF21F",
"S.	c #FFE812",
"T.	c #8A7708",
"U.	c #E5C212",
"V.	c #D6B30F",
"W.	c #C3A317",
"X.	c #D6CF2B",
"Y.	c #EFE300",
"Z.	c #FDEF07",
"`.	c #FFF707",
" +	c #FFFF3E",
".+	c #FFFF52",
"++	c #FFFF44",
"@+	c #FFF825",
"#+	c #FFED15",
"$+	c #FFE612",
"%+	c #897608",
"&+	c #EFCB0F",
"*+	c #E2BF0F",
"=+	c #D3B00F",
"-+	c #C1A834",
";+	c #D1CA5F",
">+	c #E8DD00",
",+	c #F8EB07",
"'+	c #FFF807",
")+	c #363501",
"!+	c #363502",
"~+	c #363504",
"{+	c #363505",
"]+	c #363405",
"^+	c #363203",
"/+	c #FFE312",
"(+	c #FDDB0F",
"_+	c #F4D20F",
":+	c #EAC80F",
"<+	c #DDBB0F",
"[+	c #CDAC0F",
"}+	c #C4B265",
"|+	c #D1CCAA",
"1+	c #DED301",
"2+	c #F0E407",
"3+	c #FBED07",
"4+	c #363401",
"5+	c #FFF70C",
"6+	c #FFF30C",
"7+	c #FFEF0C",
"8+	c #FFEB0C",
"9+	c #363003",
"0+	c #FFDE12",
"a+	c #F7D60F",
"b+	c #EFCD0F",
"c+	c #E4C20F",
"d+	c #D6B60F",
"e+	c #C5A510",
"f+	c #CEC6AB",
"g+	c #D2CA49",
"h+	c #E6DB07",
"i+	c #F2E507",
"j+	c #FBEB07",
"k+	c #FFEF07",
"l+	c #FFF107",
"m+	c #A09D5F",
"n+	c #A09C5F",
"o+	c #A09A5F",
"p+	c #FEDF0F",
"q+	c #F1D00F",
"r+	c #E7C70F",
"s+	c #DCBC0F",
"t+	c #CDAE0F",
"u+	c #C4AF51",
"v+	c #D7CD16",
"w+	c #E7DA07",
"x+	c #F1E207",
"y+	c #F8E707",
"z+	c #FCE907",
"A+	c #FFE90C",
"B+	c #FDE30C",
"C+	c #FADE0C",
"D+	c #F6D80F",
"E+	c #EFD10F",
"F+	c #E7C80F",
"G+	c #DEBF0F",
"H+	c #D2B30C",
"I+	c #C4A921",
"J+	c #D0CCA5",
"K+	c #D6CB10",
"L+	c #E4D607",
"M+	c #ECDC07",
"N+	c #F1DF07",
"O+	c #F5E00C",
"P+	c #F6DF0C",
"Q+	c #F6DD0C",
"R+	c #F4DA0C",
"S+	c #F1D507",
"T+	c #ECCF0F",
"U+	c #E5C80F",
"V+	c #DCBF0F",
"W+	c #D2B40C",
"X+	c #C5AA1B",
"Y+	c #CDC5A7",
"Z+	c #D1CCAD",
"`+	c #D2C728",
" @	c #DDCD07",
".@	c #E3D207",
"+@	c #E7D407",
"@@	c #E9D407",
"#@	c #E9D207",
"$@	c #E7CF07",
"%@	c #E4CA07",
"&@	c #DFC40F",
"*@	c #D7BC0F",
"=@	c #CDB20C",
"-@	c #C4AF32",
";@	c #CFC8AE",
">@	c #CEC67A",
",@	c #D0C222",
"'@	c #D6C407",
")@	c #D8C507",
"!@	c #D9C407",
"~@	c #D7C007",
"{@	c #D4BC07",
"]@	c #CEB50C",
"^@	c #C7B22C",
"/@	c #C9BD7F",
"(@	c #D0CAAC",
"_@	c #CDC485",
":@	c #CCC273",
"<@	c #CBC073",
"[@	c #CCC185",
"}@	c #CFC9AD",
"              . + @ @ # $                 ",
"          % & * = - ; > , ' )             ",
"      ! ~ { ] ^ / ( _ : < [ } | 1         ",
"    2 3 4 5 6 7 8 9 0 a b c d e f g       ",
"    h i j k l m m n o p q r s t u v       ",
"  w x j y z A B C D E F G H I J K L M     ",
"N O P Q R S T U V W X Y Z `  ...+.@.#.$.  ",
"%.&.*.=.T -.-.;.>.,.'.).!.~.{.].^./.(._.  ",
":.<.[.}.|.-.-.1.2.3.4.5.6.~.7.8.9.0.a.b.  ",
"c.d.e.f.g.h.i.j.k.l.m.n.o.p.q.r.s.t.u.v.  ",
"w.x.e.f.y.y.z.A.B.C.D.E.F.G.H.r.s.t.I.J.  ",
"K.d.[.}.y.y.L.M.N.O.P.Q.R.S.H.T.9.U.V.W.  ",
"X.Y.Z.`.f.y.y.,. +.+++@+#+$+H.%+&+*+=+-+  ",
";+>+,+[.'+f.)+!+~+{+]+^+G./+(+_+:+<+[+}+  ",
"|+1+2+3+[.4+`.5+C 6+7+8+9+0+a+b+c+d+e+f+  ",
"  g+h+i+j+k+l+m+n+n+o+p p+r q+r+s+t+u+    ",
"    v+w+x+y+z+A+A+8 B+C+D+E+F+G+H+I+      ",
"    J+K+L+M+N+O+P+Q+R+S+T+U+V+W+X+Y+      ",
"      Z+`+ @.@+@@@#@$@%@&@*@=@-@;@        ",
"          >@,@'@)@!@~@{@]@^@/@            ",
"              (@_@:@<@[@}@                "};
