/* XPM */
static const char *xpm_14[]={
"32 32 128 2",
"#P c #545454",
"#9 c #737373",
".Q c #777779",
"#A c #7a7a7a",
".H c #7c7c7c",
"#X c #7f8085",
"#E c #808080",
"#V c #828284",
"#J c #848484",
"#R c #868687",
"#D c #87888d",
"#U c #898989",
".O c #898ba5",
"#I c #8a8a8e",
"#z c #8b8c93",
"#S c #8d8d8d",
"#m c #8d91aa",
".9 c #909090",
"#W c #909199",
".F c #9295ae",
".u c #939395",
".1 c #9395a7",
"#8 c #949494",
".8 c #96979b",
".P c #969bb4",
".l c #999999",
".G c #9a9eae",
"#T c #9c9c9c",
"#j c #9e9e9f",
".0 c #9ea1bc",
".t c #a0a1b0",
".Z c #a0a4bc",
"#Q c #a1a1a1",
"#C c #a3a7bf",
"#e c #a4a9bf",
"#s c #a6a6a6",
"#l c #a6adc1",
"#f c #a8abbf",
"#y c #aaadc6",
"#2 c #ababab",
".5 c #abb1c5",
".k c #adadb1",
"#K c #b2b2b2",
".M c #b2b8ca",
"#x c #b2b9cd",
"#k c #b2bac7",
"#5 c #b5b5b5",
"#N c #b7bbc9",
".L c #b7bbce",
".V c #b7bdd1",
"#v c #b7becb",
".b c #b9b9b9",
"#H c #b9bdcf",
"#d c #bac0d2",
"#3 c #bcbcbc",
"#p c #bdc1cd",
".Y c #bec3d4",
".3 c #bec5d7",
"#u c #bfc8d4",
"#B c #c0c0c0",
"#o c #c1c5d3",
"#i c #c2c2c3",
".K c #c2c8dc",
"#G c #c3c6d6",
".a c #c5c4c4",
".o c #c5c9d5",
".4 c #c6ccd9",
".S c #c7c7c8",
".n c #c7c7d0",
".U c #c7cee1",
".D c #c9cfdb",
".x c #cacaca",
"#c c #cad0dc",
"#L c #cdcdce",
"#b c #ced5df",
".f c #cfd0d0",
".N c #cfd1d9",
".E c #cfd1dd",
"#n c #d1d5e1",
".R c #d2d2d2",
"#t c #d3d5db",
"#a c #d3dae3",
".T c #d3dae9",
"#M c #d4d7dd",
".s c #d5d9e0",
".j c #d6d6d7",
"#q c #d8dde5",
".W c #d9dbe2",
".A c #d9dee8",
"#4 c #dadada",
"#w c #dadde2",
".C c #dadde5",
"#7 c #dedede",
".2 c #dee2e7",
".e c #dfdfdf",
"#Y c #e0e0e0",
".B c #e0e3e9",
".J c #e0e5ec",
"#O c #e1e3e7",
".7 c #e1e5e9",
"#g c #e2e4e6",
".# c #e3e3e3",
"#h c #e4e5e8",
".6 c #e6e8ec",
".g c #e7e7e7",
"#6 c #e8e8e8",
".y c #e9eaeb",
".i c #e9ebed",
".p c #eaeaeb",
".z c #ebecec",
"#r c #ececeb",
".h c #ececec",
".I c #ededec",
".q c #edeeed",
".r c #eeeeed",
"#Z c #eeeeee",
".m c #efefee",
"#F c #eff0ef",
".w c #f0f0f0",
".v c #f1f1f0",
"#0 c #f2f2f2",
".X c #f3f2f0",
".d c #f4f4f4",
"## c #f7f7f7",
".c c #f9f9f9",
"#1 c #fbfbfb",
"#. c #fcfcfc",
"Qt c None",
"QtQtQtQtQtQtQtQtQtQtQtQtQtQtQtQtQtQtQtQtQtQtQtQtQtQtQtQtQtQtQtQt",
"QtQtQtQtQtQtQtQtQtQtQtQtQtQtQtQtQtQtQtQtQtQtQtQtQtQtQtQtQtQtQtQt",
"QtQtQtQtQtQtQtQtQtQtQtQtQtQtQtQtQtQtQtQtQtQtQtQtQtQtQtQtQtQtQtQt",
"QtQtQtQtQtQtQtQtQtQtQtQtQtQtQtQtQtQtQtQtQtQtQtQtQtQtQtQtQtQtQtQt",
"QtQtQtQtQtQtQtQtQtQtQtQtQt.#.a.b.b.cQtQtQtQtQtQtQtQtQtQtQtQtQtQt",
"QtQtQtQtQtQtQtQtQtQt.d.e.f.g.h.i.j.k.l.cQtQtQtQtQtQtQtQtQtQtQtQt",
"QtQtQtQtQtQtQtQtQt.m.n.o.p.q.r.r.m.s.t.u.f.vQtQtQtQtQtQtQtQtQtQt",
"QtQtQtQtQtQtQtQt.w.x.y.p.z.A.B.C.D.y.E.F.G.H.j.dQtQtQtQtQtQtQtQt",
"QtQtQtQtQtQtQt.g.j.h.I.I.J.K.L.M.N.m.A.F.O.P.O.Q.RQtQtQtQtQtQtQt",
"QtQtQtQtQtQtQt.S.y.h.I.i.T.U.V.W.X.i.Y.Z.L.K.0.1.Q.#QtQtQtQtQtQt",
"QtQtQtQtQtQt.h.x.2.B.B.A.T.U.3.2.B.4.Z.5.6.6.7.o.8.9#.##QtQtQtQt",
"QtQtQt##.x.a.R.z#a#b#c.3#d#e#e.3.V.Z#f#g.I.r.6.6#h.k#i#j.l.dQtQt",
"QtQtQt#i.i.2.6.N#k.4.2.W#l#m#e#n#o#p#h.m.I.z.7#q.p#r.6.3.Q#sQtQt",
"QtQt.e#t#u#v#q.s#k#w.v.B#x#m#p.v.q.m.r.i.i.s.5#o.w.m.E#y#z#AQtQt",
"QtQt#B#h.5.o.m.6#a.2#n.5.5#t#h.h.h.h.7.4.M#l#m.M.s#o#y#C#D#EQtQt",
"QtQt#B.h.C.2#F#n#G#H#l.P#w.X.r.h.h.y.D#l.P.F.F.5.5.P#e#G#I#JQtQt",
"QtQt.d#K#L.s#M.D#d#C.P.O#N.y#O.e.h.6.4#C#m.O.0.o.4#p.N.k#P.jQtQt",
"QtQtQt.d.a#Q.u.Q.9.8#I#R#S#T#I#U#s#T#V.u#W#W#X#U#S#j.u#T#YQtQtQt",
"QtQtQtQtQt#K#K.k.b.d#i#L#Z#.#0#1Qt.h#Z.m#2#3#s.R.j#Q.dQtQtQtQtQt",
"QtQtQtQtQt#i.9#E#2.#.9.9#4QtQtQtQtQtQt.c#2#E#5.d#Y#B#6#.QtQtQtQt",
"QtQtQtQtQtQt#.#2#s#J.e#6.cQtQt###7.dQtQtQt.S#3.b.l#E#Q.pQtQtQtQt",
"QtQtQtQtQtQt#s#8.#.Q#B.c.c.x.S.l#5#i#.Qt.##8#8#A#3.##6#1QtQtQtQt",
"QtQtQtQtQtQt#4#BQt#B#T.c.h#A.a#5.b#s.R.m.##5#0#2#s#6QtQtQtQtQtQt",
"QtQtQtQtQtQtQtQtQtQtQtQt.e#s.H#B.l#L#B#iQtQtQt.p.j.cQtQtQtQtQtQt",
"QtQtQtQtQtQtQtQtQtQtQtQt#2#L#5#3.l#5#9#5QtQtQtQtQtQtQtQtQtQtQtQt",
"QtQtQtQtQtQtQtQtQtQtQt#1#R#R#9#Q#j.b.R#6QtQtQtQtQtQtQtQtQtQtQtQt",
"QtQtQtQtQtQtQtQtQtQtQtQt#4#s.b.x#Q#E#j.dQtQtQtQtQtQtQtQtQtQtQtQt",
"QtQtQtQtQtQtQtQtQtQtQtQtQt.g#9.H#2#S.b#1QtQtQtQtQtQtQtQtQtQtQtQt",
"QtQtQtQtQtQtQtQtQtQtQtQtQtQt.R#5.#QtQtQtQtQtQtQtQtQtQtQtQtQtQtQt",
"QtQtQtQtQtQtQtQtQtQtQtQtQtQtQtQtQtQtQtQtQtQtQtQtQtQtQtQtQtQtQtQt",
"QtQtQtQtQtQtQtQtQtQtQtQtQtQtQtQtQtQtQtQtQtQtQtQtQtQtQtQtQtQtQtQt",
"QtQtQtQtQtQtQtQtQtQtQtQtQtQtQtQtQtQtQtQtQtQtQtQtQtQtQtQtQtQtQtQt"};
