/* XPM */
static const char *xpm_20[]={
"32 32 127 2",
".H c #4b5362",
"#B c #51545e",
".M c #536373",
".5 c #596675",
".4 c #5e6270",
".C c #5e6b7c",
".N c #6a717f",
".m c #6d7988",
".D c #6f7b8c",
"#l c #71737b",
".X c #76848f",
"#k c #7c7d83",
".q c #7c9da8",
"#H c #80828c",
"#v c #818692",
"#f c #838893",
".E c #838898",
".o c #8699a2",
".6 c #888d98",
".U c #898a8f",
".B c #8ba9b4",
".1 c #8c8d94",
"#G c #8f919a",
".T c #8f9293",
".Z c #90989b",
".t c #90c4d5",
".I c #91b0bb",
".Y c #939394",
".v c #949aa1",
".L c #95afb3",
".l c #95d0e0",
"#E c #9797a0",
".G c #98becb",
"#d c #999aa0",
".k c #9bdaed",
"#w c #9d9ea2",
".F c #9fa2a8",
".u c #9fe0f4",
"#e c #a0a2a6",
"#y c #a1a1a2",
"#N c #a1a3ac",
".e c #a1a9ac",
".p c #a1e2f6",
"#h c #a3a4a5",
"#O c #a4a4a4",
".i c #a5adaf",
".z c #a6aaac",
".s c #aaacad",
"#m c #abacb1",
".f c #afb1b4",
"#Q c #b3b2b1",
".d c #b4b5b7",
".a c #b6b9bb",
"#x c #b8b9bc",
".P c #babdc0",
".2 c #c0d7dc",
"#g c #c1c1c2",
".V c #c3c3c4",
".A c #c5f5fe",
"#n c #c6c6c7",
"#c c #c7cbcf",
".3 c #c7e1ea",
".r c #c8c9cc",
".7 c #c9c9c9",
"#M c #cacaca",
"#t c #cbcbcb",
"#5 c #cbcbce",
".J c #cbfcff",
"#s c #cccccc",
"#W c #cdcdcd",
".j c #cdcece",
"#u c #cdced1",
".h c #cecece",
"#Z c #cfced0",
"#2 c #cfcfcf",
"#L c #d0d0d0",
"#j c #d0dae0",
".S c #d1d1d1",
"#3 c #d2d2d2",
"#D c #d3d3d3",
"#P c #d3d4d6",
"#Y c #d4d4d4",
".8 c #d5d5d5",
".K c #d5d5d7",
"#R c #d6d6d6",
"#r c #d7d7d7",
"## c #d8d8d8",
"#S c #d9d9d9",
".R c #dadada",
"#A c #dbdde0",
"#7 c #dcdcdc",
".O c #dcffff",
"#4 c #dddddd",
"#o c #dedede",
"#b c #dee9ed",
"#I c #e0dfdd",
"#K c #e0e0e1",
"#i c #e0eaec",
"#V c #e1e0df",
"#6 c #e3e3e3",
".b c #e3e3e5",
".# c #e4e4e4",
".g c #e5e5e5",
"#X c #e6e6e6",
"#1 c #e7e6e5",
".n c #e7e7e8",
"#q c #e8e8e8",
".W c #e8ffff",
"#F c #e9e9e9",
"#0 c #ebeae9",
".Q c #ebebeb",
"#a c #ecf9fe",
"#T c #ededeb",
"#. c #ededed",
"#z c #eeefed",
".0 c #eeffff",
".9 c #efefef",
".c c #f0f0f0",
"#p c #f2f2f2",
"#C c #f5f5f5",
"#8 c #f6f6f6",
".y c #f8f8f8",
".x c #fafafa",
"#U c #fcfcfc",
".w c #fdfdfd",
"#J c #fffffe",
"Qt c None",
"QtQtQtQtQtQtQtQtQtQtQtQtQtQtQtQtQtQtQtQtQtQtQtQtQtQtQtQtQtQtQtQt",
"QtQtQtQtQtQtQtQtQtQtQtQtQtQtQtQtQtQtQtQtQtQtQtQtQtQtQtQtQtQtQtQt",
"QtQtQtQtQtQtQtQtQtQtQtQtQtQtQtQtQtQtQtQtQtQtQtQtQtQtQtQtQtQtQtQt",
"QtQtQtQtQtQtQtQtQtQtQtQtQtQtQtQtQtQtQtQtQtQtQtQtQtQtQtQtQtQtQtQt",
"QtQtQtQtQtQtQtQtQtQtQtQtQtQtQtQtQtQtQtQtQtQtQtQtQtQtQtQtQtQtQtQt",
"QtQtQtQtQtQtQtQtQtQtQtQtQtQtQtQtQtQtQtQtQtQtQtQtQtQtQtQtQtQtQtQt",
"QtQtQtQtQtQtQtQtQtQtQtQtQtQtQtQtQtQtQtQtQtQtQtQtQtQtQtQtQtQtQtQt",
"QtQtQtQtQtQtQtQtQtQtQtQtQtQtQtQtQtQtQtQtQtQtQtQtQtQtQtQtQtQtQtQt",
"QtQtQtQtQtQt.#.a.a.a.a.bQt.c.d.e.f.gQtQtQt.h.i.i.jQtQtQtQtQtQtQt",
"QtQtQtQtQtQt.i.k.k.k.l.m.n.o.p.k.p.q.rQt.s.t.u.u.t.vQtQtQtQtQtQt",
"QtQt.w.x.y.y.z.A.B.C.D.E.F.A.G.H.I.J.m.K.L.J.M.N.O.B.P.y.wQtQtQt",
"Qt.y.Q.R.S.h.T.O.o.U.V.S.T.W.X.Y.Z.0.X.1.2.3.4.s.X.5.6.7.8.9.wQt",
".w.y#.##.7.7.T#a#b#c.P#d#eQt#f#g#hQt.6.1#i#j.4.T#k#l#m#g#n#o.yQt",
".w#p#q#r#s#t.YQt#u.6#v.N#wQt#f#x#yQt.6.U#z#A#B#oQt.d.6#n#n.R#C.w",
".y#o#D#s.7#t.YQt#d#E#A#F#hQt#G.d#hQt#H#G#I.9.N#k#J#x.6.8.8#K#p.w",
".x#F#o#r#L#M.YQt.F#N.g.g#O.x#P#k#gQt.4#m#QQt#H.UQt#x#G#r#R#S#T#U",
".w#C.c#F#K#R#O#V#e#m###S#W#y#X#T#F#e#f#Y#O#Z#0#1#T#m.F#2.h#3#q#U",
".y.g#4#S#D.h#n.d.d#s#4#K.##K#u.r#n#5#K#K#o#5.P.a.f.f.P.7#3#6#p.w",
".y.#.R#R#D#3#3#D.8#4#K#o.R#7#7#S#####Y#Y#3#L#s.7.V.V#n.h###K#p.w",
"#U#p#F#6#4.R#r#R#Y###o#R#L#D#3#L#2#2.S.S#D#Y#D.S#W.h.h#L#3#r.n.w",
".w.y.9.g#o.R.8#D#L#L#R#r###S#S#S#r#r#S.R#4.R##.8.8#r.R#4#o#6.c.w",
".w.9#K#R.h#s#M#M#t#M#s#2#L#2.S.S.h#s#s#W.S.S.h#s#s#2#Y#r##.R.9.w",
".w#p.g#o#S#Y.S.h#s#s#t#M#M#t#M#t#t#M.7.7.7.7.7#t#W.S.8#S.R#K#p.w",
"QtQt.w#U.x.x.y.y.y.y#C#C#C#p#p#p#p#p#p#p#p#p#C#8.y.y.y.y.y.x.wQt",
"QtQtQtQtQtQtQtQtQtQtQtQtQtQtQtQtQtQtQtQtQtQtQtQtQtQtQtQtQtQtQtQt",
"QtQtQtQtQtQtQtQtQtQtQtQtQtQtQtQtQtQtQtQtQtQtQtQtQtQtQtQtQtQtQtQt",
"QtQtQtQtQtQtQtQtQtQtQtQtQtQtQtQtQtQtQtQtQtQtQtQtQtQtQtQtQtQtQtQt",
"QtQtQtQtQtQtQtQtQtQtQtQtQtQtQtQtQtQtQtQtQtQtQtQtQtQtQtQtQtQtQtQt",
"QtQtQtQtQtQtQtQtQtQtQtQtQtQtQtQtQtQtQtQtQtQtQtQtQtQtQtQtQtQtQtQt",
"QtQtQtQtQtQtQtQtQtQtQtQtQtQtQtQtQtQtQtQtQtQtQtQtQtQtQtQtQtQtQtQt",
"QtQtQtQtQtQtQtQtQtQtQtQtQtQtQtQtQtQtQtQtQtQtQtQtQtQtQtQtQtQtQtQt",
"QtQtQtQtQtQtQtQtQtQtQtQtQtQtQtQtQtQtQtQtQtQtQtQtQtQtQtQtQtQtQtQt"};
