/* XPM */
static const char *xpm_23[]={
"32 32 128 2",
"#W c #181818",
"#c c #2e2e2e",
"#U c #303030",
".N c #3a3a3a",
"#e c #3c3c3c",
".H c #424242",
"## c #464646",
".U c #484848",
".B c #4a4949",
"#o c #4b4b4b",
".Y c #4d4d4d",
".D c #525252",
"#O c #555555",
"#K c #5d5d5d",
".R c #606060",
"#r c #636363",
".x c #666666",
".F c #6d6d6d",
".V c #6e6e6e",
".y c #6f6f6f",
"#I c #717171",
".M c #727272",
".8 c #747474",
".L c #767676",
"#C c #797979",
".J c #7b7b7b",
"#m c #7c7c7c",
".T c #7d7d7d",
".0 c #7f7f7f",
".A c #818181",
"#t c #828282",
"#q c #838382",
"#g c #838383",
".9 c #848484",
".E c #878787",
"#0 c #888888",
"#u c #898989",
".1 c #8a8a8a",
".C c #8d8d8d",
"#1 c #8e8e8e",
".z c #909090",
"#b c #939393",
"#D c #959595",
".2 c #969695",
".3 c #969696",
".O c #969697",
".o c #979797",
".I c #999999",
"#T c #9a9a9a",
"#Z c #9b9b9b",
".n c #9c9c9c",
"#. c #9f9f9f",
".j c #a0a0a0",
".c c #a1a1a1",
"#P c #a2a2a2",
".a c #a4a4a4",
".G c #a5a5a5",
".h c #a6a6a6",
".X c #a7a7a7",
"#l c #a8a7a7",
".W c #a8a8a8",
".r c #aaaaaa",
"#2 c #ababab",
"#p c #acacac",
"#i c #acacad",
"#n c #adadad",
"#L c #aeaeae",
".l c #afafaf",
".S c #b0b0b0",
"#k c #b1b1b1",
".f c #b2b2b2",
"#s c #b3b3b3",
".K c #b6b6b6",
".k c #b7b7b7",
"#h c #b8b8b8",
".e c #bababa",
"#d c #bbbbbb",
"#A c #bdbdbd",
".s c #bebebe",
".7 c #bfbfbf",
".d c #c1c1c1",
"#f c #c3c3c3",
"#N c #c4c4c4",
".Z c #c5c4c4",
".g c #c5c5c5",
"#J c #c6c6c6",
"#X c #c9c9c9",
"#G c #cacaca",
"#x c #cccccc",
"#z c #cdcdcd",
".# c #cecece",
"#a c #cfcfcf",
".p c #d1d1d1",
"#4 c #d2d2d2",
"#B c #d5d5d5",
".q c #d6d6d6",
".m c #d7d7d7",
".b c #d9d9d9",
".i c #dbdbdb",
"#y c #dcdbdc",
"#V c #dddddd",
"#E c #dedede",
"#3 c #dfdfdf",
"#F c #e0e0e0",
".w c #e3e3e3",
"#M c #e4e4e4",
"#5 c #e5e5e5",
".Q c #e6e6e6",
".P c #e7e7e7",
"#S c #e8e8e8",
"#9 c #eaeaea",
"#8 c #ebebeb",
"#6 c #ececec",
".6 c #eeeeee",
"#Y c #f0f0f0",
"#v c #f0f1f0",
"#7 c #f2f2f2",
".v c #f4f4f4",
"#H c #f5f5f5",
".4 c #f6f6f6",
"#R c #f7f7f7",
".t c #f9f9f9",
"#j c #fafafa",
"#w c #fbfbfb",
".u c #fcfcfc",
".5 c #fdfdfd",
"#Q c #fefefe",
"Qt c None",
"QtQtQtQtQtQtQtQtQtQtQtQtQtQtQtQtQtQtQtQtQtQtQtQtQtQtQtQtQtQtQtQt",
"QtQtQtQtQtQtQtQtQtQtQtQtQtQtQtQtQtQtQtQtQtQtQtQtQtQtQtQtQtQtQtQt",
"QtQtQtQtQtQtQtQtQtQtQtQtQtQtQtQtQtQtQtQtQtQtQtQtQtQtQtQtQtQtQtQt",
"QtQtQtQtQtQtQtQtQtQtQtQtQtQtQtQtQtQtQtQtQtQtQtQtQtQtQtQtQtQtQtQt",
"QtQtQtQtQtQtQtQtQtQtQtQtQtQtQtQtQtQtQtQtQtQtQtQtQtQtQtQtQtQtQtQt",
"QtQtQtQtQtQtQtQtQtQtQtQtQtQtQtQtQtQtQtQtQtQtQtQtQtQtQtQtQtQtQtQt",
"QtQtQtQtQtQtQtQtQtQtQtQtQtQtQtQtQtQtQtQtQtQtQtQtQtQtQtQtQtQtQtQt",
"QtQtQtQtQtQtQtQtQtQtQtQtQtQtQtQtQtQtQtQtQtQtQtQtQtQtQtQtQtQtQtQt",
"QtQtQtQtQtQtQtQtQtQtQtQtQtQtQtQtQtQtQtQtQtQtQtQtQtQtQtQtQtQtQtQt",
"QtQtQtQtQtQtQtQtQtQtQtQtQtQtQtQtQtQtQtQtQtQtQtQtQtQtQtQtQtQtQtQt",
"QtQtQtQtQtQt.#.a.b.c.d.e.f.g.h.i.j.k.d.l.m.n.o.p.q.j.b.r.s.tQtQt",
"QtQtQt.u.v.w.x.j.y.z.A.B.C.D.j.E.F.G.H.I.J.y.K.a.L.M.C.N.O.PQtQt",
"QtQtQt.u.Q.d.R.S.D.#.T.J.A.U.f.V.W.e.B.X.Y.X.E.Z.0.A.1.2.3.4QtQt",
"QtQtQt.5.6.7.x.G.T.i.8.S.9.L#.###a.f.L#b#c#d#e#f#g.9#h#i.qQtQtQt",
"QtQtQt#j.Q.K.L#k.K.k.c#l#m#n.C#o.d.S#p#q#r#s.N.p#t#u#v#.#wQtQtQt",
"QtQtQt#w#x#d#t#y.I.G#a.E#o#z.0#m#.#A#B.V.j.3#r.K#C#D#E#FQtQtQtQt",
"QtQtQt.v#G#p.o#H#I#z#a.r#o#J#K#L.8#M#G###N#O.r#P.Y.W.lQtQtQtQtQt",
"Qt#Q#R#S#f#T.s#B#K#H.o.3#u#p.N#z#O#H.W#U#F.T#V.f#W#X#NQtQtQtQtQt",
"Qt.5.t#Y#F#J.#.j#Z.i#Z.s#s.W#0.k#1#M#2#0.P#3.W#4.L.g#5QtQtQtQtQt",
"QtQtQtQtQt.u#6#7#R#8.t.5#6#7#7#Y.v#9.v#Y.P.6QtQt#Y.6QtQtQtQtQtQt",
"QtQtQtQtQtQtQtQtQtQtQtQtQtQtQtQtQtQtQtQtQtQtQtQtQtQtQtQtQtQtQtQt",
"QtQtQtQtQtQtQtQtQtQtQtQtQtQtQtQtQtQtQtQtQtQtQtQtQtQtQtQtQtQtQtQt",
"QtQtQtQtQtQtQtQtQtQtQtQtQtQtQtQtQtQtQtQtQtQtQtQtQtQtQtQtQtQtQtQt",
"QtQtQtQtQtQtQtQtQtQtQtQtQtQtQtQtQtQtQtQtQtQtQtQtQtQtQtQtQtQtQtQt",
"QtQtQtQtQtQtQtQtQtQtQtQtQtQtQtQtQtQtQtQtQtQtQtQtQtQtQtQtQtQtQtQt",
"QtQtQtQtQtQtQtQtQtQtQtQtQtQtQtQtQtQtQtQtQtQtQtQtQtQtQtQtQtQtQtQt",
"QtQtQtQtQtQtQtQtQtQtQtQtQtQtQtQtQtQtQtQtQtQtQtQtQtQtQtQtQtQtQtQt",
"QtQtQtQtQtQtQtQtQtQtQtQtQtQtQtQtQtQtQtQtQtQtQtQtQtQtQtQtQtQtQtQt",
"QtQtQtQtQtQtQtQtQtQtQtQtQtQtQtQtQtQtQtQtQtQtQtQtQtQtQtQtQtQtQtQt",
"QtQtQtQtQtQtQtQtQtQtQtQtQtQtQtQtQtQtQtQtQtQtQtQtQtQtQtQtQtQtQtQt",
"QtQtQtQtQtQtQtQtQtQtQtQtQtQtQtQtQtQtQtQtQtQtQtQtQtQtQtQtQtQtQtQt",
"QtQtQtQtQtQtQtQtQtQtQtQtQtQtQtQtQtQtQtQtQtQtQtQtQtQtQtQtQtQtQtQt"};
