/* XPM */
static const char *xpm_34[]={
"32 32 128 2",
".q c #b4ae82",
".D c #b8a650",
".b c #b8af6b",
"#4 c #b99225",
".R c #bc8d11",
".E c #beb05b",
".i c #beb996",
"#J c #bebb9f",
"#x c #c0b981",
".f c #c2b044",
".J c #c39e17",
".L c #c3a537",
"#f c #c3b37a",
".S c #c58809",
"#O c #c5a767",
".g c #c5af35",
".P c #c5b767",
".0 c #c6a258",
".v c #c6ad26",
".N c #c7a420",
"#y c #c7ac72",
".a c #c7c3ab",
"#I c #c9b34a",
"#A c #cac38c",
"#7 c #cb9b0f",
"#a c #ccc7b3",
"#3 c #cd8a11",
"#c c #cdc49f",
"#C c #d0b787",
".V c #d19416",
"#U c #d19b2b",
"#m c #d1cab3",
".F c #d1cfc1",
"#Z c #d28e14",
"#Q c #d3a245",
"#0 c #d3a62f",
".m c #d3b021",
".z c #d4ad0d",
".6 c #d5c184",
".u c #d5d2b8",
".4 c #d6b34a",
".n c #d7b718",
".B c #d7cc6a",
".w c #d8d187",
"#1 c #d9a108",
"#K c #d9b434",
".5 c #d9b872",
"#z c #dac694",
".Y c #dad39a",
".p c #dad9cd",
"#8 c #dba836",
"#H c #dbbb6a",
"#b c #dbcda7",
".1 c #dca94f",
"#L c #dcae5e",
".T c #dd9009",
".G c #ddddd7",
"#6 c #de9606",
"#e c #dfddaf",
"## c #e0d6bb",
".W c #e1c644",
".7 c #e1cc9c",
"#g c #e2be74",
"#R c #e3b246",
"#d c #e3e3e1",
".3 c #e5c778",
"#w c #e5e4d8",
".M c #e6ad05",
".2 c #e6b756",
"#S c #e6cc48",
".9 c #e6dec3",
".A c #e7ba07",
"#. c #e7e3c4",
"#P c #e8be47",
"#D c #e8d495",
"#M c #e8d679",
".8 c #e8daa9",
"#B c #e8e299",
".s c #e8e7e6",
"#n c #e9e9e1",
".y c #ead667",
"#o c #ebc268",
"#h c #ebcd82",
"#i c #edd98c",
"#N c #ede074",
".c c #eeeeed",
"#T c #efb73c",
".I c #efe990",
".l c #f0eacc",
".Z c #f1c32f",
"#p c #f1cc68",
"#j c #f1dd98",
"#l c #f1efdd",
".# c #f1f1f1",
"#G c #f3e48d",
"#9 c #f4cf44",
"#F c #f4da7a",
"#t c #f4df83",
".Q c #f4e275",
"#u c #f4e796",
".d c #f4f4f3",
".U c #f59d01",
"#k c #f5e6b2",
".r c #f6f6f6",
"#r c #f7d757",
"#s c #f7db66",
"#E c #f7e569",
"#5 c #f7f4c9",
"#q c #f8d059",
".K c #f8d546",
"#2 c #f8f7ec",
"#v c #f8f8f8",
".C c #faf39c",
".h c #fafafa",
"#X c #fdc300",
".e c #fdfdfd",
".O c #fee251",
".x c #fef48a",
"#V c #ffa900",
"#W c #ffb600",
"#Y c #ffcf00",
".X c #fff380",
".H c #fffcd1",
".k c #fffde2",
".o c #fffded",
".j c #fffef3",
".t c #fffffc",
"Qt c None",
"QtQtQtQtQtQtQtQtQtQtQtQtQtQtQt.#.#QtQtQtQtQtQtQtQtQtQtQtQtQtQtQt",
"QtQtQtQtQtQtQtQtQtQtQtQtQtQtQt.a.aQtQtQtQtQtQtQtQtQtQtQtQtQtQtQt",
"QtQtQtQtQtQtQtQtQtQtQtQtQtQtQt.b.bQtQtQtQtQtQtQtQtQtQtQtQtQtQtQt",
"QtQtQtQtQtQtQtQtQtQt.c.dQtQt.e.f.g.hQtQt.e.#.hQtQtQtQtQtQtQtQtQt",
"QtQtQtQtQtQtQtQtQtQt.a.i.j.k.l.m.n.l.k.o.p.q.rQtQtQtQt.e.eQtQtQt",
"QtQtQtQt.s.a.#QtQt.t.u.v.w.x.y.z.A.B.x.C.D.E.tQtQt.h.F.GQtQtQtQt",
"QtQtQtQt.#.b.f.p.j.H.I.z.J.K.L.M.M.N.O.g.A.P.H.j.#.P.D.sQtQtQtQt",
"QtQtQtQtQt.s.g.A.b.Q.O.R.S.T.U.U.U.T.V.R.A.W.X.Y.g.n.FQtQtQtQtQt",
"QtQtQtQtQtQt.F.m.Z.L.0.1.2.2.2.2.2.2.2.2.0.3.P.4.Z.q.e.eQtQtQtQt",
"QtQtQt.t.e.d.l.b.4.0.5.6.7.8.9#..l.l.l.9###a#a#b#c.9.c.r.eQtQtQt",
"QtQt.e#d.F.p#e.Y#f#g.3#h#i#j#k.l.l#l.c.l.9###m#m###.#n.c.#.eQtQt",
"QtQt.e.G.q.E.P#f.5#o#p#q#q#r#s#s#t#u#k#k#..9##.F.u.F.u.a.F.#.hQt",
"QtQt.e#v#w#x.P#y#g#o#p#q#r#r#s.Q.Q.Q#t#j.8.7#b#c#c#z#A#a.s.r.eQt",
"QtQt.e.h#l#B.6#C#z#D#i#i#i#t.Q.Q#E.Q#F#i#i#D.7#b#m#A.8#l#v.e.eQt",
"Qt.e#v.##..w#f.5#g#h#F#F.Q#E#E#E#E#E#E#F#i#D.7#z#c#b.Y#..d.eQtQt",
".d#m#x.P.P.5.6#z.7#D#j#j#u#u#u.C.C#u#G#j#j.8###b#a.7#H#I.f.P.a.c",
".##J.E.g#K#K.4#L#H#g.3#h#M#N#N#N#N.y.y.y#p.3.3#g#O#P#K.m.g.E#J.c",
"QtQtQt.r#..B#O#Q#R#R#P.W#S#S#S#S#S#S#S#S#P#P#T#U.1.L.B#.#vQtQtQt",
"QtQtQtQt.k.x.L.S#V#V#W#X#X#Y#Y#Y#Y#Y#X#X#W#W#V#Z#0.W.x.kQtQtQtQt",
"QtQtQt.e##.g.A.S.U#V#W#W#X#X#X#Y#X#X#X#W#W#V.U#U#1.z.P#2QtQtQtQt",
"QtQtQt.G.b.f.f#K.V#V#V#W#W#W#X#X#X#W#W#W#V#V.V#T.N.N.v.b.sQtQtQt",
"QtQtQt.d.#.o.C#S.R#3#V#V#V#W#W#W#W#W#W#V#V.T#U#4.O.C#w.F.sQtQtQt",
"QtQtQtQtQt.t#5#4#W#6#3.U#V#V#V#V#V#V#V.U#Z#U.M.M.P.H.tQtQtQtQtQt",
"QtQtQtQtQtQt.i#X.M#4.Z#U#3.T.U.U.U.T#Z#U#T#0#7#X.N#wQtQtQtQtQtQt",
"QtQtQtQtQt.G.n.v#A.X.O.J#1#8#8#4.R#U#T#7#7#r#M.D#Y.D.hQtQtQtQtQt",
"QtQtQtQt.#.b.E.s.j.H.I.z.J#9#P#1#W#4.K.J.A#M.H#2.i.g.iQtQtQtQtQt",
"QtQtQtQt#d#a.rQtQt.t.u.v.w.x.Q.J#X#I.x.Y.v#c.tQtQt.G.i.cQtQtQtQt",
"QtQtQtQtQtQtQtQtQtQt.a.i.o.k.H.L#X#b.k.j#J.iQtQtQtQt.h.hQtQtQtQt",
"QtQtQtQtQtQtQtQtQtQt.s.#QtQtQt#f.n#dQtQt.#.GQtQtQtQtQtQtQtQtQtQt",
"QtQtQtQtQtQtQtQtQtQtQtQtQtQtQt#c.g.#QtQtQtQtQtQtQtQtQtQtQtQtQtQt",
"QtQtQtQtQtQtQtQtQtQtQtQtQtQtQt.p.q.hQtQtQtQtQtQtQtQtQtQtQtQtQtQt",
"QtQtQtQtQtQtQtQtQtQtQtQtQtQtQt.r.sQtQtQtQtQtQtQtQtQtQtQtQtQtQtQt"};
