/* XPM */
static const char *xpm_38[]={
"32 32 128 2",
"#E c #181812",
"#x c #1d1f25",
"#B c #202226",
"#z c #25272a",
"#y c #2d2e30",
"#w c #2e3137",
"#e c #33353c",
"#A c #363636",
"#t c #36393f",
".3 c #393c43",
"#D c #3d3d3d",
".9 c #3f4247",
"#C c #464646",
".I c #474b52",
"#l c #4b5162",
"#I c #4d4b0b",
"#i c #4d535d",
".J c #4e5054",
"#J c #515041",
"#s c #515760",
".Y c #525459",
"#q c #535863",
".1 c #56595f",
"#f c #565d68",
".H c #595c5f",
"#m c #5b626c",
"#d c #636a76",
".K c #656666",
".W c #6b717a",
"#c c #6d7480",
"#p c #717980",
"#r c #727884",
"#n c #73757c",
"#H c #757575",
".7 c #757b84",
"#j c #767d85",
"#o c #777e88",
".8 c #797c83",
"#k c #798089",
"#g c #7b828b",
".Q c #7c7c7c",
"#X c #7d7a38",
"#6 c #7e7c67",
".O c #80868c",
"#9 c #83815e",
".R c #838384",
"#h c #838b94",
"#u c #848a8f",
"## c #878e96",
"#G c #898989",
".5 c #8b919a",
".E c #8f8f91",
"#a c #8f98a0",
"#W c #918d33",
"#K c #918f67",
"#b c #919ba7",
"#. c #92999f",
".D c #939495",
".0 c #959ca3",
".6 c #979fa7",
".P c #999da1",
".L c #9a9a9a",
".Z c #9a9fa5",
".4 c #9ba2aa",
".S c #a0a5aa",
".F c #a2a3a4",
".y c #a3a9af",
"#Z c #a4a053",
".C c #a6abb2",
"#v c #a8a9ac",
".V c #a8aeb6",
"#1 c #a9a561",
".v c #acb0b5",
"#O c #adaca1",
".l c #afb5b9",
".U c #b1b7bc",
".w c #b2b2b2",
"#U c #b3ae30",
"#Y c #b8b55b",
"#T c #b8b67b",
"#0 c #b8b6a1",
".X c #b8b9b9",
"#N c #b9b20c",
"#4 c #bab766",
"#Q c #bababa",
".e c #bbbec0",
".b c #bbc0c5",
".z c #bfc5cc",
".c c #c0c3c5",
"#L c #c1ba0d",
".f c #c3c6ca",
".d c #c5cacc",
".B c #c5ccd2",
".n c #c8d0d5",
"#5 c #c9c20f",
".g c #cbcdcf",
".m c #ccd2d5",
".u c #cdd3d7",
".a c #cfd1d3",
".G c #cfd4d8",
".o c #d1d6db",
".k c #d2d2d3",
".p c #d3d9de",
"#7 c #d4d3cf",
".r c #d6dbde",
".t c #d7dce0",
".q c #d8dde1",
".h c #dcdddd",
".s c #dde3e7",
"#3 c #dfdfd7",
"#R c #e0d807",
".A c #e1e6e9",
"#8 c #e2dc34",
"#F c #e4e4e4",
".x c #e7e7e7",
"#M c #eae103",
"#2 c #ebebe0",
".2 c #ebebeb",
".# c #eeeeef",
".N c #f2f2f2",
"#P c #f3f3f3",
"#S c #f4eb03",
".T c #f6f6f6",
".i c #f9f9f9",
".M c #fcfcfc",
".j c #fdfdfd",
"#V c #fff500",
"Qt c None",
"QtQtQtQtQtQtQtQtQtQtQtQtQtQtQtQtQtQtQtQtQtQtQtQtQtQtQtQtQtQtQtQt",
"QtQtQtQtQtQtQtQtQtQtQtQtQtQtQtQtQtQtQtQtQtQtQtQtQtQtQtQtQtQtQtQt",
"QtQtQtQtQtQtQtQtQtQtQtQtQtQtQtQtQtQtQtQtQtQtQtQtQtQtQtQtQtQtQtQt",
"QtQtQtQtQtQtQtQtQtQtQtQtQtQtQtQtQtQtQtQtQtQtQtQtQtQtQtQtQtQtQtQt",
"QtQtQtQtQtQtQtQtQtQtQtQt.#.a.b.c.d.e.e.f.c.d.g.h.i.jQtQtQtQtQtQt",
"QtQtQtQtQtQtQtQtQtQt.k.l.m.n.o.p.q.r.p.s.s.t.u.f.v.w.e.xQtQtQtQt",
"QtQtQtQtQtQtQtQtQt.x.y.z.m.o.s.s.s.A.q.r.o.B.m.m.C.D.E.f.iQtQtQt",
"QtQtQtQtQtQtQtQtQt.F.q.u.u.o.t.p.A.A.o.G.v.H.I.J.I.K.L.h.MQtQtQt",
"QtQtQtQtQtQtQtQt.N.O.b.r.q.o.u.n.o.G.f.z.P.K.Q.R.L.w.k.NQtQtQtQt",
"QtQtQtQtQtQtQtQt.E.P.v.v.r.t.u.z.p.q.b.C.S.w.T.T.jQtQtQtQtQtQtQt",
"QtQtQtQtQtQtQtQt.K.U.v.S.G.G.V.U.q.o.d.U.W.XQtQtQtQtQtQtQtQtQtQt",
"QtQtQtQtQtQtQt.j.Y.P.l.e.U.V.V.C.Z.0.y.S.1.wQtQtQtQtQtQtQtQtQtQt",
"QtQtQtQtQtQtQt.2.3.O.4.l.5.4.d.b.l.6.7.8.3.eQtQtQtQtQtQtQtQtQtQt",
"QtQtQtQtQtQtQt.R.9#..C.y###..6#a.4#b#c#d.I.EQtQtQtQtQtQtQtQtQtQt",
"QtQtQtQtQtQt.##e#f.O##.O.O#c#g#h###c#d#d#i.9QtQtQtQtQtQtQtQtQtQt",
"QtQtQtQtQtQt.P#j#a#g.0#k#g.7.5.y.Z.W#l#m#i#i.cQtQtQtQtQtQtQtQtQt",
"QtQtQtQtQtQt#n#o#p#i#f#d.6.4.5.Z.0#g#m#q#j#q.9QtQtQtQtQtQtQtQtQt",
"QtQtQtQtQtQt.Y.I.W#f#f.S.U#h#c#r#k#h#g#d#j#q#s.8.iQtQtQtQtQtQtQt",
"QtQtQtQtQtQt#t.I#d#f#m.C#a#d#f#d#g#h.W#m#j#g#g.I.ZQtQtQtQtQtQtQt",
"QtQtQtQtQt.F.3.9.I#s#i#d#d.I#s#m.O#u.W#p#p.7#p.I.3#vQtQtQtQtQtQt",
"QtQtQtQt.T#w#w#x#x#y#w#e#z#x#w#A.Y.9#w.I#t#w.9#t#e.JQtQtQtQtQtQt",
"QtQtQtQt.M.F.I#y#z#B#A#C#D#y#z#E#E#E#A#y#y.9#D#D#C.E.TQtQtQtQtQt",
"QtQtQtQtQt#F#G#H.K.K#H.L.L.Q#C#I#I#J.L#G.Q.D.D.E.L.X.iQtQtQtQtQt",
"QtQtQtQtQtQt.i.N.2#F.#QtQt#K#L#M#N#OQt.i#PQtQt.jQtQtQtQtQtQtQtQt",
"QtQtQtQtQtQtQtQtQtQtQtQt#Q#N#R#N#S#TQtQtQtQtQtQtQtQtQtQtQtQtQtQt",
"QtQtQtQtQtQtQtQtQtQtQt.j#U#V#W#X#V#YQtQtQtQtQtQtQtQtQtQtQtQtQtQt",
"QtQtQtQtQtQtQtQtQtQt.N#K#R#N.w#Z#M#0QtQtQtQtQtQtQtQtQtQtQtQtQtQt",
"QtQtQtQtQtQtQtQtQt.T#1#S#S#W.x#2#T#3QtQtQtQtQtQtQtQtQtQtQtQtQtQt",
"QtQtQtQtQtQtQtQtQt#4#S#5#6#7.MQt.MQtQtQtQtQtQtQtQtQtQtQtQtQtQtQt",
"QtQtQtQtQtQtQtQtQt#8#5#9#FQtQtQtQtQtQtQtQtQtQtQtQtQtQtQtQtQtQtQt",
"QtQtQtQtQtQtQtQtQt#P#7.2QtQtQtQtQtQtQtQtQtQtQtQtQtQtQtQtQtQtQtQt",
"QtQtQtQtQtQtQtQtQtQtQtQtQtQtQtQtQtQtQtQtQtQtQtQtQtQtQtQtQtQtQtQt"};
