/* XPM */
static const char *p_button_cancel[]={
"22 22 77 2",
"#f c #cd1010",
"#. c #cd1410",
".5 c #d51410",
".1 c #d51810",
".E c #d51c10",
"#j c #d53031",
".w c #d53c31",
".n c #d54031",
".K c #de1c10",
".g c #de2c10",
".V c #de3010",
"#i c #de4031",
".h c #de4431",
".I c #e63010",
".B c #e63810",
".M c #e63c10",
"#e c #ee0000",
"#b c #ee0c00",
".9 c #ee1c00",
".r c #ee3c10",
".k c #ee4410",
".x c #ee4810",
".l c #ee5d18",
".4 c #f63008",
".0 c #f64410",
".d c #f64c10",
".v c #f64c18",
".m c #f65d20",
".s c #f66120",
".U c #f66520",
".c c #f66931",
".T c #f66d31",
".P c #f67531",
".H c #f68139",
".A c #f68941",
".i c #f69d52",
"#g c #f6cecd",
".L c #f6d2cd",
".f c #f6d6cd",
"#d c #ff0000",
"#c c #ff0c00",
"#a c #ff1800",
"## c #ff2c08",
".8 c #ff3408",
".7 c #ff4010",
".6 c #ff4810",
".3 c #ff4c18",
".2 c #ff5920",
".Z c #ff6120",
".D c #ff6931",
".J c #ff6d31",
".u c #ff7131",
".t c #ff7d41",
".Y c #ff8541",
".X c #ff8d52",
".q c #ff914a",
".W c #ff9152",
".S c #ff955a",
".j c #ff9d52",
".R c #ff9d62",
".O c #ffa162",
".Q c #ffa16a",
".N c #ffaa73",
".G c #ffae7b",
".F c #ffb683",
".z c #ffba8b",
".y c #ffc294",
".p c #ffc69c",
".o c #ffceac",
".C c #ffd6cd",
".e c #ffdacd",
"#h c #ffdede",
".b c #ffe2de",
".a c #ffeade",
"#k c #ffeeee",
".# c #fff2ee",
"Qt c None",
"QtQtQtQtQtQtQtQtQtQtQtQtQtQtQtQtQtQtQtQtQtQt",
"QtQtQtQt.#.aQtQtQtQtQtQtQtQtQtQt.b.#QtQtQtQt",
"QtQtQt.#.c.d.eQtQtQtQtQtQtQtQt.f.g.h.#QtQtQt",
"QtQt.#.c.i.j.k.eQtQtQtQtQtQt.f.g.l.m.n.#QtQt",
"Qt.#.c.j.o.p.q.r.eQtQtQtQt.f.g.s.t.u.v.w.#Qt",
"Qt.a.x.j.p.y.z.A.B.CQtQt.f.g.l.t.u.D.k.E.bQt",
"QtQt.e.k.q.z.F.G.H.I.C.f.g.s.t.u.J.x.K.LQtQt",
"QtQtQt.e.M.A.G.N.O.P.g.g.l.t.u.D.k.E.LQtQtQt",
"QtQtQtQt.e.B.H.Q.R.S.T.U.t.u.J.x.K.LQtQtQtQt",
"QtQtQtQtQt.C.V.P.W.X.Y.t.u.D.k.E.LQtQtQtQtQt",
"QtQtQtQtQtQt.C.g.T.Y.t.u.J.d.K.LQtQtQtQtQtQt",
"QtQtQtQtQtQt.f.g.U.t.u.D.Z.0.1.LQtQtQtQtQtQt",
"QtQtQtQtQt.f.g.s.t.u.J.Z.2.3.4.5.LQtQtQtQtQt",
"QtQtQtQt.f.g.l.t.u.D.x.0.6.7.8.9#..LQtQtQtQt",
"QtQtQt.f.g.s.t.u.J.x.K.1.4.8###a#b#..LQtQtQt",
"QtQt.f.g.l.t.u.D.k.E.L.L#..9#a#c#d#e#f#gQtQt",
"Qt.b.g.s.t.u.J.x.K.LQtQt.L.5#b#d#d#d#e#f#hQt",
"Qt.##i.m.u.D.k.E.LQtQtQtQt.L#f#e#d#d#e#j#kQt",
"QtQt.##i.v.x.K.LQtQtQtQtQtQt.L#f#e#e#j#kQtQt",
"QtQtQt.#.w.E.LQtQtQtQtQtQtQtQt#g#f#j#kQtQtQt",
"QtQtQtQt.#.bQtQtQtQtQtQtQtQtQtQt#h#kQtQtQtQt",
"QtQtQtQtQtQtQtQtQtQtQtQtQtQtQtQtQtQtQtQtQtQt"};
