/* XPM */
static const char *xpm_21[]={
"32 32 128 2",
"#i c #38332b",
".6 c #3f3d38",
"#k c #4a4237",
".K c #4b4a46",
".L c #52514e",
"#y c #584f43",
".F c #5b5a57",
".W c #645c50",
".4 c #64605a",
".P c #6b685f",
".C c #776f62",
"#G c #7b654b",
"#a c #7c756d",
".J c #7e7c79",
"#t c #816e58",
".2 c #837a6d",
"#C c #867d74",
".V c #88827a",
"#K c #89745d",
".x c #8b8883",
".U c #8e8e8e",
"#m c #917d65",
"#L c #92795d",
"#w c #939088",
".n c #94917f",
"#O c #96816d",
"#n c #968a74",
"#j c #968e81",
".s c #9a9283",
"#l c #9b9588",
".r c #9d9994",
"## c #9d9a87",
"#c c #a09385",
".Y c #a09e9a",
".O c #a3a2a2",
".z c #a49e7c",
"#g c #a4a08d",
"#I c #a69070",
"#P c #a8937c",
".5 c #a8a5a1",
".A c #a8a69c",
"#H c #aa8c69",
"#6 c #aa937b",
"#5 c #ab9680",
"#A c #ad997c",
"#B c #ad9984",
"#4 c #ad9c8c",
"#d c #ada094",
".H c #ada885",
"#s c #ada9a3",
".l c #adab9e",
".D c #aeaa94",
".Q c #afaeac",
"#J c #b0967a",
".a c #b1aea3",
".h c #b2b0a5",
"#Q c #b3997f",
".i c #b4b0a9",
"#1 c #b59d86",
"#3 c #b69778",
"#2 c #b6a696",
"#Z c #b7a18c",
".p c #b9b393",
"#e c #b9b3a3",
".c c #b9b9b7",
"#R c #ba9c7e",
"#p c #bdb6ac",
"#0 c #be9f83",
"#V c #bf9e7d",
"#S c #bfa387",
".X c #bfba9f",
"#q c #bfbebb",
".0 c #c0bcaa",
"#U c #c1a181",
"#Y c #c4a68b",
"#v c #c4bbb0",
"#N c #c5a07c",
"#T c #c5a282",
"#X c #c6a587",
"#W c #c8a380",
".b c #c8c8c7",
"#M c #c9a47f",
".M c #c9c197",
".8 c #c9c5b5",
".# c #cbcbc9",
"#x c #cecac1",
".f c #d0cfce",
".S c #d2ccae",
"#r c #d5d4d4",
"#z c #d6d3c9",
".7 c #d8d3b9",
".j c #d8d8d7",
".y c #d9d09b",
".N c #ded5a8",
".e c #dedddc",
"#o c #dfdcce",
".d c #e0e0e0",
".T c #e1dab6",
".u c #e3d89e",
"#E c #e5e3dd",
"#9 c #e6e3e1",
".g c #e6e6e6",
"#8 c #e7e4e1",
".w c #e8dda2",
"#7 c #e9e7e4",
".1 c #ebe5c7",
".G c #ecebea",
".v c #ede3a9",
"#D c #edebe4",
".9 c #f0eeec",
".o c #f1f0f0",
"#u c #f4f1e5",
".E c #f6ecb7",
".R c #f6eec1",
"#f c #f6f2db",
".I c #f6f5f5",
".t c #f8f7f7",
".q c #faeead",
"#F c #faf9f9",
".Z c #fbf5d0",
".k c #fcfcfc",
".3 c #fef8d3",
"#. c #fef9dc",
".m c #fffbb7",
".B c #fffbc9",
"#b c #ffffe4",
"#h c #ffffec",
"Qt c None",
"QtQtQtQtQtQtQtQtQtQtQtQtQtQtQtQtQtQtQtQtQtQtQtQtQtQtQtQtQtQtQtQt",
"QtQtQtQtQtQtQtQtQtQtQtQtQtQtQtQtQtQtQtQtQtQtQtQtQtQtQtQtQtQtQtQt",
"QtQtQtQtQtQtQtQtQtQtQtQtQtQtQtQtQtQtQtQtQtQtQtQtQtQtQtQtQtQtQtQt",
"QtQtQtQtQtQtQtQtQtQtQtQtQtQtQtQtQtQtQtQtQtQtQtQtQtQtQtQtQtQtQtQt",
"QtQtQtQtQtQtQtQtQtQtQtQtQtQtQtQtQtQtQtQtQtQtQtQtQtQtQtQtQtQtQtQt",
"QtQtQtQtQtQtQtQtQtQtQtQtQtQtQtQtQtQtQtQtQtQtQtQtQtQtQtQtQtQtQtQt",
"QtQtQtQtQtQtQtQtQtQtQtQtQtQtQtQtQtQtQtQtQtQtQtQtQtQtQtQtQtQtQtQt",
"QtQtQtQtQtQtQtQtQtQtQtQtQtQtQtQtQtQtQtQtQtQtQtQtQtQtQtQtQtQtQtQt",
"QtQtQtQt.#.a.bQt.c.a.dQt.e.a.a.fQt.g.a.h.h.a.i.j.i.h.h.h.c.kQtQt",
"QtQtQtQt.l.m.n.o.p.q.r.k.h.q.m.s.t.f.u.v.w.q.u.x.y.q.v.q.z.jQtQt",
"QtQtQtQt.A.B.C.f.D.E.F.G.D.E.E.H.c.I.J.K.L.v.M.L.N.M.K.K.K.O.kQt",
"QtQtQtQt.A.B.P.Q.D.R.L.b.S.p.p.T.J.k.f.U.V.B.W.F.T.X.L.V.x.c.tQt",
"QtQtQt.k.Y.Z.S.0.T.1.L.Y.Z.C.2.3.4.e.G.5.Z.D.6.J.7.1.X.8.Y.9.kQt",
"QtQt.t.e.x#..0##.7.1.6#a#..K.F#b.P#c#d#e#f.6.L.V.7.1#g.D.P.fQtQt",
"QtQt.9.#.J#h.W#i#j#f#k#j#h.8.8#h#l#m#n#h.V#i.2.s#o#p#i.K.F#q.kQt",
"Qt.k#r#s#a#h.4#t#l#u#k#v#o#w#w#o#x#y#z#x#i.W#A#B#o#v#k.V.Q.d.kQt",
"Qt.t.c.s#C.t.4#m#d#D.4.9#w#i#k.x.9.J#D#z#s#p#e#m#z#E.i#q.Y.jQtQt",
"Qt#F.b.r.2#C#y#m#m#a.W.V#y#G#H#t#C.W#a.2#C.V#C.W.2#C.V.x#a.O.kQt",
"Qt.k.j#s#c#t#t#I#J#K#K#L#K#H#M#N#L#K#L#K#K#t#t#K#O#t.C.C.V#q.tQt",
"Qt.t#q#l#P#Q#R#S#T#U#V#T#T#W#M#M#W#T#X#X#Y#Y#S#Z#Z#Z#d#e#x.9QtQt",
"Qt#F#q#j#P#R#N#N#N#N#N#N#V#V#V#V#V#0#0#V#U#U#U#U#S#S#1#2#v.9QtQt",
"Qt.k.e.5#c#B#0#S#Y#Y#Y#0#R#3#3#3#3#3#V#N#W#W#M#M#W#T#0#Z#v.9QtQt",
"QtQt.o.f.i#d#4#4#4#4#B#5#5#5#P#P#P#6#6#J#Q#Q#Q#1#1#Z#2#v.e#FQtQt",
"QtQt.k.I.o.9.G#7#7#8#9#9#9#8#9#8#8#8#8#8#8#8#7#7.G.9.o.I.kQtQtQt",
"QtQtQtQtQtQtQtQtQtQtQtQtQtQtQtQtQtQtQtQtQtQtQtQtQtQtQtQtQtQtQtQt",
"QtQtQtQtQtQtQtQtQtQtQtQtQtQtQtQtQtQtQtQtQtQtQtQtQtQtQtQtQtQtQtQt",
"QtQtQtQtQtQtQtQtQtQtQtQtQtQtQtQtQtQtQtQtQtQtQtQtQtQtQtQtQtQtQtQt",
"QtQtQtQtQtQtQtQtQtQtQtQtQtQtQtQtQtQtQtQtQtQtQtQtQtQtQtQtQtQtQtQt",
"QtQtQtQtQtQtQtQtQtQtQtQtQtQtQtQtQtQtQtQtQtQtQtQtQtQtQtQtQtQtQtQt",
"QtQtQtQtQtQtQtQtQtQtQtQtQtQtQtQtQtQtQtQtQtQtQtQtQtQtQtQtQtQtQtQt",
"QtQtQtQtQtQtQtQtQtQtQtQtQtQtQtQtQtQtQtQtQtQtQtQtQtQtQtQtQtQtQtQt",
"QtQtQtQtQtQtQtQtQtQtQtQtQtQtQtQtQtQtQtQtQtQtQtQtQtQtQtQtQtQtQtQt"};
