/* XPM */
static const char *xpm_22[]={
"32 32 128 2",
"#e c #3b3939",
".Q c #4c4b48",
"#s c #524d48",
".U c #545352",
".2 c #565655",
"#c c #595652",
".L c #595959",
"#q c #5e5a54",
".0 c #615f5d",
".N c #656564",
".R c #6a6867",
"#j c #6c645e",
".F c #6c6c6c",
".C c #737272",
"#i c #776d62",
".q c #777777",
".o c #7a7a7a",
"#w c #7b7066",
".1 c #7b7b7a",
".t c #7f7e7e",
"#x c #807469",
".u c #82807f",
".H c #828282",
".s c #868686",
".x c #898989",
"#b c #8c8275",
"#d c #8c8a89",
".I c #8c8c8b",
".A c #8e8e8d",
".9 c #918e89",
".P c #919191",
"#y c #94897e",
"#g c #949291",
".E c #949493",
".8 c #969696",
"#v c #978b7f",
"#4 c #998f85",
".O c #999999",
"#3 c #9a9189",
".v c #9c9c9c",
".z c #9e9e9e",
".y c #9f9fa0",
".D c #a0a0a0",
".Z c #a1a1a1",
".B c #a3a3a3",
"#2 c #a59d96",
".i c #a6a6a6",
"#C c #a8a5a2",
".w c #a9aaaa",
"#B c #ab9c8e",
"#5 c #ada8a3",
".r c #adacad",
"## c #afadaa",
".b c #afafaf",
"#1 c #b0a59c",
"#T c #b2a191",
".a c #b2b2b2",
"#U c #b3a294",
"#V c #b3a596",
"#u c #b4aba3",
"#W c #b7a798",
".p c #b7b7b7",
"#z c #b8a896",
"#X c #baa999",
".X c #bababa",
"#Y c #bbab9c",
"#N c #bbb6b1",
"#A c #bdab99",
"#M c #bdaea2",
"#S c #bead9a",
"#a c #bebebe",
"#R c #bfae9e",
"#L c #bfafa2",
"#Q c #c0b2a4",
"#Z c #c1b4a9",
"#H c #c2b09e",
".f c #c2c2c2",
"#G c #c3b2a2",
"#P c #c3bab0",
"#J c #c4b1a0",
"#K c #c4b4a6",
".d c #c4c5c5",
".h c #c5c5c5",
"#I c #c6b4a3",
".M c #c6c6c6",
"#F c #c7b9ab",
".T c #c7c7c7",
"#E c #c8bfb5",
"#k c #c9c3bd",
".l c #c9c8c9",
".6 c #cacaca",
"#p c #cbc8c5",
".k c #cccccc",
".W c #cecece",
".J c #d2d2d2",
"#f c #d4d3d3",
".3 c #d4d5d4",
"#8 c #d6d5d4",
".e c #d6d6d6",
"#9 c #d7d6d5",
"#D c #d8d4cf",
".g c #d8d8d8",
".S c #d9d9d9",
".K c #d9dada",
"#O c #dad8d6",
"#7 c #dadad8",
".G c #dadada",
".4 c #dcdbdb",
"#h c #dcdbdc",
"#6 c #dddcdb",
".V c #dedede",
".c c #e1e1e1",
"#t c #e4e1df",
".7 c #e4e4e4",
"#0 c #e6e4e2",
"#. c #e6e5e5",
".Y c #e7e7e7",
"#r c #eaeaea",
"#l c #edebea",
".m c #eeeeee",
".# c #f1f1f1",
"#n c #f4f3f3",
".5 c #f6f5f5",
".n c #f8f7f7",
"#o c #fafafa",
".j c #fcfcfc",
"#m c #fefdfd",
"Qt c None",
"QtQtQtQtQtQtQtQtQtQtQtQtQtQtQtQtQtQtQtQtQtQtQtQtQtQtQtQtQtQtQtQt",
"QtQtQtQtQtQtQtQtQtQtQtQtQtQtQtQtQtQtQtQtQtQtQtQtQtQtQtQtQtQtQtQt",
"QtQtQtQtQtQtQtQtQtQtQtQtQtQtQtQtQtQtQtQtQtQtQtQtQtQtQtQtQtQtQtQt",
"QtQtQtQtQtQtQtQtQtQtQtQtQtQtQtQtQtQtQtQtQtQtQtQtQtQtQtQtQtQtQtQt",
"QtQtQtQtQtQtQtQtQtQtQtQtQtQtQtQtQtQtQtQtQtQtQtQtQtQtQtQtQtQtQtQt",
"QtQtQtQtQtQtQtQtQtQtQtQtQtQtQtQtQtQtQtQtQtQtQtQtQtQtQtQtQtQtQtQt",
"QtQtQtQtQtQtQtQtQtQtQtQtQtQtQtQtQtQtQtQtQtQtQtQtQtQtQtQtQtQtQtQt",
"QtQtQtQtQtQtQtQtQtQtQtQtQtQtQtQtQtQtQtQtQtQtQtQtQtQtQtQtQtQtQtQt",
"QtQtQtQt.#.a.b.#.c.d.eQt.c.f.gQt.h.i.g.j.k.c.#.l.l.l.l.l.mQtQtQt",
"QtQtQt.n.o.p.h.o.q.r.s.c.t.r.u.v.w.k.x.y.z.t.A.B.C.b.p.D.EQtQtQt",
"QtQtQt.h.i.a.i.p.F.G.a.H.I.G.H.q.J.I.K.L.M.N.O.B.C.G.P.t.sQtQtQt",
"QtQtQt.b.l.H.Q.H.R.S.T.U.B.V.s.v.E.L.W.F.X.s.W.Q.H.d.L.p.YQtQtQt",
"QtQtQt.k.Z.K.0.b.1.k.M.2.X.l.P.w.s.v.l.q.p.J.p.N.P.3.C.x.4QtQtQt",
"QtQtQt.5.1.6.7.R.o.f.a.A.X.b.8.w.s.9.T.o.X.Y.w.9.x.Y.4.y.BQtQtQt",
"QtQtQt#.##.0.k#a.C.X.O.g.i.i.O.b.I#b.W.1#a.p.G#c#d.3#e.0#fQtQtQt",
"QtQt.j#g.a.R.R#h.t.p.t.m.E.D.O.i.O#i.4.C.l.t.g.R.u#f#j#k#l#mQtQt",
"QtQt.n.9.c.X.Z.k.o.T.R.5.q.i.v.t#..A#n.2.V.F.v.M.t.#.E.I.u.jQtQt",
"QtQt#o#p.q.V.c.N.N.i.U.M.U.A.s#q.h#r.v.Q.p.0.R.f.1.k.G.l#s.nQtQt",
"QtQt.j#t#u.0#s#b#v#w#v#x#y#b#x#z#x#s#w#A#x#b#B#j#j#j#q#q#C.nQtQt",
"QtQt#o#D#E#F#F#F#G#H#G#I#I#J#H#H#H#G#I#K#K#K#L#M#u#u#u#N#O#oQtQt",
"QtQt#o#D#P#Q#R#A#A#A#S#A#T#T#T#T#U#V#W#W#X#Y#Y#M#Q#K#Z#P#D.nQtQt",
"QtQt#m#0#k#Z#L#Y#Q#L#Y#V#B#B#B#B#B#T#X#S#H#J#J#H#H#Y#V#1#k.5QtQt",
"QtQtQt#n#O#k#u#2#2#3#4#4#4#4#4#4#4#4#4#v#y#v#v#y#y#y#3#5#O#oQtQt",
"QtQtQt#m#o#n.m#..c#6#7.G.S#O.G.4#6#6.4#O.3#8#8#9.G.7#l#n#mQtQtQt",
"QtQtQtQtQtQtQtQtQtQtQtQtQtQtQtQtQtQtQtQtQtQtQtQtQtQtQtQtQtQtQtQt",
"QtQtQtQtQtQtQtQtQtQtQtQtQtQtQtQtQtQtQtQtQtQtQtQtQtQtQtQtQtQtQtQt",
"QtQtQtQtQtQtQtQtQtQtQtQtQtQtQtQtQtQtQtQtQtQtQtQtQtQtQtQtQtQtQtQt",
"QtQtQtQtQtQtQtQtQtQtQtQtQtQtQtQtQtQtQtQtQtQtQtQtQtQtQtQtQtQtQtQt",
"QtQtQtQtQtQtQtQtQtQtQtQtQtQtQtQtQtQtQtQtQtQtQtQtQtQtQtQtQtQtQtQt",
"QtQtQtQtQtQtQtQtQtQtQtQtQtQtQtQtQtQtQtQtQtQtQtQtQtQtQtQtQtQtQtQt",
"QtQtQtQtQtQtQtQtQtQtQtQtQtQtQtQtQtQtQtQtQtQtQtQtQtQtQtQtQtQtQtQt",
"QtQtQtQtQtQtQtQtQtQtQtQtQtQtQtQtQtQtQtQtQtQtQtQtQtQtQtQtQtQtQtQt"};
