/* XPM */
static const char *xpm_28[]={
"32 32 126 2",
".4 c #2e250e",
"#2 c #3f3f3d",
".2 c #4a3d1a",
"#Q c #4a432e",
"#w c #545247",
"#J c #585a61",
".R c #594815",
"#z c #656666",
".E c #695b32",
".t c #6a6656",
"#1 c #6c707d",
"#G c #6d6d6e",
".7 c #704d0a",
"#E c #726c5b",
"#l c #736348",
".3 c #745c15",
".V c #746427",
"#x c #747475",
"#P c #777870",
"#3 c #7a7a7d",
".z c #7b785b",
".Z c #7f7744",
".l c #808080",
".Q c #857228",
".W c #858687",
"#4 c #868259",
"#U c #868895",
"#T c #898da8",
"#s c #8a795d",
".8 c #8e5f08",
"#O c #8e92ab",
"#o c #8f9194",
".L c #918d7e",
"#I c #9296a6",
"#i c #979bb5",
".g c #98999a",
"#c c #99700b",
".H c #9b988a",
"#j c #9da2b8",
".w c #9f9f9f",
"#m c #a37908",
"#p c #a4a9b7",
".S c #a58b2c",
"#5 c #a59f5b",
".0 c #a6a388",
"#n c #a6a7a6",
"#0 c #a6abc1",
"#u c #aba898",
"#Y c #adb3c6",
".p c #afb0b0",
"#Z c #b2b9bd",
".5 c #b3840c",
".G c #b3a74f",
"#e c #b3ab9e",
"#k c #b3b9c9",
"#M c #b5b6b8",
"#q c #b7bbce",
"#y c #b8b7ab",
".P c #bc9f22",
"#6 c #bcb794",
".d c #bdbebe",
"#D c #bdc2d2",
".f c #bfb66e",
"#v c #bfc2c7",
"#R c #bfc6d7",
"#W c #c2c5d1",
".c c #c3c0b1",
"#H c #c5cad6",
"#h c #c5ccdb",
".o c #c8c5a6",
".K c #c9b955",
"#r c #c9ced9",
"#f c #cac6ba",
".I c #cbcbca",
"#t c #cc9d34",
"#a c #ccd1da",
".k c #cfb339",
"#K c #d0d5e1",
".1 c #d19407",
"#d c #d2d4d3",
"#S c #d2d5dd",
"#N c #d5dbe5",
".F c #d6cb6d",
".M c #d8d9db",
".6 c #d9c448",
".A c #d9d18d",
".s c #dbb319",
".J c #dddddd",
".T c #dec33b",
"#g c #dee1e6",
".v c #dfdbb3",
"#b c #e0e5eb",
"#. c #e29607",
".X c #e5e5e3",
"## c #e5e7ea",
".9 c #e6bc32",
".Y c #e8c219",
"#X c #e8e8e9",
"#C c #e9eaec",
"#A c #eaebec",
".x c #ebe9d7",
"#V c #ecf0f1",
".D c #edb205",
".u c #edeac3",
"#B c #ededed",
".r c #efd34b",
".# c #eff0ef",
"#F c #f1eecf",
"#7 c #f1efd7",
".a c #f2f2f0",
".i c #f4f4f4",
".j c #f5e46e",
".O c #f6d030",
"#L c #f7f5e0",
".e c #f8efb1",
".U c #f9c404",
".C c #f9ca16",
".m c #fafaf9",
".n c #fcfcfc",
".y c #fdfbeb",
".B c #fff68d",
".N c #fffbd1",
".b c #fffde4",
".q c #fffef3",
".h c #fffffc",
"Qt c None",
"QtQtQtQtQtQtQtQtQtQtQtQtQtQtQt.#.aQtQtQtQtQtQtQtQtQtQtQtQtQtQtQt",
"QtQtQtQtQtQtQtQtQtQtQtQtQtQt.b.c.dQtQtQtQtQtQtQtQtQtQtQtQtQtQtQt",
"QtQtQtQtQtQtQtQtQtQtQtQtQtQt.e.f.gQtQtQtQtQtQtQtQtQtQtQtQtQtQtQt",
"QtQtQtQtQtQtQtQtQt.h.#.iQtQt.j.k.l.mQtQt.n.#.nQtQtQtQtQtQtQtQtQt",
"QtQtQtQtQtQtQtQtQt.b.o.p.q.b.r.s.t.u.b.b.v.w.iQtQtQtQt.n.nQtQtQt",
"QtQtQt.h.x.d.#QtQt.y.r.z.A.B.C.D.E.F.B.j.G.H.hQtQt.y.I.JQtQtQtQt",
"QtQtQtQt.e.K.L.M.q.N.O.P.Q.r.D.D.R.S.T.U.V.f.N.q.e.f.W.XQtQtQtQt",
"QtQtQtQtQt.j.Y.Z.0.j.O.1.2.3.R.4.4.4.2.5.R.6.B.r.Y.t.IQtQtQtQtQt",
"QtQtQtQtQt.y.O.U.5.Q.S.7.8.8.7.E.c.X.d.2.V.9.D.U.V.wQtQtQtQtQtQt",
"QtQtQtQtQt.h.e.U#..2.7.7.7.E.L.I###a#b.H.7#c.D#c.Z.u.hQtQtQtQtQt",
"QtQt.h.x#d.x.B.O.Q.7.E#e#f.J.X#g#h#i#j#k#l.7#m.V.6.B.b.m.mQtQtQt",
"QtQt.h.e.k.P.S.S#m.Q.X.#.M#n#o#o#p#p#k#q#r#s#m#t.9.T.K.H.IQtQtQt",
"QtQtQtQt.e.Y.1.3.1#u#v.p.W.l.w#o#w#x#d.a.i.0.8.8#m.3#l#y.iQtQtQt",
"QtQtQtQt.b.B.T.5#.#o#z#x.w#A#B#C#r.g#z#n#D.p#E.2.t#E.E#uQtQtQtQt",
"QtQtQtQt#F.j#t#.#c#G#v#H#A#B#B#B.##a#I#z#J#I#p#p#K#b#h#z#o.MQtQt",
"#L.A.K.k.s.1.R.7.2#M#C#A#A#N#g#N#a#C#H#O#I#J#J#I#N#b#H.p#P#w.p#B",
"#F.F.k.s#m.R#Q#w#d#B#B#B#b#R#k#k#S.##K#T#T#O#U#z.d#V#g#h#H.W.w#B",
"QtQtQt.d#P#W#p.g#X#B#B###N#h#q#g.a###q#j#D#D#i#o#x###H#Y#q#o.pQt",
"QtQt.##x.p#Z.l#v#g#b#b#N#N#h#R#b#g#R#j#k#C###g#R.l#z#o#I#j#j#G#B",
"QtQt.I#z#o.W.I#A#N#K#r#R#q#0#0#R#k#j#Y###B#B###C.M#n.d.l#1#Y#U.I",
"Qt.n#n#o#C#g#X#a#k#r#g#S#0#O#0#K#D#W#C.##B#A#g#g#A#B#b#k#z#v#v.d",
"Qt.#.W#a#D#q#N.M#k#g.a#g#Y#O#H.a#B#B#B#C#A#S#Y#r.a#B#H#0#G#o#M.J",
"Qt.J#n#b#0#H.##X#N#g#K#0#Y#S###B#B#B#g#H#k#p#O#D#S#D#0#q#2#J#M.n",
"Qt#C.w#B#N#g.##K#W#q#0#j#g.a#B#B#B###H#p#O#O#i#Y#0#i#0#K#2#G#BQt",
"Qt.n#M.w#d#S#S#h#q#j#i#T#q###g.J#B#b#R#j#T#T#0#H#H#v#S.w#2.W#BQt",
"QtQt.m#n#w#w#w#G#z#G.t#w#Q#E.t.R#z.l.t#E#3.W#3#w#w#2#w#2#G.I.nQt",
"QtQtQt.m#f#o.w.w.g.L.Q#Q#4#5.Q#m.2.E.Z.Q#Q#w#z.l.p.H#3.p.J.nQtQt",
"QtQtQtQtQtQtQtQt.m#L#6#n.q.b.j.U#w.o#7.N#6.g.X.#QtQt.m.nQtQtQtQt",
"QtQtQtQtQtQtQtQtQt.h#X.aQtQt.e.Y#z.XQtQt.a#gQtQtQtQtQtQtQtQtQtQt",
"QtQtQtQtQtQtQtQtQtQtQtQtQtQt.N.r#3.aQtQtQtQtQtQtQtQtQtQtQtQtQtQt",
"QtQtQtQtQtQtQtQtQtQtQtQtQtQt.q.v.w.mQtQtQtQtQtQtQtQtQtQtQtQtQtQt",
"QtQtQtQtQtQtQtQtQtQtQtQtQtQtQt.i#XQtQtQtQtQtQtQtQtQtQtQtQtQtQtQt"};
