/* XPM */
static const char *xpm_30[]={
"32 32 128 2",
".4 c #4d3c13",
"#5 c #5a573e",
".U c #5c4b17",
".E c #625524",
".s c #6c6a5e",
".X c #73662f",
".5 c #74591a",
".z c #7e764e",
".k c #7e7c79",
"#r c #856512",
"#G c #878796",
".R c #88722c",
".M c #8a8a87",
"## c #8e5d09",
"#C c #9195ae",
"#D c #948763",
"#Y c #988346",
".g c #989898",
"#p c #9a7013",
".H c #9a978c",
"#O c #9da2b9",
"#. c #a0852b",
".v c #a0a09f",
"#K c #a4a9be",
"#v c #a9adc2",
"#Q c #ab9963",
"#k c #ac8f48",
"#F c #aeb3c7",
".o c #b0b0af",
"#j c #b28d2a",
".6 c #b37e0e",
"#N c #b3b8cb",
".2 c #b5a682",
".G c #b9ac53",
"#d c #bbb1a1",
"#E c #bbbfcf",
".d c #bebdb9",
".Q c #bf9917",
".f c #bfb66e",
"#A c #bfc4d3",
".V c #c1a42c",
".c c #c1c1b9",
"#I c #c5cad9",
"#T c #c6b893",
".n c #c6c2a1",
".L c #c8b959",
"#3 c #ca9b10",
".3 c #cb9a0a",
"#J c #cbcfda",
".I c #cdcdcc",
"#y c #cdd3e0",
"#a c #ce8604",
"#l c #cfc8b7",
"#6 c #d0ceaf",
".j c #d1ae36",
"#z c #d2d5de",
"#0 c #d38d12",
"#R c #d3d0c6",
"#H c #d3d8e1",
".8 c #d5bf43",
"#q c #d5d5d4",
"#t c #d6dae2",
".7 c #d7a006",
".F c #d7ca67",
"#X c #d89e2c",
".A c #d9d18a",
".N c #dadadb",
"#W c #dd9711",
".J c #dde0e5",
".r c #deb011",
"#9 c #dfdaae",
".u c #dfdbb3",
"#Z c #e0ddbf",
"#x c #e0e4e9",
"#c c #e19206",
"#V c #e4dc92",
".Z c #e4e5e6",
"#U c #e5d3b2",
"#B c #e6e7e9",
"#7 c #e7c92e",
"#4 c #e7cf4c",
"#S c #e7e3bb",
"#h c #e8a302",
"#1 c #e8b22f",
".1 c #e8c017",
"#8 c #e8d256",
"#o c #e8e9e9",
".w c #e9e7d7",
"#n c #e9eaec",
"#e c #eac13d",
"#M c #ead96f",
"#m c #ebecec",
".D c #ecb70b",
"#w c #ece5ab",
".y c #edd44e",
".t c #edeac3",
"#u c #ededed",
".# c #eff0ef",
".T c #f0ac01",
"#b c #f19b01",
".9 c #f2c629",
".a c #f3f2f2",
".S c #f4d341",
".K c #f5eeb8",
"#L c #f5f0cb",
"#P c #f5f3e2",
".0 c #f6de59",
".Y c #f6eca5",
"#2 c #f9ba14",
".C c #f9ca16",
".l c #f9f9f9",
".q c #fad83d",
".W c #fbc604",
".i c #fbeb79",
".P c #fcd32d",
"#i c #fda500",
"#g c #fdb701",
".x c #fdfbe9",
".m c #fdfdfd",
"#s c #feac00",
".B c #fff590",
".e c #fff5ac",
"#f c #fff5b8",
".O c #fffbd2",
".b c #fffde4",
".p c #fffef3",
".h c #fffffb",
"Qt c None",
"QtQtQtQtQtQtQtQtQtQtQtQtQtQtQt.#.aQtQtQtQtQtQtQtQtQtQtQtQtQtQtQt",
"QtQtQtQtQtQtQtQtQtQtQtQtQtQt.b.c.dQtQtQtQtQtQtQtQtQtQtQtQtQtQtQt",
"QtQtQtQtQtQtQtQtQtQtQtQtQtQt.e.f.gQtQtQtQtQtQtQtQtQtQtQtQtQtQtQt",
"QtQtQtQtQtQtQtQtQt.h.#.aQtQt.i.j.k.lQtQt.m.#.mQtQtQtQtQtQtQtQtQt",
"QtQtQtQtQtQtQtQtQt.b.n.o.p.b.q.r.s.t.b.b.u.v.lQtQtQtQt.m.mQtQtQt",
"QtQtQt.h.w.d.#QtQt.x.y.z.A.B.C.D.E.F.B.i.G.H.hQtQt.x.I.JQtQtQtQt",
"QtQtQtQt.K.L.M.N.p.O.P.Q.R.S.D.T.U.V.q.W.X.f.O.p.Y.f.k.ZQtQtQtQt",
"QtQtQtQtQt.0.1.z.2.i.P.3.4.5.U.4.4.E.6.7.U.8.i.y.1.s.IQtQtQtQtQt",
"QtQtQtQtQt.p.9.W.6.R#..5###a#b#c.6.2#d.z.X#e.D.W.X.vQtQtQtQtQtQt",
"QtQtQtQtQt.h#f#g#h.4###b#i#c#j#k#l#m#n#o.d.R.T#p.z.t.hQtQtQtQtQt",
"QtQt.h.w#q.w.B.q#r.6#i#s#h#k.N#t#u#u#u#m.J#v.k.X.8.B.b.l.lQtQtQt",
"QtQt.h#w.8.V#j#..6#i#s#h#j#l#u#u#x#y#z#A#B#t#C#C#D.G.L.H.IQtQtQt",
"QtQtQtQt.K.1.7.5#i#s#g#j.N#m#u#n#t#E#F#t.##y#C#C#C#G.X.d.aQtQtQt",
"QtQtQtQt.b.B#e.6#i#s#h#k#B#n#n#x#H#I#J.a#x#F#K#t#y#F.g.d.#.mQtQt",
"QtQtQtQt#L#M.j#c#a.6#.#l#x#t#H#y#I#N#A#y#N#O#J#u#u#B.J.k.v.IQtQt",
"#P.A.L.j.r.T#r#a#Q#l#R#x#I#I#H#I#O#C#N#E#v#J.##u#u.J#B#o#n#N.g#u",
"#L.F.8.1.D#g#r#p#q#J#J#t#F#J.a#x#K#C.J#n#o.##u.##H#I.Z.a.J#F.M#q",
"QtQtQt.a#S.F#j.2#t#K#t#m#t.J.J#N#F#J#n#u#u#B#y#A#K#C#t#H#N#F.s#z",
"QtQtQtQt.b.i.j#T#o#J#m#x#J#A#v#O#x.a#u#m#m#y#v#C#C#O#N#O#O#I.s.N",
"QtQtQt.x#M.1.3.R#U.N.J#z#E#K#C#C#z#B#o#u#n#I#O#C#C#F#I#E#J#E.k#n",
"QtQt.h#V.L#Q.G.j#W#X#k#k#k#D#D#Y#Y#Q#Y#k.2#D#D.H.H#D.z.k.v.v#qQt",
"QtQt.h.a.#.b.B.9#p#c#i#i.T#s.T.T.T#g.T#i#i#a.Q#..8.A#Z.I#BQtQtQt",
"QtQtQtQtQt.m.i#g.7.5#0#i#i#s#s#s#s#s#i#i#W.T.T.U.L.O.hQtQtQtQtQt",
"QtQtQtQtQt.O.W.r.R#.#e#X#0#c#b#b#b#c#0#X#1.D.W.Q.s.wQtQtQtQtQtQt",
"QtQtQtQt.p.q.V.z.n.i.P.r.5#X#1#j#.#X#2#3.R.0.y.W#..M.lQtQtQtQtQt",
"QtQtQt.h.Y.G.M#B.p.O.P.Q.X.S#2#g#r#..P.D.E#V.O#L#4#D.oQtQtQtQtQt",
"QtQtQt.h.w.c.lQtQt.x.y.z.A.B.P.W.E.G.B.q.z.c.hQt.m#Z.o.#QtQtQtQt",
"QtQtQtQtQtQtQtQtQt.b.n.o.p.b.i.W#5#6.b.O.n.oQtQtQtQt.l.mQtQtQtQt",
"QtQtQtQtQtQtQtQtQt.h#o.#QtQt#f#7.s.ZQtQt.#.JQtQtQtQtQtQtQtQtQtQt",
"QtQtQtQtQtQtQtQtQtQtQtQtQtQt.O#8.k.#QtQtQtQtQtQtQtQtQtQtQtQtQtQt",
"QtQtQtQtQtQtQtQtQtQtQtQtQtQt.p#9.v.lQtQtQtQtQtQtQtQtQtQtQtQtQtQt",
"QtQtQtQtQtQtQtQtQtQtQtQtQtQtQt.l#BQtQtQtQtQtQtQtQtQtQtQtQtQtQtQt"};
