/* XPM */
static const char *xpm_6[]={
"32 32 127 2",
"#h c #07e7fd",
"#8 c #0ed9ed",
"#C c #1ae6fa",
"#k c #1cc9d9",
"#0 c #24b7c4",
"#m c #25d9e9",
".I c #292f37",
"#b c #2b454a",
"#6 c #2da9b3",
"#d c #2e8d96",
"#F c #32e2f3",
".P c #353a41",
"#Z c #37cfdc",
".H c #394854",
"#a c #396f74",
"#z c #3c595c",
".6 c #3d4346",
"#R c #41dbe9",
"#o c #42aeb7",
".y c #434f5c",
"#n c #44e0ee",
"#c c #45656a",
".8 c #46525f",
"#l c #46e6f4",
"## c #47494b",
"#P c #47888d",
".G c #4d5863",
"#3 c #52e7f4",
".X c #535e6a",
"#e c #565757",
".O c #56616f",
"#1 c #58dae5",
"#Q c #5b787b",
"#5 c #5ce3ef",
".5 c #5d6976",
".9 c #606161",
"#L c #60cfd8",
".Z c #61676e",
".q c #646d77",
"#D c #66e4ef",
".S c #677280",
"#M c #6b6b6b",
".2 c #6b7582",
".3 c #6c7983",
"#I c #6c8385",
".b c #6e7379",
".j c #727b85",
"#4 c #738a8c",
".L c #75818c",
".a c #77787a",
"#J c #78e3ec",
".M c #7a848e",
"#t c #7ba6a9",
"#X c #7bdde5",
".1 c #7d8893",
"#N c #7ed6dd",
".r c #7f8284",
".N c #838e99",
"#f c #858686",
"#i c #89dfe6",
"#j c #8a8a8a",
".R c #8b939a",
".k c #8d97a1",
"#A c #8fb3b7",
".z c #929394",
".h c #939ca4",
"#B c #93e5ec",
".# c #94979c",
".Q c #959fa8",
".V c #97999c",
".f c #99a0a6",
"#v c #99bfc2",
".v c #9aa3ab",
".p c #9ea6af",
"#Y c #9f9f9f",
".W c #a1a4a8",
".C c #a1aab1",
".D c #a4abb2",
"#V c #a5c3c4",
".u c #a7aeb4",
"#x c #a9e2e7",
"#p c #aaaaaa",
".t c #abb1b8",
"#O c #abd7da",
".w c #aeb4ba",
".T c #afb7bf",
"#2 c #b0d6d9",
"#q c #b3b3b3",
".B c #b4b7ba",
".F c #b5bcc2",
"#w c #b5e5e9",
".E c #b6b8bc",
".l c #b9bfc4",
"#7 c #baf1f5",
"#E c #bcbcbc",
".e c #bfc3c7",
".g c #c2c6c9",
"#H c #c3c4c4",
".x c #c5c9cc",
"#U c #c5f4f7",
".o c #c6cdd0",
"#S c #c9c9c9",
".K c #cacccd",
"#T c #cdcdcd",
".m c #cdd0d2",
".i c #d0d2d2",
".n c #d2d4d6",
".c c #d5d5d5",
".Y c #d6d8d9",
"#u c #d6e8ea",
".4 c #d8d9da",
"#g c #d8f2f4",
".J c #dbdbdb",
".d c #dedede",
".A c #e1e1e1",
"#s c #e2eaeb",
"#K c #e3e3e3",
"#. c #e5e5e5",
".s c #e7e7e7",
"#r c #e9f9fa",
"#y c #eaeaea",
"#G c #ececec",
".0 c #f0f0f1",
".U c #f5f5f5",
".7 c #fafafa",
"#W c #fcffff",
"Qt c None",
"QtQtQtQtQtQtQtQtQtQtQtQtQtQtQtQtQtQtQtQtQtQtQtQtQtQtQtQtQtQtQtQt",
"QtQtQtQtQtQtQtQtQtQtQtQtQtQtQtQtQtQtQtQtQtQtQtQtQtQtQtQtQtQtQtQt",
"QtQtQtQtQtQtQtQtQtQtQtQtQtQtQtQtQtQtQtQtQtQtQtQtQtQtQtQtQtQtQtQt",
"QtQtQtQtQtQtQtQtQtQtQtQtQtQtQtQtQtQtQtQtQtQtQtQtQtQtQtQtQtQtQtQt",
"QtQtQtQtQtQtQtQtQtQtQtQtQt.#.a.b.cQtQtQtQtQtQtQtQtQtQtQtQtQtQtQt",
"QtQtQtQtQtQtQtQtQtQt.d.e.b.f.g.e.h.b.iQtQtQtQtQtQtQtQtQtQtQtQtQt",
"QtQtQtQtQtQtQtQtQt.g.j.k.l.m.c.n.o.p.q.r.sQtQtQtQtQtQtQtQtQtQtQt",
"QtQtQtQtQtQtQtQt.n.q.p.t.u.v.w.w.u.x.e.j.y.z.AQtQtQtQtQtQtQtQtQt",
"QtQtQtQtQtQtQt.B.q.C.D.w.l.v.v.D.E.e.F.f.G.H.I.rQtQtQtQtQtQtQtQt",
"QtQtQtQtQtQtQt.q.C.x.g.J.m.g.D.K.J.e.L.q.M.N.O.P.#QtQtQtQtQtQtQt",
"QtQtQtQtQtQt.n.b.p.l.l.F.p.Q.Q.e.e.R.O.S.T.e.F.k.q.cQtQtQtQtQtQt",
"QtQtQt.U.V.W.j.l.C.w.u.k.N.S.S.N.j.X.q.x.Y.d.g.F.D.Z.j.b.0QtQtQt",
"QtQtQt.b.k.h.B.u.h.t.g.l.1.O.2.p.1.N.K.d.d.n.F.u.F.B.D.3.Z.UQtQt",
"QtQt.K.M.v.Q.l.E.k.x.Y.F.M.G.R.Y.m.d.Y.o.m.w.L.R.Y.4.Q.5.6.W.7Qt",
"QtQt.q.C.L.D.d.e.C.T.Q.S.j.t.K.n.4.n.T.Q.N.3.8.M.F.h.q.X.6.9.dQt",
"QtQt.r.R.C.l.4.Q.1.j.5.5.g#..d.J.n.g.h.j.X.y.y.3.L.5.O.M.H.9.dQt",
"QtQt.0.X.b.k.h.N.2.O.G.H.L.w.v.R.f.t.2.G.y.H.G.5.2.G.b.G##.9.dQt",
"QtQtQt.7.R#a.q.P.I.I.I#b#c.6.P.6.P.H#c.P.I.P.I#d#d.P.6###e#f.0Qt",
"QtQtQtQt#g#h#i.a.z#j#f#k#l.a.z.r.z#m#n###f.b.9#o#o##.V#p#q.sQtQt",
"QtQt#r#s.7#t.6#f#r#u.0#v#a#e#w#x#y#v#z.9#u#x.g#q.9#A#B.cQtQtQtQt",
"QtQt#C#D#E.s#E.d#F#l#p#G.E#H#n#F.r#.#H.c#B#h#I.d.U#J#h#e#KQtQtQt",
"QtQt#L#a#M#G#y.7#N#d.9.s.0#G#O#a#M#G.7#y#u#P#e.J#s.o#Q#M.sQtQtQt",
"QtQt.U#E.i#R#J#p.0#S#T#U#F#V#T#K#K#W#n#X#Y#K.A#B#C.3#S#GQtQtQtQt",
"QtQtQtQt#W#R#d#M.s.J.A#U#k#z.B#K.s#W#Z#d#j.s.A#w#0.G.4QtQtQtQtQt",
"QtQtQtQtQt.7#S.4#1#1#j#G#.#H#N#D#f.s.U#H#2#3#4.i#..c.7QtQtQtQtQt",
"QtQtQtQtQtQtQtQt#5#6.a#GQtQt#J#k.9#KQtQt#7#8#c#TQtQtQtQtQtQtQtQt",
"QtQtQtQtQtQtQtQtQt#G#GQtQtQtQt#.#KQtQtQtQt#G.d.7QtQtQtQtQtQtQtQt",
"QtQtQtQtQtQtQtQtQtQtQtQtQtQtQtQtQtQtQtQtQtQtQtQtQtQtQtQtQtQtQtQt",
"QtQtQtQtQtQtQtQtQtQtQtQtQtQtQtQtQtQtQtQtQtQtQtQtQtQtQtQtQtQtQtQt",
"QtQtQtQtQtQtQtQtQtQtQtQtQtQtQtQtQtQtQtQtQtQtQtQtQtQtQtQtQtQtQtQt",
"QtQtQtQtQtQtQtQtQtQtQtQtQtQtQtQtQtQtQtQtQtQtQtQtQtQtQtQtQtQtQtQt",
"QtQtQtQtQtQtQtQtQtQtQtQtQtQtQtQtQtQtQtQtQtQtQtQtQtQtQtQtQtQtQtQt"};
