/* XPM */
static const char *connect_xpm[]={
                                     "16 16 138 2",
                                     ".w c #3d3d8f",
                                     "#c c #3e3e90",
                                     ".2 c #434196",
                                     "#p c #444493",
                                     ".n c #464499",
                                     "#O c #4b4a98",
                                     ".Q c #4c4a9e",
                                     "ad c #4e4e99",
                                     "#D c #4f509c",
                                     "#q c #5153a0",
                                     "#N c #54539b",
                                     "af c #5859a0",
                                     "#d c #5859a8",
                                     "#C c #5c5ca2",
                                     "a# c #5c5da6",
                                     ".o c #5d5caf",
                                     "#5 c #6162aa",
                                     ".c c #645eb6",
                                     "#P c #6667af",
                                     "#X c #686ab2",
                                     ".# c #6877c5",
                                     ".G c #6963b2",
                                     ".h c #6968bb",
                                     "ag c #6a6aab",
                                     "#u c #6a6ab3",
                                     "ah c #6a7ac5",
                                     "#4 c #6d6bae",
                                     "#j c #6e6eb8",
                                     "#. c #7372bb",
                                     ".Y c #7473be",
                                     ".3 c #7477bf",
                                     ".b c #7681cc",
                                     ".P c #7775bb",
                                     ".g c #777dc9",
                                     "a. c #7789d7",
                                     ".f c #788dde",
                                     ".F c #7a7fc4",
                                     ".a c #7a8fe1",
                                     ".v c #7b7fc4",
                                     "#9 c #7c80c5",
                                     ".x c #7d7abe",
                                     ".m c #7d7fc5",
                                     "ae c #7d91da",
                                     ".O c #8081c9",
                                     "#W c #8180b6",
                                     ".i c #8582c8",
                                     ".R c #8684c3",
                                     ".e c #8c8cd0",
                                     "#7 c #9192c2",
                                     "#8 c #9292c9",
                                     "#F c #9596cc",
                                     "#G c #979ede",
                                     ".d c #9898d8",
                                     ".1 c #9a99cc",
                                     "#v c #9ca3de",
                                     ".Z c #9e9bd1",
                                     "#k c #9fa2db",
                                     "#b c #a0a1cc",
                                     "## c #a0a1d7",
                                     "ac c #a2a2cb",
                                     ".p c #a3a6dc",
                                     "#3 c #a4a6cc",
                                     "#2 c #a8a9d5",
                                     "#V c #ababd5",
                                     "#e c #acb3e9",
                                     "#o c #afb0d3",
                                     "#E c #afb2dd",
                                     "#r c #b0b5e4",
                                     "#Q c #b8c2f0",
                                     ".N c #c4cbfb",
                                     ".j c #c6caf1",
                                     ".X c #c6cef7",
                                     "#Y c #c9d1f6",
                                     "#i c #cbcfee",
                                     ".9 c #cbd1f3",
                                     "#S c #cbd3fe",
                                     ".u c #cbd5fd",
                                     ".E c #ccd6fe",
                                     "#6 c #cfd3f2",
                                     "#I c #cfd6fe",
                                     "#0 c #cfd7fe",
                                     "#H c #cfd8fe",
                                     ".D c #d0d8fe",
                                     "#R c #d0dbfe",
                                     "#T c #d2dbfe",
                                     "#t c #d3d3ed",
                                     ".t c #d3dbfe",
                                     ".C c #d3dcfe",
                                     ".l c #d3ddfe",
                                     "#J c #d5dcfe",
                                     ".M c #d6ddfe",
                                     "#w c #d6e0fe",
                                     "#Z c #d7e0fe",
                                     "aa c #d8daee",
                                     "#x c #d8e0fe",
                                     ".s c #dae1fe",
                                     ".B c #dce2fe",
                                     ".k c #dce3fe",
                                     "#U c #dde1f8",
                                     "#K c #dde2fe",
                                     ".L c #dee3fe",
                                     "#y c #e0e4fe",
                                     ".W c #e0e6fe",
                                     "#l c #e0e7fe",
                                     "#1 c #e1e7fe",
                                     ".H c #e2e1f1",
                                     ".A c #e2e7fe",
                                     "#L c #e3e8fe",
                                     "#m c #e3e9fe",
                                     ".q c #e4e8fb",
                                     ".K c #e4e9fe",
                                     "#z c #e6ebfe",
                                     "#f c #e6ecfe",
                                     ".4 c #e6edfe",
                                     ".r c #e7ecfe",
                                     ".V c #e8ecfe",
                                     "#n c #e8edfe",
                                     ".8 c #e9f0fe",
                                     ".7 c #ebeefe",
                                     ".J c #ecf0fe",
                                     "#A c #edf0fe",
                                     ".U c #eef1fe",
                                     ".z c #eef2fe",
                                     ".y c #f1f2fc",
                                     ".0 c #f1f3fe",
                                     "#g c #f2f5fe",
                                     "#s c #f2f7fe",
                                     ".6 c #f3f6fe",
                                     "#h c #f5f8fe",
                                     ".5 c #f7f7fe",
                                     "#B c #f7f9fe",
                                     ".T c #f8f9fe",
                                     "ab c #f9f9fb",
                                     "#a c #f9fcfe",
                                     "#M c #fdfdfe",
                                     ".I c #fdfefe",
                                     ".S c #fefefe",
                                     "Qt c None",
                                     "Qt.#QtQtQtQtQtQtQtQtQtQtQtQtQtQt",
                                     ".a.bQtQt.c.d.eQtQtQtQtQtQtQtQtQt",
                                     ".f.g.h.i.j.k.l.m.nQtQtQtQtQtQtQt",
                                     "Qt.o.p.q.r.s.t.u.v.wQtQtQtQtQtQt",
                                     "Qt.x.y.z.A.B.C.D.E.FQtQtQtQtQtQt",
                                     ".G.H.I.J.K.L.M.C.N.O.P.QQtQtQtQt",
                                     ".R.S.T.U.V.W.k.X.Y.Z.0.1.2QtQtQt",
                                     ".3.4.5.6.7.8.9#.##.7.z#a#b#cQtQt",
                                     "#d#e#f#g#h#i#j#k#l#m#n.6.S#o#pQt",
                                     "Qt#q#r#s#t#u#v#w#x#y#z#A#B.S#CQt",
                                     "QtQt#D#E#F#G#H#I#J#K#L.U.S#M#NQt",
                                     "QtQtQt#O#P#Q#R#S#T.s.A#U#V#WQtQt",
                                     "QtQtQtQtQt#X#Y#Z#0.M#1#2#3#4QtQt",
                                     "QtQtQtQtQtQt#5#6#1#y.I#7#8#9a.Qt",
                                     "QtQtQtQtQtQtQta#aaabacadQtQtaeQt",
                                     "QtQtQtQtQtQtQtQtafagQtQtQtQtahQt"};
