/* XPM */
static const char *icq[] = {
"16 16 10 1",
" 	c None",
".	c #005700",
"+	c #01D100",
"@	c #00B400",
"#	c #067702",
"$	c #00F400",
"%	c #029801",
"&	c #EFF908",
"*	c #D3FD1E",
"=	c #B4E322",
"                ",
"     ... ...    ",
"    .++@.++@.   ",
"    #+$+.+$@.   ",
"  ..@#+..#@.+.. ",
" .$$+%.&&*.$$@%.",
" .@@%.#&**..@%%.",
"  ...@.**=.$... ",
" .+$$@%...$$+@%.",
" .+++@.@.+.++@%.",
" .@@@.$+.$$.@%%.",
"  ...++@.++@... ",
"    .@@%.@@%.   ",
"    .%%. .%#.   ",
"     ..   ..    ",
"                "};
