/* XPM */
static const char *livejournal[]={
"16 16 7 1",
". c None",
"# c #000080",
"a c #800080",
"c c #808000",
"b c #ff00ff",
"d c #ffff00",
"e c #ffffff",
"..######........",
".#ab#bcd#.......",
"#aa#bbbcd#......",
"#a#aabbbc#......",
"##aaaabbb#......",
"#aaaaaab###.....",
".#aaaaa#abb#....",
"..#aaa#aabbb#...",
"...#a#aaaab###..",
"....##aaaa#cc##.",
".....#aaa#cedc#.",
"......###cd#ed#.",
"........#cddce#.",
"........##cddc#.",
".........#####c#",
"..............##"};
