/* XPM */
static const char *p_button_ok[]={
"22 22 93 2",
"#z c #005d00",
"#x c #006d00",
"#u c #007100",
"#l c #007500",
"#r c #007900",
"#a c #007d00",
".6 c #008100",
"#. c #008500",
".G c #008900",
"#n c #008d00",
".L c #009100",
".n c #009900",
"#h c #009d00",
".g c #00a100",
".1 c #00ae00",
".7 c #00ba00",
".W c #00c200",
".4 c #00ca00",
".R c #00ce00",
"#m c #00d200",
".P c #00d600",
"#f c #00da00",
"#g c #00de00",
".9 c #00e200",
"#b c #00e600",
".8 c #00ee00",
".2 c #00f600",
".3 c #00fa00",
".Y c #00ff00",
".C c #089508",
".s c #089d08",
".m c #08a508",
".Z c #08ea08",
".X c #08fa08",
".Q c #08ff08",
"#q c #106510",
"#i c #107110",
"#d c #107510",
".5 c #108510",
".S c #108910",
".J c #109110",
".A c #109910",
".j c #10a110",
".k c #10a510",
".h c #10ae10",
".p c #18aa18",
".y c #18ae18",
".M c #18c618",
".I c #18d618",
"#c c #208120",
".o c #20aa20",
".b c #20b610",
".D c #29c629",
".N c #29fa29",
"#s c #317931",
"#o c #317d31",
".v c #31ae31",
".u c #31b631",
".z c #31d631",
".H c #31fa31",
".O c #41a541",
".F c #41ae41",
".c c #41be41",
".t c #41ce41",
"#t c #529152",
".E c #52f252",
"#y c #629562",
"#v c #629962",
".V c #62b262",
".K c #62b662",
".B c #62ba62",
".r c #62be62",
".l c #62c262",
".f c #62ca62",
".a c #6ace62",
"#e c #73aa73",
"#A c #8bba8b",
".0 c #8bc68b",
"#w c #9cc29c",
"## c #9cce9c",
"#k c #acceac",
".x c #acdeac",
"#j c #cde2cd",
".T c #cde6cd",
".q c #cdeacd",
".d c #cdeecd",
".i c #d5eecd",
".U c #deeede",
".e c #def2de",
".# c #e6f6de",
"#p c #eef6ee",
".w c #eefaee",
"Qt c None",
"QtQtQtQtQtQtQtQtQtQtQtQtQtQtQtQtQtQtQtQtQtQt",
"QtQtQtQtQtQtQtQtQtQtQtQtQtQtQtQtQtQtQtQtQtQt",
"QtQtQtQtQtQtQtQtQtQtQtQtQtQtQtQtQtQtQtQtQtQt",
"QtQtQtQtQtQtQtQtQtQtQtQtQtQtQtQtQtQtQt.#.a.b",
".c.dQtQtQtQtQtQtQtQtQtQtQtQtQtQtQt.e.f.g.h.i",
".j.k.dQtQtQtQtQtQtQtQtQtQtQtQt.e.l.m.n.o.dQt",
".l.p.j.qQtQtQtQtQtQtQtQtQt.e.r.s.t.u.v.wQtQt",
".x.y.z.A.qQtQtQtQtQtQt.e.B.C.D.E.j.F.wQtQtQt",
".w.G.H.I.J.qQtQtQt.e.K.L.M.N.H.s.BQtQtQtQtQt",
"Qt.O.P.Q.R.S.T.U.V.G.W.X.Y.Z.G.KQtQtQtQtQtQt",
"Qt.0.1.2.3.4.5.6.7.8.3.2.9#.##QtQtQtQtQtQtQt",
"Qt.U#a.8.8.8.P#b.8.8.8.W#a##QtQtQtQtQtQtQtQt",
"QtQt#c.R#b#b#b#b#b#b.7#d.TQtQtQtQtQtQtQtQtQt",
"QtQt#e.g#f#g#f#g#f#h#i#jQtQtQtQtQtQtQtQtQtQt",
"QtQt#k#l.P#m.P#m#n#o#pQtQtQtQtQtQtQtQtQtQtQt",
"QtQtQt#q.7.4.W#r#s#pQtQtQtQtQtQtQtQtQtQtQtQt",
"QtQtQt#t#h.7#u#v#pQtQtQtQtQtQtQtQtQtQtQtQtQt",
"QtQtQt#w#x#x#yQtQtQtQtQtQtQtQtQtQtQtQtQtQtQt",
"QtQtQt#p#z#AQtQtQtQtQtQtQtQtQtQtQtQtQtQtQtQt",
"QtQtQtQtQtQtQtQtQtQtQtQtQtQtQtQtQtQtQtQtQtQt",
"QtQtQtQtQtQtQtQtQtQtQtQtQtQtQtQtQtQtQtQtQtQt",
"QtQtQtQtQtQtQtQtQtQtQtQtQtQtQtQtQtQtQtQtQtQt"};
