/* XPM */
static const char *p_run[]={
"16 16 202 2",
"aW c #3d3d77",
".E c #3f3f84",
"aP c #40406e",
"#9 c #414178",
".s c #414184",
"a7 c #42427b",
"aZ c #434370",
"#U c #43437c",
"#L c #454582",
".9 c #494973",
".8 c #4a4a83",
".h c #4a4a8c",
"#k c #4b4b87",
"aY c #4c4c77",
"#I c #4c4c84",
"bf c #4e4e86",
".a c #4e4e8a",
".Q c #4f4f7a",
".4 c #4f4f8c",
".F c #50508b",
".D c #54547e",
".r c #555583",
"#t c #555590",
".R c #555591",
"#g c #555596",
"#u c #555597",
"#y c #565692",
"aT c #585890",
".i c #595995",
".A c #5a5a7c",
"be c #5a5a94",
"#T c #5b5b99",
"#0 c #5c5c93",
"aB c #5d5d84",
"aX c #5d5d88",
".j c #5d5d9b",
".q c #5e5e87",
"aS c #606084",
".t c #63639a",
"aO c #6666a5",
".V c #6868a4",
".k c #6969a6",
"#v c #6a6aa3",
".d c #6f6f9b",
"a6 c #7070a9",
"#H c #7171aa",
"#X c #7171ac",
"#J c #727297",
".u c #7272a6",
"#h c #7272a7",
"## c #73738b",
".O c #74749f",
".7 c #7878b1",
"#z c #7a7a85",
"al c #7b7b86",
"#8 c #7c7cb1",
".v c #7e7eb1",
".l c #7e7eb3",
"#l c #7f7f89",
".3 c #7f7f95",
".g c #80809c",
"ab c #8181b6",
".# c #838399",
".n c #83839e",
"ae c #8383aa",
"ak c #8383b2",
"#j c #8383b8",
"aF c #84849f",
"#f c #868695",
".w c #8787b9",
".U c #8989bb",
".1 c #8a8aaf",
"#S c #8a8abb",
"#n c #8b8b9c",
".W c #8b8bb6",
"#G c #8b8bbb",
".x c #8c8cbc",
"#K c #8e8ebc",
"bg c #8f8f95",
".e c #8f8fac",
"#V c #909097",
"a3 c #909099",
"a. c #919197",
"#w c #9191be",
"a0 c #929297",
"a8 c #929298",
"ao c #9292ab",
"#2 c #9393a5",
"#3 c #9494b7",
"#O c #9494bd",
".K c #9595c2",
"a4 c #96969e",
"#D c #9696b9",
"aN c #9797c7",
"#Y c #9898c5",
"aA c #9898c7",
".m c #9898c8",
"bd c #9999a3",
"a5 c #9999c4",
".L c #9a9ac6",
"#1 c #9c9ca1",
".G c #9e9ec5",
"#. c #9f9fa2",
"ac c #9f9fc9",
"#Z c #a0a0ca",
"ap c #a1a1cf",
".M c #a6a6cd",
"ad c #a7a7cc",
".5 c #a8a8cc",
"#e c #a8a8d3",
"aa c #a9a9b2",
".J c #a9a9cf",
".N c #aaaad2",
".b c #ababb2",
"#s c #ababd1",
"aM c #ababd3",
"#M c #acacac",
".z c #acacd7",
".Y c #adadd1",
"#a c #adadd7",
".X c #aeaed2",
"aG c #aeaed9",
".y c #afafd2",
"az c #b1b1d4",
"aL c #b2b2d4",
"#o c #b2b2dc",
"#F c #b4b4d6",
"ar c #b5b5d6",
"#x c #b5b5d7",
"aH c #b5b5d8",
"aq c #b7b7d8",
".S c #b8b8d5",
".6 c #bbbbda",
"af c #bbbbe1",
"aU c #bcbcd7",
"as c #bcbcda",
"#b c #bcbcdb",
".Z c #bdbddb",
".T c #bebedb",
".c c #bfbfc3",
"#W c #c0c0c4",
".I c #c0c0dc",
".P c #c2c2c4",
"#r c #c3c3de",
".H c #c4c4df",
"#c c #c5c5df",
"#i c #c6c6e0",
"at c #c8c8e5",
"#m c #c9c9c9",
"#C c #cacacd",
"#E c #cacae5",
"#N c #cccccf",
"#p c #cccce4",
"a9 c #cdcdcd",
"#R c #cdcde4",
"#A c #cfcfcf",
"aI c #cfcfe8",
"b# c #d0d0d0",
"b. c #d1d1d1",
"#q c #d1d1e7",
"ag c #d1d1e9",
".2 c #d2d2d4",
"aw c #d2d2e7",
"#P c #d2d2ec",
"#5 c #d3d3e7",
"#4 c #d3d3ed",
".p c #d4d4d6",
"aJ c #d4d4e8",
"am c #d5d5d5",
"au c #d5d5e9",
"a# c #d6d6d6",
"av c #d7d7ea",
".0 c #d7d7f0",
"aK c #d8d8ea",
"a1 c #dadada",
"#Q c #dadaeb",
"a2 c #dcdcdd",
"#d c #ddddee",
"ah c #dedeee",
"aC c #e1e1e1",
"#6 c #e6e6f2",
".o c #e7e7e7",
"#7 c #e7e7f3",
"aR c #eaeaea",
".f c #ebebeb",
"aE c #eeeeee",
"ay c #eeeef7",
"aV c #eeeefb",
"ax c #efeff7",
"an c #f0f0f0",
"ba c #f2f2f2",
"aj c #f3f3fa",
"bc c #f5f5f5",
"ai c #f6f6fb",
".B c #f7f7f7",
"bb c #f9f9f9",
"aQ c #fafafa",
"bh c #fbfbfb",
"aD c #fcfcfc",
"#B c #fdfdfd",
".C c #fefefe",
"Qt c None",
"QtQtQtQtQtQt.#.a.b.c.d.e.fQtQtQt",
"QtQtQtQtQt.g.h.i.j.k.l.m.n.oQtQt",
"QtQt.p.q.r.s.t.u.v.w.x.y.z.A.B.C",
"QtQt.D.E.F.G.H.I.J.K.L.M.N.O.PQt",
"QtQt.Q.R.S.T.U.V.F.W.X.Y.Z.0.1.2",
"Qt.3.4.5.6.7.8.9#.###a#b#c#d#e#f",
".##g#h#i#j#k#l#m.B#n#o#p#q#r#s#t",
"#u#v#w#x#y#z#A#B#C#D#E#q#F#G#H#I",
"#J#H#K.M#L#MQt#N#O#P#Q#R#S#T#U#V",
"#W#X#Y#Z#0#1#2#3#4#5#6#7#8#9a.a#",
"aaabac.Jadaeafagah#6aiajakalaman",
"aoapaqarasatauavawaxayazaAaBaCaD",
"aEaFaGaHaIaJaKaL#G.xaMaNaOaPamaQ",
"QtaRaSaTaUaV#r#S#TaWaXaYaZa0a1aQ",
"QtQta2a3a4a5.Na6a7a8a9b.b#a1baQt",
"QtQtQtbbbcbdbebfbga#aEbbbbbhQtQt"};
