/* XPM */
static const char *p_1leftarrow[]={
"16 16 2 1",
"# c #000000",
". c None",
"................",
"................",
"..........#.....",
".........##.....",
"........###.....",
".......####.....",
"......#####.....",
".....######.....",
".....######.....",
"......#####.....",
".......####.....",
"........###.....",
".........##.....",
"..........#.....",
"................",
"................"};
