/* XPM */
static const char *added[]={
    "16 16 8 1",
    ". c None",
    "d c #008000",
    "f c #800000",
    "b c #808000",
    "c c #808080",
    "# c #ff0000",
    "e c #ffff00",
    "a c #ffffff",
    ".........#......",
    "..aaaaaaa##aaaab",
    "..aaaaaa###caabd",
    "..aaaeae###baebb",
    "..aaeaea###ceadb",
    "..aaaeae##cbaebb",
    "..aaeae###baeabd",
    "..aaaea###ceabbb",
    "..aaeae###baeabd",
    "..aaaea##bcbaebb",
    "..aaeae##ceaeadb",
    "..aaaeaecbaeaebb",
    "..aaeae#eaeaeabd",
    "..aabbf##bdbbdbb",
    "..abdb###cbbdbbd",
    ".......#cc......"};
