/* XPM */
static const char *p_editcopy[]={
    "16 16 61 1",
    "# c None",
    "k c #000000",
    "R c #303030",
    "c c #424242",
    ". c #585858",
    "b c #6d6d6d",
    "e c #707070",
    "6 c #979797",
    "Z c #9a9a9a",
    "5 c #9c9c9c",
    "X c #9d9d9d",
    "U c #a0a0a0",
    "4 c #a2a2a2",
    "Q c #a3a3a3",
    "3 c #a7a7a7",
    "F c #a9a9a9",
    "o c #aaaaaa",
    "2 c #adadad",
    "V c #b1b1b1",
    "1 c #b2b2b2",
    "S c #b5b5b5",
    "z c #b6b6b6",
    "0 c #b8b8b8",
    "O c #bababa",
    "n c #bbac94",
    "q c #bca687",
    "j c #bcb4ad",
    "w c #bda07a",
    "u c #bda280",
    "N c #be9b6d",
    "C c #bebebe",
    "B c #bf9f73",
    "M c #bf9f76",
    "L c #bfa682",
    "K c #c1aa8a",
    "J c #c1ae96",
    "I c #c2b59f",
    "H c #c3b9aa",
    "r c #c3c3c3",
    "G c #c5beb4",
    "Y c #d0d0d0",
    "W c #d6d6d6",
    "T c #dcdcdc",
    "a c #dedede",
    "i c #e0dedd",
    "y c #e0e0e0",
    "P c #e1e1e1",
    "A c #e6c9a3",
    "E c #e7e7e7",
    "v c #e9d0ac",
    "t c #ecd6b9",
    "D c #ededed",
    "p c #efdcc2",
    "m c #f1e3ce",
    "x c #f3f3f3",
    "l c #f4e9db",
    "h c #f8f0e5",
    "g c #f9f6f2",
    "s c #f9f9f9",
    "f c #faf7f5",
    "d c #ffffff",
    ".......#########",
    ".aaaaabc########",
    ".addddefc#######",
    ".addddeecc######",
    ".adddghijk...###",
    ".addghlmnkoabc##",
    ".adghlmpqkrdesc#",
    ".aghlmptukrdeecc",
    ".ahlmptvwkrsxyzk",
    ".almptvABkCxDEFk",
    ".GHIJKLMNkODEPQk",
    ".kkkkkkkkRSEPTUk",
    "######.oOSVPTWXk",
    "######.aDEPTWYZk",
    "######.C0123456k",
    "######.kkkkkkkkR"};
