/* XPM */
static const char *p_mail_reply[]={
    "16 16 166 2",
    ".k c None",
    "ag c #030101",
    "#8 c #030d15",
    "aj c #0d1f37",
    "#q c #0e223e",
    "#H c #0e2642",
    "#Y c #0e3242",
    "#r c #165e8a",
    ".2 c #19476e",
    ".T c #19486e",
    "a# c #1a164a",
    "aa c #1a3662",
    ".K c #1a3e62",
    "#d c #1a496f",
    "#K c #1a4b70",
    "#I c #1a6a92",
    "#Q c #1a769e",
    "#t c #1a87b7",
    "#N c #1c5176",
    "#O c #1c5478",
    "ak c #1e1652",
    "#P c #1e5378",
    "#M c #1e577a",
    "## c #1e5888",
    "#X c #1e6a96",
    "#L c #205c7f",
    "#C c #22366e",
    "#R c #223e76",
    "#1 c #226a92",
    "#g c #2399c5",
    "#u c #239fc8",
    ".8 c #275378",
    "#J c #2798bd",
    "#s c #299cbc",
    "#A c #29a3c7",
    ".S c #2a5578",
    "#h c #2a93c3",
    "#f c #2aa3c3",
    "#. c #2ca5c5",
    "#l c #3192bd",
    "#k c #3391bd",
    "#B c #3394c0",
    "#i c #3399c7",
    ".0 c #345a7e",
    "#j c #3498c3",
    "#0 c #352727",
    "aH c #3d2e26",
    "#m c #3f9ac3",
    "aG c #40312b",
    "aA c #40312d",
    "aI c #41322a",
    "aJ c #41372e",
    "aF c #48372f",
    "aE c #493830",
    "aD c #4d3c34",
    "#v c #4fc7de",
    ".h c #53403e",
    "#z c #53c8df",
    "aC c #54403b",
    ".6 c #574540",
    "aB c #594438",
    "#x c #59c7df",
    ".i c #5b4a48",
    "#w c #5bcbe1",
    ".j c #5c473d",
    ".g c #5f4c4c",
    "as c #614d42",
    "#n c #61b7d3",
    "al c #624e4b",
    "#y c #66cfe3",
    "#o c #685754",
    "#D c #695753",
    "#e c #6acde2",
    ".1 c #6bcfe3",
    ".d c #6e5f5d",
    ".e c #6f5e5e",
    "#a c #73615f",
    ".9 c #75d1e2",
    ".f c #766563",
    "#2 c #776661",
    "#S c #78655f",
    "ab c #796660",
    ".c c #796666",
    ".w c #7c6b67",
    ".b c #7c6b69",
    ".7 c #7e6b66",
    ".W c #7f6c67",
    ".l c #7f6d6c",
    ".a c #7f6e6e",
    ".F c #826c69",
    ".# c #846f6e",
    ".N c #856e6e",
    "Qt c #8e7c7a",
    "ay c #a98c6c",
    "#6 c #b0977f",
    "an c #b79a7c",
    "ad c #b79a7e",
    "at c #b89773",
    ".t c #b8a498",
    ".E c #bca7a7",
    ".Q c #bcaca5",
    ".H c #bda596",
    ".y c #bda896",
    ".m c #bda897",
    "aq c #bea185",
    "af c #bea58d",
    ".n c #ccbba5",
    ".D c #cdbfb0",
    "au c #cfb490",
    ".J c #d1c2c2",
    "ae c #d3bb9c",
    ".I c #d5c6ba",
    ".R c #dbccb4",
    "ao c #dcc8a5",
    "az c #dfc8a4",
    ".z c #e0cfb3",
    "a. c #e2d4b9",
    "#7 c #e3cca4",
    ".5 c #e4d8d1",
    ".V c #e4dcd3",
    "#W c #e5d8c6",
    "#Z c #e6d4b9",
    ".u c #e8dbc9",
    ".M c #e8dbd7",
    ".o c #e9dcd8",
    ".v c #ece3df",
    "am c #edd9ba",
    "av c #efdeb2",
    ".x c #f0e4d7",
    "#5 c #f1e1c2",
    ".p c #f1eada",
    ".4 c #f1ece7",
    ".P c #f3ede4",
    "aw c #f5e0b8",
    "#T c #f5e6cd",
    ".q c #f5efe2",
    "ax c #f6e5b9",
    "#E c #f6e7be",
    ".X c #f8e9d3",
    "#G c #f8edd7",
    ".3 c #f8f2f0",
    "#b c #f9e9ca",
    "#p c #f9e9cc",
    ".G c #f9eeca",
    "ac c #fae5bd",
    "#3 c #fae5bf",
    ".s c #fbf0ec",
    ".r c #fbf5e8",
    "#V c #fcf1d7",
    "#c c #fcf5e3",
    "ar c #fdedc6",
    "#4 c #fdf2d2",
    ".U c #fefcf9",
    "ah c #ffecc7",
    "ap c #fff0cc",
    "ai c #fff0cf",
    "#F c #fff1d7",
    ".L c #fff4dc",
    ".B c #fff4e8",
    "#U c #fff5d4",
    "#9 c #fff5d7",
    ".Y c #fff5df",
    ".Z c #fff5e4",
    ".C c #fff8f4",
    ".O c #fff9e4",
    ".A c #fff9f0",
    "Qt.#.a.b.c.d.e.f.g.h.i.j.k.k.k.k",
    ".l.m.n.o.p.q.r.s.t.u.v.j.k.k.k.k",
    ".w.x.y.z.A.B.C.D.E.C.v.j.k.k.k.k",
    ".F.G.s.H.I.C.J.K.L.C.M.j.k.k.k.k",
    ".N.G.O.P.Q.R.S.T.U.A.V.j.k.k.k.k",
    ".W.X.Y.Z.s.0.1.2.3.4.5.6.k.k.k.k",
    ".7.X.Y.Z.8.9#..2############.k.k",
    "#a#b#c#d#e#f#g#h#i#j#k#l#m#n####",
    "#o#p#c#q#r#s#t#u#v#w#x#y#z#A#B#C",
    "#D#E#F#G#H#I#J#K#L#M#N#O#P#Q#A#R",
    "#S#T#U#V#W#H#X#Y.L#c#Z.j.k#0#1#C",
    "#2#3#4#5#6#7#q#8#U#9a..j.ka#aaa#",
    "abac.Gadae#5afagahaia..jaja#a#ak",
    "alamanaoap#bamaqanar#7.ja#aka#.k",
    "asatauavawaxam#7ayaz#7.jak.k.k.k",
    "aAaB.jaCaDaEaFaGaHaIaJ.j.k.k.k.k"};
