/* XPM */
static const char *past[]={
"16 16 15 1",
"# c #000000",
"a c #000083",
"m c #0000ff",
"l c #008100",
"j c #008183",
"h c #00ff00",
"f c #00ffff",
"d c #830000",
"e c #838100",
"b c #838183",
"i c #c5c2c5",
"k c #ff0000",
". c None",
"g c #ffff00",
"c c #ffffff",
"................",
".......###......",
"......##c##.....",
"..###.#ccc#.###.",
".##c###ccc###c##",
".#ccc##ici##ccc#",
".#ccc#.jcj.#ccc#",
".#ici#jjijj#ici#",
"..eiejjjcjjjeie.",
".eglgjjjjjjjglge",
"eggeggjjcjjggegg",
"egggggjjjjjggggg",
"eggeggjjcjjggegg",
"egggggjjjjjggggg",
"eggeggjj.jjggegg",
"................"};
