/* XPM */
static const char *p_save_all[]={
"18 18 54 1",
"# c #181c18",
"c c #313031",
"a c #414041",
"b c #524052",
"R c #525552",
"J c #5a595a",
"V c #625062",
"C c #626162",
"F c #626562",
"K c #6a616a",
"G c #6a656a",
"v c #6a696a",
"I c #6a6d6a",
"l c #6aa5a4",
"Y c #736973",
"y c #736d73",
"j c #737173",
"h c #737573",
"S c #7b717b",
"p c #7b757b",
"D c #7b797b",
"z c #7b7d7b",
"m c #7baeb4",
"H c #837583",
"i c #837983",
"E c #837d83",
"w c #838183",
"d c #838583",
"X c #8b7d8b",
"Q c #8b898b",
"P c #8b8d8b",
"q c #948194",
"U c #948994",
"Z c #a4a5a4",
"n c #acbab4",
"T c #bdbebd",
"k c #bdc2c5",
"W c #c5bac5",
"O c #d5ced5",
"N c #d5d2d5",
"L c #e6e6e6",
"M c #eee2ee",
"B c #f6e6de",
"u c #f6eade",
"A c #f6eae6",
"g c #f6eee6",
"t c #ffeee6",
"x c #ffeeee",
"f c #fff2ee",
"o c #fff2f6",
"e c #fff6f6",
"r c #fffaf6",
"s c #fffaff",
". c None",
"...##aaabaaab##...",
"..cda...e.fegah#..",
".##aaabaaab##ai#..",
"#da...e.fegah#j#..",
"#da.klmlmnoai#p#..",
"#qa.r.fstouaj#v#..",
"#wbsklmlmnxap#y#..",
"#za.esfeAfBav#C#..",
"#DEabaaabaaFy#G#..",
"#HjjjIIvvFFFC#J#..",
"#jiIaabaaabCG#K#..",
"#IIaLMNOaPQaJ#R#..",
"#vSaMaaTbdUaK#V#..",
"#FFaNaFWaXDaR#c...",
"#FYaOTWZahiaV#....",
".###aaaa#####.....",
"..................",
".................."};
