/* XPM */
static const char *screen[]={
"16 16 6 1",
". c None",
"# c #838183",
"c c #c5c2c5",
"b c #404040",
"a c #000000",
"d c #ffffff",
"...#............",
"....#.....#.....",
".....#...#......",
"......#.#.......",
".aaaaaaaaaaaab..",
".adddddddddaab..",
".adccccccccadb..",
".adccaccaccadb..",
".adcaccacccabb..",
".adcccaccacabb..",
".adccaccaccadb..",
".adccccccccadb..",
".adddddddddbbb..",
".aaaaaaaabbbbb..",
"................",
"................"};
