/* XPM */
static const char *smile8[]={
    "19 19 6 1",
    ". c None",
    "# c #000000",
    "c c #202000",
    "b c #c0c000",
    "a c #ffff00",
    "d c #ffffff",
    ".....########......",
    "....#abaaaaab##....",
    "...#baaaaaaaaab#...",
    "..#aaaaaaaaaaaaa#..",
    ".#baaaaaaaaaaaaab#.",
    ".#aac#aaaaaaaaaaa#.",
    "#ba#dd#aaaa##aaaab#",
    "#aa#d##aa###aaaaaa#",
    "#aaa##aaaaaaaaaaaa#",
    "#aaaaaaaaaaaaaaaaa#",
    "#aaaaaaaaaaaaaaaaa#",
    "#aaaaaaaaa#aaaaaaa#",
    "#ba#aaaaaaa###aaab#",
    ".#aa#aaaaa##aaaaa#.",
    ".#baa#####caaaaab#.",
    "..#aaa####aaaaaa#..",
    "...#baaaaaaaaab#...",
    "....##baaaaab##....",
    "......#######......"};
