/* XPM */
static const char *smile0[]={
    "19 19 7 1",
    "# c #000000",
    "c c #606000",
    "d c #808000",
    "a c #c0c000",
    ". c None",
    "e c #ff2000",
    "b c #ffff00",
    "......#######......",
    "....##abbbbba##....",
    "...#abbbbbbbbba#...",
    "..#bbbbbbbbbbbbb#..",
    ".#abbb#bbbbb#bbba#.",
    ".#bbb###bbb###bbb#.",
    "#abbb###bbb###bbba#",
    "#bbbb###bbb###bbbb#",
    "#bbbbb#bbbbb#bbbbb#",
    "#bbbbbbbbbbbbbbbbb#",
    "#bbb#bbbbbbbbb#bbb#",
    "#bb#cbbbbbbbbbc#bb#",
    "#abbb#abbbbba#bbba#",
    ".#bbbb##ddd##bbbb#.",
    ".#abbbb#eee#bbbba#.",
    "..#bbbbb###bbbbb#..",
    "...#abbbbbbbbba#...",
    "....##abbbbba##....",
    "......#######......"};
