/* XPM */
static const char *smile3[]={
    "19 19 9 1",
    "# c #000000",
    "c c #202000",
    "d c #606000",
    "f c #606040",
    "g c #808000",
    "a c #c0c000",
    ". c None",
    "b c #ffff00",
    "e c #ffffff",
    "......#######......",
    "....##abbbbba##....",
    "...#abb#bbb#bba#...",
    "..#bbb#bbbbb#bbb#..",
    ".#ab#cccbbbcc##ba#.",
    ".#b#deecbbfeegdbb#.",
    "#abbfe##bbfe##bbba#",
    "#bbba###bbac##bbbb#",
    "#bbbbbabbbbbabbbbb#",
    "#bbbbbbbbbbbbbb#bb#",
    "#bbbbbbbbbbbb###bb#",
    "#bbbbbbbbdc#cbbbbb#",
    "#abbbbd##bbbbbbbba#",
    ".#bb##bbbbbbbbbbb#.",
    ".#abbbbbbbbbbbbba#.",
    "..#bbbbbbbbbbbbb#..",
    "...#abbbbbbbbba#...",
    "....##abbbbba##....",
    "......#######......"};
