/* XPM */
static const char *smileB[]={
    "19 19 5 1",
    "# c #000000",
    "c c #202000",
    "a c #c0c000",
    ". c None",
    "b c #ffff00",
    "......#######......",
    "....##abbbbba##....",
    "...#abbbbbbbbba#...",
    "..#bbbcbbbbbcbbb#..",
    ".#abb###bbb###bba#.",
    ".#bbb###bbb###bbb#.",
    "#abbb###bbb###bbba#",
    "#bbbbb#bbbbb#bbbbb#",
    "#bbbbbbbbbbbbbbbbb#",
    "#bbbbbbbbbbbbbbbbb#",
    "#bbbb##bbbbb##bbbb#",
    "#bbbba###a###abbbb#",
    "#abbbbba###abbbbba#",
    ".#bbba###a#c#abbb#.",
    ".#abb##bbbbb##bba#.",
    "..#bbbbbbbbbbbbb#..",
    "...#abbbbbbbbba#...",
    "....##abbbbba##....",
    "......#######......"};
