/* XPM */
static const char *smile4[]={
    "19 19 9 1",
    "# c #000000",
    "c c #202000",
    "d c #606000",
    "e c #606040",
    "g c #808000",
    "a c #c0c000",
    ". c None",
    "b c #ffff00",
    "f c #ffffff",
    "......#######......",
    "....##abbbbba##....",
    "...#abb#bbb#bba#...",
    "..#bbb#bbbbb#bbb#..",
    ".#ab#cccbbbcc##ba#.",
    ".#bbdeffabdffgdbb#.",
    "#abbbef#abcf#gbbba#",
    "#bbbba##aba##abbbb#",
    "#bbbbbdbbbbbgbbbbb#",
    "#bbbbbbbbbbbbbbbbb#",
    "#bbbbb#######bbbbb#",
    "#bbdb#gbbbbbg#bdbb#",
    "#abdcbbbaaabbbcdba#",
    ".#bbdbbbbbbbbbdbb#.",
    ".#abbbbbbbbbbbbba#.",
    "..#bbbbbbbbbbbbb#..",
    "...#abbbbbbbbba#...",
    "....##abbbbba##....",
    "......#######......"};
