/* XPM */
static const char *smileC[]={
    "19 19 8 1",
    "# c #000000",
    "d c #200000",
    "c c #202000",
    "f c #c08000",
    "a c #c0c000",
    "e c #ff0000",
    ". c None",
    "b c #ffff00",
    "......#######......",
    "....##abbbbba##....",
    "...#abbbbbbbbba#...",
    "..#bbbbbbbbbbbbb#..",
    ".#abbb#bbbbb#bbba#.",
    ".#bbb###bbb###bbb#.",
    "#abbb###bbb###bbba#",
    "#bbbb###bbb###bbbb#",
    "#bbbb###bbb###bbbb#",
    "#bbbbb#bbbbb#bbbbb#",
    "#bbcbbbbbbbbbbbcbb#",
    "#bca#bbbbbbbbb#acb#",
    "#abbb#bbbbbbb#bbba#",
    ".#bbbbccccc#defbb#.",
    ".#abbbbbbbeeeeeba#.",
    "..#bbbbbbbbeeebb#..",
    "...#abbbbbbbbba#...",
    "....##abbbbba##....",
    "......#######......"};
