/* XPM */
static const char *smile6[]={
    "19 19 9 1",
    "# c #000000",
    "c c #202000",
    "f c #606000",
    "d c #606040",
    "g c #808000",
    "a c #c0c000",
    ". c None",
    "b c #ffff00",
    "e c #ffffff",
    "......#######......",
    "....##abbbbba##....",
    "...#abbbbbbbbba#...",
    "..#bbbbbbbbbbbbb#..",
    ".#abbccbbbbbccbba#.",
    ".#bbcaacbbbcaacbb#.",
    "#abbcd##bbbdd#cbba#",
    "#bbbceecbbbceecbbb#",
    "#bbbbccbbbbbccbbbb#",
    "#bbbbbbbbbbbbbbbbb#",
    "#bbbbbbbbbbafbacbb#",
    "#bb##bbbbbb#####gb#",
    "#bf###bbbb####bfbb#",
    ".#b##########cgcb#.",
    ".#bbgc#######bcbb#.",
    "..#bbbbbbf##gfbb#..",
    "...#bbbbbbbbbbb#...",
    "....##bbbbbbb##....",
    "......#######......"};
