/* XPM */
static const char *floating[]={
    "16 16 16 1",
    "b c #000000",
    "g c #000080",
    "k c #0000ff",
    "h c #008000",
    "n c #008080",
    "j c #00ff00",
    "l c #00ffff",
    "m c #800000",
    "a c #800080",
    "e c #808000",
    "f c #808080",
    "i c #c0c0c0",
    ". c #ff0000",
    "# c None",
    "d c #ffff00",
    "c c #ffffff",
    "################",
    "#####bbbf#######",
    "####bidfb#######",
    "###bidffbbbf####",
    "##bidffbiideebbf",
    "#bidffbiidcdddib",
    "bidffbiidddddifb",
    "bbbfbiidcdddifbb",
    "bffbiidcdddifbb#",
    "bcfbidcdddifbb#b",
    "bbbfdcdddifbb#b#",
    "#bffcdddifbb#b#b",
    "###bbbiibbb#b#b#",
    "####ffbbbb#b#b##",
    "######ffb#b#b###",
    "#########b#b####"};
