/* XPM */
static const char *auth[]={
    "16 16 7 1",
    ". c None",
    "c c #008000",
    "e c #800000",
    "b c #808000",
    "# c #ff0000",
    "d c #ffff00",
    "a c #ffffff",
    "...........#....",
    ".aaaaaaaaab#aab.",
    ".aaaaaaaaa##abc.",
    ".aaadadadbeadbb.",
    ".aadadadab#dabc.",
    ".aaadadadbeadbb.",
    ".aadadadbe#dacb.",
    ".aaadadabedadbb.",
    ".a#dadabe#adabc.",
    ".ab#dadbe#dadbb.",
    ".aa###be##adacb.",
    ".aabe####adadbb.",
    ".aadbe###dadabc.",
    ".aabc####bbbcbb.",
    ".abbbbe#bcbbbcb.",
    "................"};
