/* XPM */
static const char *p_spellcheck[]={
    "16 16 7 1",
    ". c None",
    "# c #000000",
    "e c #800000",
    "d c #c00000",
    "a c #dcdcdc",
    "c c #ff0000",
    "b c #ffc0c0",
    "................",
    ".##a.###a..##a..",
    "#a.#a#a.#a#a.#a.",
    "#a.#a#a.#a#a....",
    "####a###a.#a....",
    "#a.#a#a.#a#a....",
    "#a.#a#a.#a#a.#a.",
    "#a.#a###a..##a.b",
    "..............bc",
    ".......b.....bcd",
    "......bcd...bcd#",
    ".....#eccd.bcd#.",
    "......#eccbcd#..",
    ".......#eccd#...",
    "........#ed#....",
    ".........##....."};
