/* XPM */
static const char * dnd[] = {
"16 16 20 1",
" 	c None",
".	c #006300",
"+	c #005600",
"@	c #01D200",
"#	c #01B300",
"$	c #980201",
"%	c #B40000",
"&	c #E37C6E",
"*	c #DC4E38",
"=	c #FD2424",
"-	c #770602",
";	c #00F900",
">	c #FCFCFC",
",	c #FFFFFF",
"'	c #004C00",
")	c #FDFDFF",
"!	c #D10100",
"~	c #029A00",
"{	c #BA3C00",
"]	c #007D00",
"                ",
"     ... .++    ",
"    .@@#.@@#+   ",
"    .@$$$$$#+   ",
"  ..#%&*===-;++ ",
" .;;%&>===,=-##'",
" .##$**)=,=!-#~'",
"  ..$===,=!%-'' ",
" +@;$==,=,%%-#~'",
" +@@$=,=!{,$-#~'",
" +###$=!%%$-#~]'",
"  +++@-$---#''' ",
"    +##~'##~'   ",
"    '~~+ '~]'   ",
"     ''   ''    ",
"                "};
