/* XPM */
static const char *p_button_ok[]={
"22 22 59 1",
"w c #313031",
"h c #313431",
"3 c #393439",
"b c #393839",
"Z c #413c41",
"F c #414041",
"a c #414441",
"H c #4a484a",
"v c #4a4c4a",
"W c #525552",
"X c #5a555a",
"D c #5a595a",
"n c #625d62",
"o c #626162",
"f c #6a616a",
"e c #6a656a",
"E c #6a696a",
"k c #6a6d6a",
"g c #6a716a",
"j c #737173",
"R c #737573",
"C c #7b757b",
"s c #838183",
"# c #838583",
"A c #8b858b",
"u c #8b898b",
"z c #8b8d8b",
"I c #8b918b",
"r c #949594",
"J c #9c959c",
"B c #9c999c",
"S c #a49da4",
"4 c #a4a1a4",
"q c #a4a5a4",
"i c #aca5ac",
"c c #acaaac",
"0 c #b4aeb4",
"m c #b4b2b4",
"U c #b4b6b4",
"l c #b4bab4",
"y c #bdbabd",
"K c #bdbebd",
"d c #c5c2c5",
"Y c #cdc6cd",
"T c #cdcacd",
"M c #d5cad5",
"t c #d5ced5",
"G c #d5d2d5",
"Q c #ded2de",
"N c #dedede",
"x c #e6e2e6",
"2 c #eee6ee",
"V c #eeeeee",
"1 c #f6eef6",
"O c #f6f2f6",
"p c #f6f6f6",
"P c #fff6ff",
"L c #fffaff",
". c None",
"......................",
"......................",
"......................",
"......................",
".................#abc.",
"..............dcefghi.",
".............cjklmnop.",
"...q........rsrtuvj...",
"..swvx.....usydzar....",
".ABCwDx...krdcEF......",
".dtGHwA..IJGcvDK......",
".LxMNwv.drtmaol.......",
".OPNQCwRSGToHU........",
"..VPxdWXYMeZ0.........",
"...1L2YUTE3l..........",
"....1PdQg3d...........",
".....P1Iw4............",
"......TAA.............",
"......................",
"......................",
"......................",
"......................"};
