/* XPM */
static const char *p_cancel[]={
    "17 17 93 2",
    ".Y c #181410",
    "#A c #201410",
    ".P c #201418",
    ".F c #291418",
    "#v c #311418",
    ".n c #391418",
    "#q c #411418",
    ".d c #5a1c18",
    ".c c #622020",
    ".b c #622420",
    ".O c #6a1410",
    ".a c #6a3029",
    ".Q c #6a3831",
    ".f c #6a3839",
    "#u c #731410",
    ".# c #733c39",
    ".4 c #7b1410",
    ".X c #7b1418",
    "#e c #831410",
    "#a c #831418",
    ".E c #8b1410",
    ".w c #941410",
    "#y c #941418",
    "#p c #9c1418",
    "#w c #9c9d9c",
    ".W c #a41410",
    ".m c #a45d52",
    "#o c #ac1410",
    ".D c #ac1418",
    ".5 c #acaaac",
    "## c #b41410",
    "#j c #b4716a",
    "#z c #b4b2b4",
    ".Z c #b4b6b4",
    "#d c #bd1410",
    ".3 c #bd1418",
    "#x c #bd1818",
    "#t c #bd2429",
    "#i c #c51418",
    "#r c #c52018",
    ".V c #c52420",
    "#s c #c52820",
    ".N c #c52c20",
    "#n c #c53429",
    ".2 c #c53431",
    ".v c #c5484a",
    ".9 c #c55552",
    "#g c #c5615a",
    ".u c #c56562",
    "#m c #cd504a",
    "#k c #cd554a",
    "#. c #cd5552",
    "#h c #cd5952",
    "#l c #cd5d52",
    ".7 c #cd6562",
    ".M c #d55552",
    ".1 c #d56962",
    ".C c #d56d62",
    "#c c #d5716a",
    ".t c #d5756a",
    ".S c #d57573",
    ".s c #d57d7b",
    ".K c #de6d6a",
    ".x c #de7573",
    ".L c #de7973",
    ".8 c #de797b",
    ".y c #de7d7b",
    ".q c #de817b",
    ".B c #de8183",
    ".l c #dea5a4",
    "#f c #deaaa4",
    ".I c #e67573",
    ".z c #e67973",
    ".p c #e67d7b",
    ".H c #e68183",
    ".A c #e68583",
    ".r c #e68983",
    ".k c #e6bab4",
    ".o c #e6e6e6",
    "#b c #eebab4",
    ".j c #eec2bd",
    ".6 c #eeeeee",
    ".0 c #f6cacd",
    ".i c #f6d6d5",
    ".g c #f6e6ee",
    ".e c #f6f2f6",
    ".R c #ffdade",
    ".h c #ffdede",
    ".G c #ffeeee",
    ".T c #fff2f6",
    ".J c #fff6f6",
    ".U c #fff6ff",
    "Qt c None",
    "QtQtQtQt.#.a.#.b.c.d.d.eQtQtQtQtQt",
    "QtQtQt.f.g.h.i.j.k.l.m.n.oQtQtQtQt",
    "QtQt.#Qt.p.q.r.s.t.u.v.w.n.oQtQtQt",
    "Qt.fQt.x.y.z.A.p.y.B.C.D.E.F.oQtQt",
    ".#.G.H.p.I.J.K.L.K.J.M.N.D.O.P.oQt",
    ".Q.R.S.p.T.U.T.K.T.U.T.V.W.X.Y.Z.e",
    ".#.0.K.q.K.J.U.J.U.J.1.2.3.4.P.5.6",
    ".b.j.7.p.8.K.T.U.T.7.9#.###a.Y.5.6",
    ".c#b.1.8.K.J.U.J.U.J#c#d.D#e.P.5.6",
    ".d#f#g.y.T.U.T#h.T.U.T#i.W.X.Y.5.6",
    ".d#j#.#h#k.J#l#m#n.J.3#o#p.O.P.5.6",
    ".e#q.w.D#r#s#t.3##.3.W#p#u#v#w.Z.e",
    "Qt.o.n.w.D#d#x##.D#o#y.4#v#w#z.oQt",
    "QtQt.o.n.O.X.4#a.4.X.O#v#w#z.oQtQt",
    "QtQtQt.o.P#A.P#A.P#A.P#w#z.oQtQtQt",
    "QtQtQtQt.o.Z.5.5.5.5.5.Z.oQtQtQtQt",
    "QtQtQtQtQt.e.6.6.6.6.6.eQtQtQtQtQt"};
