/* XPM */
static char * cell_xpm[] = {
"16 16 11 1",
" 	c None",
".	c #B2B2B2",
"+	c #838383",
"@	c #9D9C9C",
"#	c #CFCECE",
"$	c #B8B7B7",
"%	c #767676",
"&	c #A098D3",
"*	c #0000FF",
"=	c #CFCE00",
"-	c #0000CE",
"                ",
"          .+    ",
"          .+    ",
"     @@@@@.+    ",
"    #$$$$$$@    ",
"    #%%%%%%@    ",
"    #%&&&&%@    ",
"    #%&&&&%@    ",
"    #%&&&&%@    ",
"    #%%%%%%@    ",
"    #$$$$$$@    ",
"    #*=-=-=@    ",
"    #$$$$$$@    ",
"    #-=-=-=@    ",
"    #$$$$$$@    ",
"     @@@@@@     "};
