/* XPM */
static const char *dnd[]={
    "16 16 4 1",
    "# c #800000",
    "a c #f80000",
    "b c #f8fcf8",
    ". c None",
    "................",
    "................",
    "................",
    "................",
    ".....##.##......",
    "....#aa#aa#.....",
    "...#abaaaba#....",
    "...#aababaa#....",
    "....#aabaa#.....",
    "...#aababaa#....",
    "...#abaaaba#....",
    "....#aa#aa#.....",
    ".....##.##......",
    "................",
    "................",
    "................"};
