/* XPM */
static const char *encoding[]={
"22 22 146 2",
"#h c #004cb4",
".8 c #0050bd",
".X c #0055bd",
"#o c #0059bd",
".O c #005dc5",
".N c #0061c5",
".I c #0061cd",
".A c #0065cd",
".H c #0069cd",
".o c #0069d5",
".u c #006dd5",
".l c #0071d5",
".t c #0071de",
".e c #0075de",
".F c #0079e6",
".f c #007de6",
".h c #0081ee",
".r c #0085ee",
".k c #0089ee",
"#I c #009900",
"#1 c #009d00",
"#i c #0861cd",
".G c #0869d5",
".i c #086dde",
".s c #0879e6",
".g c #0885f6",
"#Z c #089d08",
"#f c #1071d5",
"#9 c #109d10",
"#L c #10a110",
".n c #2079d5",
"#R c #20aa20",
"#g c #3185de",
"#B c #31ae31",
".m c #418dde",
"#A c #41b241",
"#K c #41b641",
"#J c #4ab64a",
"#M c #52ba52",
".V c #62a1e6",
".W c #6aa1e6",
"ad c #6ac26a",
".d c #73aae6",
".6 c #73aee6",
".b c #83b2e6",
".c c #83b6ee",
"#x c #83c2b4",
"#y c #83c2bd",
"am c #83ce83",
"#0 c #83d283",
".z c #94beee",
"#T c #94d294",
"ap c #94d694",
"#n c #a4c6ee",
".M c #a4caf6",
"#2 c #a4daa4",
".a c #b4d2f6",
"#w c #b4ded5",
"#H c #b4e2b4",
"#Y c #bdd2ac",
".j c #c5daf6",
"#u c #c5deff",
"ao c #c5e6c5",
"an c #c5eac5",
".7 c #d5e2f6",
".E c #d5e6ff",
"#C c #d5eed5",
"ac c #d5f2d5",
".S c #e65d31",
"ah c #e66129",
"#5 c #e66539",
".3 c #e66939",
".# c #e6eeff",
"#t c #e6f2ff",
"#z c #e6f6e6",
"ab c #ee5529",
"#P c #ee5d20",
"aj c #ee5d29",
".R c #ee6131",
".5 c #ee6529",
"a# c #ee6531",
"al c #ee6539",
"ag c #ee6929",
".Q c #ee6931",
"#U c #ee6939",
".x c #ee6941",
"#4 c #ee6d29",
"#l c #ee6d31",
".P c #ee7139",
"#q c #ee714a",
"af c #ee754a",
".Z c #ee7941",
"#8 c #ee7952",
"#D c #ee7d5a",
".B c #ee8562",
"#m c #ee997b",
"ak c #f65018",
"#7 c #f65518",
"#6 c #f65d20",
"#X c #f65d29",
"#W c #f66120",
"#G c #f66129",
".C c #f66131",
"#O c #f66520",
"#r c #f66929",
"#s c #f66931",
"#d c #f66d31",
"#c c #f67129",
"#E c #f67531",
".T c #f67931",
"#k c #f67939",
"a. c #f67d31",
".1 c #f69173",
".0 c #f69541",
".U c #f69d83",
"ai c #f6a58b",
"#b c #f6a594",
".w c #f6ae9c",
".L c #f6b29c",
"#a c #f6baac",
"#j c #f6c2b4",
"#v c #f6f6ff",
"#S c #f6faf6",
"#Q c #f6fff6",
"aa c #ff4c18",
".4 c #ff8129",
"#N c #ff8131",
"## c #ff8d41",
"#3 c #ff9131",
"#V c #ff9531",
"#. c #ffa552",
".9 c #ffb29c",
".K c #ffbaac",
".D c #ffc6b4",
".y c #ffcec5",
"#F c #ffd2c5",
".Y c #ffd6cd",
"#e c #ffdacd",
".q c #ffdad5",
".J c #ffe2de",
"#p c #ffe6de",
"ae c #ffeee6",
".2 c #ffeeee",
".p c #fff6f6",
".v c #fffaff",
"Qt c None",
"QtQtQtQtQtQtQtQtQtQtQtQtQtQtQtQtQtQtQtQtQtQt",
"QtQtQtQtQtQtQtQtQtQtQtQt.#.a.b.c.b.c.bQtQtQt",
"QtQtQtQtQtQtQtQtQtQtQt.d.e.f.g.h.f.f.iQtQtQt",
"QtQtQtQtQtQtQtQtQtQt.j.e.k.l.m.m.n.e.oQtQtQt",
"QtQtQt.p.qQtQtQtQtQt.c.r.s.jQtQt.c.t.uQtQtQt",
"Qt.v.w.x.yQtQtQtQtQt.b.f.t.zQtQt.b.o.AQtQtQt",
"Qt.B.C.DQtQtQtQtQtQt.E.u.F.u.G.H.o.I.GQtQtQt",
"Qt.J.w.K.w.L.w.JQtQtQt.M.H.u.A.o.N.O.IQtQtQt",
"Qt.D.P.Q.R.S.T.Q.UQtQt.#.G.H.V.j.W.X.AQtQtQt",
".Y.Z.0.1Qt.2.3.4.5.JQt.6.N.A.7Qt.b.8.OQtQtQt",
".9#.###aQtQt#b#c#d#eQt#f.O#gQtQt.c#h#iQtQtQt",
"#j#k#l.JQtQt#m#c.5.q#n.A.N.MQtQt.b#o.NQtQtQt",
"Qt.J#p.p.9#q.R#r#s#e#t.j#u#vQtQt#w#x#yQtQtQt",
"Qt.v.w.x.S#q.B#r.5.qQtQtQt#zQtQt#A#B#CQtQtQt",
".v#D#E.x#FQt.9#r#G#eQtQt#H#I#J#K#L#L#J#K#K#M",
"#m#N#l.JQtQt.w#O#P.qQt#Q#B#RQtQtQtQt#S#z#T#I",
"#U#V#lQtQtQt.9#W#X#e.v#Y#ZQt#0#I#Z#I#1#MQt#2",
".Q#3#4.DQt.D#5#6#7#b#8.qQtQtQtQtQtQt#9QtQtQt",
".1a.#Na#a#.S.R#7aaab.x.2QtQtQtQtac#LadQtQtQt",
"aeafag#rahai.yajakal.JQtam#I#I#I#I#I#I#I#I#I",
"QtQt.q#e.2QtQt.J.q.pQtQtanaoanaoap#Iapaoanao",
"QtQtQtQtQtQtQtQtQtQtQtQtQtQtQtQtao#IaoQtQtQt"};
