/* XPM */
static const char * expanded[] = {
    "14 15 4 1",
    " 	c None",
    ".	c #000000",
    "+	c #C0C0C0",
    "@	c #FFFFFF",
    "              ",
    "              ",
    "              ",
    "              ",
    "              ",
    "              ",
    "              ",
    "   ...........",
    "    .+@+@+@+. ",
    "     .+@+@+.  ",
    "      .+@+.   ",
    "       .+.    ",
    "        .     ",
    "              ",
    "              "};
