/* XPM */
static const char *p_fileclose[]={
"16 16 71 2",
"#e c #181c18",
"#c c #201c20",
"#b c #202020",
"#d c #202420",
".v c #292429",
".h c #292829",
".6 c #292c29",
".a c #312c31",
".1 c #313031",
".Z c #313431",
".S c #393839",
".O c #393c39",
".u c #414041",
".w c #4a484a",
".g c #4a4c4a",
".3 c #524c52",
".f c #525052",
".e c #525552",
".x c #5a555a",
".d c #5a595a",
".G c #5a5d5a",
".c c #625d62",
".y c #626162",
".b c #626562",
".z c #6a656a",
".H c #6a696a",
".T c #6a6d6a",
".A c #736d73",
".k c #737173",
".B c #737573",
".I c #7b797b",
".l c #7b7d7b",
".C c #837d83",
".D c #838183",
".n c #838583",
".m c #8b858b",
".E c #8b898b",
".o c #8b8d8b",
".2 c #948d94",
".p c #949194",
".q c #949594",
".M c #9c959c",
".r c #9c999c",
"#. c #9c9d9c",
".s c #a4a1a4",
".X c #a4a5a4",
".# c #acaaac",
".i c #acaeac",
".N c #b4aeb4",
".Y c #b4b2b4",
".0 c #b4b6b4",
".F c #bdb6bd",
".5 c #bdbebd",
".t c #c5bec5",
".4 c #c5c2c5",
"## c #c5c6c5",
".9 c #cdc6cd",
".8 c #cdcacd",
".J c #cdcecd",
"#a c #d5ced5",
".L c #d5d6d5",
".P c #ded6de",
".j c #dedade",
".K c #dedede",
".R c #e6dee6",
".U c #e6e2e6",
".Q c #e6e6e6",
".V c #eee6ee",
".W c #eeeaee",
".7 c #eeeeee",
"Qt c #ffffff",
"Qt.#.a.b.c.d.d.e.f.f.f.g.f.h.iQt",
".#.c.j.k.l.m.n.o.o.p.q.r.s.t.u.i",
".a.j.v.w.x.d.y.z.A.B.C.D.E.o.F.h",
".y.D.w.G.G.H.H.k.I.C.D.E.o.q.#.u",
".c.l.x.y.j.J.B.I.D.D.K.L.M.r.N.O",
".d.m.e.H.PQt.K.C.D.QQt.R.M.s.#.S",
".d.n.y.T.B.KQt.U.VQt.W.r.s.X.Y.Z",
".e.o.b.k.I.C.RQtQt.V.M.s.s.i.0.1",
".f.2.A.I.D.D.VQtQt.W.s.s.#.0.t.a",
".3.p.k.C.D.QQt.V.VQt.W.#.Y.4.5.6",
".f.q.C.D.KQt.W.r.s.7Qt.7.5.8.9.v",
".w.r.C.E.Q.R.M.s.s.#.W.W.4.L.8.v",
".f#..E.p.M.r.s.s.#.Y.5###a.K.8#b",
".h.t.E.q.r.s.X.i.0.4.8.L.jQt.I.h",
".i.u.F.#.N.#.Y.0.t.4.9.9.R.I#c.Y",
"Qt.i.v.u.S.S.Z.1.6.6#d.v#e.h.YQt"};
