/* XPM */
static const char *p_filter[]={
    "18 18 63 1",
    "7 c #393c39",
    "5 c #413c41",
    "3 c #414041",
    "8 c #525552",
    "W c #5a555a",
    "N c #5a595a",
    "2 c #5a5d5a",
    "Y c #625d62",
    "I c #626562",
    "1 c #626962",
    "e c #6a696a",
    "T c #6a6d6a",
    "V c #6a716a",
    "R c #736d73",
    "d c #737573",
    "o c #7b757b",
    "f c #7b797b",
    "n c #7b7d7b",
    "G c #837d83",
    "g c #838183",
    "O c #8b858b",
    "x c #8b898b",
    "U c #8b8d8b",
    "S c #8b918b",
    "H c #948994",
    "6 c #948d94",
    "p c #949194",
    "K c #949594",
    "A c #9c999c",
    "w c #9c9d9c",
    "h c #a49da4",
    "z c #a4a1a4",
    "J c #a4a5a4",
    "q c #aca5ac",
    "c c #acaaac",
    "r c #acaeac",
    "y c #b4aeb4",
    "B c #b4b2b4",
    "s c #b4b6b4",
    "0 c #b4bab4",
    "Q c #bdb6bd",
    "L c #bdbabd",
    "m c #bdbebd",
    "F c #c5c2c5",
    "Z c #c5c6c5",
    "i c #cdcacd",
    "t c #cdcecd",
    "C c #d5ced5",
    "M c #d5d2d5",
    "b c #d5d6d5",
    "P c #ded6de",
    "v c #dedade",
    "j c #e6dee6",
    "D c #e6e2e6",
    "u c #e6e6e6",
    "k c #eeeaee",
    "a c #eeeeee",
    "4 c #f6eef6",
    "l c #f6f2f6",
    "X c #f6f6f6",
    "E c #fff6ff",
    "# c #fffaff",
    ". c None",
    ".#abcdeefghijk#...",
    "lmnopqrstuavwxyu..",
    "cnzAhqcBCD#EDFGHk.",
    "IcJAKJcLMk#abFcNFl",
    "AOcchAqsCu#uPQgRca",
    "DSTgUpwrmPvQxTVKLl",
    "#vpfxReeogpGWTAmD#",
    ".#uAcXkFwhgYeAZk#.",
    "...aA0.uyUN1wZa...",
    "....lKBkAI2wZa....",
    ".....advO3wZa.....",
    "......n4n5rk......",
    "......g#67Bl......",
    "......nXp5Bl......",
    "......ODB7Bl......",
    "......u28ULl......",
    ".......DBBD#......",
    ".......#ll#......."};
