/* XPM */
static const char *p_licq[]={
"16 16 170 2",
"#9 c #003000",
"ap c #003c00",
"aA c #004c00",
"av c #005000",
"aE c #005900",
".6 c #006500",
"#Y c #006900",
"#J c #007100",
"ag c #008500",
".M c #008d00",
"aw c #009500",
"ax c #00aa00",
"an c #00ba00",
"#l c #082808",
"aH c #083408",
"aI c #083808",
"aD c #084008",
"ar c #084408",
".2 c #085508",
"aB c #086d00",
"at c #087100",
"#v c #087500",
"#k c #087900",
"#8 c #087d00",
"am c #088500",
"#N c #088900",
"#V c #089500",
"#u c #089900",
"#t c #089d00",
"au c #08a500",
"ao c #08ae00",
"#X c #08ba00",
"#M c #103410",
".Q c #103c10",
".B c #104010",
".z c #104810",
".c c #105910",
".y c #105d10",
"ai c #106910",
".A c #106d08",
"ak c #108100",
"ad c #109500",
"## c #109900",
"#4 c #109908",
".v c #109d00",
"#j c #10aa00",
"af c #10ae00",
"#W c #10c200",
"#I c #10c600",
"#a c #183c18",
".b c #184c18",
".S c #186910",
"#1 c #187d10",
"#6 c #188908",
".X c #18ae00",
"#d c #18b200",
"#. c #18b600",
".I c #18ba00",
"#B c #18be00",
"#7 c #18ca00",
"al c #18ce00",
"as c #202820",
"aC c #202c20",
"#w c #204420",
".r c #205029",
".h c #205920",
".j c #206120",
".E c #208918",
".u c #209910",
".P c #20a510",
"#O c #20b600",
".9 c #20be00",
".1 c #20c208",
"#i c #20ce00",
"#H c #20d200",
"#G c #20d600",
"ae c #20de00",
"aJ c #293829",
".d c #294c29",
".n c #295029",
"#5 c #29b208",
".V c #29c600",
"#P c #29ce00",
".Y c #29d200",
".N c #29d600",
".8 c #29da00",
"ac c #29de00",
".5 c #315931",
"#y c #31b210",
"#A c #31d200",
".L c #31d600",
".W c #31da00",
".0 c #31e600",
".Z c #31ea00",
"#x c #395539",
"#U c #399510",
"#o c #39aa08",
"#Q c #39de00",
"#z c #39e200",
".O c #39e208",
"#3 c #39ee00",
".g c #415941",
"aa c #41b229",
"#h c #41c608",
"aj c #41ca20",
"#2 c #41e208",
".7 c #41f200",
".T c #41f600",
".K c #41fa00",
"a# c #4a594a",
"#C c #4aa108",
".s c #4ac239",
".m c #4aca39",
".H c #4af208",
"ab c #4af210",
".J c #4afa00",
".U c #4aff00",
"aF c #525552",
"#Z c #525952",
"aq c #525d52",
".k c #52e629",
".x c #52f218",
".w c #52ff00",
"#b c #5ade39",
".G c #5aff00",
"#K c #626562",
".i c #626d62",
"#c c #62ff20",
"aG c #6a6d6a",
"aM c #737173",
".F c #73ff29",
"#R c #7b9510",
"#e c #7bd210",
".t c #7bf64a",
".l c #7bff41",
"#F c #836d18",
"ah c #838183",
"#s c #838518",
"#m c #838583",
"a. c #8b898b",
"aN c #8b8d8b",
"#0 c #949194",
"az c #949594",
".3 c #9c999c",
"#T c #a47110",
".C c #a4a1a4",
".D c #a4a5a4",
"#g c #a4aa18",
".a c #a4aaa4",
"aK c #acaaac",
"aL c #b4b2b4",
"#f c #b4b618",
".4 c #b4b6b4",
".e c #b4bab4",
"#S c #c58d10",
"#L c #c5c6c5",
".f c #cdcacd",
".R c #cdcecd",
".o c #d5d6d5",
"#p c #e6be18",
".q c #e6e2e6",
".p c #eeeaee",
"#n c #f6f2f6",
"ay c #f6f6f6",
"#E c #ffce08",
"#D c #ffd618",
"#r c #ffe608",
".# c #fffaff",
"#q c #ffff00",
"Qt c None",
"QtQtQtQt.#Qt.a.b.c.d.eQtQtQtQtQt",
"QtQt.f.g.h.i.j.k.l.m.n.o.o.pQtQt",
"Qt.q.r.s.t.u.v.w.w.x.y.z.A.B.CQt",
"Qt.D.E.F.G.H.I.J.K.L.M.N.O.P.Q.R",
"Qt.f.S.T.w.U.V.W.J.X.Y.Z.0.1.2.3",
".4.5.6.X.7.w.8.9.Y#..Z.0.8###a.4",
".5#b#c.L#d.W#e#f#g#h#i#j#k#l#m#n",
".j.l.U.w.Z#o#p#q#r#s#t.v#u#v#w.f",
"#x#y#z#A#B#C#D#q#E#F#B#G#H#I#J#K",
"#L#M#N#O#P#Q#R#S#T#U#V.v#W#X#Y#Z",
"#0#1#2#3#3.Y#4#5#6#7#7#V#8#Y#9a.",
"a#aaab.Zacad#.ae#taf#I#Wag#la..q",
"ahaiaj.Yak#k#Halafam#Wanaoap.DQt",
"#naqaparasatalalauavawaxag#9.CQt",
"Qtay#L#LazaA#VauaBaCaDaE#9aF.oQt",
"QtQtQtQt.#aGaHaIaJaKaLaMaN.o.#Qt"};
