/* XPM */
static const char *p_mail_reply[]={
"18 18 171 2",
"ae c #000000",
"#6 c #080c18",
"#5 c #082039",
"#C c #082441",
"ag c #102039",
"#m c #102041",
"#T c #102441",
"#V c #103041",
"ah c #18144a",
"a. c #18184a",
"a# c #183462",
".N c #184062",
".X c #184873",
"#F c #184c73",
"#I c #185073",
"#K c #18507b",
"#j c #18598b",
"#n c #186194",
"#D c #186d94",
"#L c #1879a4",
"aj c #201452",
"ai c #201852",
"aC c #20185a",
"#x c #203473",
"#N c #20407b",
"#J c #20557b",
"#H c #20597b",
"#. c #20598b",
"#G c #205d83",
"#U c #206d9c",
"#p c #2089bd",
"#E c #2099bd",
"#c c #2099c5",
"#q c #20a1cd",
".7 c #29557b",
"#Z c #296d9c",
"#d c #2995cd",
"#o c #299dbd",
"#M c #29a1c5",
"#b c #29a5c5",
"#v c #29a5cd",
"#Y c #312829",
".W c #31597b",
"#g c #3191bd",
"#h c #3195c5",
"#e c #3199c5",
".9 c #31aacd",
"aL c #392c20",
".Z c #395d83",
"#w c #3995c5",
"#f c #3999c5",
"aE c #413029",
"aK c #413031",
"aM c #413429",
"aJ c #4a3431",
"aI c #4a3831",
"aH c #4a3c31",
".f c #524041",
"#r c #52cae6",
"aG c #5a4041",
"aF c #5a4439",
".3 c #5a4441",
".h c #5a4839",
".F c #5a4841",
"#t c #5acae6",
"#s c #5acee6",
".v c #624841",
".g c #624c4a",
".e c #624c52",
"as c #62504a",
"#i c #62bad5",
"#y c #6a5552",
"#k c #6a595a",
".0 c #6acee6",
"#u c #6ad2e6",
"## c #73615a",
".c c #736162",
"#0 c #736562",
".8 c #73d2e6",
".d c #7b6562",
"#O c #7b6962",
".a c #7b6d6a",
"aa c #836962",
".b c #83696a",
".k c #836d6a",
".# c #837173",
".Q c #8b7173",
"Qt c #947d83",
"#X c #9c9d9c",
"#9 c #a4a5a4",
"az c #ac8d73",
".G c #acaaac",
"#3 c #b4957b",
"al c #b4997b",
"aN c #b4b2b4",
"ar c #b4b6b4",
"at c #bd9973",
"ap c #bd997b",
"ab c #bd9983",
".s c #bda59c",
".w c #bdbabd",
"ao c #c5a18b",
".K c #c5a59c",
"ad c #c5aa94",
".l c #c5aa9c",
".C c #c5aaac",
".U c #c5aeac",
".m c #cdbaa4",
"au c #d5b694",
".B c #d5c2b4",
".M c #d5c2c5",
".L c #d5c6bd",
"ac c #debea4",
".V c #deceb4",
"aA c #e6caa4",
"am c #e6caac",
"aq c #e6cea4",
"#4 c #e6ceac",
".y c #e6d2b4",
"#8 c #e6d6bd",
".2 c #e6dad5",
"aO c #e6e2e6",
"aD c #e6e6e6",
"aB c #eeceac",
"af c #eed6bd",
"#W c #eed6c5",
"an c #eedabd",
"#S c #eedacd",
".P c #eedade",
".t c #eedecd",
".n c #eedede",
".u c #eee2de",
".H c #eeeeee",
"ak c #f6dabd",
"av c #f6deb4",
"ay c #f6dec5",
"#2 c #f6e2c5",
"#P c #f6e6cd",
".x c #f6e6de",
".E c #f6e6e6",
".o c #f6eade",
".T c #f6eee6",
".1 c #f6eeee",
".i c #f6f2f6",
"aw c #ffe2bd",
"ax c #ffe6bd",
"#1 c #ffe6c5",
"#z c #ffeac5",
"#a c #ffeacd",
".4 c #ffead5",
".Y c #ffeade",
".R c #ffeecd",
"#B c #ffeede",
".I c #fff2cd",
"#A c #fff2d5",
"#R c #fff2de",
".p c #fff2e6",
".J c #fff2ee",
".r c #fff2f6",
"#7 c #fff6d5",
".O c #fff6de",
".6 c #fff6e6",
".q c #fff6ee",
"#Q c #fffade",
".5 c #fffae6",
"#l c #fffaee",
".D c #fffaf6",
".A c #fffaff",
".S c #ffffee",
".z c #fffff6",
".j c None",
"Qt.#.#.a.b.c.c.d.e.f.g.h.i.j.j.j.j.j",
".k.l.m.n.o.p.q.r.s.t.u.v.w.i.j.j.j.j",
".k.x.l.y.z.q.A.B.C.D.E.F.G.H.j.j.j.j",
".k.I.J.K.L.A.M.N.O.A.P.v.G.H.j.j.j.j",
".Q.R.S.T.U.V.W.X.j.D.n.h.G.H.j.j.j.j",
".k.Y.O.q.J.Z.0.X.r.1.2.3.G.H.j.j.j.j",
".k.4.5.6.7.8.9.X#.#.#.#.#.#..i.j.j.j",
"###a.6.X.0#b#c#d#e#f#g#h#f#i#j#..i.j",
"#k#a#l#m#n#o#p#q#r#s#t#u#t#v#w#x.w.i",
"#y#z#A#B#C#D#E#F#G#H#I#J#K#L#M#N.G.H",
"#O#P#Q#R#S#T#U#V.6.6#W.F#X#Y#Z#x.G.H",
"#0#1#A#2#3#4#5#6#7.O#8.v#9a.a#a..G.H",
"aa#1#Aabac#2adae.R#Aaf.hagahaiaj.G.H",
".gakalam.I#aanaoap.Raq.vahaiah#Xar.i",
"asatauavawaxayaqazaAaB.FaC#X#9araD.j",
"aEaFaFaGaHaIaJaKaLaMaM.v#XaNaO.i.j.j",
".i.w.G.G.G.G.G.G.G.G.G.GaraD.j.j.j.j",
".j.i.H.H.H.H.H.H.H.H.H.H.i.j.j.j.j.j"};
