/* XPM */
static const char *p_mail_replylist[]={
"18 18 119 2",
"Qt c #000000",
"#o c #080c18",
"#n c #082039",
".5 c #082441",
"#x c #102039",
".T c #102041",
"#f c #102441",
"#h c #103041",
"#y c #18144a",
"#s c #18184a",
"#t c #183462",
".u c #184062",
".y c #184873",
".8 c #184c73",
"## c #185073",
"#b c #18507b",
".S c #18598b",
".U c #186194",
".6 c #186d94",
"#c c #1879a4",
"#A c #201452",
"#z c #201852",
"#O c #20185a",
".4 c #203473",
"#e c #20407b",
"#a c #20557b",
"#. c #20597b",
".J c #20598b",
".9 c #205d83",
"#g c #206d9c",
".W c #2089bd",
".7 c #2099bd",
".L c #2099c5",
".X c #20a1cd",
".G c #29557b",
"#m c #296d9c",
".M c #2995cd",
".V c #299dbd",
"#d c #29a1c5",
".K c #29a5c5",
".2 c #29a5cd",
"#l c #312829",
".x c #31597b",
".P c #3191bd",
".Q c #3195c5",
".N c #3199c5",
".I c #31aacd",
"#X c #392c20",
".A c #395d83",
".3 c #3995c5",
".O c #3999c5",
"#Q c #413029",
"#W c #413031",
"#Y c #413429",
"#V c #4a3431",
"#U c #4a3831",
"#T c #4a3c31",
".c c #524041",
".Y c #52cae6",
"#S c #5a4041",
"#R c #5a4439",
".F c #5a4441",
".e c #5a4839",
".q c #5a4841",
".0 c #5acae6",
".Z c #5acee6",
".k c #624841",
".d c #624c4a",
".b c #624c52",
"#E c #62504a",
".R c #62bad5",
".B c #6acee6",
".1 c #6ad2e6",
".H c #73d2e6",
".a c #7b6562",
".m c #948d94",
".# c #949194",
"#k c #9c9d9c",
"#r c #a4a5a4",
"#L c #ac8d73",
".r c #acaaac",
"#Z c #b4b2b4",
"#D c #b4b6b4",
"#F c #bd9973",
"#B c #bd997b",
".h c #bda59c",
".l c #bdbabd",
".n c #c5aaac",
"#G c #d5b694",
"#M c #e6caa4",
"#C c #e6cea4",
"#q c #e6d6bd",
".E c #e6dad5",
"#0 c #e6e2e6",
"#P c #e6e6e6",
"#N c #eeceac",
"#w c #eed6bd",
"#j c #eed6c5",
".w c #eedade",
".i c #eedecd",
".z c #eedede",
".j c #eee2de",
".s c #eeeeee",
"#H c #f6deb4",
"#K c #f6dec5",
".p c #f6e6e6",
".D c #f6eeee",
".f c #f6f2f6",
"#I c #ffe2bd",
"#J c #ffe6bd",
"#u c #ffeecd",
"#v c #fff2d5",
".C c #fff2f6",
"#p c #fff6d5",
".v c #fff6de",
"#i c #fff6e6",
".o c #fffaf6",
".t c #fffaff",
".g c None",
"QtQtQtQtQtQt.#.a.b.c.d.e.f.g.g.g.g.g",
"Qt.g.g.g.gQt.g.#.h.i.j.k.l.f.g.g.g.g",
"Qt.gQt.m.#QtQtQt.n.o.p.q.r.s.g.g.g.g",
"Qt.g.g.g.g.t.g.u.v.t.w.k.r.s.g.g.g.g",
"Qt.gQt.mQt.m.x.y.g.o.z.e.r.s.g.g.g.g",
"Qt.g.g.g.g.A.B.y.C.D.E.F.r.s.g.g.g.g",
"Qt.gQt.m.G.H.I.y.J.J.J.J.J.J.f.g.g.g",
"Qt.g.g.y.B.K.L.M.N.O.P.Q.O.R.S.J.f.g",
"Qt.gQt.T.U.V.W.X.Y.Z.0.1.0.2.3.4.l.f",
"Qt.g.g.g.5.6.7.8.9#.###a#b#c#d#e.r.s",
"Qt.gQt.m.##f#g#h#i#i#j.q#k#l#m.4.r.s",
"Qt.g.g.g.g.g#n#o#p.v#q.k#r#s#t#s.r.s",
"Qt.g.#.m.#.g.gQt#u#v#w.e#x#y#z#A.r.s",
"QtQtQtQtQtQtQtQt#B#u#C.k#y#z#y#k#D.f",
"#E#F#G#H#I#J#K#C#L#M#N.q#O#k#r#D#P.g",
"#Q#R#R#S#T#U#V#W#X#Y#Y.k#k#Z#0.f.g.g",
".f.l.r.r.r.r.r.r.r.r.r.r#D#P.g.g.g.g",
".g.f.s.s.s.s.s.s.s.s.s.s.f.g.g.g.g.g"};
