/* XPM */
static const char * message[] = {
"16 16 10 1",
" 	c None",
".	c #6A960E",
"+	c #527607",
"@	c #D4F689",
"#	c #DFFCA1",
"$	c #C4EE6B",
"%	c #AFDE4D",
"&	c #8BC20C",
"*	c #C4E1B3",
"=	c #585701",
"                ",
"                ",
"                ",
" .......+.++++  ",
"..@@#@@@$$$%&.+ ",
".@.*###@@@$&.&+ ",
".@$.@##@@$&.%&+ ",
".@@#.$@@$&.%%&+ ",
".$@@&.&&&.%$%&+ ",
".$$&.%...%.%%&= ",
".$&.%$$$$%%.%.+ ",
".&.%$$$%%%%%..+ ",
"..&&&&&&&&&&..+ ",
" ++++++++++=++  ",
"                ",
"                "};
