/* XPM */
static const char *occupied[]={
    "16 16 5 1",
    "# c #000000",
    "a c #808080",
    "c c #f80000",
    "b c #f8fcf8",
    ". c None",
    "................",
    "................",
    ".......#........",
    "......#a#.......",
    "......#b#.......",
    "....###b#####...",
    "..##cc#b#ccc##..",
    ".#cc###b#####c#.",
    "..##cc##bba#c#..",
    "....###bbbbb##..",
    "......#bb##b#...",
    "......#ab#bb#...",
    ".......#b###a...",
    ".......#bbb#ba..",
    ".......#abbbb#..",
    "........######.."};
