/* XPM */
static const char * occupied[] = {
"16 16 20 1",
" 	c None",
".	c #004C00",
"+	c #6B4016",
"@	c #013C01",
"#	c #7E4D06",
"$	c #7E5221",
"%	c #01D200",
"&	c #01B300",
"*	c #F6C5B5",
"=	c #00F900",
"-	c #F9EF08",
";	c #FDD31E",
">	c #5C370A",
",	c #029A00",
"'	c #D76753",
")	c #E1C4C3",
"!	c #F2B5AB",
"~	c #007D00",
"{	c #642324",
"]	c #5A1513",
"                ",
"     .+. ..@    ",
"    .#$#.%%&@   ",
"    .#*#.%=&@   ",
"  ..&#*#..&.=@@ ",
" .==&#*+-;.==&&@",
" .&&&+$++>@.&&,@",
"  ..+$'**+.=@@@ ",
" .%=+*)**$>++&,@",
" @%%+**$+!+*>&,@",
" .&&+$*>!!>*>,~@",
"  @@@+*$>>+*{@@ ",
"    @+***$*+>   ",
"    @>$****{@   ",
"     @{>>{>]    ",
"                "};
