/* XPM */
static const char *screen[]={
"16 16 5 1",
". c None",
"# c #838183",
"c c #c5c2c5",
"b c #ffff00",
"a c #ffffff",
"...#............",
"....#.....#.....",
".....#...#......",
"......#.#.......",
".aaaaaaaaaaaab..",
".a.........aab..",
".a.cccccccca.b..",
".a.ccaccacca.b..",
".a.caccacccabb..",
".a.cccaccacabb..",
".a.ccaccacca.b..",
".a.cccccccca.b..",
".a.........bbb..",
".aaaaaaaabbbbb..",
"................",
"................"};
