/* XPM */
static const char *smileE[]={
    "19 19 7 1",
    "b c #000000",
    "# c #000040",
    "d c #202000",
    "a c #c0c0ff",
    ". c None",
    "c c #ffff00",
    "e c #ffffff",
    "....##########.....",
    "..###aaaaaaaa###...",
    ".##aaabbbbbbaaa##..",
    "##aabbccccccbbaa##.",
    ".##bccccccccccb##..",
    "..###cccccccc###...",
    ".bcc##########ccb..",
    ".bccccdccccbccccb..",
    "bcccccbbcccbbccccb.",
    "bccccdebccdebccccb.",
    "bccccdeeccdeeccccb.",
    "bcccccdccccdcccccb.",
    "bccccccccccccccccb.",
    ".bccbccccccccbccb..",
    ".bcccbccccccbcccb..",
    "..bcccbbbbbbcccb...",
    "...bccccccccccb....",
    "....bbccccccbb.....",
    "......bbbbbb......."};
