/* XPM */
static const char *smileF[]={
    "19 19 6 1",
    "# c #000000",
    "c c #202000",
    "a c #c0c000",
    ". c None",
    "b c #ffff00",
    "d c #ffffff",
    "......#######......",
    "....##abbbbba##....",
    "...#abbbbbbbbba#...",
    "..#bbbbbbbbbbbbb#..",
    ".#ab####bbb####ba#.",
    ".#bc#aa##b##aa#cb#.",
    "#a#bbbbbbbbbbbbb#a#",
    "#b##bbbbbbbbbbb##b#",
    "#b#d#bbbbbbbbb#d#b#",
    "#b#d##bbbbbbb##d#b#",
    "#b#d#d#######d#d#b#",
    "#b###d#dd#dd#d###b#",
    "#a#d#d#dd#dd#d#d#a#",
    ".##d###########d##.",
    ".#a##d#dd#dd#d##a#.",
    "..#a#d#dd#dd#d#b#..",
    "...#a#########a#...",
    "....##abbbbba##....",
    "......#######......"};
