/* XPM */
static const char *userunknown[]={
    "14 11 6 1",
    ". c None",
    "# c #000080",
    "c c #808080",
    "b c #c0c0c0",
    "a c #ffff00",
    "d c #ffffff",
    ".....###.###..",
    ".###.#ab#ccd#.",
    "##cc#aaa###dd#",
    "#dd###ab#cc###",
    "###cc####cdd#d",
    "#ddd#c#cc#ddd#",
    "#dd#dc#cdd#d##",
    ".##ddd#ddd###.",
    "..#ddd#ddd#...",
    "..##d#.#d##...",
    "...##...##...."};
