/* XPM */
static const char *useroffline[]={
    "14 11 6 1",
    ". c None",
    "d c #000080",
    "# c #800000",
    "b c #c0c0c0",
    "c c #ff0000",
    "a c #ffff00",
    ".....###.###..",
    ".###.#ab#bcc#.",
    "##cb#aaa###cc#",
    "#cc###ab#bc###",
    ".##cb####ccc#.",
    "#cccdc#bc#ccc#",
    "#cc#cc#ccc#c##",
    ".##ccc#ccc###.",
    "..#ccc#ccc#...",
    "..##c#.#c##...",
    "...##...##...."};
