/* XPM */
static const char *jabber_dnd[]={
"16 16 5 1",
"# c #000000",
"b c #bfbfbf",
"a c #dedede",
"c c #ff0000",
". c None",
".......##.......",
"......#.a#......",
".....#.aaa#.....",
".....#.aaa#.....",
".####.aaaaa####.",
"#...###aaaaaabb#",
"#.a#ccc#aaaabbb#",
".##.ccc.#aabbb#.",
".#...c...#bbb#..",
"#cc......c#b#...",
"#ccc...ccc#b#...",
"#cc.....cc#bb#..",
".#...c...#bbb#..",
"..#.ccc.##bbb#..",
"...#ccc#..###...",
"....###........."};
