/* XPM */
static const char *p_key_bindings[]={
    "16 16 4 1",
    "# c #000000",
    "a c #838183",
    "b c #c5c2c5",
    ". c #ffffff",
    "....##....#a.#.#",
    "...#aa#..#a.#...",
    "..#a.#.##..#.##.",
    ".#a.#...#aa..#..",
    "#..#.##..#aa...b",
    "#aa..#..b##aa.bb",
    ".#aa...b#aa#a.b#",
    "..#aa.b#a.#.#.#.",
    "..##a.#a.#...#..",
    ".#aa##..#.##..#.",
    "#a.#.#aa..#..bb#",
    "a.#...#aa...bb#.",
    ".#.##..#aa.bb#..",
    "a..#..bb#a.b#...",
    "aa...bb#.#.#....",
    "#aa.bb#...#....."};
