/* XPM */
static const char *randomchat[]={
"16 16 5 1",
". c None",
"c c #808080",
"# c #ff0000",
"b c #ffff00",
"a c #ffffff",
"....#####abbabab",
"..###..###aababa",
".###....##..a...",
"###.....##.c.cc.",
"##.....##a.a..ac",
"......##a....aba",
".....##.abab.aab",
"....##..aaba.aba",
"...##...aaab.aab",
"..##....aaba.aaa",
"..##.##..aab...b",
"..####...a.ababa",
"..........a.....",
"..........aababa",
"...##......aabab",
"...###......aaba"};
