/* XPM */
static char *sim-16[] = {
/* columns rows colors chars-per-pixel */
"16 16 187 2",
"   c black",
".  c #000100",
"X  c #000200",
"o  c #000300",
"O  c #000400",
"+  c #000500",
"@  c #000600",
"#  c #000700",
"$  c #000900",
"%  c #000C00",
"&  c #000D00",
"*  c #000F00",
"=  c #001300",
"-  c #001A00",
";  c #001B00",
":  c #001D00",
">  c #002300",
",  c #002600",
"<  c #002700",
"1  c #002800",
"2  c #002B00",
"3  c #032804",
"4  c #002D00",
"5  c #002E00",
"6  c #002F00",
"7  c #022D02",
"8  c #003000",
"9  c #003500",
"0  c #003601",
"q  c #023502",
"w  c #033504",
"e  c #053405",
"r  c #003900",
"t  c #023B01",
"y  c #003E00",
"u  c #033E03",
"i  c #043C05",
"p  c #063C07",
"a  c #004800",
"s  c #004B00",
"d  c #004F00",
"f  c #025303",
"g  c #005700",
"h  c #0A5709",
"j  c #0E510E",
"k  c #0A5E05",
"l  c #115511",
"z  c #066206",
"x  c #006A00",
"c  c #016A00",
"v  c #036900",
"b  c #016E00",
"n  c #0A6907",
"m  c #067101",
"M  c #067300",
"N  c #057500",
"B  c #077700",
"V  c #037A00",
"C  c #10670E",
"Z  c #197C10",
"A  c #7F6B17",
"S  c #008600",
"D  c #028600",
"F  c #058600",
"G  c #068D01",
"H  c #0A8000",
"J  c #088A01",
"K  c #039500",
"L  c #059400",
"P  c #079C00",
"I  c #089400",
"U  c #089600",
"Y  c #0E9200",
"T  c #0D9801",
"R  c #0D9900",
"E  c #0E9902",
"W  c #0F9A00",
"Q  c #0C9D00",
"!  c #0D9D00",
"~  c #128806",
"^  c #01A900",
"/  c #01AB00",
"(  c #08A500",
")  c #0BA400",
"_  c #0EAA00",
"`  c #05B900",
"'  c #0AB700",
"]  c #0BBE00",
"[  c #10AB00",
"{  c #14A800",
"}  c #14AC00",
"|  c #18AE00",
" . c #1EA413",
".. c #14B200",
"X. c #17B500",
"o. c #13BA01",
"O. c #1CB400",
"+. c #18B900",
"@. c #1AB900",
"#. c #1FBD01",
"$. c #218917",
"%. c #229A14",
"&. c #39940D",
"*. c #28B108",
"=. c #2DB012",
"-. c #39A609",
";. c #3EB12A",
":. c #11C300",
">. c #11C400",
",. c #16C600",
"<. c #16C700",
"1. c #15CB00",
"2. c #18CC01",
"3. c #19CF00",
"4. c #1ACE00",
"5. c #1ECD00",
"6. c #1FD500",
"7. c #1EDA00",
"8. c #23C100",
"9. c #24C20C",
"0. c #20CA00",
"q. c #27CD00",
"w. c #26D000",
"e. c #27D001",
"r. c #27D200",
"t. c #27D800",
"y. c #29D000",
"u. c #28D103",
"i. c #2CD201",
"p. c #2FD100",
"a. c #2FD400",
"s. c #2AD900",
"d. c #2FDA00",
"f. c #2CDD00",
"g. c #3EC407",
"h. c #3AC81E",
"j. c #30DA00",
"k. c #35DC02",
"l. c #2FE200",
"z. c #2FE400",
"x. c #31E700",
"c. c #37E000",
"v. c #34E800",
"b. c #35E800",
"n. c #35E900",
"m. c #36EA00",
"M. c #39E008",
"N. c #38E10E",
"B. c #39ED00",
"V. c #46A20C",
"C. c #7D8417",
"Z. c #7F9617",
"A. c #4BC037",
"S. c #49C733",
"D. c #5DDC3C",
"F. c #45EE04",
"G. c #43F502",
"H. c #42F700",
"J. c #44F300",
"K. c #47FB00",
"L. c #48F800",
"P. c #49FF00",
"I. c #4BFF00",
"U. c #4CFF00",
"Y. c #4EFF02",
"T. c #48F211",
"R. c #52EF1B",
"E. c #50FF00",
"W. c #59FF04",
"Q. c #5EFF1B",
"!. c #4CE224",
"~. c #73CD10",
"^. c #6CFF27",
"/. c #74F147",
"(. c #7BFF41",
"). c #7CFF45",
"_. c #A57315",
"`. c #9AA817",
"'. c #B2B517",
"]. c #C28C12",
"[. c #E1BF18",
"{. c #FFCB03",
"}. c #F3D113",
"|. c #FFE60A",
" X c yellow",
".X c #FFFF02",
"XX c None",
/* pixels */
"XXXXXX    XX@ p j 7   XXXXXXXXXX",
"XXXX  : p * a !.).S.8       XXXX",
"XX  0 A./.%.W U.U.R.h r n 0   XX",
"XX  $.^.W.F.@.L.K.i.G r.N. .7   ",
"XX  k G.E.U.8.j.H.| y.b.z.9.f   ",
"  e z } J.U.s.#.r...b.l.t.E <   ",
"w D.Q.a.| d.~.'.`.g.5.{ N >     ",
"l (.P.P.b.-.[..X|.C.P ! E M <   ",
"3 =.c.i.@.V.}..X{.A o.6.3.:.b @ ",
"  2 J O.q.k.Z.]._.&.I ! :.' x @ ",
"@ Z M.B.b.r.E *.~ ,.,.I V x 2   ",
"; ;.T.z.f.Y +.7.! _ :.] D ;     ",
"  C h.y.H B 5.2.[ F ] ` / y   XX",
"  * p r * M 2.1.) d K / D 7   XX",
"XX        a K ) x * 0 g 8     XX",
"XXXXXXXX  $ < 7 =             XX"
};
