/* XPM */
static const char *msn_offline[]={
"16 16 69 2",
".# c #020202",
".o c #030303",
".a c #040404",
".e c #050505",
".d c #060606",
".q c #090909",
".j c #101010",
".i c #141414",
".I c #151515",
".n c #161616",
".b c #171717",
".P c #202020",
".7 c #212121",
"#b c #222222",
".1 c #232323",
".p c #252525",
".O c #272727",
".W c #282828",
".S c #2e2e2e",
".V c #2f2f2f",
".t c #313131",
".c c #323232",
".M c #333333",
".Y c #343434",
".v c #353535",
".x c #393939",
".R c #3e3e3e",
".H c #3f3f3f",
".f c #464646",
".w c #474747",
".k c #494949",
".h c #4b4b4b",
"#c c #505050",
".X c #535353",
"## c #545454",
".m c #585858",
".L c #5a5a5a",
".K c #5d5d5d",
".A c #5e5e5e",
"#. c #5f5f5f",
".N c #606060",
".B c #616161",
".u c #626262",
".2 c #646464",
".D c #666666",
".g c #6a6a6a",
".r c #6b6b6b",
".J c #6d6d6d",
".C c #707070",
".Q c #727272",
".3 c #737373",
".s c #747474",
".l c #767676",
".4 c #777777",
".5 c #797979",
".y c #818181",
".G c #888888",
".Z c #898989",
".z c #979797",
".E c #989898",
".9 c #999999",
".8 c #9c9c9c",
".T c #a4a4a4",
".F c #a6a6a6",
"#a c #a9a9a9",
".U c #adadad",
".6 c #b5b5b5",
".0 c #c4c4c4",
"Qt c None",
"QtQtQtQtQtQtQtQtQtQtQt.#.#.#.#Qt",
"QtQtQtQtQtQtQtQtQtQt.a.b.c.c.d.#",
"Qt.#.#QtQtQtQtQtQt.e.f.g.g.g.h.a",
".a.i.j.a.#QtQtQt.a.k.g.g.g.g.g.a",
".a.l.l.m.n.a.o.o.p.g.g.g.g.g.g.q",
".a.r.l.l.s.t.a.d.u.g.g.g.g.g.g.a",
".o.v.l.l.l.l.w.x.y.z.z.z.y.g.A.a",
"Qt.e.B.l.l.C.D.t.E.F.F.F.F.G.H.a",
"Qt.o.I.J.l.K.L.M.N.F.F.F.F.F.O.#",
"QtQt.o.P.Q.L.L.R.S.T.F.F.F.U.V.#",
"QtQtQt.a.W.L.L.X.Y.Z.U.F.U.0.1.#",
"QtQtQtQt.a.2.3.4.J.5.0.0.0.6.eQt",
"QtQtQtQt.#.7.8.8.8.9.0.0.0#..oQt",
"QtQtQtQtQt.a.R.8.8.t###a.3.eQtQt",
"QtQtQtQtQtQt.a#b#c.e.o.a.aQtQtQt",
"QtQtQtQtQtQtQt.#.#.#QtQtQtQtQtQt"};
