/* XPM */
static const char *nosound[]={
"16 16 9 1",
"c c #000000",
"f c #008000",
"g c #800080",
"e c #808000",
"a c #808080",
"d c #c0c0c0",
". c #ff0000",
"b c #ffff00",
"# c None",
"#.########a#####",
"...#####bacd##e#",
"#...###bbcdd#ef#",
"##...cbbaaddcce#",
"##c...b#cd#ddcf#",
"##cc...bcd##dce#",
"##e#d...cc##dce#",
"##ebdb...dc#dce#",
"##ebd#b...c#dcf#",
"##aeab#b...#dce#",
"##ceceb#c...dce#",
"##cbbaebcd...ce#",
"##cbbbaeaa#...f#",
"##ccccccecdd...#",
"##efefeecedae...",
"#########gc###.#"};
