/* XPM */
static const char *ffc[]={
"16 16 9 1",
"d c #000000",
"f c #585701",
"e c #5c370a",
"a c #6b4016",
"# c #7e4d06",
"g c #e3b422",
"b c #f9ef08",
"c c #fdd31e",
". c None",
"................",
"................",
"................",
"......##a#a.....",
".....#bbbbca....",
"....#bddbddce...",
"....#bddbddce...",
"....#bbbbbcce...",
"....abdbbcdce...",
"....fccdddcge...",
".....accccga....",
"......eeeee.....",
"................",
"................",
"................",
"................"};
