/* XPM */
static const char * smileE[] = {
"21 21 224 2",
"  	c None",
". 	c #BBB9B5",
"+ 	c #B7B5B2",
"@ 	c #B5B3B0",
"# 	c #B3B2AF",
"$ 	c #B2B1AF",
"% 	c #B4B2AF",
"& 	c #B6B4B0",
"* 	c #BAB8B4",
"= 	c #E7E5E3",
"- 	c #DEDCD9",
"; 	c #A9A9A8",
"> 	c #B6B6B6",
", 	c #BABABA",
"' 	c #E3E3E3",
") 	c #E4E4E3",
"! 	c #E5E5E1",
"~ 	c #E6E5E1",
"{ 	c #E5E4E2",
"] 	c #E4E4E4",
"^ 	c #B9B9B9",
"/ 	c #B3B3B3",
"( 	c #A6A6A5",
"_ 	c #C2BFBA",
": 	c #EFEEEC",
"< 	c #B5B3AE",
"[ 	c #AAA794",
"} 	c #B9B16A",
"| 	c #C7BC58",
"1 	c #CDC058",
"2 	c #CDBF58",
"3 	c #CABB58",
"4 	c #C1B362",
"5 	c #B2A87B",
"6 	c #ACA9A1",
"7 	c #B4B2AD",
"8 	c #CDC677",
"9 	c #E0D227",
"0 	c #EEDC27",
"a 	c #F4E12D",
"b 	c #F8E132",
"c 	c #F7DF33",
"d 	c #F4DA33",
"e 	c #EDD237",
"f 	c #E3C835",
"g 	c #D4BB44",
"h 	c #CFC6A6",
"i 	c #CFC76F",
"j 	c #E8DB21",
"k 	c #F6E727",
"l 	c #FFEC2B",
"m 	c #FFEF30",
"n 	c #FFEF35",
"o 	c #FFEC35",
"p 	c #FFE737",
"q 	c #FDE03A",
"r 	c #F4D638",
"s 	c #E8CA3A",
"t 	c #D6BA3D",
"u 	c #CFC6A8",
"v 	c #CDC89B",
"w 	c #E6D920",
"x 	c #F9EB23",
"y 	c #FFF32B",
"z 	c #FFF62D",
"A 	c #FFF832",
"B 	c #FFF837",
"C 	c #FFF438",
"D 	c #FFF03A",
"E 	c #FFE93D",
"F 	c #FFDF3B",
"G 	c #F5D43D",
"H 	c #E6C63D",
"I 	c #D2B649",
"J 	c #D9D03E",
"K 	c #F5E821",
"L 	c #FFF425",
"M 	c #FFFB2D",
"N 	c #55540F",
"O 	c #555511",
"P 	c #FFFE38",
"Q 	c #FFFB3A",
"R 	c #FFF63B",
"S 	c #554F14",
"T 	c #554C14",
"U 	c #FDDC3E",
"V 	c #F0CF3E",
"W 	c #DFBD3B",
"X 	c #CDBD85",
"Y 	c #CECAAC",
"Z 	c #E9DD1D",
"` 	c #FEF021",
" .	c #FFFB27",
"..	c #55550F",
"+.	c #FFFFFF",
"@.	c #555515",
"#.	c #FFFF41",
"$.	c #555314",
"%.	c #554E14",
"&.	c #554A15",
"*.	c #F6D440",
"=.	c #E6C43D",
"-.	c #CFB451",
";.	c #D0CA83",
">.	c #EFE41F",
",.	c #FFF423",
"'.	c #FFFE27",
").	c #555525",
"!.	c #FFFF7A",
"~.	c #55551C",
"{.	c #554B15",
"].	c #F9D641",
"^.	c #EAC83E",
"/.	c #D4B43A",
"(.	c #D3CC72",
"_.	c #F2E71F",
":.	c #FFF623",
"<.	c #FFFF27",
"[.	c #FFFF2E",
"}.	c #555510",
"|.	c #55551F",
"1.	c #FFFFB9",
"2.	c #FFFFD0",
"3.	c #FFFF78",
"4.	c #555317",
"5.	c #554F15",
"6.	c #FFE341",
"7.	c #FAD741",
"8.	c #EBC83E",
"9.	c #D7B63A",
"0.	c #D3CCB7",
"a.	c #D3CC76",
"b.	c #F1E61F",
"c.	c #FFF523",
"d.	c #FFFF2D",
"e.	c #FFFF32",
"f.	c #FFFF58",
"g.	c #FFFFAA",
"h.	c #FFFFC2",
"i.	c #FFFF6C",
"j.	c #FFF744",
"k.	c #FFEC40",
"l.	c #D6B53A",
"m.	c #E6E2D8",
"n.	c #D1CC91",
"o.	c #EDE21F",
"p.	c #FFF221",
"q.	c #FFFF3E",
"r.	c #FFFF5C",
"s.	c #FFFF61",
"t.	c #FFFF49",
"u.	c #FFF23E",
"v.	c #FFE93E",
"w.	c #FFE040",
"x.	c #E7C53D",
"y.	c #D2B23D",
"z.	c #E4DA22",
"A.	c #F9EB21",
"B.	c #FFF625",
"C.	c #FFFC2D",
"D.	c #363509",
"E.	c #FFFF33",
"F.	c #FFFE3A",
"G.	c #FFFB3D",
"H.	c #FFF53B",
"I.	c #FFEE3E",
"J.	c #36300C",
"K.	c #FDDB3E",
"L.	c #F1CF3E",
"M.	c #E1C03B",
"N.	c #CDB663",
"O.	c #D6CE60",
"P.	c #F0E31F",
"Q.	c #FDEF25",
"R.	c #FFF52B",
"S.	c #FFF72D",
"T.	c #36340A",
"U.	c #36340B",
"V.	c #36330B",
"W.	c #36320C",
"X.	c #36310C",
"Y.	c #F5D53D",
"Z.	c #E8C83D",
"`.	c #D7B738",
" +	c #CEC3A0",
".+	c #DFD42D",
"++	c #F1E323",
"@+	c #FBEB29",
"#+	c #FFEE2B",
"$+	c #FFF030",
"%+	c #FFE738",
"&+	c #F6D73A",
"*+	c #EBCC3A",
"=+	c #DDBE3A",
"-+	c #CDB867",
";+	c #D2CCA4",
">+	c #E0D32A",
",+	c #EDDE27",
"'+	c #F5E229",
")+	c #F9E52E",
"!+	c #FBE432",
"~+	c #F9E133",
"{+	c #F6DD35",
"]+	c #F1D637",
"^+	c #E9CC37",
"/+	c #DDC037",
"(+	c #CEB858",
"_+	c #D2CDAF",
":+	c #D7CC4A",
"<+	c #E3D225",
"[+	c #E9D62B",
"}+	c #EBD62E",
"|+	c #EBD430",
"1+	c #E7CF32",
"2+	c #E1C833",
"3+	c #D7BD34",
"4+	c #CEBE73",
"5+	c #D1CA9E",
"6+	c #D2C76D",
"7+	c #D5C654",
"8+	c #D5C44B",
"9+	c #D2C25B",
"0+	c #CFC27E",
"a+	c #E6E3D8",
"                                          ",
"          . + @ # # # $ $ % & * =         ",
"    - ; > , ' ' ) ! ~ { ] ' ' ^ / ( _     ",
"        : < [ } | 1 2 3 4 5 6 7 =         ",
"          8 9 0 a b c d e f g h           ",
"        i j k l m n o p q r s t u         ",
"      v w x y z A B C D E F G H I         ",
"      J K L M N O P Q R S T U V W X       ",
"    Y Z `  ...+.O @.#.$.+.%.&.*.=.-.      ",
"    ;.>.,.'...+.+.).!.~.+.+.{.].^./.      ",
"    (._.:.<.[.}.|.1.2.3.4.5.6.7.8.9.0.    ",
"    a.b.c.<.d.e.f.g.h.i.j.k.6.].^.l.m.    ",
"    n.o.p. .d.[.q.r.s.t.u.v.w.*.x.y.      ",
"      z.A.B.C.D.E.F.G.H.I.J.K.L.M.N.      ",
"      O.P.Q.R.S.T.U.V.W.X.F Y.Z.`. +      ",
"        .+++@+#+$+n o %+q &+*+=+-+        ",
"        ;+>+,+'+)+!+~+{+]+^+/+(+          ",
"          _+:+<+[+}+|+1+2+3+4+            ",
"              5+6+7+8+9+0+a+              ",
"                                          ",
"                                          "};
