/* XPM */
static const char *misc[]={
    "16 16 11 1",
    "a c #000000",
    "d c #000080",
    "g c #0000ff",
    "i c #00ff00",
    "b c #808000",
    "# c #808080",
    "h c #c0c0c0",
    "f c #ff0000",
    ". c None",
    "c c #ffff00",
    "e c #ffffff",
    "..........aa....",
    ".........aea....",
    "........aeca....",
    "........acea....",
    "........aeca....",
    "........acea....",
    "...aaaaaaeca....",
    "..aecbcaececa...",
    "..aaaaacececa...",
    "..aecbcaececa...",
    "..aaaaaececca...",
    "..afcbcaececa...",
    "..aaabaaececa...",
    "...accaececa....",
    "....aaaaaaa.....",
    "................"};
