/* XPM */
static const char *contacts[]={
    "16 16 6 1",
    ". c None",
    "# c #000000",
    "a c #808080",
    "b c #ff0000",
    "d c #ffff00",
    "c c #ffffff",
    ".##########.....",
    ".#..a.a.a.#....b",
    ".##########...bb",
    ".#cdcdcdcd#..bbb",
    ".#dcdcdcdc#.bbbb",
    ".#c#c####d#..bbb",
    ".#dcdcdcdc#...bb",
    ".#c#c####d#....b",
    ".#dcddcdcd#.b...",
    ".#c#c####c#.bb..",
    ".#dcdcdcdd#bbbb.",
    ".#c#c####d#bbbbb",
    ".#dcdcdcdc#bbbb.",
    ".##########.bb..",
    ".#dc#cdcdc#.b...",
    ".##########....."};
