/* XPM */
static char * encrypted_xpm[] = {
"16 16 129 2",
"  	c None",
". 	c #000000",
"+ 	c #000100",
"@ 	c #000300",
"# 	c #060500",
"$ 	c #080900",
"% 	c #0E0C00",
"& 	c #0F0E00",
"* 	c #0E0F00",
"= 	c #0D0D00",
"- 	c #0A0900",
"; 	c #080700",
"> 	c #070700",
", 	c #010200",
"' 	c #030300",
") 	c #040500",
"! 	c #040600",
"~ 	c #060600",
"{ 	c #040300",
"] 	c #0E0E00",
"^ 	c #030200",
"/ 	c #060300",
"( 	c #0B0A00",
"_ 	c #0A0B00",
": 	c #74754D",
"< 	c #FEFFFF",
"[ 	c #FEFEFF",
"} 	c #FCFDFF",
"| 	c #A5A4B2",
"1 	c #A7A6A1",
"2 	c #070500",
"3 	c #707169",
"4 	c #373828",
"5 	c #00000B",
"6 	c #6D6D89",
"7 	c #A5A2BF",
"8 	c #040200",
"9 	c #0A0A00",
"0 	c #080800",
"a 	c #6D6F7E",
"b 	c #FAFBFF",
"c 	c #010300",
"d 	c #1D1D37",
"e 	c #A2A1CD",
"f 	c #010000",
"g 	c #111100",
"h 	c #6C6D8C",
"i 	c #F9FAFF",
"j 	c #353442",
"k 	c #0E0D00",
"l 	c #767642",
"m 	c #6F7068",
"n 	c #A0A2CB",
"o 	c #6A6B97",
"p 	c #35363B",
"q 	c #36382D",
"r 	c #363636",
"s 	c #6D6E82",
"t 	c #6A6A9E",
"u 	c #333251",
"v 	c #3A3B0F",
"w 	c #0B0B00",
"x 	c #111000",
"y 	c #6D6D85",
"z 	c #A0A0D6",
"A 	c #F9FCFF",
"B 	c #F8FBFF",
"C 	c #A0A0E0",
"D 	c #303064",
"E 	c #34343E",
"F 	c #6969A7",
"G 	c #9C9CF2",
"H 	c #F9F9FF",
"I 	c #6A6C93",
"J 	c #686AA3",
"K 	c #666AAA",
"L 	c #6669AC",
"M 	c #6868B0",
"N 	c #2F2F6D",
"O 	c #323256",
"P 	c #030400",
"Q 	c #161600",
"R 	c #9C9CF6",
"S 	c #F8F8FF",
"T 	c #9FA0D8",
"U 	c #9C9DED",
"V 	c #9A9BF5",
"W 	c #9B9CF6",
"X 	c #9B9DF2",
"Y 	c #9C9EEB",
"Z 	c #9C9BF8",
"` 	c #F8F7FF",
" .	c #6968AE",
"..	c #6665C2",
"+.	c #6564CC",
"@.	c #6365CA",
"#.	c #6565C5",
"$.	c #6667B9",
"%.	c #9C9AFB",
"&.	c #F7F6FF",
"*.	c #9E9DEB",
"=.	c #9B99FA",
"-.	c #9B9AFF",
";.	c #999BFF",
">.	c #9B9BFB",
",.	c #9E9CEF",
"'.	c #302E6D",
").	c #6C6C92",
"!.	c #9F9FDF",
"~.	c #6968AC",
"{.	c #6867B7",
"].	c #6667BA",
"^.	c #6667B7",
"/.	c #6868B2",
"(.	c #32315D",
"_.	c #343343",
":.	c #040400",
"<.	c #33334B",
"[.	c #323159",
"}.	c #32315B",
"|.	c #323258",
"1.	c #1C1D3B",
"2.	c #000013",
"3.	c #000004",
"4.	c #000005",
"5.	c #000015",
"6.	c #000017",
"7.	c #00000E",
"8.	c #000007",
". . + @ # $ % & * = - ; > # , . ",
", ' ) ! ~ . . . . . . ; . . { , ",
"# . ] . . . . , , ^ / . ( . > # ",
"> _ . . : < < [ } | 1 2 . . . > ",
"> . ] . 3 } 4 , 5 6 7 8 . . _ > ",
"$ 9 . 0 a b c . . d e f . g . $ ",
"= . . . h i , . . j e 5 . . k . ",
"= . l m n o p q r s t u v w . x ",
"$ . y z i A A A A B C D E ~ . . ",
"> . F G H I J K K L M N O P . Q ",
"> ^ F R S T U V W X Y N O P . . ",
"> . F Z `  ...+.@.#.$.N O P . Q ",
"> ^ F %.&.*.=.-.;.>.,.'.O P . . ",
"# . ).C !.~.{.].^./.F (._.:.. x ",
", , . r <.[.(.}.|.1.2.3.' . # # ",
". , :.P 4.5.6.2.7.8.3., # # , . "};
