/* XPM */
static const char *p_help[]={
"22 22 210 2",
"a7 c #1a64f9",
"ap c #1a64fb",
"ah c #1a64fd",
"#7 c #1a65fe",
"#X c #1b66ff",
"bp c #1c67ff",
"#O c #1d67ff",
"aJ c #1e67fb",
"#B c #1e68ff",
"bo c #2269f8",
"#. c #266dff",
".N c #276eff",
"aU c #2a6ef8",
"bg c #2a6ffc",
"ay c #2a6ffd",
".z c #2a70ff",
"bf c #3071f4",
".X c #3174fc",
"az c #3174fe",
"a6 c #3273f6",
".m c #3275fe",
".d c #3276ff",
"#m c #3375fc",
".c c #3376ff",
"#Y c #3577ff",
".b c #3678ff",
"#P c #3778ff",
".y c #3878fb",
"aK c #3879fb",
".a c #3879ff",
"a8 c #3978f9",
".# c #397aff",
".n c #3b7cff",
"aq c #3c7bfe",
"#A c #3c7cff",
".e c #3c7dff",
"bn c #3d7af5",
"aV c #3d7bfa",
".o c #3f7eff",
".M c #417ef9",
"bh c #427ef8",
"## c #4582fe",
".A c #4683fe",
"#N c #4784ff",
".l c #4883fc",
".f c #4884fe",
"ag c #4885ff",
"aI c #4984fc",
"#W c #4f89ff",
"aA c #528afd",
"#8 c #528bff",
"#n c #548cfe",
"#M c #548dff",
"#6 c #558dff",
"af c #5890ff",
"ae c #5990ff",
"ax c #5a90fe",
"ao c #5b91ff",
"ar c #5c91fe",
"ak c #5c91ff",
"#z c #5c92fe",
"aj c #5c92ff",
"ai c #5d92ff",
"#C c #5e93fe",
"#Z c #5f93fc",
".Y c #5f93fd",
"be c #6092f7",
"a# c #6094fe",
"as c #6094ff",
"#5 c #6195fd",
"a. c #6196ff",
".g c #6295fe",
"#9 c #6296ff",
"a9 c #6495f8",
"#V c #6497fd",
".9 c #6697fc",
"#Q c #6698fc",
"#y c #6698fe",
"bm c #6793ed",
"aT c #6796f7",
"ad c #6799fd",
".p c #6899fd",
"bi c #6a96ef",
"aB c #6a9bff",
"aL c #6b99f8",
"aD c #6b9bff",
"aC c #6b9cff",
"aw c #6e9dff",
"#1 c #6f9eff",
"#0 c #6f9fff",
"a5 c #709df6",
"aE c #709df8",
"aW c #729ef6",
".x c #729ffb",
"at c #73a0fd",
"aO c #75a2fe",
"aM c #75a3ff",
"aN c #76a3ff",
"#2 c #77a1f6",
"aS c #77a4ff",
"aH c #79a5fe",
"#x c #7ea7fc",
"aX c #7ea9fe",
".O c #7fa9fd",
"aZ c #7fa9fe",
"aY c #7faaff",
"a4 c #80abff",
"bl c #82a7f2",
".h c #82aafc",
"#R c #82acff",
"bj c #83a7f3",
"#l c #83aaf9",
".k c #83abfc",
"#S c #85a9f0",
"aa c #86acf8",
"bd c #87acf8",
"b. c #87adfa",
"al c #88adfa",
"#a c #8ab0fd",
".B c #8bb0fa",
"bk c #8bb0fc",
"an c #8bb1ff",
"b# c #8cb2ff",
"#D c #90b4ff",
"ba c #90b5ff",
"#E c #91b5ff",
"#F c #93b7ff",
".W c #94b4f6",
"bc c #94b7ff",
"#o c #96b8fe",
".i c #9bb9f9",
"#u c #9db9f1",
".L c #9dbaf6",
".j c #9dbbf9",
"#I c #9ebaf4",
"#H c #9ebeff",
"aP c #a0bbf3",
"#p c #a2c0ff",
"a0 c #a6c1fa",
"#k c #a7c4fe",
"#L c #a8c4fc",
"#t c #a9c5ff",
"#G c #aac6ff",
"#g c #acc6fb",
"aF c #adc5f4",
".q c #adc8fd",
"aG c #afc6f6",
"bb c #afc9ff",
"#b c #b0caff",
"#c c #b1caff",
"#f c #b1cbff",
"av c #b3ccff",
".Z c #b4cdfe",
"aR c #b4cdff",
"a3 c #b6ceff",
"#j c #b7cfff",
".1 c #b9cef7",
".8 c #b9d1fe",
"#4 c #bad0fc",
"#q c #bcd1fc",
"au c #bcd2fd",
".w c #c0d3fa",
".0 c #c2d7ff",
"#d c #c4d5f8",
"ac c #c7d9fd",
"#U c #c8d9fc",
".R c #c9d8f6",
".P c #cbdcfe",
".U c #ccdcfa",
".C c #ccddfe",
".E c #cddbf7",
".Q c #cdddfd",
".4 c #cddeff",
".I c #cfdcf7",
".V c #cfdfff",
"#e c #d0e0ff",
".K c #d2e1fe",
"#3 c #d4dff6",
".u c #d4e0f8",
".J c #d4e1fa",
".3 c #d4e2ff",
".D c #d5e2fc",
".t c #d6e1f7",
".r c #d6e3fd",
"#J c #d8e2f5",
".F c #dce5f9",
".v c #dde8fe",
"#T c #e0e8f8",
".5 c #e1ebff",
".s c #e4ecfc",
".7 c #e6eefd",
"#w c #e8effe",
"#h c #e9eff9",
".T c #ebf1fb",
"ab c #eef1f9",
"am c #f1f4fb",
"#v c #f2f5fb",
"#s c #f2f6ff",
"#i c #f3f7ff",
".2 c #f4f8ff",
".S c #f6f8fd",
".H c #f6f9fd",
"a1 c #f6f9ff",
".G c #f7f9fd",
"a2 c #f9fbff",
"aQ c #fafbfd",
"#r c #fbfcff",
".6 c #fdfeff",
"#K c #fefeff",
"Qt c None",
"QtQtQtQtQtQtQtQtQtQtQtQtQtQtQtQtQtQtQtQtQtQt",
"QtQtQtQtQtQtQtQt.#.a.a.b.c.dQtQtQtQtQtQtQtQt",
"QtQtQtQtQtQt.e.f.g.h.i.j.k.g.l.mQtQtQtQtQtQt",
"QtQtQtQt.n.o.p.q.r.s.t.u.u.v.w.x.y.zQtQtQtQt",
"QtQtQt.n.A.B.C.D.E.F.G.H.H.I.J.K.L.M.NQtQtQt",
"QtQtQt.o.O.P.Q.R.SQtQtQtQtQt.T.U.V.W.XQtQtQt",
"QtQt.e.Y.Z.0.1.GQt.2.3.4.5.6Qt.7.0.8.9#.QtQt",
"QtQt###a#b#c#dQt.6#e#f#c#g#hQt#i#j#k#l#mQtQt",
"Qt.##n#o#p#p#q#r#s#t#p#p#u#vQt#w#x#y#z#A#BQt",
"Qt.a#C#D#E#E#F#G#H#E#E#I#J#K.6#L#M#M#M#N#OQt",
"Qt#P#Q#R#R#R#R#R#R#R#S#T#K.6#U#V#M#M#M#W#XQt",
"Qt#Y#Z#0#1#1#1#1#1#2#3Qt#r#4#5#6#6#6#6#W#7Qt",
"Qt.c#8#9#9#9#9a.a#aaabQtacadaeafafaeafagahQt",
"Qt.d#Nai#Caiajakakalam#sanakaoaoaoaoao.#apQt",
"QtQtaqarasasasasasatauavawasasasasasaxayQtQt",
"QtQtazaAaBaCaCaCaDaEaFaGaHaCaCaCaCaBaIaJQtQt",
"QtQtQtaKaLaMaNaNaOaPaQ#KaRaSaNaNaMaTaUQtQtQt",
"QtQtQt.zaVaWaXaYaZa0a1a2a3a4aYaXa5a6a7QtQtQt",
"QtQtQtQt#.a8a9b.b#babbaRbcb#bdbebfa7QtQtQtQt",
"QtQtQtQtQtQtbgbhbibjbkbkblbmbnboQtQtQtQtQtQt",
"QtQtQtQtQtQtQtQt#Bbp#X#7ahapQtQtQtQtQtQtQtQt",
"QtQtQtQtQtQtQtQtQtQtQtQtQtQtQtQtQtQtQtQtQtQt"};
