/* XPM */
static const char *b_licq[]={
"48 48 350 2",
".g c #000000",
"dz c #000400",
".W c #000800",
"#A c #000c00",
".V c #001000",
".m c #001400",
".Y c #001800",
"#b c #001c00",
"#s c #002000",
".h c #002400",
"bz c #002800",
"cW c #002c00",
"cO c #003000",
".r c #003400",
"#. c #003800",
"c5 c #003c00",
"#H c #004000",
"du c #004400",
".R c #004800",
"#c c #004c00",
"cc c #005000",
"#B c #005500",
".C c #005900",
".n c #005d00",
"b3 c #006100",
"aT c #006500",
"by c #006900",
".J c #006d00",
"#T c #007100",
"#m c #007500",
".q c #007900",
"ac c #007d00",
".8 c #008100",
"#F c #008500",
".w c #008900",
"## c #008d00",
".p c #009100",
".o c #009500",
"dw c #00a100",
"ds c #00ae00",
"dk c #00b200",
"dd c #00b600",
"aE c #080808",
".i c #080c08",
"a4 c #081008",
"dj c #086900",
"dv c #087100",
"cB c #087500",
"bx c #087d00",
"dx c #087d08",
"cZ c #088100",
"ay c #088108",
"c8 c #088500",
"cP c #088508",
"aS c #088900",
"ab c #088908",
"bf c #088d00",
"dt c #088d08",
"aJ c #089100",
"b2 c #089500",
"ah c #089900",
".B c #089908",
"bw c #089d00",
"#n c #08a100",
"de c #08ae00",
"cM c #08b200",
"cV c #08b600",
"c9 c #08ba00",
"cq c #08be00",
"c0 c #101010",
"#r c #101410",
"cR c #106d00",
"dg c #108510",
"c1 c #108908",
"aL c #109108",
"#E c #109110",
"a3 c #109500",
"bn c #109900",
"aM c #109908",
"aI c #109d00",
".7 c #109d10",
"am c #10a100",
"aQ c #10a108",
"#N c #10a500",
"ao c #10aa00",
"#z c #10ae00",
"dc c #10ba00",
"cC c #10be00",
"b1 c #10c200",
"b0 c #10c600",
"at c #181818",
".G c #181c18",
"cX c #188d10",
"#C c #189910",
"dr c #18a100",
"#u c #18a110",
"cd c #18a500",
"aB c #18aa00",
"al c #18ae00",
"aA c #18b200",
"cL c #18b600",
"#7 c #18ba00",
"a2 c #18be00",
"cp c #18c200",
"bN c #18c600",
"bM c #18ca00",
"bZ c #18ce00",
".S c #202020",
"d. c #202420",
"#4 c #209918",
"ax c #20a110",
"aq c #20a510",
"cb c #20aa08",
"ag c #20b600",
"ce c #20ba00",
"cf c #20be00",
"#9 c #20c200",
"#X c #20c600",
"aD c #20ca00",
"bL c #20ce00",
"bK c #20d200",
"aC c #20d600",
"cr c #292829",
".l c #292c29",
"do c #299118",
"dl c #299520",
"#D c #299d18",
"#S c #29a120",
"aa c #29a520",
"#a c #29aa20",
"#L c #29b610",
"av c #29c600",
"#8 c #29ca00",
"bq c #29ce00",
"an c #29d200",
"aK c #29d208",
"aj c #29d600",
"ap c #29da00",
"a. c #29de00",
"cD c #313031",
"ak c #313431",
".Z c #31ba18",
"a# c #31c218",
"bg c #31c600",
"cQ c #31c610",
"au c #31d200",
"ct c #31d600",
"aR c #31da00",
"ai c #31de00",
"#1 c #31e200",
"#Z c #31e600",
"#V c #393839",
"#G c #393c39",
"a1 c #398d08",
"cU c #399908",
"cA c #399d08",
"bm c #39a108",
"#3 c #39ae29",
"bY c #39b208",
".x c #39b629",
"aP c #39c218",
"dq c #39c618",
"#2 c #39d218",
"#O c #39da08",
"#P c #39da10",
"b7 c #39de00",
"bD c #39e200",
"#0 c #39e600",
"#Y c #39ea00",
"aw c #39ee00",
"bp c #39f200",
".X c #414041",
"#U c #414441",
"b5 c #41b231",
".Q c #41b631",
"dp c #41be31",
"cE c #41ca08",
"db c #41e608",
"aH c #41ea00",
"#W c #41ea08",
"af c #41ee00",
"#M c #41f200",
"#o c #41f600",
"bB c #4a484a",
".f c #4a4c4a",
"#R c #4ab639",
"#q c #4aba31",
"#g c #4aba39",
".A c #4abe39",
"dn c #4aca29",
"#Q c #4ace29",
"ae c #4ade18",
"aV c #4aea00",
"#d c #4af600",
"#e c #4afa00",
".1 c #4aff00",
"cN c #525052",
"#i c #525552",
"cS c #526918",
"cK c #527918",
"d# c #52b239",
"c3 c #52ba41",
"aN c #52c239",
"b6 c #52f210",
".2 c #52ff00",
".3 c #52ff08",
"ad c #5a595a",
".F c #5a5d5a",
".z c #5aca41",
"aO c #5ace39",
"di c #5ad239",
"cY c #5ada31",
"a6 c #5ade08",
"cT c #624c20",
"a5 c #626162",
"dy c #626562",
"br c #628d18",
"c6 c #62c24a",
"dm c #62c64a",
".y c #62ca4a",
"#p c #62f229",
"#K c #62ff18",
"co c #6a4c20",
"bv c #6a5920",
"dB c #6a696a",
"#t c #6a6d6a",
"bc c #6ac210",
"c7 c #6ade4a",
"#w c #6aff20",
".4 c #6aff29",
"bJ c #734429",
"b4 c #737573",
"dh c #73ce5a",
"da c #73d252",
"#y c #73da52",
"c4 c #73de4a",
".0 c #73ff31",
"bX c #7b4429",
"cG c #7b4820",
".b c #7b797b",
".a c #7b7d7b",
"cg c #7bb618",
".K c #7bd65a",
"#l c #7bda5a",
"#x c #7bff31",
"cn c #835020",
".j c #838183",
"bO c #838583",
"c2 c #83da5a",
"#I c #83de62",
"bC c #83ff4a",
"cF c #8b5d29",
".D c #8b898b",
"#h c #8b8d8b",
"bo c #8be26a",
"#f c #8bee5a",
"cs c #949194",
"aF c #949594",
"aW c #94b218",
"#k c #94e66a",
"bd c #94e673",
".5 c #94f662",
"#v c #94ff52",
"#6 c #94ff5a",
"df c #9c999c",
".U c #9c9d9c",
"aU c #9cea73",
"bP c #9cff6a",
"bu c #a47120",
"a0 c #a49920",
".H c #a4a1a4",
".6 c #a4f27b",
"cz c #ac6d18",
"cH c #ac7518",
"b8 c #ac9120",
"dA c #acaaac",
"#5 c #acaeac",
".P c #acf283",
"be c #acff73",
"cJ c #b47518",
"cv c #b47929",
"bE c #b49d20",
"bQ c #b4a120",
"bA c #b4b2b4",
".c c #b4b6b4",
".O c #b4fa8b",
"#J c #b4ff83",
"cI c #bd7d10",
"bl c #bd7d29",
".u c #bdbabd",
".t c #bdbebd",
".M c #bdff8b",
".N c #bdff94",
"ca c #c57d18",
"cu c #c58d29",
"bI c #c59118",
"aX c #c59529",
".9 c #c5c2c5",
"ar c #c5c6c5",
".L c #c5ff94",
".v c #cdcacd",
".# c #cdcecd",
"aZ c #d59d29",
"aG c #d5d2d5",
".T c #d5d6d5",
"a8 c #de9529",
"a7 c #de9d29",
"bW c #dea108",
"bk c #dea120",
"as c #dedade",
".E c #dedede",
"bb c #e69929",
"aY c #e69931",
"ba c #e69d29",
"bR c #e6b220",
"#j c #e6e2e6",
".I c #e6e6e6",
"bF c #eeae29",
"a9 c #eeba20",
"b# c #eec220",
".s c #eeeaee",
".e c #eeeeee",
"cw c #f6ca08",
"b. c #f6ca10",
"ch c #f6e208",
"az c #f6f2f6",
".k c #f6f6f6",
"cy c #ffaa08",
"cm c #ffb200",
"cl c #ffb600",
"c# c #ffbe00",
"cx c #ffc600",
"ck c #ffca00",
"c. c #ffce00",
"bV c #ffd200",
"cj c #ffd600",
"b9 c #ffda00",
"bU c #ffde00",
"bH c #ffe600",
"bs c #ffe608",
"bh c #ffea10",
"bT c #ffee00",
"bt c #ffee08",
"ci c #fff200",
"bG c #fff600",
"bS c #fffa00",
".d c #fffaff",
"bi c #ffff00",
"bj c #ffff08",
"Qt c None",
"QtQtQtQtQtQtQtQtQtQtQtQtQtQtQtQtQtQtQtQtQt.#.a.b.b.b.c.dQtQtQtQtQtQtQtQtQtQtQtQtQtQtQtQtQtQtQtQt",
"QtQtQtQtQtQtQtQtQtQtQtQtQtQtQtQtQtQtQt.e.f.g.g.h.h.g.g.i.j.kQtQtQtQtQtQtQtQtQtQtQtQtQtQtQtQtQtQt",
"QtQtQtQtQtQtQtQtQtQtQtQtQtQtQtQtQtQtQt.l.m.n.o.p.o.p.q.r.g.f.s.dQtQtQtQtQtQtQtQtQtQtQtQtQtQtQtQt",
"QtQtQtQtQtQtQtQtQtQtQt.e.t.u.v.dQtQt.a.m.w.o.x.y.z.A.B.p.C.g.D.eQtQtQtQtQtQtQtQtQtQtQtQtQtQtQtQt",
"QtQtQtQtQtQtQtQtQt.E.F.g.g.g.g.G.H.I.i.J.o.K.L.M.N.O.P.Q.o.R.S.T.kQtQtQtQtQtQtQtQtQtQtQtQtQtQtQt",
"QtQtQtQtQtQtQtQt.U.i.V.n.w.o.w.n.W.X.Y.o.Z.0.1.2.3.4.5.6.7.8.g.9.eQt.E.t.u.sQtQtQtQtQtQtQtQtQtQt",
"QtQtQtQtQtQtQt.U.g#.##.o#a.y#a.p.8#b#c.p#d.2.2.1.2#e#e#f#g##.g.c#h.G.g.g.g.g#i#j.dQtQtQtQtQtQtQt",
"QtQtQtQtQtQt.E.i.r.o.B#k.M.N.M#l.p.8#m#n.1.2.1.1#e#e#o#p#q##.g#r#s.C.8.w#m#c.W.i.c.kQtQtQtQtQtQt",
"QtQtQtQtQtQt#t.W###u.O.M#v#w.4#x#y.p.o#z.2.1.2#e#e#d#e#o.Q###A#B.w.w#C#D#E#F#m.Y#r.#.kQtQtQtQtQt",
"QtQtQtQtQtQt#G#H.p#I#J#K.1.2.1.2.3#L.p#z.1.1#e#e#o#d#M#o#C.w.J.w#N#O#P#Q#R#S.8#T.W#U#j.dQtQtQtQt",
"QtQtQtQtQtQt#V.n.o.M#w.2.2.2.2.2.2#M.p#z.2#e#e#d#e#o#d#W##.w.w#X#Y#Z#0#1#2#3#4.8.R.g#5.eQtQtQtQt",
"QtQtQtQtQtQt#V#B.p#6.1.2.1.2.1.2.1.1#7.p#0#e#o#d#M#M#M#8#F.w#9#Y#Z#Z#1#1a.a#aaabac.Wad.E.dQtQtQt",
"QtQtQtQtQtQtad#H.oae.2.2.2.2.2.1.2#eaf##ag#d#d#o#d#M#Mah.w#9#Y#Z#0#1#1aiaiaj#S#Eac#sak.#.kQtQtQt",
"QtQtQtQtQtQt.c.W.pal.1.2.1.2.1.1#e#e#oam.p#d#M#Maf#Man#Fao#Y#Z#Z#1#1a.aiapapaq#E.q#s#Gar.eQtQtQt",
"QtQtQtQtQtQtasat.R.pau.2.2.1.2#e#e#e#eav##an#o#M#Mawam#Fai#Z#0#1#1a.aiapapajaxay.q.VadarazQtQtQt",
"QtQtQt.e.F.i.g#b.V#m.p#0.1.1#e#e#o#d#o#0#FaAaf#Mawau.8aB#Z#Z#1#1a.a.apapaCaDab.q.CaEaFaG.kQtQtQt",
"QtQt.e.l#b.J.p.p.p.p.p.oaH#e#e#e#e#o#d#MaIaJ#MawafaI.8ap#0#1#1a.aiapapajaKaL.q.J.Vad.c#j.dQtQtQt",
"QtQt#G#b#FaMaN#IaOaPaQ##.paR#o#d#o#o#M#MaA#Faiaw#8.8#N#Z#1#1a.a.apapaCaDaS#maT.Y#V#5aGazQtQtQtQt",
"Qt.#.gaTaMaU.M#w.2.1.2#0aJ.w#8#o#o#M#MaVaWaXaYaZa0a1ai#1#1a.aiapapa2a3#m.q.Ra4a5#5.v.sQtQtQtQtQt",
"Qt#h.W.paN.N#w.2.1.1#e#e#YaI#FaB#Y#Ma6a7a8a9b.b#babbbc#1a.a.#Xam.8#m#m.R.m.g#V#h.#.s.dQtQtQtQtQt",
"Qt.F.h##bdbe.2.1.2#e#e#d#eafaA#Fbfbga7babhbibibibjbkblbmbnac.q#m.q#m#m#T.n#c.r.Wak.t.dQtQtQtQtQt",
"Qt#G#s##bo#6.1.1#e#e#o#d#M#Mbpbq#Fbra8bsbibibibibibtbubv#m.qbfbfamambwambfbx.Jbybz.ibA.kQtQtQtQt",
"QtbB.h.w#IbC.2#e#e#o#e#o#o#M#MawbDbEbFbibibibibibGbHbIbJ#XaCajbKbKbLbLbMbMbNao#T.Jbz#r.#.kQtQtQt",
"QtbO.W.w#3bP#e#e#o#d#M#Mbp#Maw#0#XbQbRbibibibSbTbUbVbWbXbYaCbKbKbZbLbMbMb0bNb1b2.Jb3.gb4.IQtQtQt",
"Qt.T.i#c.wb5b6#o#d#o#o#Mb7aga3acacb8bFbibibGbTb9c.c#cabJcbbKbKbZbLbMbMbNbNb1b1#nayaT#b.X.T.kQtQt",
"Qt.d#h.gcc#F.wcdceaucfa3acac.wcdcfcga8chcibHcjckclcmcnco#TaScpbZbMbMb0bNb1b1cq#nacaT.YcrarazQtQt",
"QtQtazcsaE#s#B#T.8ac.8#Falct#Y#0#0b7cucvcwbVcxclcyczbXcAbn.JcB#NbMbNbNb1b1cCcC.o.8aT#bcD.9.eQtQt",
"QtQtQtaz.uaEbz.qacbf#9aw#Y#Y#Z#0#1#1cEcFcGcHcIcJcnbXcKbKbZcL#T.JaSbNb1b1cqcCcM.w#Tb3#AcNar.eQtQt",
"QtQtQt.e.lcO.8cPcQawaf#Y#Y#0#0#1#1aiaAcRcSbJbXbJcTcUbKbZbLbMcp.8bybxcCcCcCcVaJ#FaT.R.g.D.#azQtQt",
"QtQtQt#GcWaccXcY#Yaw#Y#Y#Z#0#1#1a.aj.qcZbKajbK#7.J#NbZbZbMbMb0b0aSaT#TaS.w.8.qaT.n.Yc0#5as.dQtQt",
"QtQt#5.W#mc1c2awaw#Y#Y#Z#0#1#1aiai#N#TaAajaCajbK.JaSbLbMbMb0bNb1b1b2aTb3aTb3b3#B#saE.j.t.sQtQtQt",
"QtQt.Fbz.qc3c4#Y#Y#Y#Z#Z#1#1a.aian.q.qajbKbKbLbLaS#TbMbMb0b0b1b1cqcC#Fb3#c.Y.Y.g.G.j.u.E.kQtQtQt",
"QtQt#Gc5acc6c7#Y#Y#Z#0#1#1aiaiapc8.JaAbKanbKbKbZambyaob0bNb1b1cqcCc9c9.qb3#bd..j#5.9.E.kQtQtQtQt",
"QtQt#V.h#md#dadb#Z#Z#1#1a.aiapa3.J#mbLbKbLbLbMbMdcaTaSb1b1b1cqcqc9c9dddeb3cc.gdfaG.s.dQtQtQtQtQt",
"QtQtb4.W#Tdgdhdi#0#1#1aiaiapbn.J.JaJanbLbLbZbLbMbMacdjdcb1cqcCc9c9cVcVdk.w.n#ba5.E.dQtQtQtQtQtQt",
"QtQt.T.g#.#mdldmdn#1a.aibKaSbyaTby#7bLbLbMbMbNbNb1b2b3b2c9c9c9c9ddcVdkdk.p.ncWcr.#.kQtQtQtQtQtQt",
"QtQt.da5.g.n#Tdoc3dpdqdrcBbyc5.RbycpbLbMbLbMbMb0bNaJb3bydcc9c9ddcVdkdkdsdt.ncOcr.9.eQtQtQtQtQtQt",
"QtQtQt#jd..Wcc#T.J.Jby.J.n#b.g#c#Ta2bMbMbNbNb1b1cCaJ.n.n#FcVdkdddsdkds.pac.nbzcr.t.eQtQtQtQtQtQt",
"QtQtQt.d.Td..gbzduccdubz.g.faEb3dv#zaDbNbMb1bNb1b1#m.C.R.n##dedkdkdwdt#FaT.n#A#G.9.eQtQtQtQtQtQt",
"QtQtQtQt.d#j.bcr.g.g.G#Ucs.c.gcc.JaJb1bNb1b1cCcCc9b3c5.V.Cb3ac.w#F.w.8aT.CcO.g.b.vazQtQtQtQtQtQt",
"QtQtQtQtQt.d.s.T.9.c.c.t.v.EakduaT.8aJdecpcCb1cMc8.n.haE.h.nb3.Jdx.Jb3.n.r.g#UbAas.dQtQtQtQtQtQt",
"QtQtQtQtQtQtQt.k.e.I.I.saz.ddy.Yb3by#F.w#F.w#F.8.nccdzb4.G.Ycc.n.C.ncc.Y.g#VdA.v.eQtQtQtQtQtQtQt",
"QtQtQtQtQtQtQtQtQtQtQtQtQtQt.T.gc5.nb3.J#m#T.J.n.n.Yd.#5.u#U.g.V.Y#A.gaE#t#5.v.sQtQtQtQtQtQtQtQt",
"QtQtQtQtQtQtQtQtQtQtQtQtQtQt.d.D.g#bc5.n.C.n.Cdu.VaEdfar.I#j.Had#icNdBdA.u.T.e.dQtQtQtQtQtQtQtQt",
"QtQtQtQtQtQtQtQtQtQtQtQtQtQtQtazcs#r.g.g.m.Y.g.gd.#h.u#j.d.d.e.EaG.#.#.T.I.kQtQtQtQtQtQtQtQtQtQt",
"QtQtQtQtQtQtQtQtQtQtQtQtQtQtQtQtaz.Tdf#i#icNcN.DbA.9#j.kQtQtQt.d.kazaz.kQtQtQtQtQtQtQtQtQtQtQtQt",
"QtQtQtQtQtQtQtQtQtQtQtQtQtQtQtQtQt.k.sasaG.#.#aG.E.e.dQtQtQtQtQtQtQtQtQtQtQtQtQtQtQtQtQtQtQtQtQt",
"QtQtQtQtQtQtQtQtQtQtQtQtQtQtQtQtQtQtQt.d.kazaz.k.dQtQtQtQtQtQtQtQtQtQtQtQtQtQtQtQtQtQtQtQtQtQtQt"};
