/* XPM */
static const char *p_mail_generic[]={
    "16 16 104 2",
    "Qt c None",
    ".G c #3c2f27",
    ".Q c #3f322c",
    "#L c #3f322e",
    ".v c #40332b",
    ".k c #40382f",
    ".1 c #473830",
    "#a c #483931",
    "#k c #4c3d35",
    "#w c #53413c",
    "#K c #584539",
    "#C c #5b483e",
    ".# c #685854",
    ".8 c #917768",
    "#f c #a79084",
    ".F c #a88d6d",
    ".Y c #a88d79",
    ".O c #a89079",
    "#g c #af9880",
    ".J c #b59e92",
    ".E c #b69b7d",
    "#t c #b69b7f",
    "#J c #b79874",
    ".w c #b7a599",
    "#e c #b8a697",
    ".4 c #b9a29b",
    ".5 c #b9a69b",
    ".X c #baa287",
    ".x c #bba8a8",
    ".T c #bbada6",
    "#n c #bca697",
    ".U c #bca997",
    "#D c #bca998",
    ".P c #bda286",
    ".Z c #bda68e",
    "#x c #cbbca6",
    ".I c #ccc0b1",
    "#B c #ceb591",
    ".7 c #ceba9d",
    ".S c #d0c3c3",
    ".6 c #d0c7c3",
    ".N c #d2bc99",
    "#h c #d2bc9d",
    "#c c #d4c7bb",
    ".3 c #dbccb4",
    "#u c #dcc8a5",
    ".u c #dfc8a4",
    "#m c #dfd0b4",
    ".i c #e1d5ba",
    ".j c #e2cda5",
    ".e c #e3ddd0",
    ".c c #e3ddd4",
    ".g c #e4d5c3",
    ".f c #e4d9c7",
    ".h c #e5d5ba",
    ".l c #e7dcca",
    ".d c #e7dcd4",
    ".b c #e7dcd8",
    "#l c #e8ddd9",
    ".a c #ebe4e0",
    ".K c #ebe5dc",
    ".0 c #edd9ba",
    "#v c #efdeb2",
    "#d c #f0e4d7",
    ".9 c #f1e1c2",
    "#b c #f1eada",
    "#o c #f3ede4",
    "#j c #f5e0b8",
    "#G c #f5e6cd",
    ".2 c #f5efe2",
    "## c #f6e5b9",
    "#F c #f6e7be",
    "#q c #f8e9d3",
    ".W c #f8edd3",
    "#r c #f8edd7",
    "#. c #f9e9ca",
    "#E c #f9e9cc",
    "#A c #f9eeca",
    "#I c #fae5bd",
    "#H c #fae5bf",
    ".H c #fbf0ec",
    "#s c #fbf2d8",
    "#p c #fbf2dc",
    ".R c #fbf5e8",
    ".V c #fbf5ec",
    ".q c #fbf6e4",
    ".t c #fceec7",
    "#z c #fcf3d3",
    ".z c #fdfdfa",
    ".o c #fef5e9",
    ".A c #fef9ed",
    ".m c #fef9f5",
    ".B c #fefae9",
    ".n c #fefaf1",
    ".D c #ffedc8",
    "#i c #fff1cd",
    ".s c #fff1d0",
    ".M c #fff2d8",
    ".y c #fff5dd",
    ".C c #fff6d5",
    ".r c #fff6d8",
    ".p c #fff6e0",
    ".L c #fff6e5",
    "#y c #fffae5",
    "QtQtQtQtQtQtQtQtQtQtQtQtQtQtQtQt",
    "QtQtQtQtQtQtQtQtQtQtQtQtQtQtQtQt",
    "QtQtQtQtQtQtQtQtQtQtQtQtQtQtQtQt",
    "QtQtQtQtQtQtQtQtQtQtQtQtQtQtQtQt",
    ".#.#.#.#.#.#.#.#.#.#.#.#.#.#.#.#",
    ".#.a.a.b.c.d.e.f.f.g.h.i.i.j.j.k",
    ".#.l.m.m.n.n.n.o.o.p.q.r.s.t.u.v",
    ".#.w.x.y.z.m.n.A.B.q.y.C.D.E.F.G",
    ".#.H.I.J.K.o.n.A.L.p.M.N.O.P.j.Q",
    ".#.R.m.S.T.U.V.n.L.W.X.Y.Z.0.0.1",
    ".#.2.o.m.3.4.5.6.7.Y.8.j.9#.###a",
    ".##b.n#c.T.H#d#e#f.u.f#g#h#i#j#k",
    ".##l#m#n#o.L.L#p#q#r#s.9#t#u#v#w",
    ".##x.U.H#y.p.p.q.q.M.C#z#A.E#B#C",
    ".##D#d#A#A#q#q#.#E#F#G#H#I.0#J#K",
    ".##a#a#a#a#a#a#a#a#a#a#a#a#a#a#L"};
