/* XPM */
static const char *nonim[]={
    "16 16 38 1",
    "# c #000000",
    "g c #000066",
    "y c #0000cc",
    "r c #0000ff",
    "n c #003300",
    "o c #006600",
    "p c #006666",
    "J c #009900",
    "B c #00cc00",
    "f c #00ff00",
    "h c #00ffff",
    "F c #330000",
    "x c #330066",
    "k c #333333",
    "s c #660000",
    "w c #660066",
    "c c #666600",
    "b c #666666",
    "z c #6666cc",
    "l c #66cccc",
    "H c #990000",
    "v c #990033",
    "I c #9900cc",
    "E c #999900",
    "e c #999999",
    "C c #99ccff",
    "G c #cc0000",
    "u c #cc0033",
    "d c #cccccc",
    "q c #ff0000",
    ". c None",
    "t c #ff6666",
    "D c #ffcc00",
    "i c #ffff00",
    "m c #ffff66",
    "j c #ffff99",
    "A c #ffffcc",
    "a c #ffffff",
    "................",
    "....iiiii.......",
    "...iiiiisssss...",
    "...iiiisssssss..",
    "...iiiisssssss..",
    "...iiiisssssss..",
    "...iiiisssssss..",
    "....iiisssssss..",
    "........sssss...",
    "...iiiiiii......",
    "..iiiiisssssss..",
    ".iiiiisssssssss.",
    ".iiiisssssssssss",
    ".iiiisssssssssss",
    ".....sssssssssss",
    "................"};
