/* XPM */
static const char *online_on[]={
    "16 14 14 1",
    ". c None",
    "l c #00c000",
    "# c #202040",
    "k c #20ff00",
    "i c #20ff40",
    "a c #404040",
    "g c #40ff40",
    "j c #606040",
    "f c #60ff80",
    "e c #80ff80",
    "d c #a0ff80",
    "c c #c0ff80",
    "b c #c0ffff",
    "h c #ffff00",
    "................",
    "......##.##.....",
    ".....abc#dea....",
    "....aacd#efaa...",
    "...#bcad#fagg#..",
    "...#cddahaggi#..",
    "....###hhh###...",
    "...#defjhaikl#..",
    "...#efag#iall#..",
    "....aagg#klaa...",
    ".....agi#lla....",
    "......##.##.....",
    "................",
    "................"};
