/* XPM */
static const char * smile11[] = {
"21 21 241 2",
"  	c None",
". 	c #CBC5A4",
"+ 	c #CAC182",
"@ 	c #CBC073",
"# 	c #CBBF73",
"$ 	c #CBBF83",
"% 	c #CDC5A5",
"& 	c #CAC278",
"* 	c #D4C430",
"= 	c #DDCA1F",
"- 	c #E2CD23",
"; 	c #E4CD25",
"> 	c #E2CA25",
", 	c #DFC525",
"' 	c #D9BE27",
") 	c #CFB737",
"! 	c #CABC7D",
"~ 	c #DAD3A7",
"{ 	c #D3C735",
"] 	c #E3D31F",
"^ 	c #EDDA21",
"/ 	c #F2DE23",
"( 	c #F5DF27",
"_ 	c #F6DD27",
": 	c #F4DB27",
"< 	c #F1D629",
"[ 	c #ECCF2B",
"} 	c #E4C72B",
"| 	c #D9BC29",
"1 	c #CBB241",
"2 	c #CEC6AC",
"3 	c #CBC6A0",
"4 	c #D9CE22",
"5 	c #EBDC1D",
"6 	c #F5E421",
"7 	c #FCE823",
"8 	c #FFEB25",
"9 	c #FFEA29",
"0 	c #FFE92B",
"a 	c #FFE62B",
"b 	c #FEE12B",
"c 	c #F9DB2D",
"d 	c #F2D42D",
"e 	c #E9CA2D",
"f 	c #DEBE2D",
"g 	c #CEB034",
"h 	c #CDC4A5",
"i 	c #D8CE25",
"j 	c #EDE01A",
"k 	c #FAED48",
"l 	c #FFF473",
"m 	c #FFF562",
"n 	c #FEF329",
"o 	c #FFF32B",
"p 	c #FFF12D",
"q 	c #FFEE2B",
"r 	c #FFED53",
"s 	c #FFED7A",
"t 	c #FDE669",
"u 	c #F3D430",
"v 	c #EBC92E",
"w 	c #DDBB2D",
"x 	c #CBAF39",
"y 	c #D0C950",
"z 	c #EADE18",
"A 	c #FBF26C",
"B 	c #D3CFA4",
"C 	c #6F6D56",
"D 	c #6F6E57",
"E 	c #CAC980",
"F 	c #FEF82C",
"G 	c #FFF72D",
"H 	c #D3CC62",
"I 	c #6F6C57",
"J 	c #6F6C58",
"K 	c #D3CCA7",
"L 	c #F4E69F",
"M 	c #F3CF33",
"N 	c #E8C430",
"O 	c #D9B72D",
"P 	c #C8B25E",
"Q 	c #CDC8A7",
"R 	c #E0D515",
"S 	c #F4E822",
"T 	c #FBF7BD",
"U 	c #4E4D3C",
"V 	c #D2D2C5",
"W 	c #5D5D4F",
"X 	c #474737",
"Y 	c #EAE951",
"Z 	c #FBF734",
"` 	c #5D5B50",
" .	c #4E4C3E",
"..	c #E6DEB4",
"+.	c #EACF57",
"@.	c #EFCA32",
"#.	c #E1BE2E",
"$.	c #CDAC2B",
"%.	c #CEC5AC",
"&.	c #D0C963",
"*.	c #EBE018",
"=.	c #FAEF2E",
"-.	c #ECEAB7",
";.	c #403F31",
">.	c #575749",
",.	c #3C3C2E",
"'.	c #363629",
").	c #CFCF54",
"!.	c #EAEA45",
"~.	c #404033",
"{.	c #57564A",
"].	c #403E32",
"^.	c #3C3A2F",
"/.	c #C9C399",
"(.	c #E0C85B",
"_.	c #F4CF32",
":.	c #E7C230",
"<.	c #D5B32D",
"[.	c #C7B473",
"}.	c #D7CF34",
"|.	c #F1E618",
"1.	c #FFF31A",
"2.	c #F3F1A4",
"3.	c #6B6B53",
"4.	c #39392C",
"5.	c #353527",
"6.	c #56563F",
"7.	c #ECEC5F",
"8.	c #FFFF70",
"9.	c #6C6C53",
"0.	c #3C3C30",
"a.	c #39392D",
"b.	c #5F5D48",
"c.	c #C1BB8D",
"d.	c #ECCE3F",
"e.	c #F7D233",
"f.	c #EBC632",
"g.	c #DAB72E",
"h.	c #C7AC4C",
"i.	c #DDD31B",
"j.	c #F4E918",
"k.	c #FFF51A",
"l.	c #F7F535",
"m.	c #D7D788",
"n.	c #94946C",
"o.	c #8A8A5E",
"p.	c #D4D45E",
"q.	c #FFFF95",
"r.	c #FFFFBF",
"s.	c #F3F3A5",
"t.	c #A0A077",
"u.	c #949370",
"v.	c #BAB57F",
"w.	c #D8C74B",
"x.	c #FFDD33",
"y.	c #F9D333",
"z.	c #EDC832",
"A.	c #DCB92E",
"B.	c #C8A735",
"C.	c #DED513",
"D.	c #FFFD1F",
"E.	c #FFFF23",
"F.	c #F5F52C",
"G.	c #FCFC2F",
"H.	c #FFFF5D",
"I.	c #FFFFB0",
"J.	c #FFFFE1",
"K.	c #FFFFC0",
"L.	c #FFFF72",
"M.	c #F5F043",
"N.	c #FCEC34",
"O.	c #FFE633",
"P.	c #DDB92E",
"Q.	c #C8A62E",
"R.	c #DDD41D",
"S.	c #F2E818",
"T.	c #DA9F3E",
"U.	c #DBB72E",
"V.	c #C6A636",
"W.	c #D7D036",
"X.	c #F7B03C",
"Y.	c #B26800",
"Z.	c #D7B42E",
"`.	c #C5AB4C",
" +	c #D1CB67",
".+	c #E3C030",
"++	c #D2B02D",
"@+	c #C7B476",
"#+	c #D1CCAC",
"$+	c #DCBA2E",
"%+	c #CAA92C",
"&+	c #CEC6B0",
"*+	c #D3B22D",
"=+	c #C6B163",
"-+	c #D6B62D",
";+	c #C8AC3B",
">+	c #D1CCA8",
",+	c #D8CD26",
"'+	c #E6D71D",
")+	c #EFDD1F",
"!+	c #F4E121",
"~+	c #F8E323",
"{+	c #F9E227",
"]+	c #F9E029",
"^+	c #F8DD29",
"/+	c #F4D929",
"(+	c #F0D32B",
"_+	c #EACC2B",
":+	c #E1C22B",
"<+	c #D6B72B",
"[+	c #C8AD36",
"}+	c #CEC6AB",
"|+	c #D1CCB0",
"1+	c #D4C83D",
"2+	c #DFCF1D",
"3+	c #E5D41F",
"4+	c #EAD621",
"5+	c #EDD625",
"6+	c #EDD427",
"7+	c #EBD225",
"8+	c #E8CD27",
"9+	c #E3C829",
"0+	c #DCC029",
"a+	c #D2B627",
"b+	c #C8B047",
"c+	c #D2CCB7",
"d+	c #CFC784",
"e+	c #D2C43A",
"f+	c #D9C61F",
"g+	c #DBC723",
"h+	c #DCC623",
"i+	c #DBC323",
"j+	c #D7BF23",
"k+	c #D2B825",
"l+	c #CBB541",
"m+	c #CBBE87",
"n+	c #D0CBAF",
"o+	c #CEC58D",
"p+	c #CDC27E",
"q+	c #CDC28D",
"r+	c #D0C9B0",
"              . + @ # $ %                 ",
"          & * = - ; > , ' ) !             ",
"      ~ { ] ^ / ( _ : < [ } | 1 2         ",
"    3 4 5 6 7 8 9 0 a b c d e f g h       ",
"    i j k l m n o p q r s t u v w x       ",
"  y z A B C D E F G H I J K L M N O P     ",
"Q R S T U V W X Y Z U V `  ...+.@.#.$.%.  ",
"&.*.=.-.;.>.,.'.).!.~.{.].^./.(._.:.<.[.  ",
"}.|.1.2.3.4.5.6.7.8.9.0.a.b.c.d.e.f.g.h.  ",
"i.j.k.l.m.n.o.p.q.r.s.t.u.v.w.x.y.z.A.B.  ",
"C.j.k.D.E.F.G.H.I.J.K.L.M.N.O.x.y.z.P.Q.  ",
"R.S.T.T.T.T.T.T.T.T.T.T.T.T.T.T.e.f.U.V.  ",
"W.T.T.T.X.T.Y.Y.Y.Y.Y.Y.T.X.T.T.T.N Z.`.  ",
" +T.X.T.T.T.Y.Y.Y.Y.Y.Y.T.T.T.X.T..+++@+  ",
"#+T.T.T.X.T.Y.Y.Y.Y.Y.Y.T.X.T.T.T.$+%+&+  ",
"  T.X.T.T.T.Y.Y.Y.Y.Y.Y.T.T.T.X.T.*+=+    ",
"    T.T.T.T.T.T.T.T.T.T.T.T.T.T.-+;+      ",
"    >+,+'+)+!+~+{+]+^+/+(+_+:+<+[+}+      ",
"      |+1+2+3+4+5+6+7+8+9+0+a+b+c+        ",
"          d+e+f+g+h+i+j+k+l+m+            ",
"              n+o+p+p+q+r+                "};
