/* XPM */
static const char * smile15[] = {
"21 21 287 2",
"  	c None",
". 	c #CBC5A0",
"+ 	c #CAC07B",
"@ 	c #CBBF6A",
"# 	c #CBBE6A",
"$ 	c #CABF7C",
"% 	c #CCC5A1",
"& 	c #CAC273",
"* 	c #D3C321",
"= 	c #DDCA0F",
"- 	c #E0CD0F",
"; 	c #E2CC0F",
"> 	c #E1C90F",
", 	c #DDC512",
"' 	c #D6BD0F",
") 	c #CDB624",
"! 	c #CABC75",
"~ 	c #DAD3A6",
"{ 	c #D2C625",
"] 	c #E3D20F",
"^ 	c #ECDA0F",
"/ 	c #F1DD0F",
"( 	c #F3DD12",
"_ 	c #F4DD12",
": 	c #F3D912",
"< 	c #EFD412",
"[ 	c #EACE12",
"} 	c #E2C612",
"| 	c #D8BB15",
"1 	c #CAB12E",
"2 	c #CEC6A9",
"3 	c #CBC69D",
"4 	c #D8CD12",
"5 	c #EBDB07",
"6 	c #F5E30F",
"7 	c #FBE80F",
"8 	c #FFE90F",
"9 	c #FFE912",
"0 	c #FFE812",
"a 	c #FFE512",
"b 	c #FCE015",
"c 	c #F8DA15",
"d 	c #F1D312",
"e 	c #E7C918",
"f 	c #DCBD15",
"g 	c #CBB01F",
"h 	c #CDC4A1",
"i 	c #D8CD18",
"j 	c #EDDF07",
"k 	c #3C3802",
"l 	c #3E3903",
"m 	c #3E3A04",
"n 	c #FFF212",
"o 	c #FFF215",
"p 	c #FFF115",
"q 	c #FFED12",
"r 	c #FFE815",
"s 	c #3E3605",
"t 	c #3D3505",
"u 	c #3B3305",
"v 	c #E9C818",
"w 	c #DBBA15",
"x 	c #C9AC25",
"y 	c #D0C942",
"z 	c #EADE07",
"A 	c #87844C",
"B 	c #87854D",
"C 	c #3E3C04",
"D 	c #FFF815",
"E 	c #FFF615",
"F 	c #FFF315",
"G 	c #3E3905",
"H 	c #87824E",
"I 	c #87804E",
"J 	c #867E4F",
"K 	c #3A3205",
"L 	c #E5C318",
"M 	c #D6B415",
"N 	c #C6B04E",
"O 	c #CDC8A5",
"P 	c #E0D507",
"Q 	c #F4E807",
"R 	c #FFF80C",
"S 	c #FFFC12",
"T 	c #FFFE12",
"U 	c #87874D",
"V 	c #FFFD15",
"W 	c #FFFB15",
"X 	c #87844F",
"Y 	c #FFED15",
"Z 	c #FFE715",
"` 	c #FFDF1A",
" .	c #857D4F",
"..	c #ECCA18",
"+.	c #DEBC18",
"@.	c #CCAB15",
"#.	c #CDC5A8",
"$.	c #CFC95B",
"%.	c #EAE007",
"&.	c #322F02",
"*.	c #FFF70C",
"=.	c #FFFD0C",
"-.	c #FFFF12",
";.	c #FFFF15",
">.	c #FFFF1F",
",.	c #FFFF25",
"'.	c #FFFE21",
").	c #FFF61A",
"!.	c #FFF018",
"~.	c #FFEA15",
"{.	c #FFE21A",
"].	c #FCD91A",
"^.	c #302904",
"/.	c #E4C118",
"(.	c #D3B015",
"_.	c #C7B365",
":.	c #D6CF28",
"<.	c #F0E607",
"[.	c #333002",
"}.	c #333202",
"|.	c #FFFF0C",
"1.	c #FFFF4C",
"2.	c #FFFF63",
"3.	c #FFFF55",
"4.	c #FFFF32",
"5.	c #FFF31D",
"6.	c #FFEC15",
"7.	c #FFE41A",
"8.	c #332B05",
"9.	c #7C7452",
"0.	c #D8B518",
"a.	c #C5AA39",
"b.	c #DCD311",
"c.	c #F3E907",
"d.	c #FFFECE",
"e.	c #333302",
"f.	c #FFFF1A",
"g.	c #FFFF44",
"h.	c #FFFF8C",
"i.	c #FFFFB6",
"j.	c #FFFF9B",
"k.	c #FFFF57",
"l.	c #FFF725",
"m.	c #FFED18",
"n.	c #332D05",
"o.	c #FFF8D1",
"p.	c #312A04",
"q.	c #7C7552",
"r.	c #DAB718",
"s.	c #C5A61E",
"t.	c #DDD508",
"u.	c #F4E907",
"v.	c #333102",
"w.	c #333303",
"x.	c #FFFF1D",
"y.	c #FFFF51",
"z.	c #FFFFA7",
"A.	c #FFFFD9",
"B.	c #FFFFB7",
"C.	c #FFFF66",
"D.	c #FFF829",
"E.	c #332F04",
"F.	c #C6A416",
"G.	c #DCD413",
"H.	c #F2E807",
"I.	c #FFFFCF",
"J.	c #333304",
"K.	c #33330C",
"L.	c #33331A",
"M.	c #333321",
"N.	c #33331C",
"O.	c #333310",
"P.	c #333007",
"Q.	c #FFFBD0",
"R.	c #FFF7D1",
"S.	c #D9B618",
"T.	c #C5A520",
"U.	c #D7D02B",
"V.	c #EFE507",
"W.	c #323002",
"X.	c #FFFFD3",
"Y.	c #333311",
"Z.	c #FFFFDA",
"`.	c #FFFED5",
" +	c #333005",
".+	c #FFFAD0",
"++	c #322B05",
"@+	c #7B7452",
"#+	c #D5B315",
"$+	c #C4AA39",
"%+	c #D1CB5F",
"&+	c #E9DF07",
"*+	c #312F02",
"=+	c #FFFCCE",
"-+	c #FFFECF",
";+	c #333203",
">+	c #FFFED1",
",+	c #333206",
"'+	c #FFFDD2",
")+	c #FFFCD1",
"!+	c #332C05",
"~+	c #FDF6D0",
"{+	c #2F2804",
"]+	c #7A7352",
"^+	c #CFAE15",
"/+	c #C6B469",
"(+	c #D1CCAA",
"_+	c #DED508",
":+	c #302D01",
"<+	c #FEFBCE",
"[+	c #333103",
"}+	c #333104",
"|+	c #333004",
"1+	c #332E04",
"2+	c #332D04",
"3+	c #322B04",
"4+	c #FCF5D0",
"5+	c #2E2704",
"6+	c #797252",
"7+	c #C8A816",
"8+	c #CEC6AC",
"9+	c #D2CB49",
"0+	c #E7DB07",
"a+	c #FFFCCF",
"b+	c #333003",
"c+	c #FFFCD0",
"d+	c #FFFBCF",
"e+	c #FEF8D0",
"f+	c #302A04",
"g+	c #7A7351",
"h+	c #D0B015",
"i+	c #C5B055",
"j+	c #D8CE1C",
"k+	c #E8DB07",
"l+	c #FDFACF",
"m+	c #322F03",
"n+	c #FFFACF",
"o+	c #332E03",
"p+	c #FFF9CF",
"q+	c #FEF9D0",
"r+	c #312B04",
"s+	c #FCF6CF",
"t+	c #7A7451",
"u+	c #D4B515",
"v+	c #C5AA29",
"w+	c #D1CCA6",
"x+	c #D8CC16",
"y+	c #E5D607",
"z+	c #2F2C03",
"A+	c #302D03",
"B+	c #312D03",
"C+	c #312C03",
"D+	c #302B03",
"E+	c #2F2A03",
"F+	c #2E2803",
"G+	c #D5B715",
"H+	c #C7AC20",
"I+	c #CEC6A8",
"J+	c #D1CCAE",
"K+	c #D3C72E",
"L+	c #DECE0F",
"M+	c #E5D30F",
"N+	c #E9D60F",
"O+	c #EBD612",
"P+	c #EBD412",
"Q+	c #E9D10F",
"R+	c #E6CD12",
"S+	c #E1C612",
"T+	c #DABF12",
"U+	c #D1B515",
"V+	c #C7B037",
"W+	c #CFC8AF",
"X+	c #CFC77F",
"Y+	c #D2C32C",
"Z+	c #D8C50C",
"`+	c #DAC60F",
" @	c #DBC50F",
".@	c #D9C20F",
"+@	c #D0B70F",
"@@	c #CAB42E",
"#@	c #CBBE81",
"$@	c #D0CBAD",
"%@	c #CDC487",
"&@	c #CDC276",
"*@	c #CCC176",
"=@	c #CCC288",
"-@	c #CFC9AD",
"              . + @ # $ %                 ",
"          & * = - ; > , ' ) !             ",
"      ~ { ] ^ / ( _ : < [ } | 1 2         ",
"    3 4 5 6 7 8 9 0 a b c d e f g h       ",
"    i j k l m n o p q r s t u v w x       ",
"  y z k A B B C D E F G H I J K L M N     ",
"O P Q A R S T U V W D X Y Z `  ...+.@.#.  ",
"$.%.&.*.=.-.-.;.>.,.'.).!.~.{.].^./.(._.  ",
":.<.[.}.|.-.-.,.1.2.3.4.5.6.7.8.^.9.0.a.  ",
"b.c.[.d.e.-.f.g.h.i.j.k.l.m.n.o.p.q.r.s.  ",
"t.u.v.d.e.w.x.y.z.A.B.C.D.E.n.o.p.q.r.F.  ",
"G.H.[.d.e.I.J.K.L.M.N.O.P.Q.n.R.^.9.S.T.  ",
"U.V.W.v.}.I.w.X.A.Y.Z.`. +.+n.++^.@+#+$+  ",
"%+&+*+=+v.-+;+-+>+,+'+)+E..+!+~+{+]+^+/+  ",
"(+_+:+<+[.[+[+[+}+}+|+E.1+2+3+4+5+6+7+8+  ",
"  9+0+:+&.a+b+a+c+b+d+.+2+e+f+{+g+h+i+    ",
"    j+k+:+l+m+d+n+o+p+q+r+s+{+t+u+v+      ",
"    w+x+y+z+A+B+B+C+C+D+E+F+t+G+H+I+      ",
"      J+K+L+M+N+O+P+Q+R+S+T+U+V+W+        ",
"          X+Y+Z+`+ @.@' +@@@#@            ",
"              $@%@&@*@=@-@                "};
