/* XPM */
static const char * smileA[] = {
"21 21 303 2",
"  	c None",
". 	c #CBC49F",
"+ 	c #C9BE76",
"@ 	c #CABC64",
"# 	c #C9BB64",
"$ 	c #C9BC76",
"% 	c #CCC39F",
"& 	c #CAC06D",
"* 	c #D0BE16",
"= 	c #D9C200",
"- 	c #DEC400",
"; 	c #DFC400",
"> 	c #DDC000",
", 	c #DABB00",
"' 	c #D3B300",
") 	c #CAAC16",
"! 	c #C8B86D",
"~ 	c #DAD2A6",
"{ 	c #D1C21F",
"] 	c #E1CC00",
"^ 	c #E9D200",
"/ 	c #EED500",
"( 	c #F1D500",
"_ 	c #F1D400",
": 	c #EFD000",
"< 	c #ECCA00",
"[ 	c #E7C300",
"} 	c #DFBA00",
"| 	c #D4B000",
"1 	c #C7A81F",
"2 	c #CDC4A6",
"3 	c #CBC59D",
"4 	c #D6C80B",
"5 	c #E9D600",
"6 	c #F2DD00",
"7 	c #3E3800",
"8 	c #3F3800",
"9 	c #FEE000",
"0 	c #FEDF00",
"a 	c #FBDB00",
"b 	c #F8D500",
"c 	c #3C3300",
"d 	c #3B3100",
"e 	c #E3BD00",
"f 	c #D9B100",
"g 	c #C8A40B",
"h 	c #CCC29D",
"i 	c #D5C912",
"j 	c #EBDB00",
"k 	c #F7E300",
"l 	c #403900",
"m 	c #FFE900",
"n 	c #FFEA00",
"o 	c #FFE600",
"p 	c #FFE200",
"q 	c #FFDD00",
"r 	c #FDD600",
"s 	c #F6CF00",
"t 	c #E5BB00",
"u 	c #D6AE00",
"v 	c #C6A212",
"w 	c #D0C642",
"x 	c #E8D900",
"y 	c #F6E500",
"z 	c #403B00",
"A 	c #D3C834",
"B 	c #6F6B36",
"C 	c #6F6B29",
"D 	c #D2C404",
"E 	c #FFEC00",
"F 	c #FFE800",
"G 	c #D3BB00",
"H 	c #6F631B",
"I 	c #6E6536",
"J 	c #CEB84F",
"K 	c #3B3001",
"L 	c #E1B700",
"M 	c #D2A800",
"N 	c #C4A842",
"O 	c #CDC8A5",
"P 	c #DED200",
"Q 	c #F2E300",
"R 	c #FFED00",
"S 	c #FBF476",
"T 	c #4E4E4E",
"U 	c #404040",
"V 	c #4A4938",
"W 	c #F9EC02",
"X 	c #FBE900",
"Y 	c #4E4A24",
"Z 	c #ECE2B7",
"` 	c #E7BC03",
" .	c #DAAF00",
"..	c #C89D00",
"+.	c #CDC3A5",
"@.	c #CFC75B",
"#.	c #E9DC00",
"$.	c #F9E900",
"%.	c #FFF20C",
"&.	c #ECEBE5",
"*.	c #A2A2A2",
"=.	c #393939",
"-.	c #D6D24D",
";.	c #ECDF1D",
">.	c #403F3E",
",.	c #D3D3D3",
"'.	c #DCBF43",
").	c #DFB300",
"!.	c #CFA300",
"~.	c #C4AC5B",
"{.	c #D5CC28",
"].	c #EFE100",
"^.	c #FDED00",
"/.	c #FDF41F",
"(.	c #FFFFFF",
"_.	c #727272",
":.	c #3A3A3A",
"<.	c #5C5C5C",
"[.	c #D6D680",
"}.	c #FDFD63",
"|.	c #696969",
"1.	c #CECECE",
"2.	c #CEB54E",
"3.	c #E3B600",
"4.	c #D4A600",
"5.	c #C2A028",
"6.	c #DBD00A",
"7.	c #F2E500",
"8.	c #FFEF00",
"9.	c #FFF600",
"0.	c #EFEECC",
"a.	c #E9E9E9",
"b.	c #A4A4A4",
"c.	c #929292",
"d.	c #AAAAA9",
"e.	c #E6E6A8",
"f.	c #FFFF96",
"g.	c #EBEBD3",
"h.	c #ADADAD",
"i.	c #C4C4C4",
"j.	c #ADADAC",
"k.	c #DAB61B",
"l.	c #E5B700",
"m.	c #D6A800",
"n.	c #C2990A",
"o.	c #DCD201",
"p.	c #F3E500",
"q.	c #FFEA07",
"r.	c #F6C365",
"s.	c #FDB89D",
"t.	c #F2B5AB",
"u.	c #C0B5B5",
"v.	c #A7A79E",
"w.	c #CBCB95",
"x.	c #FFFFD5",
"y.	c #FFFFB3",
"z.	c #F4F471",
"A.	c #CFCCAD",
"B.	c #BDB7B7",
"C.	c #D4A4A0",
"D.	c #F7AF9F",
"E.	c #FBB27D",
"F.	c #E5B218",
"G.	c #C29601",
"H.	c #DBD00C",
"I.	c #F1E300",
"J.	c #F7C066",
"K.	c #FFBCBC",
"L.	c #FFC3C3",
"M.	c #FFBFBF",
"N.	c #FDBB9D",
"O.	c #FAFA3B",
"P.	c #FFFF7D",
"Q.	c #FFFFA4",
"R.	c #FFFF89",
"S.	c #FFFF48",
"T.	c #FFE815",
"U.	c #F2B66B",
"V.	c #FBB39A",
"W.	c #C2980C",
"X.	c #D6CD2B",
"Y.	c #EEE000",
"Z.	c #FEBA96",
"`.	c #FFBABA",
" +	c #FDF326",
".+	c #FFFF3B",
"++	c #FFFF50",
"@+	c #FFFF41",
"#+	c #FFF021",
"$+	c #FFE307",
"%+	c #FFB896",
"&+	c #D4A40F",
"*+	c #C19F2B",
"=+	c #D1C95F",
"-+	c #E8DB00",
";+	c #FBC666",
">+	c #FFC0C0",
",+	c #FFC299",
"'+	c #FFF400",
")+	c #FFF40F",
"!+	c #FFF215",
"~+	c #FFEE12",
"{+	c #FFE707",
"]+	c #FFDF00",
"^+	c #FFC066",
"/+	c #F9B699",
"(+	c #CCA000",
"_+	c #C4AD5F",
":+	c #D1CCAA",
"<+	c #DED101",
"[+	c #EEDD04",
"}+	c #FCCB64",
"|+	c #FFC495",
"1+	c #FFCA7A",
"2+	c #FEE814",
"3+	c #FFF000",
"4+	c #FFEE00",
"5+	c #FFEB00",
"6+	c #FFE700",
"7+	c #FFDB00",
"8+	c #FCD204",
"9+	c #FBBE64",
"0+	c #FBBB95",
"a+	c #F5B77A",
"b+	c #D9AB14",
"c+	c #C49B01",
"d+	c #CEC4AA",
"e+	c #D2C949",
"f+	c #E5D600",
"g+	c #F2E100",
"h+	c #FBE700",
"i+	c #363100",
"j+	c #363000",
"k+	c #362F00",
"l+	c #362E00",
"m+	c #352D00",
"n+	c #F7CF00",
"o+	c #EFC600",
"p+	c #E7BD00",
"q+	c #DBB100",
"r+	c #CDA400",
"s+	c #C3A849",
"t+	c #D6CA16",
"u+	c #E6D600",
"v+	c #F1DD00",
"w+	c #F8E100",
"x+	c #353000",
"y+	c #FEE300",
"z+	c #FFE100",
"A+	c #FCDB00",
"B+	c #F9D600",
"C+	c #F4CF00",
"D+	c #322A00",
"E+	c #E7BF00",
"F+	c #DDB500",
"G+	c #D0A900",
"H+	c #C2A016",
"I+	c #D0CBA5",
"J+	c #D5C810",
"K+	c #E3D200",
"L+	c #ECD600",
"M+	c #F1D900",
"N+	c #F3D900",
"O+	c #FC9F64",
"P+	c #FC9E64",
"Q+	c #FB9D64",
"R+	c #FA9C64",
"S+	c #EBC600",
"T+	c #E4BF00",
"U+	c #DBB600",
"V+	c #D1AB00",
"W+	c #C3A210",
"X+	c #CDC4A5",
"Y+	c #D1CCAD",
"Z+	c #D2C428",
"`+	c #DCC800",
" @	c #E2CC00",
".@	c #E6CE00",
"+@	c #E8CD00",
"@@	c #E8CB00",
"#@	c #E6C800",
"$@	c #E3C200",
"%@	c #DDBC00",
"&@	c #D6B300",
"*@	c #CDA900",
"=@	c #C4A828",
"-@	c #CFC7AD",
";@	c #CEC47A",
">@	c #CFBE22",
",@	c #D4BE00",
"'@	c #D8BF00",
")@	c #D8BD00",
"!@	c #D6BA00",
"~@	c #D2B500",
"{@	c #CDAD00",
"]@	c #C7AB22",
"^@	c #C9BA7A",
"/@	c #D0CAAB",
"(@	c #CDC282",
"_@	c #CCBF70",
":@	c #CBBE70",
"<@	c #CBBF82",
"[@	c #CFC8AB",
"              . + @ # $ %                 ",
"          & * = - ; > , ' ) !             ",
"      ~ { ] ^ / ( _ : < [ } | 1 2         ",
"    3 4 5 6 7 8 9 0 a b c d e f g h       ",
"    i j k l m n m o p q r s d t u v       ",
"  w x y z A B C D E F G H I J K L M N     ",
"O P Q R S T U U V W X Y U U T Z `  ...+.  ",
"@.#.$.%.&.U U *.=.-.;.>.U *.U ,.'.).!.~.  ",
"{.].^./.(._.U :.<.[.}._.U U |.1.2.3.4.5.  ",
"6.7.8.9.0.a.b.c.d.e.f.g.h.b.i.j.k.l.m.n.  ",
"o.p.q.r.s.t.u.v.w.x.y.z.A.B.C.D.E.F.m.G.  ",
"H.I.J.K.L.M.N.O.P.Q.R.S.T.U.K.L.M.V.4.W.  ",
"X.Y.Z.L.(.(.`. +.+++@+#+$+%+L.(.(.`.&+*+  ",
"=+-+;+>+(.(.,+'+)+!+~+{+]+^+>+(.(./+(+_+  ",
":+<+[+}+|+1+2+3+4+5+6+p 7+8+9+0+a+b+c+d+  ",
"  e+f+g+h+m 5+i+i+j+k+l+m+n+o+p+q+r+s+    ",
"    t+u+v+w+x+y+z+]+A+B+C+D+E+F+G+H+      ",
"    I+J+K+L+M+N+O+P+Q+R+S+T+U+V+W+X+      ",
"      Y+Z+`+ @.@+@@@#@$@%@&@*@=@-@        ",
"          ;@>@,@'@)@!@~@{@]@^@            ",
"              /@(@_@:@<@[@                "};
