/* XPM */
static const char *p_text_italic[]={
    "16 16 2 1",
    ". c None",
    "# c #000000",
    "................",
    "................",
    "................",
    ".......####.....",
    "........##......",
    "........##......",
    ".......###......",
    ".......##.......",
    ".......##.......",
    ".......##.......",
    "......###.......",
    "......##........",
    "......##........",
    ".....####.......",
    "................",
    "................"};
