/* XPM */
static const char *yahoo_offline[]={
"16 16 38 1",
"z c #000000",
"p c #6a1800",
"i c #803c22",
"A c #808000",
"J c #808080",
"F c #898787",
"v c #902f0d",
"# c #913e1d",
"b c #993e1b",
"H c #a0a0a4",
"w c #a82f09",
"q c #a9411d",
"G c #aa9faa",
"E c #aabfaa",
"I c #adaaaa",
"e c #b86240",
"a c #b94d23",
"g c #b9552e",
"d c #c06542",
"B c #c0dcc0",
"f c #c3623b",
"x c #ce3401",
"j c #d26f47",
"c c #d36e46",
"C c #d4bfaa",
"l c #d76336",
"y c #dbdbdb",
"n c #e05825",
"m c #e06a3c",
"t c #e4622f",
"o c #e73300",
"s c #e76331",
"D c #e7e3e3",
"r c #ee4914",
"u c #f75f27",
"h c #fe7339",
"k c #fea074",
". c None",
"...........#a...",
"bcdef......gh...",
".ijkl..mnopqr...",
"...st..uv..wx...",
"...ssyyzzAAByB..",
"...sCzzDDDDAAyC.",
"...yzDDDDDDDDAB.",
"..EyzDDDDDDDDACB",
"..BzDDDFDDFDDDAC",
"..EzDDGHIIJIDDAy",
"..BzDDDDDDDDDDAB",
"..BzDDFDDDDFDDAB",
"..yCzDDFIIFDDAIC",
"...BzDDDDDDDDAI.",
"...BCzzDDDDAABC.",
"....yCBzzzABCB.."};
