/* XPM */
static const char *xpm_18[]={
"32 32 128 2",
"#j c #07e7fd",
"#9 c #0ed9ed",
"#C c #1ae6fa",
"#n c #1cc8d9",
"#1 c #24b7c4",
"#p c #25d9e9",
".H c #282e36",
"#c c #2b454a",
"#e c #2e8a93",
"#f c #3297a3",
"#F c #32e3f3",
".O c #34393f",
"#a c #36686e",
"#0 c #37cfdc",
".G c #394855",
"#r c #3bacb6",
".5 c #3c4247",
"#B c #3c595c",
"#N c #3d767a",
"#S c #41dbe9",
".y c #444f5d",
"#q c #44e0ee",
"#d c #45656a",
"#o c #46e6f4",
"## c #47494b",
"#R c #47888d",
".F c #4d5864",
"#2 c #4e5c5c",
"#5 c #52e7f4",
".V c #535d69",
".N c #55606e",
"#g c #565757",
"#3 c #58dae5",
"#b c #5b787b",
"#7 c #5ce3ef",
".4 c #5d6976",
".9 c #606161",
"#M c #60cfd8",
".X c #61676e",
".p c #656d77",
"#D c #66e5ef",
".R c #677380",
"#O c #6b6b6b",
".0 c #6b7582",
".1 c #6b7982",
"#J c #6c8385",
".b c #6e7379",
".x c #707c87",
".a c #737a82",
"#6 c #738a8c",
".K c #76818c",
"#l c #787878",
"#T c #78e3ec",
".L c #7a848f",
"#v c #7ba6a9",
"#K c #7cdde6",
"#P c #7ed6dd",
".q c #7f8284",
".Z c #7f8993",
".M c #838e9a",
"#h c #858686",
"#k c #89dfe6",
"#m c #8a8a8a",
".Q c #8b939a",
".T c #8d97a1",
".j c #9097a0",
".z c #929394",
".h c #939ba3",
"#I c #93e5ec",
".f c #959ea7",
"#x c #95bbbe",
".# c #96999c",
".u c #98a1a9",
".D c #9ca4ac",
"#Z c #9f9f9f",
".o c #9fa7af",
".C c #a4abb2",
"#X c #a5c3c4",
".6 c #a6a7a8",
".t c #a7aeb4",
"#z c #a9e2e7",
".s c #abb1b8",
"#Q c #abd7da",
".v c #aeb4ba",
".S c #afb7bf",
"#4 c #b0d6d9",
"#s c #b3b3b3",
".B c #b4b7ba",
".E c #b5b8bc",
".P c #b5bcc2",
"#y c #b5e5e9",
".k c #b9bfc4",
"#8 c #baf1f5",
"#E c #bcbcbc",
".e c #bfc3c7",
".g c #c2c6c9",
"#H c #c3c4c4",
"#W c #c5f4f7",
".w c #c6c9cc",
".n c #c6cdd0",
"#U c #c9c9c9",
".J c #cacccd",
"#V c #cdcdcd",
".l c #cdd0d2",
".i c #d0d2d2",
".8 c #d1d3d7",
".m c #d3d4d6",
".c c #d5d5d5",
".2 c #d6d7d8",
".W c #d6d8db",
"#w c #d6e8ea",
".3 c #d8d9da",
"#i c #d8f2f4",
".I c #dbdbdb",
".d c #dedede",
".A c #e1e1e1",
"#u c #e2eaea",
"#L c #e3e3e3",
"#. c #e5e5e5",
".r c #e7e7e7",
"#t c #e9f9fa",
"#A c #eaeaea",
"#G c #ececec",
".Y c #f0f0f1",
".U c #f5f5f5",
".7 c #fafafa",
"#Y c #fcffff",
"Qt c None",
"QtQtQtQtQtQtQtQtQtQtQtQtQtQtQtQtQtQtQtQtQtQtQtQtQtQtQtQtQtQtQtQt",
"QtQtQtQtQtQtQtQtQtQtQtQtQtQtQtQtQtQtQtQtQtQtQtQtQtQtQtQtQtQtQtQt",
"QtQtQtQtQtQtQtQtQtQtQtQtQtQtQtQtQtQtQtQtQtQtQtQtQtQtQtQtQtQtQtQt",
"QtQtQtQtQtQtQtQtQtQtQtQtQtQtQtQtQtQtQtQtQtQtQtQtQtQtQtQtQtQtQtQt",
"QtQtQtQtQtQtQtQtQtQtQtQtQt.#.a.b.cQtQtQtQtQtQtQtQtQtQtQtQtQtQtQt",
"QtQtQtQtQtQtQtQtQtQt.d.e.b.f.g.e.h.b.iQtQtQtQtQtQtQtQtQtQtQtQtQt",
"QtQtQtQtQtQtQtQtQt.g.a.j.k.l.c.m.n.o.p.q.rQtQtQtQtQtQtQtQtQtQtQt",
"QtQtQtQtQtQtQtQt.m.p.o.s.t.u.v.v.t.w.e.x.y.z.AQtQtQtQtQtQtQtQtQt",
"QtQtQtQtQtQtQt.B.p.o.C.v.k.D.D.C.E.e.E.u.F.G.H.qQtQtQtQtQtQtQtQt",
"QtQtQtQtQtQtQt.p.C.w.g.I.l.g.C.J.I.e.K.p.L.M.N.O.#QtQtQtQtQtQtQt",
"QtQtQtQtQtQt.m.b.D.k.k.P.D.f.f.e.e.Q.N.R.S.e.P.T.p.cQtQtQtQtQtQt",
"QtQtQt.U.#.D.a.k.C.v.t.T.M.R.R.M.x.V.p.w.W.d.e.P.C.X.a.b.YQtQtQt",
"QtQtQt.b.T.h.B.t.h.s.g.k.Z.N.0.o.Z.Z.J.d.d.m.P.t.P.B.C.1.X.UQtQt",
"QtQt.J.K.u.f.k.E.T.w.W.P.L.F.Q.W.l.d.2.n.l.v.K.Q.W.3.u.4.5.6.7Qt",
"QtQt.p.C.K.C.d.g.o.S.f.R.x.s.w.m.3.8.S.u.M.1.y.L.P.T.p.V.5.9.dQt",
"QtQt.q.Q.C.k.W.f.Z.x.4.4.g#..d.I.m.g.h.x.N.y.y.1.K.4.N.L##.9.dQt",
"QtQt.Y.V.b.T.h.M.0.N.F.G.K.v.D.Q.u.s.0.F.y.G.F.4.0.F.b.F##.9.dQt",
"QtQtQt.7.Q#a#b.O.O.H.H#c#d.5.O.5.O.G#d.O.H.O.H#e#f.O.5###g#h.YQt",
"QtQtQtQt#i#j#k#l.z#m#h#n#o#l.z.q.z#p#q###h.b.9#r#r##.#.6#s.rQtQt",
"QtQt#t#u.7#v.5#h#t#w.Y#x#a#g#y#z#A#x#B.9#w#z.g#s.9#x#k.2QtQtQtQt",
"QtQt#C#D#E.r#E.d#F#o.6#G.E#H#q#F#h#.#H.c#I#j#J.d.U#K#j#g#LQtQtQt",
"QtQt#M#N#O#G#A.7#P#e.9.r.Y#G#Q#N#O#G.7#A#w#R#g.I#u.n#b#O.rQtQtQt",
"QtQt.U#E.i#S#T.6.Y#U#V#W#F#X#V.A#L#Y#q#K#Z#L.A#I#C.1#U#GQtQtQtQt",
"QtQtQtQt#Y#S#e#O.r.I.A#W#n#B.B#L.r#Y#0#e#m.r.A#y#1#2.3QtQtQtQtQt",
"QtQtQtQtQt.7#U.3#3#3#m#G#.#H#P#D#h.r.U#H#4#5#6.i#L.2.7QtQtQtQtQt",
"QtQtQtQtQtQtQtQt#7#r.b#GQtQt#T#n.9#LQtQt#8#9#d#VQtQtQtQtQtQtQtQt",
"QtQtQtQtQtQtQtQtQt#A#GQtQtQtQt#.#LQtQtQtQt#G.d.7QtQtQtQtQtQtQtQt",
"QtQtQtQtQtQtQtQtQtQtQtQtQtQtQtQtQtQtQtQtQtQtQtQtQtQtQtQtQtQtQtQt",
"QtQtQtQtQtQtQtQtQtQtQtQtQtQtQtQtQtQtQtQtQtQtQtQtQtQtQtQtQtQtQtQt",
"QtQtQtQtQtQtQtQtQtQtQtQtQtQtQtQtQtQtQtQtQtQtQtQtQtQtQtQtQtQtQtQt",
"QtQtQtQtQtQtQtQtQtQtQtQtQtQtQtQtQtQtQtQtQtQtQtQtQtQtQtQtQtQtQtQt",
"QtQtQtQtQtQtQtQtQtQtQtQtQtQtQtQtQtQtQtQtQtQtQtQtQtQtQtQtQtQtQtQt"};
