/* XPM */
static const char *xpm_2[]={
"32 32 128 2",
"#e c #191c1f",
"#a c #1a1f23",
"#p c #2b454f",
".7 c #2c3033",
"#m c #2d4e53",
"#f c #2f363c",
"#U c #32585b",
".8 c #373c41",
".z c #3b434b",
"#I c #3c686c",
"#n c #3c747e",
"#q c #3f818a",
"#d c #404a55",
".s c #444648",
"#Y c #457276",
"#o c #478a94",
"#6 c #497e83",
".A c #4a4e52",
".y c #4b5259",
"#7 c #4b9fa7",
"#b c #4d5963",
"#z c #4da0a8",
"#w c #54b3bc",
".Y c #57595a",
"#R c #5b8d92",
"#P c #5bb8c3",
"#N c #5c8489",
"#E c #5c979f",
"#M c #5cc4cf",
"#. c #5e6369",
".m c #5f6976",
".9 c #616d77",
".Q c #626262",
"#l c #63bdca",
"#9 c #647c7e",
"#h c #66707c",
".J c #686868",
"#X c #68c9d4",
".b c #6a7075",
"#H c #6ad2df",
".I c #6b6c6c",
"#k c #6b737a",
"#s c #6bd8e5",
".P c #6e6e6e",
"#L c #6f999e",
".L c #707171",
".a c #70777f",
"#C c #739eac",
".v c #757576",
"#y c #75bbc6",
"#F c #76acb8",
".N c #777878",
".n c #787c81",
"#5 c #7ac1cf",
".X c #7b7c7c",
".u c #7b8288",
"#g c #7d868f",
".S c #818181",
"#4 c #818e90",
"#v c #81afbb",
".t c #848587",
"#j c #85888e",
".B c #878787",
".T c #898989",
"#c c #8a939b",
".M c #8c8c8c",
".w c #8f9191",
"#O c #8fbcc9",
"#T c #8fc6d4",
"#3 c #929696",
"#D c #93ceda",
".x c #949495",
".# c #9499a0",
".f c #959ba8",
".K c #999999",
"#V c #9ac1c9",
".l c #9da4ad",
".W c #9e9e9e",
"#0 c #9eb9bc",
"#2 c #a0b2bf",
"## c #a1a8af",
".q c #a2a2a2",
"#i c #a5acb3",
"#1 c #a5b7c4",
".1 c #a7a7a7",
"#r c #a8c7cd",
".D c #aaaaaa",
".O c #adadad",
"#W c #b0aebc",
".R c #b2b2b2",
".r c #b7b8b8",
".V c #bababa",
"#B c #bbbac4",
".4 c #bdbdbd",
".i c #c0c0c1",
".h c #c0c3c7",
"#K c #c2c0ca",
".e c #c2c4c5",
".g c #c6c6c7",
".j c #c8cacb",
".0 c #cbcbcb",
"#u c #cbdde1",
".c c #cccdd0",
"#G c #cfd2da",
".p c #d1d2d2",
".k c #d4d5d5",
".C c #d7d7d7",
"#x c #d8dadf",
".H c #dadada",
"#A c #dce3e6",
".2 c #dddede",
".d c #e0e0e1",
"#J c #e0ebed",
"#Z c #e1e0e4",
"#S c #e4e4e9",
"#t c #e5e5e5",
".U c #e8e8e9",
".o c #eaeaeb",
".G c #edeeee",
"#Q c #edeef1",
"#8 c #edf1f1",
".6 c #f0f0f0",
".3 c #f2f2f3",
".5 c #f5f5f5",
".Z c #f6f7f7",
".E c #fafafb",
".F c #fdfdfd",
"Qt c None",
"QtQtQtQtQtQtQtQtQtQtQtQtQtQtQtQtQtQtQtQtQtQtQtQtQtQtQtQtQtQtQtQt",
"QtQtQtQtQtQtQtQtQtQtQtQtQtQtQtQtQtQtQtQtQtQtQtQtQtQtQtQtQtQtQtQt",
"QtQtQtQtQtQtQtQtQtQtQtQtQtQtQtQtQtQtQtQtQtQtQtQtQtQtQtQtQtQtQtQt",
"QtQtQtQtQtQtQtQtQtQtQtQtQtQtQtQtQtQtQtQtQtQtQtQtQtQtQtQtQtQtQtQt",
"QtQtQtQtQtQtQtQtQtQtQtQtQtQtQtQtQtQtQtQtQtQtQtQtQtQtQtQtQtQtQtQt",
"QtQtQtQtQtQtQtQtQtQtQtQtQtQtQtQtQtQtQtQtQtQtQtQtQtQtQtQtQtQtQtQt",
"QtQtQtQtQtQtQtQtQtQtQtQtQtQt.#.a.b.cQtQtQtQtQtQtQtQtQtQtQtQtQtQt",
"QtQtQtQtQtQtQtQtQtQtQt.d.e.b.f.g.h.#.b.iQtQtQtQtQtQtQtQtQtQtQtQt",
"QtQtQtQtQtQtQtQtQtQt.j.a.#.i.c.k.k.c.l.m.n.oQtQtQtQtQtQtQtQtQtQt",
"QtQtQtQtQtQtQt.p.q.r.s.n.t.n.u.v.#.b.w.x.y.z.A.B.p.C.q.C.D.i.EQt",
"QtQtQtQt.F.G.H.I.x.J.K.I.L.v.J.M.N.O.P.P.Q.J.R.O.A.v.S.Q.T.Q.UQt",
"QtQtQtQt.E.d.V.Q.W.J.p.P.D.I.M.S.L.p.X.w.Y.S.M.D.v.X.W.x.J.w.ZQt",
"QtQtQtQt.E.d.r.P.K.q.0.B.K.S.V.Q.S.d.T.1.Y.O.Q.D.J.B.p.q.A.2QtQt",
"QtQtQtQt.3.t.i.X.i.q.O.4.y.N.e.N.1.V.g.w.v.g.J.k.s.M.5.Q.z.oQtQt",
"QtQtQtQt.b.u.e.t.3.J.c.i.v.S.q.N.R.K.6.I.B.q.X.V.7.K.V.8.9.y.EQt",
"QtQtQt.j.u.w.V.O.C.J.5.X.D.1.v.L.x.K.5.Y.O.x.R.L.J.R.X#..m.z.2Qt",
"QtQt.F.b##.#.q.4.X.P.k.s.q.r.L.M.L.x.g.J.g.2.W#a.T.4.s#b#b.z.2Qt",
"QtQtQt.n#c##.#.s.y.A.7#d#b.s.S.Q.Q.Q.8.Y.7#e#a.8.9#f.7#b#g#d.2Qt",
"QtQtQt.G.y.a#c#c#g#h#b#b#d.a#i.##j.#.l#h.y#d.z#b.m#h.y#k#b.L.6Qt",
"QtQtQtQt.o#l#m.A#b#n#a.8#d#o#f.s.m#n#f.A#d#p#f#f.y#q#b.n.1.UQtQt",
"QtQtQtQt#r#s.7#t.5#u#t.U#v#w.t#x#y#z.R.G#A#r.p#B#C#w.pQtQtQtQtQt",
"QtQtQtQt#D#E.w#x#F.I.5#G#H#I.2.F#J.2.F#K#L.O.F.f#M#N.FQtQtQtQtQt",
"QtQtQt.F#J.dQt#O#P.Y.E#Q#r.V#Q#O#R.k#S#F#w.DQt.c#v.pQtQtQtQtQtQt",
"QtQtQt#T#E.v#S#s#U.i#Q#V.w.Z#B#H#I.d#W#X#Y.6#Z#0.eQtQtQtQtQtQtQt",
"QtQt#Q#s#m.1#u#y.J.5#1#H.z.G#v#M.J.E#2#w#3.5.f#M#4QtQtQtQtQtQtQt",
"QtQt#D#X#f.U.F.E.E.3#5#o.x#S#5#6.0Qt.Z.G.E#K#F#7.HQtQtQtQtQtQtQt",
"QtQt#D#N.WQtQtQtQt#G#X.y.d.F#8.6.FQtQtQt.F.l#M#9.EQtQtQtQtQtQtQt",
"QtQt.F.EQtQtQtQtQtQt.o.UQtQtQtQtQtQtQtQtQt.3.C.GQtQtQtQtQtQtQtQt",
"QtQtQtQtQtQtQtQtQtQtQtQtQtQtQtQtQtQtQtQtQtQtQtQtQtQtQtQtQtQtQtQt",
"QtQtQtQtQtQtQtQtQtQtQtQtQtQtQtQtQtQtQtQtQtQtQtQtQtQtQtQtQtQtQtQt",
"QtQtQtQtQtQtQtQtQtQtQtQtQtQtQtQtQtQtQtQtQtQtQtQtQtQtQtQtQtQtQtQt",
"QtQtQtQtQtQtQtQtQtQtQtQtQtQtQtQtQtQtQtQtQtQtQtQtQtQtQtQtQtQtQtQt"};
