/* XPM */
static const char *xpm_27[]={
"32 32 128 2",
"#0 c #4c4d50",
"#2 c #646467",
"#z c #6c6f76",
"#Z c #6f737e",
"#7 c #7e7c76",
"#3 c #807f7d",
"#6 c #808082",
"#P c #87888b",
"#A c #878ca6",
"#W c #898b97",
"#p c #8e9099",
"#q c #8e91ab",
"#K c #919293",
"#w c #9396a5",
".Y c #959ab0",
"#Y c #969697",
"#Q c #9b9da1",
"#o c #9ca1b8",
".P c #9d8d75",
"#m c #9f9d96",
".0 c #a0a3ae",
"#r c #a1a5bc",
".H c #a38a65",
"#s c #a4aabe",
"#e c #a5a5a2",
".1 c #a69d8a",
".9 c #a7aaaf",
"#h c #aaaec5",
"#U c #aaafba",
"#x c #acaeb3",
".X c #acb2c3",
".G c #aea99d",
".Z c #aeb4c8",
"#F c #afb6c9",
".Q c #b19976",
".z c #b2a283",
"## c #b2b2b1",
"#C c #b2b5bb",
"#d c #b3b9bd",
".6 c #b4b9c7",
".A c #b5ab98",
"#i c #b5bacd",
".I c #b7a07e",
"#c c #b9bdcb",
"#L c #bbbcbd",
"#b c #bcc2d2",
".D c #bdb8a9",
".B c #c0ad8b",
"#g c #c0c6d5",
".R c #c1b69b",
"#f c #c2c5cd",
"#k c #c2c8d9",
".O c #c3c9d4",
"#E c #c5c5c5",
".J c #c6b695",
"#n c #c7ccd7",
".N c #c7ceda",
".C c #c8bfa6",
".L c #c8c8c8",
"#v c #c9d0dd",
".K c #cac6b7",
"#X c #cbd2e3",
"#G c #ccccce",
"#4 c #ccd2da",
".t c #cdc2a6",
"#J c #cdd2dd",
"#u c #cfd2d9",
"#j c #d0d7e1",
"#M c #d1d1cf",
"#l c #d1d5db",
".w c #d2c7ab",
"#N c #d3d7e0",
".s c #d5ccb1",
"#t c #d5ddea",
".y c #d7cfb5",
".o c #d7d3b9",
"#5 c #d7d7d6",
".7 c #d7dbe1",
".q c #d8d1b9",
".u c #dad0b6",
".r c #dad5ba",
".8 c #dadde3",
".p c #dbd5bc",
".U c #dbdbdb",
"#a c #dbdfe6",
".k c #dcd6bd",
".v c #ddd2b8",
".T c #ddd6bb",
".3 c #dde2e9",
".l c #dfd8bf",
".j c #e0dbc0",
"#. c #e1d1ab",
".h c #e3ddc1",
"#1 c #e3e5ea",
".E c #e4e3dd",
"#V c #e4e5e6",
".i c #e5e0c4",
".M c #e5e8ec",
".x c #e6dbb6",
".m c #e7e2c7",
"#H c #e8e8e9",
".F c #e8eaeb",
".2 c #e8edef",
".n c #e9ddba",
".g c #ebe4c3",
"#y c #ebecec",
".V c #eceded",
".f c #ede4bf",
".5 c #edf1f3",
"#D c #eeece2",
"#I c #efefee",
"#O c #f0f1f0",
"#8 c #f1efe7",
"#B c #f2f3f2",
".4 c #f2f4f4",
".e c #f4eac9",
"#9 c #f5f3ea",
"#S c #f5f5f5",
".W c #f7f8f8",
".d c #faf3da",
"#T c #fbfafa",
".S c #fdfaf0",
"#R c #fdfdfd",
".c c #fffcf2",
".b c #fffdf5",
".a c #fffefa",
".# c #fffffe",
"Qt c None",
"QtQtQtQtQtQtQtQtQtQtQtQtQtQtQtQtQtQtQtQtQtQtQtQtQtQtQtQtQtQtQtQt",
"QtQtQtQtQtQtQtQtQtQtQtQtQtQtQtQtQtQtQtQtQtQtQtQtQtQtQtQtQtQtQtQt",
"QtQtQtQtQtQtQtQtQtQtQtQtQtQt.#.#.#.#QtQtQtQtQtQtQtQtQtQtQtQtQtQt",
"QtQtQtQtQtQtQtQtQtQt.#.a.a.b.b.c.b.b.b.a.#QtQtQtQtQtQtQtQtQtQtQt",
"QtQtQtQtQtQtQtQt.#.a.b.d.e.f.g.g.g.f.e.d.c.a.#QtQtQtQtQtQtQtQtQt",
"QtQtQtQtQtQtQt.#.b.d.f.h.i.j.j.k.l.i.m.i.n.d.b.#QtQtQtQtQtQtQtQt",
"QtQtQtQtQtQt.#.b.e.h.m.m.o.o.p.k.l.h.m.h.q.q.f.c.#QtQtQtQtQtQtQt",
"QtQtQtQtQt.#.b.f.i.h.j.j.r.r.j.s.t.u.l.v.s.w.w.x.c.#QtQtQtQtQtQt",
"QtQtQtQtQt.b.e.i.j.j.j.h.i.j.y.z.A.w.B.t.s.s.w.C.n.b.#QtQtQtQtQt",
"QtQtQtQt.a.d.h.l.l.j.j.h.i.s.D.E.F.G.H.I.w.v.q.y.J.e.aQtQtQtQtQt",
"QtQtQt.#.b.f.q.q.j.p.K.K.K.L.M.N.O.O.P.Q.J.y.o.w.R.w.S.#QtQtQtQt",
"QtQtQt.#.d.i.T.q.y.D.U.V.W.W.M.X.Y.Z.0.1.w.s.y.t.J.I.e.aQtQtQtQt",
"QtQtQt.a.e.h.T.s.D.2.3.4.4.5.N.6.7.8.M.9.R.w.s.t.C.Q#..aQtQtQtQt",
"QtQtQt.b.f.h.s.w###a.2.M.O#b.Z#c.4.4.2#d.1.R.D.C.t.Q.J.bQtQtQtQt",
"QtQtQt.b.i.j.u.s#e#f.7#g#h#i.6#a.4#j#b#k.X.0#j#l##.z.B.c.#QtQtQt",
"QtQt.#.b.s.s.u.C#m#n.Z#o.Y.0#d###p#q#r#s#r#k.3#t#g#e.1.c.#QtQtQt",
"QtQt.#.b.J.A.G###u#v.0#w#x#y.V#y.U.9#z#A#b#B.2.5#v#k#C#D.#QtQtQt",
"QtQtQt.S#E#t.3#v#F#w#G#l#H#y#I.V#y#J.Y#K#L#H#B.2#g.Z.X#M.#QtQtQt",
"QtQtQt.U.5.5.W#I#C#C#y.V#y#j#N#n#n#O#b#A#w#P#Q#u.5.X#s#C#RQtQtQt",
"QtQt#S#l#T#T.3#U#f#y.V.V.3#k.Z#b#V#y#b#q#o#q#W#Q#a#b#g#n#OQtQtQt",
"QtQt#O#u.M#v#s#W#V.F.F.M#t#X#b#V#I#N#r#F#a.N#h#W#W#k.5#l#MQtQtQt",
"QtQt#B#Y#Z#0#0##.M#j.8#v#X#b#i#J.N#h#r.7#I.V#1#u#2#P#P#z#MQtQtQt",
"QtQtQt.L#3#L#L#H#4.O#N.N#F.Y#o#b#h#h.8#O.V#y#a.M#V#H.6#2#HQtQtQt",
"QtQt#T.L#l#4#n.8.6#b.V#y#b#A.6.V#V#H#O.V.V#4.O#H#B.3.Z#P#MQtQtQt",
"QtQt#O#E.7#s#l#y#a.8.M#k#s#c.8#I.V.V#1.N#b#o#o#a#N#i#h#2.LQtQtQt",
"QtQt#S#G#H.N#H#1#J#n#i#o.O#B#I#y.V.M#k#r.Y#q#r#F#o#r#k#2#GQtQtQt",
"QtQt#R.U#5.8#a.7#k.X#o#A#c.F#1#H.V.3#i.Y#A#q#i#k.6#n#f#2#HQtQtQt",
"QtQtQt#R#H#E#e#K#K#P#W#6#3#Y#Y#7#e#e#P#K#w#p#6#P#K#K#K#MQtQtQtQt",
"QtQtQtQtQtQt#R.W#S#I#y#V#8#9#8#D#9.E.E#H#5#G.U#S#RQtQtQtQtQtQtQt",
"QtQtQtQtQtQtQtQtQtQtQtQtQt.#.#.#.#.#QtQtQtQtQtQtQtQtQtQtQtQtQtQt",
"QtQtQtQtQtQtQtQtQtQtQtQtQtQtQtQtQtQtQtQtQtQtQtQtQtQtQtQtQtQtQtQt",
"QtQtQtQtQtQtQtQtQtQtQtQtQtQtQtQtQtQtQtQtQtQtQtQtQtQtQtQtQtQtQtQt"};
