/* XPM */
static const char *xpm_3[]={
"32 32 128 2",
"#n c #1b1d22",
"#m c #1c2026",
"#k c #25282d",
"#o c #2b2e33",
"#. c #2e3237",
"#d c #37393f",
".0 c #3b3f45",
".6 c #3f4248",
"#G c #403f1d",
"## c #40484e",
"#l c #484d52",
"#r c #487175",
"#f c #4a505a",
"#3 c #4e5d4b",
"#t c #4e6668",
"#w c #535518",
".E c #53565b",
"#y c #538286",
"#x c #547d81",
"#V c #575731",
".F c #575c65",
"#u c #587c5a",
".Z c #5b646b",
"#1 c #5c5b46",
"#h c #5d656f",
"#j c #626973",
"#q c #63a0a8",
".D c #656868",
".9 c #656c78",
"#B c #659599",
"#H c #69aeb4",
"#R c #6abcc3",
".L c #6b6f73",
".8 c #6b727c",
"#z c #6bb2ba",
"#s c #6f6d7a",
"#M c #706c17",
"#g c #707782",
"#8 c #737161",
".C c #737576",
"#P c #74a9b1",
"#0 c #759496",
"#2 c #779e74",
".G c #7a7a82",
".1 c #7a8188",
"#X c #7d7a30",
"#c c #7d848d",
".4 c #808690",
"#J c #817f56",
"#4 c #827e25",
".M c #828284",
"#a c #828a93",
"#S c #839aa9",
"#C c #859193",
".K c #86878d",
".5 c #868d94",
".N c #898986",
"#i c #898f98",
"#b c #899098",
".y c #8c8d8d",
".3 c #8c929b",
".P c #919294",
".Q c #91979d",
"#v c #928d11",
"#Y c #929084",
"#Q c #9292a3",
".x c #959a9c",
".2 c #959ca2",
".V c #9c9ca2",
".X c #9ca9af",
"#A c #9d9d9d",
".t c #9da3a9",
"#D c #9fa62d",
".A c #a0a1a1",
"#I c #a2b7b9",
".7 c #a3adb0",
"#e c #a4a6a9",
"#Z c #a5a1b0",
".S c #a5aaae",
".Y c #aaabb6",
"#p c #aaacac",
"#5 c #abb9bb",
"#K c #acaa0f",
".m c #acb0b5",
".w c #adb3b9",
".U c #afb7bc",
".H c #b3b9bc",
".B c #b4bac1",
".O c #b5b5b4",
"#O c #bab7c3",
".b c #babec3",
".e c #bbbdbd",
"#7 c #bdb725",
".c c #bec6c9",
".f c #c2c6c9",
".g c #c4c4c5",
".d c #c4c9cd",
".n c #c6ced3",
"#U c #cbc609",
".h c #cdcecc",
".a c #cdd1d5",
".o c #ced4d9",
"#6 c #d1ca24",
".u c #d1d6da",
"#9 c #d4d3cf",
".l c #d5d5d4",
".q c #d5d9dd",
".p c #d6dce0",
".R c #dadcdc",
".i c #dadee0",
".r c #dde3e6",
"#T c #e1d908",
".v c #e2e6e9",
".T c #e3e3e4",
"#W c #e9e8ec",
".s c #e9e9e9",
"#E c #ebe304",
".I c #ececec",
"#N c #edecee",
".# c #eeeef0",
".W c #f0f0f0",
".z c #f4f4f3",
".J c #f7f7f7",
"#L c #f9f001",
".j c #fafafb",
".k c #fdfdfd",
"#F c #fef400",
"Qt c None",
"QtQtQtQtQtQtQtQtQtQtQtQtQtQtQtQtQtQtQtQtQtQtQtQtQtQtQtQtQtQtQtQt",
"QtQtQtQtQtQtQtQtQtQtQtQtQtQtQtQtQtQtQtQtQtQtQtQtQtQtQtQtQtQtQtQt",
"QtQtQtQtQtQtQtQtQtQtQtQtQtQtQtQtQtQtQtQtQtQtQtQtQtQtQtQtQtQtQtQt",
"QtQtQtQtQtQtQtQtQtQtQtQt.#.a.b.c.d.e.e.f.g.d.h.i.j.kQtQtQtQtQtQt",
"QtQtQtQtQtQtQtQtQtQt.l.m.a.n.o.p.p.q.q.r.r.i.o.c.m.m.e.sQtQtQtQt",
"QtQtQtQtQtQtQtQtQt.s.t.c.o.u.r.r.r.v.i.p.q.n.u.u.w.x.y.e.zQtQtQt",
"QtQtQtQtQtQtQtQtQt.A.p.a.a.u.i.p.v.v.q.o.B.C.D.D.E.F.G.H.IQtQtQt",
"QtQtQtQtQtQtQtQt.J.K.f.i.p.u.o.n.q.u.d.d.x.E.L.M.N.A.O.l.zQtQtQt",
"QtQtQtQtQtQtQtQt.P.Q.m.e.R.p.o.d.u.q.b.m.S.C.T.J.JQtQtQtQtQtQtQt",
"QtQtQtQtQtQtQtQt.D.U.m.V.u.q.B.B.r.p.d.w.G.D.WQtQtQtQtQtQtQtQtQt",
"QtQtQtQtQtQtQt.k.E.S.H.H.c.B.X.Y.w.m.H.m.Z.D.sQtQtQtQtQtQtQtQtQt",
"QtQtQtQtQtQtQt.W.0.1.t.B.2.t.d.B.t.3.4.5.6.D.IQtQtQtQtQtQtQtQtQt",
"QtQtQtQtQtQtQt.x.0.Q.7.m.5.t.U.w.U.X.8.9.0.F.WQtQtQtQtQtQtQtQtQt",
"QtQtQtQtQtQt.J#.###a.Q.3.5#a#a.4#b#c.8.9.E#d.sQtQtQtQtQtQtQtQtQt",
"QtQtQtQtQtQt#e#f.1.5.Q#c.1.9.4.2.3.9.F.9#f#d.AQtQtQtQtQtQtQtQtQt",
"QtQtQtQtQtQt.G#b#b.9#a.8.5.3.Q.Y#e#g#f.F#h.Z.6.zQtQtQtQtQtQtQtQt",
"QtQtQtQtQtQt.F#h.8#f#f#g.7.2.4#i#i.4.8.F#c#f#..CQtQtQtQtQtQtQtQt",
"QtQtQtQtQtQt.6.6.9.Z#j.H.w.1.9.8.1#a.1#j#g#j.9###eQtQtQtQtQtQtQt",
"QtQtQtQtQt.e#k#f#h.F.F.2#a#h.E#j#c#a.8#j.1#c.1###d.eQtQtQtQtQtQt",
"QtQtQtQt.J#l.6#d.0#f#f.F.F.0.E.F.1.1.L#g.L.8.8###d##.kQtQtQtQtQt",
"QtQtQtQt.k.E#.#m#n#k#o#l#.#n#k#o.6#.#k.0#o#.####.6#l#pQtQtQtQtQt",
"QtQtQtQtQt.T.G#q#r#l#s#q#t.M#g#u#v#w#x#y.D.G#z#t.y#A.g.kQtQtQtQt",
"QtQtQtQtQt.j.Y#B#C.T.a.U.i.m#D#E#F#G#y#C.W.R.7.lQtQtQtQtQtQtQtQt",
"QtQtQtQtQt.#.c.n.W.Y#H#I.k#J#F#K#L#M.x#N#O#P.XQtQtQtQtQtQtQtQtQt",
"QtQtQtQt.j#Q#R#I.T#S#R.O.O#T#U#V#L#v.D#W#S#R#pQtQtQtQtQtQtQtQtQt",
"QtQtQtQt.a#S#H.g#O#P#B.e#X#F#V#Y#E#w.N#O#P#B.sQtQtQtQtQtQtQtQtQt",
"QtQtQtQt#Z#z#0.z#N.H.V#v#L#U#1.V#2#3.l.T.7.fQtQtQtQtQtQtQtQtQtQt",
"QtQtQtQt#N.d.sQtQt#p#4#F#D##.h.i#5.RQtQtQtQtQtQtQtQtQtQtQtQtQtQt",
"QtQtQtQtQtQtQtQtQt.O#6#7#8.hQtQtQtQtQtQtQtQtQtQtQtQtQtQtQtQtQtQt",
"QtQtQtQtQtQtQtQtQtQt.z#9.IQtQtQtQtQtQtQtQtQtQtQtQtQtQtQtQtQtQtQt",
"QtQtQtQtQtQtQtQtQtQtQtQtQtQtQtQtQtQtQtQtQtQtQtQtQtQtQtQtQtQtQtQt",
"QtQtQtQtQtQtQtQtQtQtQtQtQtQtQtQtQtQtQtQtQtQtQtQtQtQtQtQtQtQtQtQt"};
