/* XPM */
static const char *xpm_37[]={
"32 32 127 2",
"#E c #181812",
"#z c #1d1e25",
"#y c #202226",
"#B c #25272a",
"#A c #2d2e30",
"#x c #2e3137",
"#e c #34363b",
"#C c #363635",
"#s c #36393f",
".3 c #393c43",
"#D c #3d3d3d",
".8 c #3e4248",
"#k c #434345",
"#d c #454a54",
".G c #4a4b4c",
"#I c #4d4b0b",
".H c #4d5156",
"#j c #4d535f",
"#J c #515041",
".Z c #51555a",
".F c #555a64",
"#o c #5b616c",
"#c c #616975",
".I c #656666",
"#i c #69707a",
"#b c #6d7480",
"#q c #717980",
".X c #73757c",
".6 c #737985",
"#H c #757575",
"#n c #757b85",
"#l c #767d85",
"#p c #777f88",
".7 c #797c83",
"#m c #79818a",
"#g c #7b818d",
"#t c #7b828c",
".P c #7c7c7c",
"#W c #7d7a38",
"#f c #7d858c",
"#4 c #7e7c67",
"#u c #7e858a",
".M c #82868d",
"#8 c #83815e",
".Q c #838384",
"#h c #838b94",
"#v c #848a8f",
"#. c #878f96",
"#G c #898989",
".5 c #8b919a",
".C c #8f8f91",
".9 c #8f989f",
"#V c #918d33",
"#K c #918f67",
"#a c #919ba7",
".B c #939495",
"## c #939a9f",
".1 c #969ca4",
".O c #969da2",
".0 c #989ea6",
"#r c #99a0a6",
".J c #9a9a9b",
".R c #9c9ea2",
".4 c #9ca3aa",
".T c #a0a6ab",
".D c #a2a3a4",
"#Y c #a4a053",
".u c #a5abaf",
".A c #a5abb2",
"#w c #a8a9ac",
".W c #a8aeb7",
"#0 c #a9a561",
".r c #acb0b5",
"#O c #adaca1",
".k c #afb5b9",
".V c #b1b7bc",
".s c #b2b2b2",
"#T c #b3ae30",
"#X c #b8b55b",
"#S c #b8b67b",
"#Z c #b8b6a1",
"#N c #b9b20c",
".Y c #b9b9b9",
"#2 c #bab766",
".N c #bac0c5",
".b c #bcbec0",
".v c #bfc5cc",
".c c #c0c3c5",
"#L c #c1ba0d",
".e c #c3c6ca",
".d c #c5cacc",
".z c #c5ccd2",
"#7 c #c8c114",
".l c #c9d0d5",
"#3 c #cac209",
".f c #cbcecf",
".w c #ccd2d6",
".q c #cdd3d8",
".a c #cfd1d3",
".E c #cfd4d7",
".m c #d1d6db",
".j c #d2d2d3",
".n c #d3d9de",
"#5 c #d4d3cf",
".y c #d6dbde",
".S c #d7dcde",
".o c #d8dde1",
".g c #dddddb",
".p c #dde3e7",
"#Q c #e0d807",
".x c #e1e6e9",
"#6 c #e2dc34",
"#F c #e4e4e4",
".t c #e7e7e7",
"#M c #eae103",
"#1 c #ebebe0",
".2 c #ebebeb",
".# c #eeeeef",
".L c #f2f2f2",
"#P c #f3f3f3",
"#R c #f4eb03",
".U c #f6f6f6",
".h c #f9f9f9",
".K c #fcfcfc",
".i c #fdfdfd",
"#U c #fff500",
"Qt c None",
"QtQtQtQtQtQtQtQtQtQtQtQtQtQtQtQtQtQtQtQtQtQtQtQtQtQtQtQtQtQtQtQt",
"QtQtQtQtQtQtQtQtQtQtQtQtQtQtQtQtQtQtQtQtQtQtQtQtQtQtQtQtQtQtQtQt",
"QtQtQtQtQtQtQtQtQtQtQtQtQtQtQtQtQtQtQtQtQtQtQtQtQtQtQtQtQtQtQtQt",
"QtQtQtQtQtQtQtQtQtQtQtQtQtQtQtQtQtQtQtQtQtQtQtQtQtQtQtQtQtQtQtQt",
"QtQtQtQtQtQtQtQtQtQtQtQt.#.a.b.c.d.b.b.e.c.d.f.g.h.iQtQtQtQtQtQt",
"QtQtQtQtQtQtQtQtQtQt.j.k.l.l.m.n.o.n.n.p.p.o.q.e.r.s.b.tQtQtQtQt",
"QtQtQtQtQtQtQtQtQt.t.u.v.w.m.p.p.p.x.o.y.m.z.w.w.A.B.C.e.hQtQtQt",
"QtQtQtQtQtQtQtQtQt.D.o.q.q.m.o.n.x.x.m.E.r.F.G.H.G.I.J.g.KQtQtQt",
"QtQtQtQtQtQtQtQt.L.M.N.y.o.m.q.l.m.E.e.v.O.I.P.Q.J.s.j.LQtQtQtQt",
"QtQtQtQtQtQtQtQt.C.R.r.r.y.S.w.v.n.o.N.A.T.s.U.U.iQtQtQtQtQtQtQt",
"QtQtQtQtQtQtQtQt.I.V.r.T.E.E.W.V.o.m.d.V.X.YQtQtQtQtQtQtQtQtQtQt",
"QtQtQtQtQtQtQt.i.Z.O.k.b.V.W.W.A.0.1.T.T.F.sQtQtQtQtQtQtQtQtQtQt",
"QtQtQtQtQtQtQt.2.3.M.4.k.5.4.d.N.k.0.6.7.3.bQtQtQtQtQtQtQtQtQtQt",
"QtQtQtQtQtQtQt.Q.8.9.A.T#.##.0.9.4#a#b#c#d.CQtQtQtQtQtQtQtQtQtQt",
"QtQtQtQtQtQt.##e.F.M#.#f.M#b#g#h#.#b#c#i#j#kQtQtQtQtQtQtQtQtQtQt",
"QtQtQtQtQtQt.R#l.9#f.O#m#f#n.5.A.0#i#j#o#j.Z.cQtQtQtQtQtQtQtQtQt",
"QtQtQtQtQtQt.X#p#q#j.F#c#r#r.5#r.1#g#o.F#l.F.8QtQtQtQtQtQtQtQtQt",
"QtQtQtQtQtQt.Z#d#i#o.F.T.V#h#b.6#m#h#m#c#l.F.F.7.hQtQtQtQtQtQtQt",
"QtQtQtQtQtQt#s.H#c.F#o.A.9#c.F#i#t#h#i#o#l#t#m#d.RQtQtQtQtQtQtQt",
"QtQtQtQtQt.D.3.8#d#j#j#c#c#d.Z#o#u#v#b#q#q#n#q#d.3#wQtQtQtQtQtQt",
"QtQtQtQt.U#x#x#y#z#A#x#e#B#z#x#s.Z.8#x#d#s#x.8#s#e.HQtQtQtQtQtQt",
"QtQtQtQt.K.R.G#A#B#y#C#k#D#A#B#E#E#E#C#A#A#k#D#D#k.C.UQtQtQtQtQt",
"QtQtQtQtQt#F#G#H.I.I#H.J.J.P.G#I#I#J.J#G.P.B.B.C.J.Y.hQtQtQtQtQt",
"QtQtQtQtQtQt.h.L.2#F.#QtQt#K#L#M#N#OQt.h#PQtQt.iQtQtQtQtQtQtQtQt",
"QtQtQtQtQtQtQtQtQtQtQtQt.Y#N#Q#N#R#SQtQtQtQtQtQtQtQtQtQtQtQtQtQt",
"QtQtQtQtQtQtQtQtQtQtQt.i#T#U#V#W#U#XQtQtQtQtQtQtQtQtQtQtQtQtQtQt",
"QtQtQtQtQtQtQtQtQtQt.L#K#Q#N.s#Y#M#ZQtQtQtQtQtQtQtQtQtQtQtQtQtQt",
"QtQtQtQtQtQtQtQtQt.U#0#R#R#V.t#1#S.gQtQtQtQtQtQtQtQtQtQtQtQtQtQt",
"QtQtQtQtQtQtQtQtQt#2#R#3#4#5.KQt.KQtQtQtQtQtQtQtQtQtQtQtQtQtQtQt",
"QtQtQtQtQtQtQtQtQt#6#7#8#FQtQtQtQtQtQtQtQtQtQtQtQtQtQtQtQtQtQtQt",
"QtQtQtQtQtQtQtQtQt#P#5.2QtQtQtQtQtQtQtQtQtQtQtQtQtQtQtQtQtQtQtQt",
"QtQtQtQtQtQtQtQtQtQtQtQtQtQtQtQtQtQtQtQtQtQtQtQtQtQtQtQtQtQtQtQt"};
