/* XPM */
static const char *xpm_45[]={
"32 32 32 1",
"B c #262527",
"x c #3a3e3f",
"A c #495255",
"w c #586369",
"t c #68717b",
"D c #77a5ac",
"v c #7a7c7e",
"l c #878b8d",
"C c #94c5d2",
"o c #979ba0",
"p c #9ea6ac",
"k c #9f9880",
"m c #aaafb5",
"i c #b1aa8e",
"n c #b6babf",
"u c #c1c3c6",
"j c #c4bea1",
"q c #cbccce",
"h c #cfcbae",
"s c #d2d3d4",
"e c #d8d6bc",
"r c #dadadb",
"g c #ded7b0",
"f c #dfdbcc",
"d c #e1e0c3",
"y c #e5e4e2",
"c c #ede8bf",
"z c #f2f1f2",
"b c #f8f1ca",
"# c #fefdf6",
"a c #fff9dd",
". c None",
"................................",
"............##########..........",
"..........###abccccbaa###.......",
"........###bcddddddddcba##......",
"........#acdddeeeefddeega##.....",
".......#acddddeeehheeehhga##....",
"......#abddeddddhihjjhhhhga##...",
".....##addeddddeiihkkjeehjca#...",
".....#aceededddehedhkkhehjha##..",
"....##bceeeedhikjddhjhhehjica#..",
"....#abdeehjilmnolihhhhhjjkga#..",
"....#acdhjllpqrrsmtlihhhhhiia#..",
"....#addelonmpmnmuuvwvjjjjiib##.",
"....#aghvlppnpopmuupwxxvhhjiaa#.",
"....#ahklqussqmnsqlttlwxlejia##.",
"....#ahvonnumponqpwtpunotijjba#.",
"....yhkmnmnlovtllwwnsrqnmtvla##.",
"...zvlonppnnotwoltnrrrupnmptk#..",
"...pppmnonrqowtqqrrssuloqrptxs..",
"..ylolsqmmmltousrsnplvwtnotwxu..",
"..zvpmrmvvtwmyyrsqovwAAtvwwlAq..",
"...ovpmovtAAvnmnpnlwAAAtvwttxs..",
"....otxtABwABtwBttBAAxtxxAAAm...",
"...zCwoDAvCwACxwoxwCAwDAlCwy....",
"...qCAyrnpCAkDxikvlDxhjipDwz....",
"...utlmlrCAlcjjpkcmwvpoyCwp.....",
"..zsqnCAsuomCoqCAfhlkCAynly.....",
"..uDmmDtpozmDvpDtmoymDvmoz......",
".#CwomwoCAmCwopwoCwmpwoCwq......",
".rCAs.ymDwuowr#rmCAy#rmCAy......",
".rllz..nwp.zy#..ntl#..nwo.......",
"..##....yz......#sy...zsy......."};
