/* XPM */
static const char * icq_invisible[] = {
"16 16 31 1",
" 	c None",
".	c #006300",
"+	c #005600",
"@	c #01D200",
"#	c #01B300",
"$	c #00F900",
"%	c #007D00",
"&	c #8A8D8F",
"*	c #746F6D",
"=	c #4E4E4A",
"-	c #393935",
";	c #9A9B9E",
">	c #9091A1",
",	c #777C7B",
"'	c #2E2D24",
")	c #222318",
"!	c #3F403D",
"~	c #004C00",
"{	c #000000",
"]	c #DEDEDE",
"^	c #B7B8BA",
"/	c #C4C5C9",
"(	c #5A5B59",
"_	c #ACABAC",
":	c #D2D3D5",
"<	c #ECECEC",
"[	c #666969",
"}	c #7F8482",
"|	c #C6C7C6",
"1	c #029A00",
"2	c #A4A6A5",
"                ",
"     ... .++    ",
"    .@@#.@@#+   ",
"    .@$..+.++   ",
"  ..#%.&*=-=+++ ",
" .$$.;>=,')-!+#~",
" .#.;,=-!){)'-~~",
"  .&*]^/({{)=-~ ",
" +._:<[={{)-}=~~",
" +@++|_---'[;+1~",
" +###+<_[(*&+1%~",
"  +++@++|2_+~~~ ",
"    +##1++~1~   ",
"    ~11+ ~1%~   ",
"     ~~   ~~    ",
"                "};
