/* XPM */
static const char *jabber[]={
"16 16 7 1",
"# c #000000",
"e c #d38f10",
"c c #f0d20c",
"d c #fbdb00",
"b c #fbf900",
"a c #fefefe",
". c None",
".......##.......",
"......#ab#......",
".....#abbc#.....",
".....#abbc#.....",
".####abbbbc####.",
"#aaabbbbbbbbbdd#",
"#abbbbbbbbbbdde#",
".#ccbbbbbbbdde#.",
"..#eccbbbbdde#..",
"...#ecbbbdde#...",
"...#cbbdddde#...",
"..#cddddeddde#..",
"..#ddde##eddd#..",
"..#ede#..#ede#..",
"...###....###...",
"................"};
