/* XPM */
static const char *aim_online[]={
"16 16 47 1",
"# c #000000",
"B c #000c4c",
"L c #00153e",
"E c #00194c",
"s c #00254c",
"j c #002758",
"d c #002a72",
"g c #002b66",
"e c #0036b2",
"G c #003766",
"D c #003872",
"k c #003b7e",
"A c #003e8c",
"r c #00477e",
"Q c #00488c",
"R c #004b98",
"J c #004da4",
"C c #004fb2",
"n c #0056cc",
"I c #0058a4",
"x c #005998",
"h c #0059fe",
"F c #005cb2",
"O c #0068b2",
"H c #006bbe",
"i c #006bfe",
"o c #006ecc",
"v c #006fd8",
"S c #0073a4",
"M c #007ccc",
"w c #0080e4",
"N c #0082f2",
"K c #008ef2",
"l c #008ffe",
"P c #00a5f2",
"z c #010a3a",
"a c #02040f",
"t c #020723",
"p c #021733",
"q c #030510",
"b c #03071c",
"y c #030928",
"m c #041a37",
"c c #080a15",
"f c #090909",
"u c #090d22",
". c None",
"................",
".......#aba#....",
"......#cdedc#...",
"......fghhij#...",
"......fkhildf...",
"......#mnlop#...",
"......qrkstf##..",
".....#uvlwxgya..",
".....#zlllllAf..",
".....#BllCDEbf..",
".....fDllwFGbf..",
"...##yHlolllIt#.",
"..bbzJlKLGMllIb#",
"..ajNlKgafpOlPs#",
"..#cQRza..#tSEq#",
"...#bq#....fyf.."};
