/* XPM */
static const char *web[]={
    "16 16 8 1",
    ". c None",
    "# c #000000",
    "c c #008000",
    "b c #808000",
    "f c #808080",
    "e c #ff0000",
    "d c #ffff00",
    "a c #ffffff",
    "......#.........",
    "..aaaa##aaaaaaab",
    "..aaaa###aaaaabc",
    "..aaad#e##ada###",
    "..aada#ee#d####b",
    "..aaad#ee###e##b",
    "..aa###eeeeee#bc",
    ".#####eeeeee##bb",
    "..a##eeeeeee#abc",
    "..aa##eeeeee##bb",
    "..##d#ee####e#bc",
    "..aaa####da####b",
    "..aa####dadad##b",
    "..####bbbbbbbbcb",
    "..fb#bcbcbcbcbbb",
    "................"};
