/* XPM */
static const char *lunch[]={
"16 16 7 1",
"d c #4f4f4f",
"e c #878787",
"c c #b0b0b0",
"b c #b4b4b4",
"# c #c40000",
"a c #eeeeee",
". c None",
"................",
"................",
"................",
"................",
"....####........",
"..##aaaa##......",
".#aaaabaaa#.....",
".#acaccaca#.....",
"#aaaaaaaaaa#....",
"#adddddddda#....",
"#aadeeeedaa#....",
"#aaaddddaaa#....",
".#aaaaaaaa#.....",
".#aaaaaaaa#.....",
"..##aaaa##......",
"....####........"};
