/* XPM */
static const char *onback[]={
"16 16 4 1",
"b c #1c1c1c",
"# c #c40000",
"a c #eeeeee",
". c None",
"................",
"................",
"................",
"................",
"....####........",
"..##aaaa##......",
".#aaaaaaaa#.....",
".#aaabaaaa#.....",
"#aaaabaaaaa#....",
"#aaaabaaaaa#....",
"#abbbbaaaaa#....",
"#aaaaaaaaaa#....",
".#aaaaaaaa#.....",
".#aaaaaaaa#.....",
"..##aaaa##......",
"....####........"};
