/* XPM */
static const char *main[]={
    "16 16 15 1",
    "# c #000000",
    "a c #000083",
    "m c #0000ff",
    "l c #008100",
    "j c #008183",
    "h c #00ff00",
    "f c #00ffff",
    "d c #830000",
    "e c #838100",
    "b c #838183",
    "i c #c5c2c5",
    "k c #ff0000",
    ". c None",
    "g c #ffff00",
    "c c #ffffff",
    ".........bb.....",
    "........#gg#....",
    ".......#gggg#...",
    "......#gg#ggg#..",
    ".....#gg#e#ggg#.",
    "....#gggg#e#ggg#",
    "...#gggggg#ggg##",
    "..#gggggggggg#c#",
    ".##ggggggggg#ci#",
    ".#c#ggggggg#ci#.",
    ".#ic#ggggg#ci#..",
    "..#ic#ggg#ci#...",
    "...#ic#g#ci#....",
    "....#ic#ci#.....",
    ".....#ibi#......",
    "......#b#......."};
