/* XPM */
static const char *wpager[]={
    "16 16 8 1",
    "# c #000000",
    "a c #00b900",
    "c c #00ff00",
    "f c #ff0000",
    ". c None",
    "e c #ff5500",
    "d c #ffff00",
    "b c #ffffff",
    "................",
    "................",
    "................",
    "...##########...",
    "..#aaaaaaaaaa#..",
    ".#bcccccccccca#.",
    ".#bcccccccccca#.",
    ".#bbbbbbbbbbba#.",
    "..############..",
    "..###########...",
    ".#dd#dd#ddddd#..",
    ".#de#de#dffff#..",
    "..###########...",
    "................",
    "................",
    "................"};
