/* XPM */
static const char *encoding[]={
"16 16 6 1",
"c c #15a52f",
"a c #4f4fff",
"d c #f6f6ff",
"b c #ff6e3e",
"# c #fff6f6",
". c None",
"................",
".#.........aaaa.",
".bb......aa..aa.",
"...b.....aa..aa.",
".bbbb......aaaa.",
"b...bb...aa..aa.",
"..bbbb...aa..aa.",
".bb.bb...aa..aa.",
"bb..bb..c.......",
"bb..bbcccccd....",
".bbb.bc...cc....",
".....c.cccc.....",
".........c......",
"........c.......",
".....cccccccc...",
"........c......."};
