/* XPM */
static const char *fax[]={
    "16 16 7 1",
    "# c #000000",
    "e c #808000",
    "a c #808080",
    "d c #c0c0c0",
    ". c None",
    "c c #ffff00",
    "b c #ffffff",
    "......#abbba#...",
    "....##bbbabba#..",
    "...#cc#bbbabba#.",
    "..#cddc#bbbba#..",
    ".#cceedc#aba#...",
    "##ceddedc#a#e##.",
    "#e#ceedecc#eeee#",
    "#ae#cdeccc#ecce#",
    "#cae#cccc#ecbb##",
    ".#cae#cc#ecb##e#",
    "..#cae##ecb##ee#",
    "...#cae#cb##eee#",
    "....#cde###eee#.",
    ".....#cde#eee#..",
    "......#cd#ee#...",
    ".......#c###...."};
