/* XPM */
static const char * file[] = {
"16 16 22 1",
" 	c None",
".	c #666E93",
"+	c #53529B",
"@	c #7C7EB5",
"#	c #B1B2B3",
"$	c #6A6BC7",
"%	c #9292C6",
"&	c #ECECEC",
"*	c #ECEDF2",
"=	c #3E437D",
"-	c #C9C9C9",
";	c #6060B1",
">	c #B1B2C8",
",	c #A7A6BD",
"'	c #A4A6A5",
")	c #E2E3EB",
"!	c #3E3F9D",
"~	c #F2F2F6",
"{	c #D3D4DD",
"]	c #E4E4EC",
"^	c #F1F1F1",
"/	c #9A9B9E",
"                ",
"                ",
" .+@########@++ ",
" .$%&*******%$= ",
" .$%*------&%$= ",
" .$%********%$= ",
" .$%*------*%$= ",
" .$%*******&%$= ",
" .$$%%%%%%%%$$= ",
" .$$$$$$$$$$$$= ",
" .$$;>%%,')!!$= ",
" .$$;>;@#~)!!$= ",
" .$$;>;@{~]!!$= ",
" .$$;>@@~^)!!$= ",
"  ===//////==== ",
"                "};
