/* XPM */
static const char *phone[]={
    "16 16 6 1",
    ". c None",
    "# c #000000",
    "d c #000080",
    "b c #808080",
    "c c #c0c0c0",
    "a c #ffff00",
    "................",
    "...##########...",
    "..#aabaaaabaa#..",
    ".#aaaa####aaaa#.",
    ".#aaaa#bb#aaaa#.",
    ".#####aaaa#####.",
    "...#caaaaaac#...",
    "...#aaa##aaa#...",
    "..#aaa#aa#aaa#..",
    "..#aaa#aa#aaa#..",
    "..#aaaa##aaaa#..",
    "..#aaaaaaaaaa#..",
    "..##aaaaaaaa##..",
    "...d########d...",
    "....dddddddd....",
    "................"};
