/* XPM */
static const char *p_redo[]={
"16 16 19 1",
"# c #024266",
"q c #1b5f8e",
"p c #34769f",
"o c #4182a7",
"n c #4e8eb0",
"k c #5696b5",
"m c #5a9ab9",
"l c #5c9cbb",
"i c #67a6c2",
"g c #74b2ca",
"h c #75b1ca",
"d c #81bed3",
"f c #84bfd3",
"c c #8ac4d7",
"e c #91c8d9",
"j c #98ccdd",
"b c #a3d5e3",
"a c #aedde9",
". c None",
"................",
"................",
".....####.......",
"...##aaaa##.....",
"..#abcdddef#..##",
".#aggggggggg##a#",
".#hi####iiiiiji#",
"#kl#....#mmmmmm#",
"#n#......#nnnnn#",
"#o#......#ooooo#",
".##.....#pppppp#",
".#p#....#######.",
"..#q#...........",
"...###..........",
".....###........",
"................"};
