/* XPM */
static const char * smile6[] = {
"21 21 308 2",
"  	c None",
". 	c #CBC5A0",
"+ 	c #C9C07B",
"@ 	c #CABF6A",
"# 	c #CABE6A",
"$ 	c #C9BF7C",
"% 	c #CCC5A1",
"& 	c #CAC273",
"* 	c #D2C321",
"= 	c #DACA0F",
"- 	c #DFCD0F",
"; 	c #E0CC0F",
"> 	c #DEC90F",
", 	c #DBC412",
"' 	c #D4BD0F",
") 	c #CBB524",
"! 	c #C8BC75",
"~ 	c #DAD3A6",
"{ 	c #D1C625",
"] 	c #E1D20F",
"^ 	c #EADA0F",
"/ 	c #EFDD0F",
"( 	c #F1DD12",
"_ 	c #F2DC12",
": 	c #F0D912",
"< 	c #EDD412",
"[ 	c #E7CD12",
"} 	c #DFC512",
"| 	c #D4BA15",
"1 	c #C8B12E",
"2 	c #CDC6A9",
"3 	c #CBC69D",
"4 	c #D7CD12",
"5 	c #E9DB07",
"6 	c #F3E30F",
"7 	c #F9E80F",
"8 	c #FCE90F",
"9 	c #FFE912",
"0 	c #FEE712",
"a 	c #FDE412",
"b 	c #F9DF15",
"c 	c #F4D915",
"d 	c #EDD212",
"e 	c #E4C818",
"f 	c #D9BC15",
"g 	c #C9AF1F",
"h 	c #CCC4A1",
"i 	c #D6CF50",
"j 	c #B1A911",
"k 	c #F7E90C",
"l 	c #8C8803",
"m 	c #333300",
"n 	c #8C8904",
"o 	c #FFF215",
"p 	c #FFF015",
"q 	c #FFED12",
"r 	c #FFE715",
"s 	c #8B8405",
"t 	c #888106",
"u 	c #E5C718",
"v 	c #A48F1B",
"w 	c #CAB759",
"x 	c #D0C842",
"y 	c #A39B04",
"z 	c #F7EA0C",
"A 	c #4F4D01",
"B 	c #A8A700",
"C 	c #CCCC00",
"D 	c #4F4E02",
"E 	c #FFF615",
"F 	c #4F4C02",
"G 	c #A7A600",
"H 	c #4C4803",
"I 	c #E2C318",
"J 	c #947E0E",
"K 	c #C4B04E",
"L 	c #CDC8A5",
"M 	c #DED507",
"N 	c #ABA204",
"O 	c #FFF20C",
"P 	c #333333",
"Q 	c #595959",
"R 	c #000000",
"S 	c #FFFA15",
"T 	c #FFF715",
"U 	c #E9C918",
"V 	c #998310",
"W 	c #C8AB15",
"X 	c #CDC5A8",
"Y 	c #CFC95B",
"Z 	c #E9E007",
"` 	c #AFA708",
" .	c #FFF70C",
"..	c #4F4E01",
"+.	c #CDCDB8",
"@.	c #FFFFFF",
"#.	c #CDCDB9",
"$.	c #4F4F04",
"%.	c #FFFF25",
"&.	c #FFFD21",
"*.	c #4F4D03",
"=.	c #CDCCB9",
"-.	c #4E4903",
";.	c #EECD18",
">.	c #9D8710",
",.	c #CFB015",
"'.	c #C4B365",
").	c #D5CF28",
"!.	c #EFE507",
"~.	c #F2E947",
"{.	c #BFBC14",
"].	c #FFFF0C",
"^.	c #8C8C20",
"/.	c #333319",
"(.	c #8C8C09",
"_.	c #FFFF4C",
":.	c #FFFF63",
"<.	c #FFFF55",
"[.	c #FFFF32",
"}.	c #8C8923",
"|.	c #8C8506",
"1.	c #FBDA1A",
"2.	c #B59E1D",
"3.	c #DFC850",
"4.	c #D4B518",
"5.	c #C3AA39",
"6.	c #DBD311",
"7.	c #F2E807",
"8.	c #FFF40C",
"9.	c #FFFC0C",
"0.	c #FFFF12",
"a.	c #FFFF1A",
"b.	c #FFFF44",
"c.	c #FFFF8C",
"d.	c #FFFFB6",
"e.	c #FFFF9B",
"f.	c #FFFF57",
"g.	c #FFF625",
"h.	c #FFEC18",
"i.	c #FFE41A",
"j.	c #FCDB1A",
"k.	c #F2D118",
"l.	c #E7C518",
"m.	c #D6B718",
"n.	c #C2A61E",
"o.	c #DCD508",
"p.	c #F3E907",
"q.	c #FFF50C",
"r.	c #FFFF1D",
"s.	c #FFFF51",
"t.	c #FFFFA7",
"u.	c #FFFFD9",
"v.	c #FFFFB7",
"w.	c #FFFF66",
"x.	c #FFF729",
"y.	c #FFEB18",
"z.	c #FEA564",
"A.	c #C2A416",
"B.	c #DBD313",
"C.	c #F1E707",
"D.	c #FFF30C",
"E.	c #FFFB0C",
"F.	c #FFFF18",
"G.	c #FFFF40",
"H.	c #FFFF82",
"I.	c #FFFFA8",
"J.	c #FFFF8E",
"K.	c #FFFF50",
"L.	c #FFF423",
"M.	c #FFAA63",
"N.	c #D74B08",
"O.	c #D64808",
"P.	c #F1D018",
"Q.	c #E5C418",
"R.	c #D5B618",
"S.	c #C2A520",
"T.	c #D6CF2B",
"U.	c #EEE407",
"V.	c #FDF10C",
"W.	c #FFF80C",
"X.	c #FFFD0C",
"Y.	c #FFFF23",
"Z.	c #FFFF42",
"`.	c #FFFF56",
" +	c #FFFF48",
".+	c #FFFB2D",
"++	c #FFAB64",
"@+	c #D74D07",
"#+	c #FFF4B2",
"$+	c #D54708",
"%+	c #E2C218",
"&+	c #D2B315",
"*+	c #C1AA39",
"=+	c #D1CB5F",
"-+	c #E8DE07",
";+	c #F8EB0C",
">+	c #FFF90C",
",+	c #FFFB12",
"'+	c #FFFD12",
")+	c #FFFE1D",
"!+	c #FFF81F",
"~+	c #D75008",
"{+	c #D74E07",
"]+	c #FFF6B1",
"^+	c #817736",
"/+	c #D44608",
"(+	c #E9CA18",
"_+	c #DDBD18",
":+	c #CDAE15",
"<+	c #C4B369",
"[+	c #D1CCAA",
"}+	c #DED508",
"|+	c #F0E507",
"1+	c #FBEE0C",
"2+	c #D75104",
"3+	c #D75206",
"4+	c #D75306",
"5+	c #D75207",
"6+	c #D75107",
"7+	c #D75007",
"8+	c #FFF9B1",
"9+	c #FFF7B1",
"0+	c #968C48",
"a+	c #524808",
"b+	c #D24508",
"c+	c #E3C518",
"d+	c #D6B818",
"e+	c #C5A816",
"f+	c #CEC6AC",
"g+	c #D2CB49",
"h+	c #E6DB07",
"i+	c #F2E507",
"j+	c #D64E04",
"k+	c #D75005",
"l+	c #827E33",
"m+	c #FFFAB0",
"n+	c #FFFAB1",
"o+	c #827D33",
"p+	c #FFF8B0",
"q+	c #968E48",
"r+	c #958C48",
"s+	c #524907",
"t+	c #D34608",
"u+	c #BDB278",
"v+	c #DCBE15",
"w+	c #CDB015",
"x+	c #C3B055",
"y+	c #D7CE1C",
"z+	c #E7DB07",
"A+	c #F1E307",
"B+	c #D54D05",
"C+	c #D64E05",
"D+	c #D74E05",
"E+	c #D74E06",
"F+	c #D74D06",
"G+	c #D74C06",
"H+	c #D64A07",
"I+	c #D44807",
"J+	c #D24606",
"K+	c #BDB378",
"L+	c #DEC015",
"M+	c #D2B515",
"N+	c #C4AA29",
"O+	c #D0CCA6",
"P+	c #D6CC16",
"Q+	c #E3D607",
"R+	c #ECDD0F",
"S+	c #F1E10F",
"T+	c #F4E10F",
"U+	c #FCA762",
"V+	c #FBA662",
"W+	c #FBA562",
"X+	c #FAA362",
"Y+	c #F8A162",
"Z+	c #E4CA12",
"`+	c #DCC115",
" @	c #D2B615",
".@	c #C4AB20",
"+@	c #CDC6A8",
"@@	c #D1CCAE",
"#@	c #D2C72E",
"$@	c #DDCE0F",
"%@	c #E3D30F",
"&@	c #E7D60F",
"*@	c #E9D612",
"=@	c #E9D412",
"-@	c #E7D10F",
";@	c #E4CC12",
">@	c #DEC512",
",@	c #D6BE12",
"'@	c #CDB315",
")@	c #C4B037",
"!@	c #CFC8AF",
"~@	c #CEC77F",
"{@	c #D0C32C",
"]@	c #D5C50C",
"^@	c #D8C60F",
"/@	c #D9C50F",
"(@	c #D6C20F",
"_@	c #CDB70F",
":@	c #C7B32E",
"<@	c #C9BE81",
"[@	c #D0CBAD",
"}@	c #CDC487",
"|@	c #CCC276",
"1@	c #CBC176",
"2@	c #CCC288",
"3@	c #CFC9AD",
"              . + @ # $ %                 ",
"          & * = - ; > , ' ) !             ",
"      ~ { ] ^ / ( _ : < [ } | 1 2         ",
"    3 4 5 6 7 8 9 0 a b c d e f g h       ",
"    i j k l m n o p q r s m t u v w       ",
"  x y z A B C B D E o F B C G H I J K     ",
"L M N O P Q P R R S T P Q P R R U V W X   ",
"Y Z `  ...+.@.#.$.%.&.*.#.@.=.-.;.>.,.'.  ",
").!.~.{.].^./.(._.:.<.[.}./.|.1.2.3.4.5.  ",
"6.7.8.9.].0.a.b.c.d.e.f.g.h.i.j.k.l.m.n.  ",
"o.p.q.9.].0.r.s.t.u.v.w.x.y.i.z.k.l.m.A.  ",
"B.C.D.E.].0.F.G.H.I.J.K.L.M.N.O.P.Q.R.S.  ",
"T.U.V.W.X.0.0.Y.Z.`. +.+++@+#+$+;.%+&+*+  ",
"=+-+;+8.>+,+'+'+)+&.!+~+{+]+^+/+(+_+:+<+  ",
"[+}+|+1+2+3+4+4+5+6+7+8+9+0+a+b+c+d+e+f+  ",
"  g+h+i+j+k+l+m+n+o+p+q+r+s+t+u+v+w+x+    ",
"    y+z+A+B+C+D+E+F+G+H+I+J+K+L+M+N+      ",
"    O+P+Q+R+S+T+U+V+W+X+Y+Z+`+ @.@+@      ",
"      @@#@$@%@&@*@=@-@;@>@,@'@)@!@        ",
"          ~@{@]@^@/@(@' _@:@<@            ",
"              [@}@|@1@2@3@                "};
