/* XPM */
static const char *urgent[]={
"16 16 2 1",
"b c #ff0000",
". c None",
"................",
".....bbbbbb.....",
"......bbbb......",
"......bbbb......",
"......bbbb......",
".......bb.......",
".......bb.......",
".......bb.......",
".......bb.......",
".......bb.......",
"................",
"................",
"......bbbb......",
"......bbbb......",
".......bb.......",
"................"};
