/* XPM */
static const char *yahoo[]={
"16 16 64 1",
"9 c #510606",
"X c #551300",
"W c #591500",
"Y c #5a1600",
"p c #6a1800",
"Z c #6c0808",
"1 c #6f190c",
"i c #803c22",
"E c #821e00",
"5 c #8c140b",
"P c #8c5c24",
"v c #902f0d",
"# c #913e1d",
"R c #932300",
"M c #955009",
"H c #982200",
"b c #993e1b",
"C c #a02700",
"A c #a62800",
"w c #a82f09",
"q c #a9411d",
"Q c #aa0d0d",
"D c #aa2b00",
"B c #af2c02",
"S c #b12c00",
"V c #b40d0d",
"I c #b78b78",
"e c #b86240",
"O c #b92800",
"a c #b94d23",
"g c #b9552e",
"2 c #bd1305",
"d c #c06542",
"4 c #c31909",
"f c #c3623b",
"K c #c63000",
"z c #c83e0d",
"T c #cb2f00",
"x c #ce3401",
"U c #cf5a13",
"N c #d03400",
"3 c #d11907",
"j c #d26f47",
"c c #d36e46",
"l c #d76336",
"J c #dc3600",
"G c #e03500",
"n c #e05825",
"m c #e06a3c",
"t c #e4622f",
"L c #e51111",
"F c #e63800",
"o c #e73300",
"s c #e76331",
"6 c #e82808",
"8 c #ee2109",
"r c #ee4914",
"0 c #eee3ee",
"y c #f2561b",
"u c #f75f27",
"7 c #fe3720",
"h c #fe7339",
"k c #fea074",
". c None",
"...........#a...",
"bcdef......gh...",
".ijkl..mnopqr...",
"...st..uv..wx...",
"....yzAB...CD...",
"....EFG....HI...",
".....JK....LM...",
".....NOP...LQ...",
"...RSTUVV..LQ...",
"...WXYZZZ..LQ...",
"...........QQ...",
".........0......",
"........12345...",
"........Q6789...",
"........QQ999...",
"................"};
