/* XPM */
static const char *dnd[]={
"16 16 13 1",
"i c #410519",
"f c #770602",
"# c #920b38",
"a c #980201",
"b c #b40000",
"k c #ba3c00",
"j c #bd0f49",
"h c #d10100",
"d c #dc4e38",
"c c #e37c6e",
"e c #fd2424",
"g c #ffffaa",
". c None",
"................",
"................",
"................",
"......##aaa.....",
".....bcdeeef....",
"....bcgeeegef...",
"....addgegehf...",
"....aeeegehbi...",
"....ieegegbbi...",
"....ijgehkgai...",
".....aehbb#i....",
"......fafii.....",
"................",
"................",
"................",
"................"};
