/* XPM */
static const char * btn_more[] = {
"12 16 2 1",
" 	c None",
".	c #000000",
"            ",
"            ",
"            ",
"            ",
"            ",
"            ",
"            ",
"            ",
"            ",
"            ",
"            ",
"            ",
" ..  ..  .. ",
" ..  ..  .. ",
"            ",
"            "};
