/* XPM */
static const char *msn[]={
"16 16 71 2",
".Q c #003399",
".L c #003f7f",
".W c #003f8c",
".P c #005f3f",
".m c #0072bf",
".A c #007fcc",
".V c #008c0c",
".p c #008ce5",
".I c #008cf2",
".K c #009900",
".J c #009919",
".C c #009972",
".B c #0099cc",
".O c #0099d8",
".q c #0099f2",
".l c #0099ff",
".r c #014067",
".f c #020202",
".v c #025b9b",
".n c #030303",
".0 c #031304",
".b c #040404",
".g c #050505",
".U c #053838",
".u c #05456b",
".s c #060606",
".D c #0c338c",
".i c #0f64cc",
"#c c #116c17",
".1 c #12851a",
".2 c #19b219",
"#d c #1e3f07",
".Z c #282802",
".T c #353502",
"#e c #37720d",
".4 c #3f8c4c",
"#. c #4d9f12",
".N c #4e1b02",
".o c #5d1004",
".w c #5d2a2a",
".3 c #62cc16",
".7 c #66cc33",
"## c #675a01",
".M c #725959",
".9 c #736701",
".# c #750b07",
".5 c #7f7f4c",
".a c #850c08",
".8 c #99b219",
".h c #9b2802",
"#b c #9b7402",
".H c #9c1c03",
".X c #a58c33",
".j c #a72802",
".e c #b8110b",
".z c #d83300",
"#a c #d8b200",
".t c #e53300",
".E c #e58c0c",
".6 c #e5bf00",
".R c #f2990c",
".d c #fb170f",
".c c #ff170f",
".k c #ff3300",
".x c #ff5900",
".G c #ff6600",
".y c #ff7f00",
".F c #ff9900",
".S c #ffa500",
".Y c #ffcc00",
"Qt c None",
"QtQtQtQtQtQtQtQtQtQtQt.#.a.#.#Qt",
"QtQtQtQtQtQtQtQtQtQt.b.#.c.d.e.#",
"Qt.f.fQtQtQtQtQtQt.g.h.c.c.c.d.b",
".b.i.i.i.fQtQtQt.b.j.c.c.c.k.k.a",
".i.l.l.m.i.bQt.n.o.k.k.k.k.k.k.a",
".i.p.l.l.q.r.b.s.t.k.k.k.k.k.k.a",
".n.u.l.l.l.l.v.w.x.y.y.y.x.k.z.a",
"Qt.i.A.l.l.B.C.D.E.F.F.F.F.G.H.a",
"Qt.n.i.I.l.J.K.L.M.F.F.F.F.F.NQt",
"QtQt.n.i.O.K.K.P.Q.R.F.F.F.S.TQt",
"QtQtQt.b.U.K.K.V.W.X.S.F.S.Y.ZQt",
"QtQtQtQt.0.1.2.3.4.5.Y.Y.Y.6.gQt",
"QtQtQtQt.f.1.7.3.3.8.Y.Y.Y.9.nQt",
"QtQtQtQtQt.b#..3.3#.###a#b.gQtQt",
"QtQtQtQtQtQt.b#.#.#c.n.b.bQtQtQt",
"QtQtQtQtQtQtQt#d#e#dQtQtQtQtQtQt"};
