/* XPM */
static const char *na[]={
"16 16 29 1",
"q c #000000",
"y c #980201",
"d c #a21611",
"c c #b40000",
"A c #c6c7c6",
"z c #cbcccd",
"x c #d0cfd0",
"b c #d10100",
"# c #d21c16",
"v c #d2d3d5",
"e c #d4f8f0",
"t c #d8d8d9",
"u c #dd0000",
"p c #dedede",
"f c #e1fdff",
"o c #e2e2e2",
"n c #e6e6e7",
"w c #e8e8eb",
"m c #ececec",
"l c #f1edef",
"s c #f1f1f1",
"j c #f2f2f6",
"a c #f40000",
"i c #f5f5f7",
"k c #f7f0f0",
"r c #f7f6f4",
"h c #f8f8fa",
"g c #fafafb",
". c None",
"................",
"................",
"................",
"................",
".##aaaaaabbbccc.",
"deefgghijklmnopc",
"#efhqriqsmqqoptc",
"uefhqqjqmqnoqtvc",
"uehrqjqqwqqqqvxy",
"#eriqsmqnqptqxzc",
"#fissmwnoptvxzAy",
".##cbbcbccccccy.",
"................",
"................",
"................",
"................"};
