/* XPM */
static const char * userunknown[] = {
"15 14 9 1",
" 	c None",
".	c #585701",
"+	c #727004",
"@	c #F9EF08",
"#	c #939300",
"$	c #E0DB05",
"%	c #C9C602",
"&	c #FDD31E",
"*	c #E3B422",
"    .+. ...    ",
"   +@@#.@@#.   ",
"   +@$#.@$#.   ",
" .+%+#+..#.@.. ",
".@$%#+@@&.@$%#.",
".$$#+.@&&..%##.",
" ...$.&&*.@... ",
".@@$%#...@@$%#.",
".@$$%.@.@.$%%#.",
".$%%.@$.@@.%##.",
" ...$$%.$$%... ",
"   .%%#.%%#.   ",
"   .##. .##.   ",
"    ..   ..    "};
